<?xml version="1.0" encoding="UTF-8" standalone="no"?>
<!-- Created with Inkscape (http://www.inkscape.org/) -->

<svg
   xmlns:dc="http://purl.org/dc/elements/1.1/"
   xmlns:cc="http://creativecommons.org/ns#"
   xmlns:rdf="http://www.w3.org/1999/02/22-rdf-syntax-ns#"
   xmlns:svg="http://www.w3.org/2000/svg"
   xmlns="http://www.w3.org/2000/svg"
   version="1.1"
   width="55.9772pt"
   height="56pt"
   id="svg2">
  <metadata
     id="metadata43">
    <rdf:RDF>
      <cc:Work
         rdf:about="">
        <dc:format>image/svg+xml</dc:format>
        <dc:type
           rdf:resource="http://purl.org/dc/dcmitype/StillImage" />
        <dc:title></dc:title>
      </cc:Work>
    </rdf:RDF>
  </metadata>
  <defs
     id="defs4" />
  <g
     id="layer1">
    <rect
       width="45"
       height="8.5051775"
       x="0"
       y="0"
       transform="translate(273.047,155.072)"
       id="hint-rotation-angle"
       style="fill:#5d992d" />
    <g
       transform="translate(372.143,44.375)"
       id="pause"
       style="fill:none">
      <rect
         width="98"
         height="98"
         rx="49"
         ry="49"
         x="0"
         y="0"
         transform="translate(0.625,0.625)"
         id="rect2400"
         style="fill:#000000;fill-opacity:0" />
      <rect
         width="9"
         height="18"
         rx="4.2552381"
         ry="5.1331477"
         x="0"
         y="0"
         transform="matrix(0,1,-1,0,85.4917,45.2054)"
         id="rect2408"
         style="fill:#000000;fill-opacity:0.19607843" />
      <rect
         width="9"
         height="18"
         rx="4.2552381"
         ry="5.1331477"
         x="0"
         y="0"
         transform="matrix(0,1,-1,0,29.2968,45.2054)"
         id="rect2427"
         style="fill:#000000;fill-opacity:0.19607843" />
      <rect
         width="9"
         height="18"
         rx="4.2552381"
         ry="5.1331477"
         x="0"
         y="0"
         transform="matrix(-1,0,0,-1,52.8943,86.8028)"
         id="rect2429"
         style="fill:#000000;fill-opacity:0.19607843" />
      <rect
         width="9"
         height="18"
         rx="4.2552381"
         ry="5.1331477"
         x="0"
         y="0"
         transform="matrix(-1,0,0,-1,52.8943,30.6079)"
         id="rect2431"
         style="fill:#000000;fill-opacity:0.19607843" />
      <path
         d="m 4.9375,0 0,1.9375 c 0,0.58218 -0.15766,1.14051 -0.5,1.59375 C 4.09516,3.98449 3.516,4.34375 2.84375,4.34375 L 0,4.34375 C 0.0662,5.60226 0.62822,6.94072 1.6875,8 l 5.46875,5.4687 c 2.01084,2.0109 4.98935,2.292 6.65625,0.625 l 0.3438,-0.3749 c 1.6669,-1.667 1.3858,-4.6142 -0.625,-6.62505 L 8.0625,1.625 C 7.15257,0.71507 6.02856,0.180366 4.9375,0 z"
         transform="translate(60.6552,62.0312)"
         id="rect2433"
         style="fill:#000000;fill-opacity:0.19607843" />
      <path
         d="M 3.71254,0.0229343 C 2.84187,0.112404 2.05639,0.491584 1.43129,1.11668 L 1.08754,1.46043 c -1.666925,1.66694 -1.385845,4.61416 0.625,6.625 l 5.46875,5.46877 c 0.90993,0.9099 2.00269,1.4446 3.09371,1.625 l 0,-2.625 c 0,-0.5822 0.189,-1.1405 0.5313,-1.5938 0.3423,-0.4532 0.9215,-0.8125 1.5937,-0.8125 l 2.7188,0 C 14.913,9.10831 14.3914,8.04558 13.525,7.17918 L 8.05629,1.71043 C 6.79951,0.453656 5.16366,-0.126185 3.71254,0.0229343 z"
         transform="translate(20.9114,22.1958)"
         id="rect2435"
         style="fill:#000000;fill-opacity:0.19607843" />
      <path
         d="M 10.275,0 C 9.18399,0.180366 8.09123,0.71507 7.1813,1.625 L 1.71255,7.09375 c -2.010846,2.01085 -2.291946,4.95805 -0.625,6.62505 l 0.34375,0.3749 c 1.66693,1.667 4.61416,1.3859 6.625,-0.625 L 13.525,8 c 1.0593,-1.05928 1.6213,-2.39774 1.6875,-3.65625 l -2.8125,0 c -0.6722,0 -1.2514,-0.35926 -1.5937,-0.8125 C 10.464,3.07801 10.275,2.51968 10.275,1.9375 z"
         transform="translate(20.9114,62.0312)"
         id="rect2437"
         style="fill:#000000;fill-opacity:0.19607843" />
      <path
         d="M 10.5,0.0195183 C 9.30007,0.131723 8.06792,0.701595 7.0625,1.70702 L 1.59375,7.17577 C 0.72736,8.04216 0.20582,9.10489 0,10.1445 l 2.75,0 c 0.67225,0 1.25141,0.3593 1.59375,0.8125 0.34234,0.4533 0.5,1.0116 0.5,1.5938 l 0,2.625 c 1.09106,-0.1804 2.21507,-0.7151 3.125,-1.625 L 13.4375,8.08202 c 2.0108,-2.01085 2.2919,-4.95807 0.625,-6.625 L 13.7188,1.11327 C 12.8853,0.279801 11.6999,-0.0926867 10.5,0.0195183 z"
         transform="translate(60.7489,22.1992)"
         id="rect2439"
         style="fill:#000000;fill-opacity:0.19607843" />
      <g
         transform="translate(30.5614,31.7187)"
         id="g3428"
         style="fill:none">
        <rect
           width="9"
           height="31.744974"
           rx="0.95188767"
           ry="1.2602541"
           x="0"
           y="0"
           transform="matrix(-1,0,0,-1,10.7902,33.5174)"
           id="rect3408"
           style="fill:#000000;fill-opacity:0.49803922" />
        <path
           d="M 2.125,0 C 1.45275,0 0.87359,0.359259 0.53125,0.8125 0.18891,1.26574 0,1.82407 0,2.40625 L 0,31.625 c 0,0.5822 0.18891,1.1405 0.53125,1.5938 0.34234,0.4532 0.9215,0.8125 1.59375,0.8125 l 7.09375,0 c 0.67225,0 1.25145,-0.3593 1.59375,-0.8125 0.3423,-0.4533 0.5,-1.0116 0.5,-1.5938 l 0,-29.21875 c 0,-0.58218 -0.1577,-1.14051 -0.5,-1.59375 C 10.4702,0.359259 9.891,-1.99999e-6 9.21875,0 z m 0,1.15625 7.09375,0 c 0.52735,0 0.93745,0.55182 0.93745,1.25 l 0,29.21875 c 0,0.6982 -0.4101,1.2813 -0.93745,1.2813 l -7.09375,0 c -0.52735,0 -0.96875,-0.5831 -0.96875,-1.2813 l 0,-29.21875 c 0,-0.69818 0.4414,-1.25 0.96875,-1.25 z"
           transform="translate(0.625,0.625)"
           id="rect3412"
           style="fill:#ffffff;fill-opacity:0.49803922" />
      </g>
      <g
         transform="translate(53.6469,31.7187)"
         id="g3432"
         style="fill:none">
        <rect
           width="9"
           height="31.744974"
           rx="0.95188767"
           ry="1.2602541"
           x="0"
           y="0"
           transform="matrix(-1,0,0,-1,10.7901,33.5174)"
           id="rect3434"
           style="fill:#000000;fill-opacity:0.49803922" />
        <path
           d="M 2.125,0 C 1.45275,0 0.87359,0.359259 0.53125,0.8125 0.18891,1.26574 0,1.82407 0,2.40625 L 0,31.625 c 0,0.5822 0.18891,1.1405 0.53125,1.5938 0.34234,0.4532 0.9215,0.8125 1.59375,0.8125 l 7.09375,0 c 0.67225,0 1.25145,-0.3593 1.59375,-0.8125 0.3423,-0.4533 0.5,-1.0116 0.5,-1.5938 l 0,-29.21875 c 0,-0.58218 -0.1577,-1.14051 -0.5,-1.59375 C 10.4702,0.359259 9.891,-1.99999e-6 9.21875,0 z m 0,1.15625 7.09375,0 c 0.52735,0 0.93745,0.55182 0.93745,1.25 l 0,29.21875 c 0,0.6982 -0.4101,1.2813 -0.93745,1.2813 l -7.09375,0 c -0.52735,0 -0.96875,-0.5831 -0.96875,-1.2813 l 0,-29.21875 c 0,-0.69818 0.4414,-1.25 0.96875,-1.25 z"
           transform="translate(0.625,0.625)"
           id="path3436"
           style="fill:#ffffff;fill-opacity:0.49803922" />
      </g>
    </g>
    <text
       x="0"
       y="30"
       transform="translate(1496.48,74.4019)"
       id="text4023"
       style="font-size:11.875px;fill:#000000;font-family:Lato">
      <tspan
         id="tspan25" />
    </text>
    <g
       id="g4196"
       style="fill:none" />
    <g
       transform="translate(-87.625,-1.625)"
       id="paused"
       style="fill:none">
      <rect
         width="70"
         height="70"
         x="0"
         y="0"
         transform="translate(0.625,0.625)"
         id="rect3786"
         style="opacity:0;fill:#5d992d;fill-rule:evenodd" />
      <g
         transform="translate(5,5)"
         id="g3780"
         style="fill:none">
        <path
           d="M 30,0 C 13.4315,0 0,13.4315 0,30 0,46.5685 13.4315,60 30,60 46.5685,60 60,46.5685 60,30 60,13.4315 46.5685,0 30,0 z m 0,5 C 43.8071,5 55,16.1929 55,30 55,43.8071 43.8071,55 30,55 16.1929,55 5,43.8071 5,30 5,16.1929 16.1929,5 30,5 z"
           transform="translate(0.625,0.625)"
           id="path3749"
           style="fill:#28ae95;fill-opacity:1;fill-rule:evenodd" />
        <path
           d="M 10,0 C 4.47715,0 0,4.47715 0,10 0,15.5228 4.47715,20 10,20 15.5229,20 20,15.5228 20,10 20,4.47715 15.5229,0 10,0 z m 0,3 c 3.866,0 7,3.13401 7,7 0,3.866 -3.134,7 -7,7 C 6.13401,17 3,13.866 3,10 3,6.13401 6.13401,3 10,3 z"
           transform="translate(20.625,20.625)"
           id="path3776"
           style="fill:#28ae95;fill-opacity:1;fill-rule:evenodd" />
      </g>
    </g>
    <rect
       width="9.9999981"
       height="5"
       x="0"
       y="0"
       transform="translate(-5,-15)"
       id="hint-rotation-angle-8"
       style="fill:#5d992d" />
    <g
       transform="translate(-0.625,-0.625)"
       id="busywidget"
       style="fill:none">
      <rect
         width="70"
         height="70"
         x="0"
         y="0"
         transform="translate(0.625,0.625)"
         id="rect2863"
         style="opacity:0;fill:#5d992d;fill-rule:evenodd" />
      <g
         transform="translate(5,5)"
         id="g2865"
         style="fill:none">
        <path
           d="M 30,0 C 13.4315,0 0,13.4315 0,30 0,46.5685 13.4315,60 30,60 46.5685,60 60,46.5685 60,30 60,13.4315 46.5685,0 30,0 z m 0,5 C 43.8071,5 55,16.1929 55,30 55,43.8071 43.8071,55 30,55 16.1929,55 5,43.8071 5,30 5,16.1929 16.1929,5 30,5 z"
           transform="translate(0.625,0.625)"
           id="path2867"
           style="fill:#28ae95;fill-opacity:1;fill-rule:evenodd" />
        <path
           d="M 10,18 C 6.13401,18 3,14.866 3,11 3,7.13401 6.13401,3 10,3 13.866,3 15.5229,0 10,0 4.47715,0 0,5.47715 0,11 0,16.5228 4.47715,21 10,21"
           transform="translate(20.625,2.625)"
           id="path2869"
           style="fill:#28ae95;fill-opacity:1;fill-rule:evenodd" />
        <path
           d="m 10,3 c -3.86599,0 -7,3.13401 -7,7 0,3.866 3.13401,8 7,8 3.866,0 5.5229,3 0,3 C 4.47715,21 0,15.5228 0,10 0,4.47715 4.47715,0 10,0"
           transform="translate(20.625,37.625)"
           id="path2871"
           style="fill:#28ae95;fill-opacity:1;fill-rule:evenodd" />
        <path
           d="M 0,20 C 5.52285,20 10,15.5228 10,10 10,4.47715 5.52285,0 0,0 m 0,3 c 3.86599,0 7,3.13401 7,7 0,3.866 -3.13401,7 -7,7"
           transform="translate(30.625,20.625)"
           id="path2875"
           style="fill:#28ae95;fill-opacity:1;fill-rule:evenodd" />
      </g>
    </g>
  </g>
</svg>
