<?xml version="1.0" encoding="UTF-8" standalone="no"?>
<!-- Created with Inkscape (http://www.inkscape.org/) -->

<svg
   xmlns:dc="http://purl.org/dc/elements/1.1/"
   xmlns:cc="http://creativecommons.org/ns#"
   xmlns:rdf="http://www.w3.org/1999/02/22-rdf-syntax-ns#"
   xmlns:svg="http://www.w3.org/2000/svg"
   xmlns="http://www.w3.org/2000/svg"
   xmlns:sodipodi="http://sodipodi.sourceforge.net/DTD/sodipodi-0.dtd"
   xmlns:inkscape="http://www.inkscape.org/namespaces/inkscape"
   version="1.1"
   width="160pt"
   height="80pt"
   id="svg2"
   inkscape:version="0.48.5 r10040"
   sodipodi:docname="configuration-icons.svg">
  <sodipodi:namedview
     pagecolor="#ffffff"
     bordercolor="#666666"
     borderopacity="1"
     objecttolerance="10"
     gridtolerance="10"
     guidetolerance="10"
     inkscape:pageopacity="0"
     inkscape:pageshadow="2"
     inkscape:window-width="1280"
     inkscape:window-height="751"
     id="namedview48"
     showgrid="false"
     inkscape:zoom="4.6103362"
     inkscape:cx="100"
     inkscape:cy="50"
     inkscape:window-x="0"
     inkscape:window-y="-3"
     inkscape:window-maximized="1"
     inkscape:current-layer="svg2" />
  <metadata
     id="metadata50">
    <rdf:RDF>
      <cc:Work
         rdf:about="">
        <dc:format>image/svg+xml</dc:format>
        <dc:type
           rdf:resource="http://purl.org/dc/dcmitype/StillImage" />
        <dc:title />
      </cc:Work>
    </rdf:RDF>
  </metadata>
  <defs
     id="defs4" />
  <g
     id="layer1">
    <g
       transform="translate(145.375,19.375)"
       id="configure"
       style="fill:none">
      <path
         d="M 8.49116,0.0123023 C 7.92966,0.163012 7.40968,0.451082 6.96964,0.882552 5.92537,1.90647 5.67092,3.40588 6.17718,4.67438 L 0.312971,10.4243 c -0.4173,0.4091 -0.41729,1.0827 0,1.4918 l 0.792459,0.7771 c 0.41728,0.4091 1.10424,0.4091 1.52152,0 L 8.61796,6.81893 C 9.81307,7.12186 11.137,6.80433 12.0731,5.88652 12.5139,5.45428 12.8749,4.95153 12.9923,4.39465 13.0354,4.19018 12.8907,3.85761 12.7071,3.6798 12.5643,3.5415 12.394,3.48942 12.2316,3.6487 L 10.6467,5.23381 C 10.0469,5.82194 7.25439,3.30733 7.98399,2.59196 L 9.56891,1.03793 C 9.82577,0.786082 8.9661,-0.115208 8.49116,0.0122823 z M 6.96964,5.66893 c 0.14743,-0.0174 0.28104,0.0269 0.38038,0.12433 0.19867,0.1948 0.15812,0.55981 -0.0951,0.80809 L 2.43676,11.3256 C 2.18356,11.5739 1.81128,11.6136 1.6126,11.4188 1.41391,11.224 1.45449,10.8901 1.7077,10.6418 L 6.52586,5.88646 C 6.65247,5.76231 6.8222,5.68634 6.96964,5.66889 z"
         transform="translate(2.62501,1.63062)"
         id="path4025"
         style="fill:#1c2122;fill-opacity:1" />
    </g>
    <g
       transform="translate(123.375,19.375)"
       id="rotate"
       style="fill:none">
      <rect
         width="16"
         height="16"
         x="0"
         y="0"
         transform="translate(0.625,0.625)"
         id="rect4052"
         style="opacity:0;fill:#000000;fill-opacity:0.49803922" />
      <path
         d="M 10.7852,0 9.375,2.03125 c -1.03697,-0.70108 -2.09139,-1 -3.34375,-1 C 2.72159,1.03125 0,3.69033 0,7 c 0,2.19084 1.2098,4.1069 2.96875,5.1562 l 0,0.0313 c 0.0634,0.0369 0.12305,0.0275 0.1875,0.0625 0.16304,0.0888 0.32856,0.2064 0.5,0.2813 0.008,0.004 0.0232,-0.004 0.0313,0 0.11723,0.0506 0.22148,0.1134 0.34375,0.1562 0.0606,0.0211 0.12604,0.0433 0.1875,0.0625 0.0609,0.0188 0.12516,0.0145 0.1875,0.0313 0.10081,0.0271 0.18171,0.0405 0.28125,0.0625 0.0781,0.0177 0.17078,0.048 0.25,0.0625 0.15705,0.0286 0.31386,0.0466 0.46875,0.0625 0.253,0.0261 0.49998,0.0394 0.75,0.0313 0.61122,-0.0158 1.20473,-0.1207 1.75,-0.3125 L 8.75005,15.0626 10.6875,11.0001 6.65625,9.06265 7.4375,11.2501 c -0.40922,0.14 -0.85681,0.2379 -1.3125,0.25 -0.068,0.003 -0.1191,5e-4 -0.1875,0 -0.26939,-0.006 -0.5565,-0.043 -0.8125,-0.0937 -0.0191,-0.004 -0.0434,0.004 -0.0625,0 C 4.77976,11.3464 4.54188,11.267 4.28125,11.1564 2.66518,10.4712 1.5,8.86187 1.5,7.0002 1.5,4.51794 3.54901,2.53145 6.03125,2.53145 c 0.9309,0 1.78223,0.26491 2.5,0.75 L 7.21875,5.1877 11.6602,4.40645 z M 6.96875,10.2502 c -0.63911,0 -1.15625,0.5171 -1.15625,1.1562 0,0.6392 0.51714,1.1563 1.15625,1.1563 0.63911,0 1.15625,-0.5171 1.15625,-1.1563 0,-0.6391 -0.51714,-1.1562 -1.15625,-1.1562 z"
         transform="translate(2.96876,0.625)"
         id="path4054"
         style="fill:#1c2122;fill-opacity:1" />
    </g>
    <g
       transform="translate(99.375,20.3719)"
       id="move"
       style="fill:none">
      <path
         d="M 6.53125,0 5,2 6,2 6,5 7,5 7,2 8,2 z M 2,5 0,6.5 2,8 2,7 5,7 5,6 2,6 z m 9,0 0,1 -3,0 0,1 3,0 0,1 2,-1.5 z M 6,8 6,11 5,11 6.5625,13 8,11 7,11 7,8 z"
         transform="translate(2.62501,1.62812)"
         id="path4082"
         style="fill:#1c2122;fill-opacity:1;fill-rule:evenodd" />
    </g>
    <g
       transform="translate(81.375,20.375)"
       id="size-vertical"
       style="fill:none">
      <path
         d="M 1.53125,0 0,2 1,2 1,5 2,5 2,2 3,2 z M 1,8 1,11 0,11 1.5625,13 3,11 2,11 2,8 z"
         transform="translate(7.45775,1.625)"
         id="path4146"
         style="fill:#1c2122;fill-opacity:1;fill-rule:evenodd" />
    </g>
    <g
       transform="translate(65.375,19.375)"
       id="size-horizontal"
       style="fill:none">
      <path
         d="M 2,0 0,1.5 2,3 2,2 5,2 5,1 2,1 z m 9,0 0,1 -3,0 0,1 3,0 0,1 2,-1.5 z"
         transform="translate(1.62501,6.625)"
         id="path4191"
         style="fill:#1c2122;fill-opacity:1;fill-rule:evenodd" />
    </g>
    <g
       transform="translate(42.375,19.375)"
       id="size-diagonal-tr2bl"
       style="fill:none">
      <path
         d="M 13.0312,0 C 13.5699,0 14,0.43011 14,0.96876 l 0,9.06254 C 14,10.5699 13.5699,11 13.0312,11 L 0.96875,11 C 0.43011,11 0,10.5699 0,10.0313 L 0,0.96876 C 0,0.43011 0.43011,0 0.96875,0 z M 13,1 0.99995,1 l 0,9 L 13,10 z M 12,2 12,4.84376 10.9375,3.78126 9.5312,5.1875 8.81245,4.46876 10.2187,3.0625 9.15621,2 z M 4.4687,5.84376 5.18746,6.53126 3.7812,7.9375 4.8437,9 1.99995,9 l 0,-2.78124 1.0625,1.03124 z"
         transform="translate(1.62501,3.625)"
         id="path4237"
         style="fill:#1c2122;fill-opacity:1" />
    </g>
    <g
       transform="translate(21.375,19.375)"
       id="size-diagonal-tl2br"
       style="fill:none">
      <path
         d="M 0.96875,0 C 0.4301,0 0,0.43011 0,0.96876 L 0,10.0313 C 0,10.5699 0.4301,11 0.96875,11 L 13.0312,11 C 13.5699,11 14,10.5699 14,10.0313 L 14,0.96876 C 14,0.43011 13.5699,0 13.0312,0 z M 1.00005,1 13,1 13,10 1.00005,10 z m 1,1 0,2.84376 1.0625,-1.0625 L 4.4688,5.1875 5.18755,4.46876 3.78129,3.0625 4.84379,2 z M 9.5313,5.84376 8.81254,6.53126 10.2188,7.9375 9.1563,9 12,9 12,6.21876 10.9375,7.25 z"
         transform="translate(1.625,3.625)"
         id="path4267"
         style="fill:#1c2122;fill-opacity:1" />
    </g>
    <g
       transform="translate(21.375,41.375)"
       id="maximize"
       style="fill:none">
      <path
         d="M 0.96875,0 C 0.43011,0 0,0.43011 0,0.96876 L 0,10.0313 C 0,10.5699 0.43011,11 0.96875,11 L 13.0312,11 C 13.5699,11 14,10.5699 14,10.0313 L 14,0.96876 C 14,0.43011 13.5699,0 13.0312,0 z M 1.00005,1 13,1 13,10 1.00005,10 z m 1,1 0,2.84376 1.0625,-1.0625 L 4.4688,5.1875 5.18755,4.46876 3.7813,3.0625 4.8438,2 z M 9.1563,2 10.2188,3.0625 8.81255,4.46876 9.5313,5.1875 10.9375,3.78126 12,4.84376 12,2 z M 4.4688,5.84376 3.06255,7.25 2.00005,6.21876 2.00005,9 4.8438,9 3.7813,7.9375 5.18755,6.53126 z m 5.0625,0 L 8.81255,6.53126 10.2188,7.9375 9.1563,9 12,9 12,6.21876 10.9375,7.25 z"
         transform="translate(1.625,2.625)"
         id="scale"
         style="fill:#1c2122;fill-opacity:1" />
    </g>
    <g
       transform="translate(21.375,63.375)"
       id="unmaximize"
       style="fill:none">
      <path
         d="M 0.96875,0 C 0.43011,0 0,0.4301 0,0.96875 L 0,10.0312 C 0,10.5699 0.43011,11 0.96875,11 L 13.0312,11 C 13.5699,11 14,10.5699 14,10.0312 L 14,0.96875 C 14,0.4301 13.5699,0 13.0312,0 z M 1.00005,1 13,1 13,10 1.00005,10 z m 4,4 0,-2.48329 L 4.13948,3.41348 2.73323,2.00724 2.01448,2.72598 3.42073,4.13224 2.56136,5 z M 11.4363,5 10.6082,4.13224 12.0145,2.72598 11.2957,2.00724 9.88948,3.41348 9.00005,2.53067 9.00005,5 z M 2.73323,9.00724 4.13948,7.601 5.00005,8.47756 5.00005,6 2.50186,6 3.42073,6.9135 2.01448,8.31974 z m 8.56247,0 0.7188,-0.6875 L 10.6082,6.9135 11.4988,6 9.00005,6 l 0,2.42911 L 9.88948,7.601 z"
         transform="translate(1.6245,2.625)"
         id="path2479"
         style="fill:#1c2122;fill-opacity:1" />
    </g>
    <g
       transform="translate(43.375,41.375)"
       id="status"
       style="fill:none">
      <path
         d="M 0.96875,0 C 0.43011,0 0,0.4301 0,0.96875 L 0,10.0312 C 0,10.5699 0.43011,11 0.96875,11 L 13.0312,11 C 13.5699,11 14,10.5699 14,10.0312 L 14,0.96875 C 14,0.4301 13.5699,0 13.0312,0 z M 1.00005,1 13,1 l 0,4.01562 -3.03121,0 -0.28125,0 -0.15625,0.25 L 8.56254,7.03125 6.40629,3.28125 6.06254,2.71875 5.62504,3.1875 3.81254,5 1.00004,5 z m 4.84374,3.34375 2.28125,3.9375 0.4375,0.75 0.4375,-0.75 1.24996,-2.26563 2.75,0 L 13,10 1.00005,10 l -1e-5,-4 3,0 0.21875,0 0.125,-0.15625 z"
         transform="translate(1.62502,2.625)"
         id="path2432"
         style="fill:#1c2122;fill-opacity:1" />
    </g>
    <g
       transform="translate(66.375,42.375)"
       id="return-to-source"
       style="fill:none">
      <path
         d="M 4.25,0 C 1.41567,0 0,2 0,4.125 L 0,7 7.875,7 C 7.65379,6.9682 7.43826,6.88103 7.28125,6.71875 l -2,-2 C 4.98519,4.43245 4.90359,4.00496 5.0625,3.625 5.22139,3.24504 5.58827,2.99031 6,3 L 6,2 C 5.998,1.48237 6.39089,1.04857 6.90625,1 6.93745,0.999 6.96875,0.999 6.99995,1 l 2,0 c 0.55226,5e-5 0.99994,0.44774 1,1 l 0,1 c 0.41175,-0.01 0.77865,0.24504 0.93755,0.625 0.1588,0.37996 0.0772,0.80745 -0.2188,1.09375 l -2,2 C 8.56169,6.88103 8.34616,6.96823 8.12495,7 L 16,7 16,4.125 C 16,2 14.8342,0 12,0 L 4.24995,0 z m 2.74995,2 0,2 -1,0 2,2 2,-2 -1,0 0,-2 z m -5,6 0,2.875 c 0,2.125 1.1657,4.125 4,4.125 L 13.75,15 C 16.5843,15 18,13 18,10.875 L 18,8 10.125,8 c 0.2212,0.0318 0.4367,0.11897 0.5937,0.28125 l 2,1.99995 c 0.2961,0.2863 0.3777,0.7138 0.2188,1.0938 C 12.7786,11.755 12.4117,12.0097 12,12 l 0,1 c 0.002,0.5176 -0.3909,0.9514 -0.9063,1 C 11.0625,14.001 11.0312,14.001 11,14 L 9,14 C 8.44774,14 8.00006,13.5523 8,13 L 8,12 C 7.58827,12.01 7.22137,11.755 7.0625,11.375 6.90361,10.995 6.9852,10.5675 7.28125,10.2812 l 2,-1.99995 C 9.43826,8.11897 9.65379,8.03177 9.875,8 L 2,8 z M 10,9 l -2,2 1,0 0,2 2,0 0,-2 1,0 z"
         transform="translate(0.625,0.625)"
         id="path3557"
         style="fill:#1c2122;fill-opacity:1" />
    </g>
    <g
       transform="translate(88.375,42.375)"
       id="collapse"
       style="fill:none">
      <path
         d="M 2,0 6,4 10,0 z M 0,5 0,7 12,7 12,5 z m 6,3 -4,4 8,0 z"
         transform="translate(2.62501,2.625)"
         id="rect2917"
         style="fill:#1c2122;fill-opacity:1" />
    </g>
    <g
       transform="translate(109.375,42.375)"
       id="restore"
       style="fill:none">
      <path
         d="M 6,0 2,4 10,4 z M 0,5 0,7 12,7 12,5 z m 2,3 4,4 4,-4 z"
         transform="translate(2.62501,2.625)"
         id="rect3724"
         style="fill:#1c2122;fill-opacity:1" />
    </g>
    <g
       transform="translate(135.375,47.375)"
       id="help"
       style="fill:none">
      <path
         d="M 2,0 C 1,0 0,1 0,2 L 0,4 2,4 C 2,3 2,2 3,2 L 7,2 C 8,2 8,3 8,4 8,6 4,6 4,9 l 0,1 2,0 C 6,7 10,7 10,5 L 10,2 C 10,1 9,0 8,0 z m 2,12 0,2 2,0 0,-2 z"
         transform="translate(0.625,0.625)"
         id="rect2460"
         style="fill:#1c2122;fill-opacity:1" />
    </g>
    <g
       transform="translate(92.375,71.375)"
       id="delete"
       style="fill:none">
      <path
         d="M 4,0 C 3.446,0 3,0.446 3,1 L 3,2 0.4375,2 C 0.1965,2 0,2.1965 0,2.4375 l 0,0.5 C 0,3.1775 0.3215,3.375 0.5625,3.375 0.8035,3.375 1,3.5715 1,3.8125 L 1,12 c 0,0.533 0.40744,1 1,1 l 7,0 c 0.63775,0 1,-0.3281 1,-1 L 10,3.8125 C 10,3.5725 10.1965,3.375 10.4375,3.375 10.6785,3.375 11,3.1775 11,2.9375 l 0,-0.5 C 11,2.1975 10.8045,2 10.5625,2 L 8,2 8,1 C 8,0.446 7.554,0 7,0 z M 4,1 7,1 7,2 4,2 z M 2.5,3.5625 C 2.741,3.5625 3,3.76 3,4 l 0,7.625 C 3,11.865 2.742,12.0625 2.5,12.0625 2.259,12.0625 2,11.866 2,11.625 L 2,4 C 2,3.76 2.259,3.5625 2.5,3.5625 z m 3,0 c 0.241,0 0.5,0.16625 0.5,0.40625 l 0,7.62505 c 0,0.24 -0.259,0.4687 -0.5,0.4687 -0.241,0 -0.5,-0.2278 -0.5,-0.4687 L 5,4 C 5,3.76 5.259,3.5625 5.5,3.5625 z m 3,0 C 8.741,3.5625 9,3.76 9,4 l 0,7.5625 C 9,11.8025 8.741,12 8.5,12 8.259,12 8,11.8035 8,11.5625 L 8,4 C 8,3.76 8.259,3.5625 8.5,3.5625 z"
         transform="translate(3.62501,1.625)"
         id="path2922"
         style="fill:#1c2122;fill-opacity:1" />
    </g>
    <g
       transform="translate(135.375,70.375)"
       id="add"
       style="fill:none">
      <path
         d="M 5,0 5,5 0,5 0,7 5,7 5,12 7,12 7,7 12,7 12,5 7,5 7,0 z"
         transform="translate(2.62501,2.625)"
         id="rect3778"
         style="fill:#1c2122;fill-opacity:1" />
    </g>
    <g
       transform="translate(153.375,70.375)"
       id="remove"
       style="fill:none">
      <rect
         width="12"
         height="2"
         rx="4.5996126e-06"
         ry="4.5996126e-06"
         x="0"
         y="0"
         transform="translate(2.625,7.625)"
         id="rect3787"
         style="fill:#1c2122;fill-opacity:1" />
    </g>
    <g
       transform="translate(114.375,72.375)"
       id="filter"
       style="fill:none">
      <path
         d="M 0.405628,0.00220088 C 0.238393,0.0344299 0.0990471,0.149437 0.0357928,0.307441 -0.0274616,0.465444 -0.00593795,0.644745 0.0929184,0.783321 L 4.03307,6.93853 l 0,5.56157 C 4.0331,12.7762 4.25708,13 4.5334,13 l 3.03329,0 C 7.84301,13 8.067,12.7762 8.06703,12.5001 l 0,-5.56157 3.84637,-6.155209 C 12.0169,0.631241 12.0285,0.434644 11.9436,0.27146 11.8586,0.108275 11.6909,0.00485774 11.5068,0.00220088 l -11.007352,0 c -0.031197,-0.002934507 -0.062602,-0.002934507 -0.0938,0 z M 1.40632,1.00203 10.6,1.00203 7.12892,6.56359 C 7.08659,6.64002 7.06504,6.72621 7.06642,6.81355 l 0,5.18665 -2.03262,0 0,-5.18665 C 5.03518,6.72621 5.01363,6.64002 4.9713,6.56359 L 1.4064,1.00203 z"
         transform="translate(2.625,1.625)"
         id="path3888"
         style="fill:#1c2122;fill-opacity:1" />
    </g>
    <g
       transform="translate(171.375,19.375)"
       id="close"
       style="fill:none">
      <g
         transform="translate(1.18307,0.683058)"
         id="g3907"
         style="fill:none">
        <path
           d="m 0,2 5,5 -5,5 2,2 5,-5 5,5 2,-2 L 9,7 14,2 12,0 7,5 2,0 z"
           transform="translate(0.441942,0.441942)"
           id="rect3129"
           style="fill:#1c2122;fill-opacity:1" />
      </g>
    </g>
    <rect
       width="16"
       height="16"
       x="0"
       y="0"
       transform="translate(212.5,20)"
       id="rect3880"
       style="opacity:0;fill:#ffffff;fill-opacity:0.78431373" />
  </g>
  <g
     id="menu">
    <path
       inkscape:connector-curvature="0"
       style="fill:none;stroke:#1c2122;stroke-width:1.26738977;stroke-linecap:round;stroke-linejoin:round;stroke-miterlimit:4;stroke-opacity:1;stroke-dasharray:none;stroke-dashoffset:0;marker:none;visibility:visible;display:inline;overflow:visible;enable-background:accumulate"
       id="path_menu"
       d="m 70.652182,85.643104 c -0.407025,0.02673 -0.813862,0.11919 -1.202966,0.258551 l 2.366428,2.386326 c 0.247244,0.249259 0.247244,0.645581 0,0.89484 l -1.774821,1.809661 c -0.247055,0.24926 -0.659759,0.24926 -0.90713,0 l -2.366428,-2.386325 c -0.552923,1.56912 -0.200294,3.377573 1.045204,4.633416 1.447875,1.460176 3.633886,1.686973 5.324462,0.696043 l 3.944046,4.056752 c 0.494425,0.498583 1.300146,0.498583 1.794509,0 0.494426,-0.498583 0.494426,-1.291161 0,-1.789744 0,0 -4.062367,-4.01698 -4.062367,-4.01698 0.891228,-1.684745 0.63925,-3.829764 -0.769058,-5.249915 -0.934139,-0.94193 -2.170739,-1.372678 -3.391879,-1.292625 z" />
    <rect
       style="opacity:0;fill:#000000;fill-opacity:0.49803922"
       id="rect4052-4"
       y="85"
       x="65.879997"
       height="14"
       width="14" />
  </g>
</svg>
