<?xml version="1.0" encoding="UTF-8" standalone="no"?>
<!-- Created with Inkscape (http://www.inkscape.org/) -->

<svg
   xmlns:dc="http://purl.org/dc/elements/1.1/"
   xmlns:cc="http://creativecommons.org/ns#"
   xmlns:rdf="http://www.w3.org/1999/02/22-rdf-syntax-ns#"
   xmlns:svg="http://www.w3.org/2000/svg"
   xmlns="http://www.w3.org/2000/svg"
   xmlns:xlink="http://www.w3.org/1999/xlink"
   version="1.0"
   width="257"
   height="161"
   id="svg7080">
  <defs
     id="defs7082">
    <linearGradient
       id="linearGradient8746">
      <stop
         id="stop8748"
         style="stop-color:#ffffff;stop-opacity:1"
         offset="0" />
      <stop
         id="stop8750"
         style="stop-color:#ffffff;stop-opacity:0"
         offset="1" />
    </linearGradient>
    <linearGradient
       id="linearGradient8734">
      <stop
         id="stop8736"
         style="stop-color:#ffffff;stop-opacity:1"
         offset="0" />
      <stop
         id="stop8738"
         style="stop-color:#ffffff;stop-opacity:0"
         offset="1" />
    </linearGradient>
    <radialGradient
       cx="355.28513"
       cy="229.36844"
       r="70"
       fx="355.28513"
       fy="229.36844"
       id="radialGradient12915"
       xlink:href="#linearGradient8734"
       gradientUnits="userSpaceOnUse"
       gradientTransform="matrix(1.7747169,0,0,1.1566649,-709.57584,314.76359)" />
    <radialGradient
       cx="355.05859"
       cy="222.73233"
       r="70"
       fx="355.05859"
       fy="222.73233"
       id="radialGradient12922"
       xlink:href="#linearGradient8734"
       gradientUnits="userSpaceOnUse"
       gradientTransform="matrix(1.7796094,-6.4399432e-7,0,3.4826371,-711.1346,-185.51868)" />
    <radialGradient
       cx="355.26648"
       cy="236.55251"
       r="70"
       fx="355.26648"
       fy="236.55251"
       id="radialGradient12928"
       xlink:href="#linearGradient8734"
       gradientUnits="userSpaceOnUse"
       gradientTransform="matrix(1.7796094,0,0,1.1558382,-711.13504,274.58542)" />
    <radialGradient
       cx="355.26645"
       cy="236.55327"
       r="70"
       fx="355.26645"
       fy="236.55327"
       id="radialGradient12935"
       xlink:href="#linearGradient8734"
       gradientUnits="userSpaceOnUse"
       gradientTransform="matrix(0.6520708,-6.4204842e-7,0,1.1584286,-351.80505,274.01364)" />
    <radialGradient
       cx="353.74701"
       cy="269.55038"
       r="70"
       fx="353.74701"
       fy="269.55038"
       id="radialGradient12941"
       xlink:href="#linearGradient8746"
       gradientUnits="userSpaceOnUse"
       gradientTransform="matrix(0.6498357,0,0,1.1513867,-350.8407,269.14221)" />
    <radialGradient
       cx="355.28513"
       cy="229.36844"
       r="70"
       fx="355.28513"
       fy="229.36844"
       id="radialGradient12949"
       xlink:href="#linearGradient8734"
       gradientUnits="userSpaceOnUse"
       gradientTransform="matrix(-1.7747169,0,0,1.1550902,469.58919,315.1048)" />
    <radialGradient
       cx="355.05859"
       cy="222.73233"
       r="70"
       fx="355.05859"
       fy="222.73233"
       id="radialGradient12955"
       xlink:href="#linearGradient8734"
       gradientUnits="userSpaceOnUse"
       gradientTransform="matrix(-1.7796094,-6.4399419e-7,0,3.4826364,471.13462,-185.51859)" />
    <radialGradient
       cx="355.26648"
       cy="236.55251"
       r="70"
       fx="355.26648"
       fy="236.55251"
       id="radialGradient12962"
       xlink:href="#linearGradient8734"
       gradientUnits="userSpaceOnUse"
       gradientTransform="matrix(-1.7796094,0,0,1.1576875,471.13463,274.18938)" />
    <linearGradient
       x1="317.91653"
       y1="909.77173"
       x2="317.91653"
       y2="912.77173"
       id="linearGradient4306"
       xlink:href="#linearGradient4254-7"
       gradientUnits="userSpaceOnUse" />
    <linearGradient
       id="linearGradient4254-7">
      <stop
         id="stop4256"
         style="stop-color:#888888;stop-opacity:1"
         offset="0" />
      <stop
         id="stop4258"
         style="stop-color:#232323;stop-opacity:1"
         offset="1" />
    </linearGradient>
    <linearGradient
       id="linearGradient5705">
      <stop
         id="stop5707"
         style="stop-color:#efefef;stop-opacity:0.93599999"
         offset="0" />
      <stop
         id="stop5709"
         style="stop-color:#ededed;stop-opacity:0"
         offset="1" />
    </linearGradient>
  </defs>
  <metadata
     id="metadata7085">
    <rdf:RDF>
      <cc:Work
         rdf:about="">
        <dc:format>image/svg+xml</dc:format>
        <dc:type
           rdf:resource="http://purl.org/dc/dcmitype/StillImage" />
        <dc:title></dc:title>
      </cc:Work>
    </rdf:RDF>
  </metadata>
  <g
     transform="translate(297,-432)"
     id="layer1">
    <rect
       width="40"
       height="40"
       x="-247.07144"
       y="341.67673"
       id="hint-stretch-borders"
       style="opacity:0.875;fill:#008000;fill-opacity:1;stroke:none" />
    <path
       d="m -267,447.01572 0,48 48,0 0,-48 -48,0 z"
       id="selected-center"
       style="opacity:0.82272728;fill:#313e44;fill-opacity:0.15686275;fill-rule:nonzero;stroke:none" />
    <g
       transform="matrix(0.36657704,0,0,1,-336.71201,-350.85718)"
       id="selected-bottom">
      <g
         id="g4093">
        <path
           d="m 190.12705,845.85714 0,4 130.9842,-0.0625 0,-3.9375 -130.9842,0 z"
           id="path4095"
           style="opacity:0.82272728;fill:#313e44;fill-opacity:0.15686275;fill-rule:nonzero;stroke:none" />
        <path
           d="m 190.14285,849.85714 0,1 131,0 0,-1 -131,0 z"
           id="path4097"
           style="opacity:0.8;fill:#46555b;fill-opacity:1;fill-rule:nonzero;stroke:none" />
      </g>
      <rect
         width="1"
         height="2.000037"
         x="547"
         y="869"
         transform="translate(-342.85715,-17.142857)"
         id="rect4101"
         style="opacity:0.52100004;fill:#ffffff;fill-opacity:0;stroke:none" />
    </g>
    <g
       transform="translate(-457.14285,-350.85718)"
       id="selected-bottomleft">
      <g
         id="g4105">
        <path
           d="m 188.6741,850.85716 c -1.94821,0 -3.53125,-1.58839 -3.53125,-3.53125 l 0,-1.46875 1,0 0,1.46875 c 0,1.40502 1.11588,2.53125 2.53125,2.53125 l 1.46875,0 0,1 -1.46875,0 z"
           id="path4107"
           style="opacity:0.8;fill:#46555b;fill-opacity:1;fill-rule:nonzero;stroke:none" />
        <path
           d="m 190.14285,849.8572 0,-4 -4,0 0,1.46875 c 0,1.40502 1.11588,2.53125 2.53125,2.53125 l 1.46875,0 z"
           id="path4109"
           style="opacity:0.82272728;fill:#313e44;fill-opacity:0.15686275;fill-rule:nonzero;stroke:none" />
      </g>
      <rect
         width="2.0000029"
         height="2.0000634"
         x="183.14285"
         y="851.85712"
         id="rect4113"
         style="opacity:0.52100004;fill:#ffffff;fill-opacity:0;stroke:none" />
    </g>
    <g
       transform="matrix(1,0,0,3.0009825,-457.14285,-2043.3868)"
       id="selected-left">
      <g
         id="g4117">
        <path
           d="m 186.14285,829.85712 0,16 4,0 0,-16 -4,0 z"
           id="path4119"
           style="opacity:0.82272728;fill:#313e44;fill-opacity:0.15686275;fill-rule:nonzero;stroke:none" />
        <path
           d="m 185.14285,829.85715 0,15.99999 1,0 0,-15.99999 -1,0 z"
           id="path4121"
           style="opacity:0.8;fill:#46555b;fill-opacity:1;fill-rule:nonzero;stroke:none" />
      </g>
      <rect
         width="2.0000029"
         height="3"
         x="183.14285"
         y="834.85712"
         id="rect4125"
         style="opacity:0.52100004;fill:#ffffff;fill-opacity:0;stroke:none" />
    </g>
    <g
       transform="translate(-457.14285,-382.85718)"
       id="selected-topleft">
      <g
         id="g4129">
        <path
           d="m 186.14285,829.8571 4,0 0,-4 -1.46875,0 c -1.40502,0 -2.53125,1.11588 -2.53125,2.53125 l 0,1.46875 z"
           id="path4131"
           style="opacity:0.82272728;fill:#313e44;fill-opacity:0.15686275;fill-rule:nonzero;stroke:none" />
        <path
           d="m 185.14285,828.3884 c 0,-1.94821 1.58839,-3.53125 3.53125,-3.53125 l 1.46875,0 0,1 -1.46875,0 c -1.40502,0 -2.53125,1.11588 -2.53125,2.53125 l 0,1.46875 -1,0 0,-1.46875 z"
           id="path4133"
           style="opacity:0.8;fill:#46555b;fill-opacity:1;fill-rule:nonzero;stroke:none" />
      </g>
      <rect
         width="2.0000029"
         height="1.9999441"
         x="183.14285"
         y="822.85718"
         id="rect4137"
         style="opacity:0.52100004;fill:#ffffff;fill-opacity:0;stroke:none" />
    </g>
    <g
       transform="matrix(0.36657704,0,0,1,-336.71201,-382.8414)"
       id="selected-top">
      <g
         id="g4141">
        <path
           d="m 190.14286,825.85714 0,4 131,0 0,-4 -131,0 z"
           id="path4143"
           style="opacity:0.82272728;fill:#313e44;fill-opacity:0.15686275;fill-rule:nonzero;stroke:none" />
        <path
           d="m 190.14285,824.85714 0,1 131,0 0,-1 -131,0 z"
           id="path4145"
           style="opacity:0.8;fill:#46555b;fill-opacity:1;fill-rule:nonzero;stroke:none" />
      </g>
      <rect
         width="3"
         height="1.9999441"
         x="200.14285"
         y="822.85718"
         id="rect4149"
         style="opacity:0.52100004;fill:#ffffff;fill-opacity:0;stroke:none" />
    </g>
    <g
       transform="translate(-540.14285,-382.8414)"
       id="selected-topright">
      <g
         id="g4153">
        <path
           d="m 321.14285,825.85714 0,4 4,0 0,-1.46875 c 0,-1.40502 -1.11588,-2.53125 -2.53125,-2.53125 l -1.46875,0 z"
           id="path4155"
           style="opacity:0.82272728;fill:#313e44;fill-opacity:0.15686275;fill-rule:nonzero;stroke:none" />
        <path
           d="m 322.6116,824.85714 c 1.94821,0 3.53125,1.58839 3.53125,3.53125 l 0,1.46875 -1,0 0,-1.46875 c 0,-1.40502 -1.11588,-2.53125 -2.53125,-2.53125 l -1.46875,0 0,-1 1.46875,0 z"
           id="path4157"
           style="opacity:0.8;fill:#46555b;fill-opacity:1;fill-rule:nonzero;stroke:none" />
      </g>
      <rect
         width="1.9999973"
         height="1.9999441"
         x="326.14285"
         y="822.85718"
         id="rect4161"
         style="opacity:0.52100004;fill:#ffffff;fill-opacity:0;stroke:none" />
    </g>
    <g
       transform="matrix(1,0,0,3.0000017,-540.14285,-2042.557)"
       id="selected-right">
      <g
         id="g4165">
        <path
           d="m 325.14286,829.85712 0,16 -4,0 0,-16 4,0 z"
           id="path4167"
           style="opacity:0.82272728;fill:#313e44;fill-opacity:0.15686275;fill-rule:nonzero;stroke:none" />
        <path
           d="m 326.14286,829.85715 0,15.99999 -1,0 0,-15.99999 1,0 z"
           id="path4169"
           style="opacity:0.8;fill:#46555b;fill-opacity:1;fill-rule:nonzero;stroke:none" />
      </g>
      <rect
         width="1.9999973"
         height="3"
         x="326.14285"
         y="832.85712"
         id="rect4173"
         style="opacity:0.52100004;fill:#ffffff;fill-opacity:0;stroke:none" />
    </g>
    <g
       transform="translate(-540.14285,-350.85718)"
       id="selected-bottomright">
      <g
         id="g4177">
        <g
           id="g4179">
          <path
             d="m 325.1429,845.85714 -4,0 0,4 1.46875,0 c 1.40502,0 2.53125,-1.11588 2.53125,-2.53125 l 0,-1.46875 z"
             id="path4183"
             style="opacity:0.82272728;fill:#313e44;fill-opacity:0.15686275;fill-rule:nonzero;stroke:none" />
          <path
             d="m 326.14286,847.32589 c 0,1.94821 -1.58839,3.53125 -3.53125,3.53125 l -1.46875,0 0,-1 1.46875,0 c 1.40502,0 2.53125,-1.11588 2.53125,-2.53125 l 0,-1.46875 1,0 0,1.46875 z"
             id="path4185"
             style="opacity:0.8;fill:#46555b;fill-opacity:1;fill-rule:nonzero;stroke:none" />
        </g>
      </g>
      <rect
         width="1.9999973"
         height="2.0000634"
         x="326.14285"
         y="851.85712"
         id="rect4187"
         style="opacity:0.52100004;fill:#ffffff;fill-opacity:0;stroke:none" />
    </g>
    <path
       d="m -167.00001,449.01572 0,48 48,0 0,-48 -48,0 z"
       id="normal-center"
       style="opacity:0.82272728;fill:#2d3236;fill-opacity:0.07843137;fill-rule:nonzero;stroke:none" />
    <g
       transform="matrix(0.36657704,0,0,1,-236.71202,-348.85718)"
       id="normal-bottom">
      <g
         id="g4980">
        <path
           d="m 190.12705,845.85714 0,4 130.9842,-0.0625 0,-3.9375 -130.9842,0 z"
           id="path4983"
           style="opacity:0.82272728;fill:#2d3236;fill-opacity:0.07843137;fill-rule:nonzero;stroke:none" />
        <path
           d="m 190.14285,849.85714 0,1 131,0 0,-1 -131,0 z"
           id="path4985"
           style="opacity:0.85;fill:#485356;fill-opacity:1;fill-rule:nonzero;stroke:none" />
      </g>
      <rect
         width="1"
         height="2.000037"
         x="547"
         y="869"
         transform="translate(-342.85715,-17.142857)"
         id="rect4989"
         style="opacity:0.52100004;fill:#ffffff;fill-opacity:0;stroke:none" />
    </g>
    <g
       transform="translate(-357.14286,-348.85718)"
       id="normal-bottomleft">
      <g
         id="g4993">
        <path
           d="m 188.6741,850.85716 c -1.94821,0 -3.53125,-1.58839 -3.53125,-3.53125 l 0,-1.46875 1,0 0,1.46875 c 0,1.40502 1.11588,2.53125 2.53125,2.53125 l 1.46875,0 0,1 -1.46875,0 z"
           id="path4995"
           style="opacity:0.85;fill:#485356;fill-opacity:1;fill-rule:nonzero;stroke:none" />
        <path
           d="m 190.14285,849.8572 0,-4 -4,0 0,1.46875 c 0,1.40502 1.11588,2.53125 2.53125,2.53125 l 1.46875,0 z"
           id="path4997"
           style="opacity:0.82272728;fill:#2d3236;fill-opacity:0.07843137;fill-rule:nonzero;stroke:none" />
      </g>
      <rect
         width="2.0000029"
         height="2.0000634"
         x="183.14285"
         y="851.85712"
         id="rect5001"
         style="opacity:0.52100004;fill:#ffffff;fill-opacity:0;stroke:none" />
    </g>
    <g
       transform="matrix(1,0,0,3.0009825,-357.14286,-2041.3868)"
       id="normal-left">
      <g
         id="g5005">
        <path
           d="m 186.14285,829.85712 0,16 4,0 0,-16 -4,0 z"
           id="path5007"
           style="opacity:0.82272728;fill:#2d3236;fill-opacity:0.07843137;fill-rule:nonzero;stroke:none" />
        <path
           d="m 185.14285,829.85715 0,15.99999 1,0 0,-15.99999 -1,0 z"
           id="path5009"
           style="opacity:0.85;fill:#485356;fill-opacity:1;fill-rule:nonzero;stroke:none" />
      </g>
      <rect
         width="2.0000029"
         height="3"
         x="183.14285"
         y="834.85712"
         id="rect5013"
         style="opacity:0.52100004;fill:#ffffff;fill-opacity:0;stroke:none" />
    </g>
    <g
       transform="translate(-357.14286,-380.85718)"
       id="normal-topleft">
      <g
         id="g5017">
        <path
           d="m 186.14285,829.8571 4,0 0,-4 -1.46875,0 c -1.40502,0 -2.53125,1.11588 -2.53125,2.53125 l 0,1.46875 z"
           id="path5019"
           style="opacity:0.82272728;fill:#2d3236;fill-opacity:0.07843137;fill-rule:nonzero;stroke:none" />
        <path
           d="m 185.14285,828.3884 c 0,-1.94821 1.58839,-3.53125 3.53125,-3.53125 l 1.46875,0 0,1 -1.46875,0 c -1.40502,0 -2.53125,1.11588 -2.53125,2.53125 l 0,1.46875 -1,0 0,-1.46875 z"
           id="path5021"
           style="opacity:0.85;fill:#485356;fill-opacity:1;fill-rule:nonzero;stroke:none" />
      </g>
      <rect
         width="2.0000029"
         height="1.9999441"
         x="183.14285"
         y="822.85718"
         id="rect5025"
         style="opacity:0.52100004;fill:#ffffff;fill-opacity:0;stroke:none" />
    </g>
    <g
       transform="matrix(0.36657704,0,0,1,-236.71202,-380.8414)"
       id="normal-top">
      <g
         id="g5029">
        <path
           d="m 190.14286,825.85714 0,4 131,0 0,-4 -131,0 z"
           id="path5031"
           style="opacity:0.82272728;fill:#2d3236;fill-opacity:0.07843137;fill-rule:nonzero;stroke:none" />
        <path
           d="m 190.14285,824.85714 0,1 131,0 0,-1 -131,0 z"
           id="path5033"
           style="opacity:0.85;fill:#485356;fill-opacity:1;fill-rule:nonzero;stroke:none" />
      </g>
      <rect
         width="3"
         height="1.9999441"
         x="200.14285"
         y="822.85718"
         id="rect5037"
         style="opacity:0.52100004;fill:#ffffff;fill-opacity:0;stroke:none" />
    </g>
    <g
       transform="translate(-440.14286,-380.8414)"
       id="normal-topright">
      <g
         id="g5041">
        <path
           d="m 321.14285,825.85714 0,4 4,0 0,-1.46875 c 0,-1.40502 -1.11588,-2.53125 -2.53125,-2.53125 l -1.46875,0 z"
           id="path5043"
           style="opacity:0.82272728;fill:#2d3236;fill-opacity:0.07843137;fill-rule:nonzero;stroke:none" />
        <path
           d="m 322.6116,824.85714 c 1.94821,0 3.53125,1.58839 3.53125,3.53125 l 0,1.46875 -1,0 0,-1.46875 c 0,-1.40502 -1.11588,-2.53125 -2.53125,-2.53125 l -1.46875,0 0,-1 1.46875,0 z"
           id="path5045"
           style="opacity:0.85;fill:#485356;fill-opacity:1;fill-rule:nonzero;stroke:none" />
      </g>
      <rect
         width="1.9999973"
         height="1.9999441"
         x="326.14285"
         y="822.85718"
         id="rect5049"
         style="opacity:0.52100004;fill:#ffffff;fill-opacity:0;stroke:none" />
    </g>
    <g
       transform="matrix(1,0,0,3.0000017,-440.14286,-2040.557)"
       id="normal-right">
      <g
         id="g5053">
        <path
           d="m 325.14286,829.85712 0,16 -4,0 0,-16 4,0 z"
           id="path5055"
           style="opacity:0.82272728;fill:#2d3236;fill-opacity:0.07843137;fill-rule:nonzero;stroke:none" />
        <path
           d="m 326.14286,829.85715 0,15.99999 -1,0 0,-15.99999 1,0 z"
           id="path5057"
           style="opacity:0.85;fill:#485356;fill-opacity:1;fill-rule:nonzero;stroke:none" />
      </g>
      <rect
         width="1.9999973"
         height="3"
         x="326.14285"
         y="832.85712"
         id="rect5061"
         style="opacity:0.52100004;fill:#ffffff;fill-opacity:0;stroke:none" />
    </g>
    <g
       transform="translate(-440.14286,-348.85718)"
       id="normal-bottomright">
      <g
         id="g5065">
        <g
           id="g5067">
          <path
             d="m 325.1429,845.85714 -4,0 0,4 1.46875,0 c 1.40502,0 2.53125,-1.11588 2.53125,-2.53125 l 0,-1.46875 z"
             id="path5071"
             style="opacity:0.82272728;fill:#2d3236;fill-opacity:0.07843137;fill-rule:nonzero;stroke:none" />
          <path
             d="m 326.14286,847.32589 c 0,1.94821 -1.58839,3.53125 -3.53125,3.53125 l -1.46875,0 0,-1 1.46875,0 c 1.40502,0 2.53125,-1.11588 2.53125,-2.53125 l 0,-1.46875 1,0 0,1.46875 z"
             id="path5073"
             style="opacity:0.85199998;fill:#485356;fill-opacity:1;fill-rule:nonzero;stroke:none" />
        </g>
      </g>
      <rect
         width="1.9999973"
         height="2.0000634"
         x="326.14285"
         y="851.85712"
         id="rect5075"
         style="opacity:0.52100004;fill:#ffffff;fill-opacity:0;stroke:none" />
    </g>
    <path
       d="m -250,529.01578 0,48 48,0 0,-48 -48,0 z"
       id="hover-center"
       style="opacity:0.25;fill:#28ae95;fill-opacity:1;fill-rule:nonzero;stroke:none" />
    <g
       transform="matrix(0.36657704,0,0,1,-319.71201,-268.85712)"
       id="hover-bottom">
      <g
         id="g5081">
        <path
           d="m 190.12705,845.85714 0,4 130.9842,-0.0625 0,-3.9375 -130.9842,0 z"
           id="path5083"
           style="opacity:0.25;fill:#28ae95;fill-opacity:1;fill-rule:nonzero;stroke:none" />
        <path
           d="m 190.14285,849.85714 0,1 131,0 0,-1 -131,0 z"
           id="path5085"
           style="opacity:0.85;fill:#28ae95;fill-opacity:1;fill-rule:nonzero;stroke:none" />
      </g>
      <rect
         width="1"
         height="2.000037"
         x="547"
         y="869"
         transform="translate(-342.85715,-17.142857)"
         id="rect5089"
         style="opacity:0.52100004;fill:#ffffff;fill-opacity:0;stroke:none" />
    </g>
    <g
       transform="translate(-440.14285,-268.85712)"
       id="hover-bottomleft">
      <g
         id="g5093">
        <path
           d="m 188.6741,850.85716 c -1.94821,0 -3.53125,-1.58839 -3.53125,-3.53125 l 0,-1.46875 1,0 0,1.46875 c 0,1.40502 1.11588,2.53125 2.53125,2.53125 l 1.46875,0 0,1 -1.46875,0 z"
           id="path5095"
           style="opacity:0.85;fill:#28ae95;fill-opacity:1;fill-rule:nonzero;stroke:none" />
        <path
           d="m 190.14285,849.8572 0,-4 -4,0 0,1.46875 c 0,1.40502 1.11588,2.53125 2.53125,2.53125 l 1.46875,0 z"
           id="path5097"
           style="opacity:0.25;fill:#28ae95;fill-opacity:1;fill-rule:nonzero;stroke:none" />
      </g>
      <rect
         width="2.0000029"
         height="2.0000634"
         x="183.14285"
         y="851.85712"
         id="rect5101"
         style="opacity:0.52100004;fill:#ffffff;fill-opacity:0;stroke:none" />
    </g>
    <g
       transform="matrix(1,0,0,3.0009825,-440.14285,-1961.3867)"
       id="hover-left">
      <g
         id="g5105">
        <path
           d="m 186.14285,829.85712 0,16 4,0 0,-16 -4,0 z"
           id="path5107"
           style="opacity:0.25;fill:#28ae95;fill-opacity:1;fill-rule:nonzero;stroke:none" />
        <path
           d="m 185.14285,829.85715 0,15.99999 1,0 0,-15.99999 -1,0 z"
           id="path5109"
           style="opacity:0.85;fill:#28ae95;fill-opacity:1;fill-rule:nonzero;stroke:none" />
      </g>
      <rect
         width="2.0000029"
         height="3"
         x="183.14285"
         y="834.85712"
         id="rect5113"
         style="opacity:0.52100004;fill:#ffffff;fill-opacity:0;stroke:none" />
    </g>
    <g
       transform="translate(-440.14285,-300.85712)"
       id="hover-topleft">
      <g
         id="g5117">
        <path
           d="m 186.14285,829.8571 4,0 0,-4 -1.46875,0 c -1.40502,0 -2.53125,1.11588 -2.53125,2.53125 l 0,1.46875 z"
           id="path5119"
           style="opacity:0.25;fill:#28ae95;fill-opacity:1;fill-rule:nonzero;stroke:none" />
        <path
           d="m 185.14285,828.3884 c 0,-1.94821 1.58839,-3.53125 3.53125,-3.53125 l 1.46875,0 0,1 -1.46875,0 c -1.40502,0 -2.53125,1.11588 -2.53125,2.53125 l 0,1.46875 -1,0 0,-1.46875 z"
           id="path5121"
           style="opacity:0.85;fill:#28ae95;fill-opacity:1;fill-rule:nonzero;stroke:none" />
      </g>
      <rect
         width="2.0000029"
         height="1.9999441"
         x="183.14285"
         y="822.85718"
         id="rect5125"
         style="opacity:0.52100004;fill:#ffffff;fill-opacity:0;stroke:none" />
    </g>
    <g
       transform="matrix(0.36657704,0,0,1,-319.71201,-300.84134)"
       id="hover-top">
      <g
         id="g5129">
        <path
           d="m 190.14286,825.85714 0,4 131,0 0,-4 -131,0 z"
           id="path5131"
           style="opacity:0.25;fill:#28ae95;fill-opacity:1;fill-rule:nonzero;stroke:none" />
        <path
           d="m 190.14285,824.85714 0,1 131,0 0,-1 -131,0 z"
           id="path5133"
           style="opacity:0.85;fill:#28ae95;fill-opacity:1;fill-rule:nonzero;stroke:none" />
      </g>
      <rect
         width="3"
         height="1.9999441"
         x="200.14285"
         y="822.85718"
         id="rect5137"
         style="opacity:0.52100004;fill:#ffffff;fill-opacity:0;stroke:none" />
    </g>
    <g
       transform="translate(-523.14285,-300.84134)"
       id="hover-topright">
      <g
         id="g5141">
        <path
           d="m 321.14285,825.85714 0,4 4,0 0,-1.46875 c 0,-1.40502 -1.11588,-2.53125 -2.53125,-2.53125 l -1.46875,0 z"
           id="path5143"
           style="opacity:0.25;fill:#28ae95;fill-opacity:1;fill-rule:nonzero;stroke:none" />
        <path
           d="m 322.6116,824.85714 c 1.94821,0 3.53125,1.58839 3.53125,3.53125 l 0,1.46875 -1,0 0,-1.46875 c 0,-1.40502 -1.11588,-2.53125 -2.53125,-2.53125 l -1.46875,0 0,-1 1.46875,0 z"
           id="path5145"
           style="opacity:0.85;fill:#28ae95;fill-opacity:1;fill-rule:nonzero;stroke:none" />
      </g>
      <rect
         width="1.9999973"
         height="1.9999441"
         x="326.14285"
         y="822.85718"
         id="rect5149"
         style="opacity:0.52100004;fill:#ffffff;fill-opacity:0;stroke:none" />
    </g>
    <g
       transform="matrix(1,0,0,3.0000017,-523.14285,-1960.5569)"
       id="hover-right">
      <g
         id="g5154">
        <path
           d="m 325.14286,829.85712 0,16 -4,0 0,-16 4,0 z"
           id="path5156"
           style="opacity:0.25;fill:#28ae95;fill-opacity:1;fill-rule:nonzero;stroke:none" />
        <path
           d="m 326.14286,829.85715 0,15.99999 -1,0 0,-15.99999 1,0 z"
           id="path5158"
           style="opacity:0.85;fill:#28ae95;fill-opacity:1;fill-rule:nonzero;stroke:none" />
      </g>
      <rect
         width="1.9999973"
         height="3"
         x="326.14285"
         y="832.85712"
         id="rect5162"
         style="opacity:0.52100004;fill:#ffffff;fill-opacity:0;stroke:none" />
    </g>
    <g
       transform="translate(-523.14285,-268.85712)"
       id="hover-bottomright">
      <g
         id="g5166">
        <g
           id="g5168">
          <path
             d="m 325.1429,845.85714 -4,0 0,4 1.46875,0 c 1.40502,0 2.53125,-1.11588 2.53125,-2.53125 l 0,-1.46875 z"
             id="path5172"
             style="opacity:0.25;fill:#28ae95;fill-opacity:1;fill-rule:nonzero;stroke:none" />
          <path
             d="m 326.14286,847.32589 c 0,1.94821 -1.58839,3.53125 -3.53125,3.53125 l -1.46875,0 0,-1 1.46875,0 c 1.40502,0 2.53125,-1.11588 2.53125,-2.53125 l 0,-1.46875 1,0 0,1.46875 z"
             id="path5174"
             style="opacity:0.85;fill:#28ae95;fill-opacity:1;fill-rule:nonzero;stroke:none" />
        </g>
      </g>
      <rect
         width="1.9999973"
         height="2.0000634"
         x="326.14285"
         y="851.85712"
         id="rect5176"
         style="opacity:0.52100004;fill:#ffffff;fill-opacity:0;stroke:none" />
    </g>
    <path
       d="m -165.00001,530.01576 0,48 48,0 0,-48 -48,0 z"
       id="selected+hover-center"
       style="opacity:0.35;fill:#28ae95;fill-opacity:1;fill-rule:nonzero;stroke:none" />
    <g
       transform="matrix(0.36657704,0,0,1,-234.71202,-267.85714)"
       id="selected+hover-bottom">
      <g
         id="g5182">
        <path
           d="m 190.12705,845.85714 0,4 130.9842,-0.0625 0,-3.9375 -130.9842,0 z"
           id="path5184"
           style="opacity:0.35;fill:#28ae95;fill-opacity:1;fill-rule:nonzero;stroke:none" />
        <path
           d="m 190.14285,849.85714 0,1 131,0 0,-1 -131,0 z"
           id="path5186"
           style="opacity:0.85;fill:#28ae95;fill-opacity:1;fill-rule:nonzero;stroke:none" />
      </g>
      <rect
         width="1"
         height="2.000037"
         x="547"
         y="869"
         transform="translate(-342.85715,-17.142857)"
         id="rect5190"
         style="opacity:0.52100004;fill:#ffffff;fill-opacity:0;stroke:none" />
    </g>
    <g
       transform="translate(-355.14286,-267.85714)"
       id="selected+hover-bottomleft">
      <g
         id="g5194">
        <path
           d="m 188.6741,850.85716 c -1.94821,0 -3.53125,-1.58839 -3.53125,-3.53125 l 0,-1.46875 1,0 0,1.46875 c 0,1.40502 1.11588,2.53125 2.53125,2.53125 l 1.46875,0 0,1 -1.46875,0 z"
           id="path5196"
           style="opacity:0.85;fill:#28ae95;fill-opacity:1;fill-rule:nonzero;stroke:none" />
        <path
           d="m 190.14285,849.8572 0,-4 -4,0 0,1.46875 c 0,1.40502 1.11588,2.53125 2.53125,2.53125 l 1.46875,0 z"
           id="path5198"
           style="opacity:0.35;fill:#28ae95;fill-opacity:1;fill-rule:nonzero;stroke:none" />
      </g>
      <rect
         width="2.0000029"
         height="2.0000634"
         x="183.14285"
         y="851.85712"
         id="rect5202"
         style="opacity:0.52100004;fill:#ffffff;fill-opacity:0;stroke:none" />
    </g>
    <g
       transform="matrix(1,0,0,3.0009825,-355.14286,-1960.3868)"
       id="selected+hover-left">
      <g
         id="g5206">
        <path
           d="m 186.14285,829.85712 0,16 4,0 0,-16 -4,0 z"
           id="path5208"
           style="opacity:0.35;fill:#28ae95;fill-opacity:1;fill-rule:nonzero;stroke:none" />
        <path
           d="m 185.14285,829.85715 0,15.99999 1,0 0,-15.99999 -1,0 z"
           id="path5210"
           style="opacity:0.85;fill:#28ae95;fill-opacity:1;fill-rule:nonzero;stroke:none" />
      </g>
      <rect
         width="2.0000029"
         height="3"
         x="183.14285"
         y="834.85712"
         id="rect5214"
         style="opacity:0.52100004;fill:#ffffff;fill-opacity:0;stroke:none" />
    </g>
    <g
       transform="translate(-355.14286,-299.85714)"
       id="selected+hover-topleft">
      <g
         id="g5218">
        <path
           d="m 186.14285,829.8571 4,0 0,-4 -1.46875,0 c -1.40502,0 -2.53125,1.11588 -2.53125,2.53125 l 0,1.46875 z"
           id="path5220"
           style="opacity:0.35;fill:#28ae95;fill-opacity:1;fill-rule:nonzero;stroke:none" />
        <path
           d="m 185.14285,828.3884 c 0,-1.94821 1.58839,-3.53125 3.53125,-3.53125 l 1.46875,0 0,1 -1.46875,0 c -1.40502,0 -2.53125,1.11588 -2.53125,2.53125 l 0,1.46875 -1,0 0,-1.46875 z"
           id="path5222"
           style="opacity:0.85;fill:#28ae95;fill-opacity:1;fill-rule:nonzero;stroke:none" />
      </g>
      <rect
         width="2.0000029"
         height="1.9999441"
         x="183.14285"
         y="822.85718"
         id="rect5226"
         style="opacity:0.52100004;fill:#ffffff;fill-opacity:0;stroke:none" />
    </g>
    <g
       transform="matrix(0.36657704,0,0,1,-234.71202,-299.84136)"
       id="selected+hover-top">
      <g
         id="g5230">
        <path
           d="m 190.14286,825.85714 0,4 131,0 0,-4 -131,0 z"
           id="path5232"
           style="opacity:0.35;fill:#28ae95;fill-opacity:1;fill-rule:nonzero;stroke:none" />
        <path
           d="m 190.14285,824.85714 0,1 131,0 0,-1 -131,0 z"
           id="path5234"
           style="opacity:0.85;fill:#28ae95;fill-opacity:1;fill-rule:nonzero;stroke:none" />
      </g>
      <rect
         width="3"
         height="1.9999441"
         x="200.14285"
         y="822.85718"
         id="rect5238"
         style="opacity:0.52100004;fill:#ffffff;fill-opacity:0;stroke:none" />
    </g>
    <g
       transform="translate(-438.14286,-299.84136)"
       id="selected+hover-topright">
      <g
         id="g5242">
        <path
           d="m 321.14285,825.85714 0,4 4,0 0,-1.46875 c 0,-1.40502 -1.11588,-2.53125 -2.53125,-2.53125 l -1.46875,0 z"
           id="path5244"
           style="opacity:0.35;fill:#28ae95;fill-opacity:1;fill-rule:nonzero;stroke:none" />
        <path
           d="m 322.6116,824.85714 c 1.94821,0 3.53125,1.58839 3.53125,3.53125 l 0,1.46875 -1,0 0,-1.46875 c 0,-1.40502 -1.11588,-2.53125 -2.53125,-2.53125 l -1.46875,0 0,-1 1.46875,0 z"
           id="path5246"
           style="opacity:0.85;fill:#28ae95;fill-opacity:1;fill-rule:nonzero;stroke:none" />
      </g>
      <rect
         width="1.9999973"
         height="1.9999441"
         x="326.14285"
         y="822.85718"
         id="rect5250"
         style="opacity:0.52100004;fill:#ffffff;fill-opacity:0;stroke:none" />
    </g>
    <g
       transform="matrix(1,0,0,3.0000017,-438.14286,-1959.557)"
       id="selected+hover-right">
      <g
         id="g5254">
        <path
           d="m 325.14286,829.85712 0,16 -4,0 0,-16 4,0 z"
           id="path5256"
           style="opacity:0.35;fill:#28ae95;fill-opacity:1;fill-rule:nonzero;stroke:none" />
        <path
           d="m 326.14286,829.85715 0,15.99999 -1,0 0,-15.99999 1,0 z"
           id="path5258"
           style="opacity:0.85;fill:#28ae95;fill-opacity:1;fill-rule:nonzero;stroke:none" />
      </g>
      <rect
         width="1.9999973"
         height="3"
         x="326.14285"
         y="832.85712"
         id="rect5262"
         style="opacity:0.52100004;fill:#ffffff;fill-opacity:0;stroke:none" />
    </g>
    <g
       transform="translate(-438.14286,-267.85714)"
       id="selected+hover-bottomright">
      <g
         id="g5266">
        <g
           id="g5268">
          <path
             d="m 325.1429,845.85714 -4,0 0,4 1.46875,0 c 1.40502,0 2.53125,-1.11588 2.53125,-2.53125 l 0,-1.46875 z"
             id="path5272"
             style="opacity:0.35;fill:#28ae95;fill-opacity:1;fill-rule:nonzero;stroke:none" />
          <path
             d="m 326.14286,847.32589 c 0,1.94821 -1.58839,3.53125 -3.53125,3.53125 l -1.46875,0 0,-1 1.46875,0 c 1.40502,0 2.53125,-1.11588 2.53125,-2.53125 l 0,-1.46875 1,0 0,1.46875 z"
             id="path5274"
             style="opacity:0.85199998;fill:#28ae95;fill-opacity:1;fill-rule:nonzero;stroke:none" />
        </g>
      </g>
      <rect
         width="1.9999973"
         height="2.0000634"
         x="326.14285"
         y="851.85712"
         id="rect5276"
         style="opacity:0.52100004;fill:#ffffff;fill-opacity:0;stroke:none" />
    </g>
  </g>
</svg>
