<?xml version="1.0" encoding="UTF-8" standalone="no"?>
<!-- Created with Inkscape (http://www.inkscape.org/) -->

<svg
   xmlns:dc="http://purl.org/dc/elements/1.1/"
   xmlns:cc="http://creativecommons.org/ns#"
   xmlns:rdf="http://www.w3.org/1999/02/22-rdf-syntax-ns#"
   xmlns:svg="http://www.w3.org/2000/svg"
   xmlns="http://www.w3.org/2000/svg"
   xmlns:sodipodi="http://sodipodi.sourceforge.net/DTD/sodipodi-0.dtd"
   xmlns:inkscape="http://www.inkscape.org/namespaces/inkscape"
   width="1024"
   height="1024"
   viewBox="0 0 270.93332 270.93332"
   version="1.1"
   id="svg885"
   inkscape:version="0.92.2 5c3e80d, 2017-08-06"
   sodipodi:docname="bulb.svg"
   inkscape:export-filename="/home/lcp/MEGA/Pictures/openSUSE/plymouth/full.png"
   inkscape:export-xdpi="96.000008"
   inkscape:export-ydpi="96.000008">
  <defs
     id="defs879" />
  <sodipodi:namedview
     id="base"
     pagecolor="#ffffff"
     bordercolor="#666666"
     borderopacity="1.0"
     inkscape:pageopacity="0.0"
     inkscape:pageshadow="2"
     inkscape:zoom="0.98994949"
     inkscape:cx="188.4168"
     inkscape:cy="652.86759"
     inkscape:document-units="mm"
     inkscape:current-layer="layer1"
     showgrid="false"
     units="px"
     inkscape:window-width="1920"
     inkscape:window-height="1051"
     inkscape:window-x="1920"
     inkscape:window-y="0"
     inkscape:window-maximized="1"
     showguides="false"
     inkscape:guide-bbox="true">
    <sodipodi:guide
       position="69.925592,61.988092"
       orientation="1,0"
       id="guide1481"
       inkscape:locked="false" />
  </sodipodi:namedview>
  <metadata
     id="metadata882">
    <rdf:RDF>
      <cc:Work
         rdf:about="">
        <dc:format>image/svg+xml</dc:format>
        <dc:type
           rdf:resource="http://purl.org/dc/dcmitype/StillImage" />
        <dc:title />
      </cc:Work>
    </rdf:RDF>
  </metadata>
  <g
     inkscape:label="Layer 1"
     inkscape:groupmode="layer"
     id="layer1"
     transform="translate(0,-26.066693)">
    <path
       style="fill:#35b9ab;fill-opacity:1;stroke-width:0.09536625"
       d="m 135.32098,216.77921 c -0.65669,-0.0912 -1.73418,-0.40079 -2.06986,-0.59469 -0.11244,-0.0649 -0.4961,-0.48287 -0.85258,-0.92872 -2.01938,-2.52559 -3.64278,-3.94623 -5.68178,-4.97218 -0.43732,-0.22005 -0.87023,-0.46396 -0.96202,-0.54203 -0.22814,-0.19404 -0.21529,-0.7066 0.0231,-0.92235 0.20344,-0.18411 0.54196,-0.1776 2.6233,0.0504 1.4742,0.16147 6.71468,0.22434 8.34454,0.10011 3.41202,-0.26006 5.87443,-0.82739 7.72467,-1.77972 0.44584,-0.22949 0.97732,-0.55489 1.18108,-0.72313 l 0.37047,-0.30589 -0.0638,-0.90762 c -0.0351,-0.49918 -0.0776,-0.92142 -0.0945,-0.93829 -0.0169,-0.0169 -0.32654,0.10221 -0.68814,0.26465 -3.20082,1.43793 -7.8972,2.19402 -12.81664,2.06342 -2.27025,-0.0603 -3.25826,-0.14875 -5.08511,-0.45543 -2.21611,-0.37203 -4.80148,-1.16111 -5.07262,-1.54821 -0.1159,-0.16548 -0.14183,-0.61817 -0.14183,-2.47632 0,-1.42042 0.038,-2.3448 0.10117,-2.46288 0.18571,-0.34701 0.48382,-0.37553 1.29388,-0.12382 5.04153,1.56663 11.47148,1.90061 16.43844,0.85385 1.71798,-0.36205 3.54541,-1.00023 5.12594,-1.79007 l 0.9775,-0.4885 v -1.12764 c 0,-0.6202 -0.0209,-1.12764 -0.0466,-1.12764 -0.0256,0 -0.42257,0.15617 -0.88214,0.34703 -2.48275,1.03115 -5.17892,1.70936 -8.17877,2.05734 -1.36668,0.15853 -5.59796,0.15331 -6.96173,-0.009 -1.48058,-0.17578 -3.43799,-0.54059 -4.7112,-0.87806 -1.37503,-0.36446 -2.85465,-0.92778 -2.95922,-1.12663 -0.0442,-0.084 -0.11101,-1.18262 -0.14856,-2.44145 -0.068,-2.27833 -0.0673,-2.29003 0.14608,-2.55986 0.2569,-0.32488 0.27665,-0.32341 2.09397,0.15534 1.39848,0.3684 3.71431,0.75354 5.67429,0.94367 1.87403,0.18178 6.63783,0.15297 8.37461,-0.0506 5.25035,-0.61557 8.97646,-2.0035 11.45147,-4.26551 l 0.55731,-0.50935 -0.0668,-0.71915 c -0.14614,-1.5731 -0.21315,-4.61908 -0.13957,-6.34442 0.16838,-3.94833 0.75801,-7.15553 1.9902,-10.82541 1.03529,-3.08346 2.32166,-5.84647 5.12813,-11.0148 1.49208,-2.74778 2.9323,-5.60748 3.57815,-7.10479 1.73719,-4.02742 2.66996,-7.68355 3.03667,-11.90277 0.1691,-1.9454 0.0687,-5.87587 -0.18677,-7.31353 -0.53869,-3.03117 -1.3675,-5.52845 -2.75361,-8.29686 -3.86847,-7.72629 -10.56746,-13.414 -18.3204,-15.55474 -5.56441,-1.53645 -11.75694,-1.21438 -17.08391,0.88851 -5.13814,2.02835 -9.72159,5.6911 -13.1854,10.53679 -2.69665,3.77247 -4.54285,8.25834 -5.27853,12.82567 -0.20303,1.26049 -0.28123,4.95207 -0.14104,6.65773 0.41654,5.06791 1.59358,9.21965 4.05552,14.30494 0.48247,0.99658 1.68698,3.31398 2.67669,5.14978 3.57958,6.63973 4.96547,9.897 5.96706,14.02446 0.76177,3.13917 1.07231,5.84264 1.07838,9.38795 0.005,3.07986 -0.16331,5.46942 -0.41041,5.81735 -0.23034,0.32433 -0.69027,0.36617 -0.96835,0.0881 -0.19158,-0.19157 -0.20407,-0.27063 -0.14781,-0.93544 0.47882,-5.65856 0.20896,-9.9385 -0.90566,-14.36356 -0.96728,-3.8401 -2.35895,-7.0596 -5.85369,-13.54201 -3.46234,-6.4223 -4.85137,-9.67067 -5.81718,-13.60404 -0.76561,-3.11799 -1.04181,-5.5419 -1.0416,-9.14081 1.3e-4,-2.35046 0.0292,-2.90352 0.21521,-4.09056 1.52508,-9.73446 8.03607,-18.76056 16.73046,-23.19323 4.06871,-2.07436 8.20449,-3.06116 12.84908,-3.06582 2.82838,-0.003 4.54794,0.20753 7.20015,0.8809 3.78193,0.96019 7.60608,2.89289 10.87175,5.49451 1.33082,1.06021 3.79283,3.51339 4.79001,4.77283 3.74925,4.73528 5.9944,9.73715 6.86374,15.29136 0.24335,1.55479 0.24147,6.31346 -0.004,8.29686 -0.76489,6.19826 -2.16859,10.02123 -6.88073,18.73947 -3.06315,5.66735 -4.40129,8.69483 -5.38179,12.17607 -1.28822,4.5738 -1.65245,8.89604 -1.22948,14.59006 l 0.11098,1.49406 -0.31437,0.36558 c -1.68235,1.95637 -4.87117,3.65815 -8.54615,4.56081 -2.73522,0.67185 -5.28471,0.94005 -8.91132,0.93748 -3.71296,-0.003 -6.80006,-0.32855 -9.65825,-1.01965 l -0.93223,-0.22541 0.0263,1.4388 0.0263,1.4388 0.47683,0.17795 c 1.68327,0.62818 4.60439,1.21129 7.0571,1.40871 1.72185,0.1386 4.95264,0.0636 6.53259,-0.15158 3.05397,-0.416 6.00607,-1.28281 8.31859,-2.44255 0.40533,-0.20328 0.79651,-0.3696 0.86927,-0.3696 0.0728,0 0.30506,-0.0304 0.44326,0.0783 0,0 0.1916,0.21045 0.1916,0.31701 0,2.03896 0,2.03896 0,2.03896 0,1.22319 -0.0401,2.12705 -0.10031,2.25913 -0.0552,0.12109 -0.23756,0.29925 -0.40531,0.39591 -2.66428,1.53538 -5.66053,2.50567 -9.17405,2.97084 -4.12997,0.54679 -9.87275,0.0746 -14.09289,-1.15872 -0.15786,-0.0462 -0.16761,0.0498 -0.14305,1.40746 l 0.0264,1.45697 0.97124,0.31272 c 2.23661,0.72012 4.69527,1.07178 8.00916,1.14555 5.43551,0.12101 9.9068,-0.68736 13.0754,-2.36391 0.48646,-0.25739 1.01118,-0.46799 1.16603,-0.46799 0.50857,0 0.55926,0.20639 0.58043,2.36344 0.0218,2.22288 0.0814,2.05581 -1.00972,2.83321 -2.72229,1.93962 -7.35157,2.82275 -14.11113,2.69199 l -2.76255,-0.0534 0.42607,0.34189 c 0.71134,0.57079 2.78293,2.69167 3.47038,3.55298 0.35586,0.44583 0.73913,0.85858 0.85173,0.91721 0.80029,0.41672 2.82299,0.49722 3.92527,0.15622 0.36786,-0.11381 0.88271,-0.35897 1.14409,-0.54481 0.53996,-0.38389 0.82124,-0.42167 1.09575,-0.14716 0.29242,0.29242 0.24719,0.72212 -0.11038,1.04871 -0.95333,0.87072 -3.11953,1.38165 -4.84289,1.14226 z"
       id="path1479"
       inkscape:connector-curvature="0"
       sodipodi:nodetypes="cccccccccccccscccscccccsscccscsccccsccssccccssssssssssccssssccscsssscsssccccsccccccsscsscccccccscsscccccccccccc" />
    <path
       style="fill:#73ba25;fill-opacity:1;stroke-width:0.09536625"
       d="m 128.63957,186.38902 c -0.35676,-0.12751 -0.38146,-0.29878 -0.38163,-2.64614 -6.9e-4,-9.97678 -2.21174,-19.66488 -7.24895,-31.76258 -1.42468,-3.4216 -2.86494,-6.57432 -5.32805,-11.66311 -0.84538,-1.74653 -1.53704,-3.21519 -1.53704,-3.26369 0,-0.17019 0.967,-2.33961 1.38319,-3.10313 2.0822,-3.81985 5.04814,-6.69474 8.63026,-8.36532 5.17422,-2.41308 11.93685,-2.67565 18.81535,-0.73054 l 1.02954,0.29113 0.43101,-0.47939 c 0.27472,-0.30555 0.66144,-0.59283 1.06651,-0.79224 0.61664,-0.30358 0.67094,-0.31279 1.82959,-0.31082 0.88934,0.002 1.35228,0.0484 1.81396,0.18383 1.6235,0.47613 3.45113,1.39117 4.81855,2.41253 0.79465,0.59354 1.23613,1.20531 1.94437,2.69443 0.92991,1.95518 0.87454,3.27263 -0.17122,4.07431 -0.60474,0.4636 -1.02571,0.55198 -2.58632,0.54298 -1.16117,-0.006 -1.61209,-0.0559 -2.8133,-0.30686 -1.91995,-0.40114 -3.68317,-0.91972 -3.83552,-1.12807 -0.28031,-0.38335 0.0107,-0.9901 0.47386,-0.98793 0.11801,5.8e-4 0.7483,0.15077 1.40064,0.33382 1.99679,0.5603 3.54002,0.83063 4.82201,0.8447 0.97004,0.0106 1.20251,-0.0165 1.52586,-0.17818 0.53159,-0.2658 0.66959,-0.59278 0.53821,-1.27531 -0.13087,-0.67989 -1.18338,-2.79668 -1.59547,-3.20877 -0.77906,-0.77906 -2.965,-1.97961 -4.52167,-2.48336 -0.65135,-0.21078 -0.99798,-0.26379 -1.76428,-0.26981 -1.3091,-0.0103 -1.67779,0.18418 -2.37637,1.25344 -0.17362,0.26574 -0.37981,0.46461 -0.49949,0.48175 -0.1121,0.0161 -0.69661,-0.12021 -1.29891,-0.3028 -3.02771,-0.91785 -6.16743,-1.3924 -9.22477,-1.39427 -7.24712,-0.004 -12.74103,2.70486 -16.3125,8.04442 -0.66631,0.99616 -1.61101,2.76277 -2.02968,3.79551 l -0.14161,0.34931 0.90676,1.84411 c 8.1497,16.57432 11.68823,27.22121 12.86312,38.70317 0.0905,0.88395 0.17247,2.86468 0.20404,4.92726 l 0.0528,3.44909 c 0.002,0.11613 -0.14937,0.24636 -0.14937,0.24636 -0.24479,0.24479 -0.45945,0.2781 -0.73347,0.18017 z"
       id="path1477"
       inkscape:connector-curvature="0"
       sodipodi:nodetypes="cssssscccccccsscccccccccccccccccccscssscc" />
    <path
       style="fill:#73ba25;fill-opacity:1;stroke-width:0.09536625"
       d="m 141.7272,186.35544 c -0.11878,-0.0472 -0.25825,-0.19712 -0.30994,-0.33307 -0.0517,-0.136 -0.094,-1.22095 -0.094,-2.41218 0,-9.45312 2.081,-19.0312 6.56133,-30.19942 1.67969,-4.18701 3.37195,-7.93863 6.44745,-14.29347 0.74355,-1.53638 0.89573,-1.92211 0.8026,-2.03431 -0.19192,-0.23126 -1.18451,-0.68819 -1.86676,-0.85934 -0.9464,-0.23743 -3.83119,-0.21148 -6.11895,0.055 -0.96576,0.11252 -2.15164,0.20457 -2.63529,0.20457 -0.8313,0 -0.88249,0.0117 -0.93685,0.21457 -0.18059,0.67385 0.005,1.14469 0.98401,2.50336 1.12383,1.55885 1.34649,2.12846 0.96644,2.4724 -0.14704,0.13307 -0.43191,0.17571 -1.45433,0.21767 l -1.27148,0.0522 -1.19207,-1.0252 c -3.34791,-2.87921 -6.15103,-4.81614 -6.97027,-4.81639 -0.44596,-9e-5 -0.51509,0.31447 -0.52388,2.38408 -0.004,1.0228 -0.0151,1.9123 -0.0238,1.97665 -0.009,0.0643 -0.11499,0.1819 -0.23605,0.26123 -0.19731,0.12928 -0.4135,0.12545 -2.08845,-0.037 -1.02759,-0.0997 -1.95074,-0.22529 -2.05143,-0.27919 -0.13747,-0.0736 -0.26836,-0.44036 -0.52545,-1.47249 -0.77178,-3.09834 -1.62533,-4.26225 -3.61554,-4.93016 -0.43848,-0.14715 -1.1191,-0.32084 -1.51248,-0.38596 -0.62015,-0.10266 -0.79736,-0.0972 -1.33278,0.0414 -0.79419,0.2054 -1.35868,0.53935 -1.97338,1.16743 -0.6853,0.70023 -1.11365,1.60064 -1.16112,2.44077 -0.0578,1.02344 0.10425,1.44514 0.8368,2.17717 1.367,1.36602 2.60389,1.47098 3.23345,0.27441 0.20869,-0.39666 0.21946,-0.497 0.1695,-1.57939 -0.0477,-1.03318 -0.0351,-1.17232 0.11844,-1.31129 0.1955,-0.17692 0.51377,-0.20079 0.77968,-0.0585 0.4485,0.24003 0.5763,2.28877 0.20263,3.2484 -0.8897,2.28485 -3.48553,2.40074 -5.52287,0.24656 -1.48059,-1.5655 -1.52237,-3.67271 -0.11262,-5.68011 0.98855,-1.40766 2.61215,-2.29869 4.18853,-2.29869 1.14605,0 3.07582,0.60505 4.09878,1.28511 1.24109,0.82508 2.0161,2.09007 2.63062,4.29382 0.19014,0.68187 0.35988,1.28759 0.37721,1.34604 0.0183,0.0617 0.4049,0.13451 0.92159,0.17355 0.48954,0.037 0.98225,0.0893 1.09489,0.11619 0.20237,0.0483 0.2052,0.0297 0.23841,-1.5633 0.0328,-1.57286 0.0406,-1.62582 0.31971,-2.17013 0.36879,-0.71917 0.90475,-1.04458 1.59272,-0.96703 1.30108,0.14668 4.02837,1.99486 8.00599,5.42537 0.48849,0.4213 0.57036,0.4589 0.87489,0.40177 l 0.33596,-0.0631 -0.5562,-0.75014 c -0.89411,-1.2059 -1.0982,-1.70106 -1.0982,-2.66454 0,-0.85422 0.10896,-1.19673 0.55979,-1.75969 0.19384,-0.24206 0.27735,-0.27624 0.59576,-0.24388 0.81323,0.0827 2.35319,0.0209 3.75582,-0.15061 2.04836,-0.2505 5.27049,-0.25463 6.32153,-0.008 1.4183,0.33267 3.11972,1.43579 3.11972,2.0227 0,0.12394 -0.54057,1.33257 -1.20128,2.68583 -6.55237,13.42068 -9.7789,22.0683 -11.57493,31.02269 -0.91464,4.56009 -1.45392,10.31479 -1.29663,13.83637 0.056,1.25436 0.0453,1.41053 -0.10882,1.5891 -0.21306,0.24679 -0.48754,0.32189 -0.76838,0.21022 z"
       id="path1473"
       inkscape:connector-curvature="0" />
  </g>
</svg>
