<?xml version="1.0" encoding="UTF-8" standalone="no"?>
<!-- Created with Inkscape (http://www.inkscape.org/) -->

<svg
   xmlns:dc="http://purl.org/dc/elements/1.1/"
   xmlns:cc="http://creativecommons.org/ns#"
   xmlns:rdf="http://www.w3.org/1999/02/22-rdf-syntax-ns#"
   xmlns:svg="http://www.w3.org/2000/svg"
   xmlns="http://www.w3.org/2000/svg"
   xmlns:sodipodi="http://sodipodi.sourceforge.net/DTD/sodipodi-0.dtd"
   xmlns:inkscape="http://www.inkscape.org/namespaces/inkscape"
   width="1024"
   height="1024"
   viewBox="0 0 270.93332 270.93332"
   version="1.1"
   id="svg885"
   inkscape:version="0.92.2 5c3e80d, 2017-08-06"
   sodipodi:docname="bulb.svg"
   inkscape:export-filename="/home/lcp/MEGA/Pictures/openSUSE/plymouth/full.png"
   inkscape:export-xdpi="96.000008"
   inkscape:export-ydpi="96.000008">
  <defs
     id="defs879">
    <filter
       inkscape:collect="always"
       style="color-interpolation-filters:sRGB"
       id="filter864"
       x="-0.085580923"
       width="1.1711618"
       y="-0.046192603"
       height="1.0923852">
      <feGaussianBlur
         inkscape:collect="always"
         stdDeviation="2.1288868"
         id="feGaussianBlur866" />
    </filter>
    <filter
       inkscape:collect="always"
       style="color-interpolation-filters:sRGB"
       id="filter868"
       x="-0.12044611"
       width="1.2408922"
       y="-0.081258802"
       height="1.1625176">
      <feGaussianBlur
         inkscape:collect="always"
         stdDeviation="2.1288868"
         id="feGaussianBlur870" />
    </filter>
    <filter
       inkscape:collect="always"
       style="color-interpolation-filters:sRGB"
       id="filter872"
       x="-0.13303512"
       width="1.2660702"
       y="-0.094409445"
       height="1.1888189">
      <feGaussianBlur
         inkscape:collect="always"
         stdDeviation="2.1288868"
         id="feGaussianBlur874" />
    </filter>
  </defs>
  <sodipodi:namedview
     id="base"
     pagecolor="#ffffff"
     bordercolor="#666666"
     borderopacity="1.0"
     inkscape:pageopacity="0.0"
     inkscape:pageshadow="2"
     inkscape:zoom="0.35"
     inkscape:cx="7.6012619"
     inkscape:cy="711.00377"
     inkscape:document-units="mm"
     inkscape:current-layer="layer1"
     showgrid="false"
     units="px"
     inkscape:window-width="1366"
     inkscape:window-height="713"
     inkscape:window-x="0"
     inkscape:window-y="27"
     inkscape:window-maximized="1"
     showguides="false"
     inkscape:guide-bbox="true">
    <sodipodi:guide
       position="69.925592,61.988092"
       orientation="1,0"
       id="guide1481"
       inkscape:locked="false" />
  </sodipodi:namedview>
  <metadata
     id="metadata882">
    <rdf:RDF>
      <cc:Work
         rdf:about="">
        <dc:format>image/svg+xml</dc:format>
        <dc:type
           rdf:resource="http://purl.org/dc/dcmitype/StillImage" />
        <dc:title />
      </cc:Work>
    </rdf:RDF>
  </metadata>
  <g
     inkscape:label="Layer 1"
     inkscape:groupmode="layer"
     id="layer1"
     transform="translate(0,-26.066693)">
    <path
       style="fill:#00eed5;fill-opacity:1;stroke-width:0.09536625;filter:url(#filter864)"
       d="m 135.32098,216.77921 c -0.65669,-0.0912 -1.73418,-0.40079 -2.06985,-0.59469 -0.11244,-0.0649 -0.49611,-0.48287 -0.85258,-0.92872 -2.01939,-2.52559 -3.64279,-3.94624 -5.68179,-4.97218 -0.43732,-0.22005 -0.87023,-0.46396 -0.96202,-0.54203 -0.22814,-0.19404 -0.21529,-0.7066 0.0231,-0.92235 0.20344,-0.18412 0.54196,-0.1776 2.6233,0.0504 1.4742,0.16147 6.71468,0.22434 8.34454,0.10011 3.41202,-0.26007 5.87443,-0.82739 7.72467,-1.77972 0.44584,-0.2295 0.97733,-0.55489 1.18108,-0.72313 l 0.37047,-0.30589 -0.0638,-0.90763 c -0.0351,-0.49917 -0.0776,-0.92141 -0.0945,-0.93828 -0.0169,-0.0169 -0.32654,0.10221 -0.68814,0.26464 -3.20082,1.43794 -7.89719,2.19403 -12.81664,2.06343 -2.27025,-0.0603 -3.25826,-0.14875 -5.08511,-0.45543 -2.21611,-0.37203 -4.80148,-1.16111 -5.07262,-1.54822 -0.1159,-0.16547 -0.14183,-0.61816 -0.14183,-2.47632 0,-1.42041 0.038,-2.34479 0.10117,-2.46287 0.18571,-0.34701 0.48382,-0.37554 1.29388,-0.12382 5.04153,1.56663 11.47148,1.90061 16.43844,0.85385 1.71799,-0.36205 3.54541,-1.00023 5.12594,-1.79007 l 0.9775,-0.4885 v -1.12765 c 0,-0.62019 -0.0209,-1.12763 -0.0466,-1.12763 -0.0256,0 -0.42257,0.15617 -0.88214,0.34703 -2.48275,1.03115 -5.17892,1.70936 -8.17877,2.05734 -1.36668,0.15853 -5.59796,0.15331 -6.96173,-0.009 -1.48058,-0.17578 -3.43799,-0.54059 -4.7112,-0.87806 -1.37503,-0.36446 -2.85465,-0.92778 -2.95922,-1.12663 -0.0442,-0.084 -0.11101,-1.18262 -0.14856,-2.44145 -0.068,-2.27833 -0.0673,-2.29003 0.14608,-2.55986 0.2569,-0.32488 0.27665,-0.32341 2.09397,0.15534 1.39848,0.3684 3.71431,0.75354 5.67429,0.94367 1.87403,0.18178 6.63783,0.15297 8.37461,-0.0506 5.25035,-0.61557 8.97646,-2.0035 11.45147,-4.26551 l 0.55731,-0.50935 -0.0668,-0.71915 c -0.14614,-1.5731 -0.21315,-4.61908 -0.13956,-6.34442 0.16837,-3.94833 0.75801,-7.15553 1.99019,-10.82541 1.03529,-3.08346 2.32166,-5.84647 5.12813,-11.0148 1.49208,-2.74778 2.9323,-5.60748 3.57815,-7.10479 1.73719,-4.02742 2.66996,-7.68355 3.03668,-11.90277 0.16909,-1.9454 0.0687,-5.87587 -0.18678,-7.31353 -0.53869,-3.03117 -1.3675,-5.52845 -2.75361,-8.29686 -3.86847,-7.72629 -10.56746,-13.414 -18.3204,-15.55474 -5.56441,-1.53645 -11.75694,-1.21438 -17.08391,0.88851 -5.13814,2.02835 -9.72159,5.6911 -13.1854,10.53679 -2.69665,3.77247 -4.54285,8.25834 -5.27853,12.82567 -0.20303,1.26049 -0.28123,4.95207 -0.14104,6.65773 0.41654,5.06791 1.59358,9.21965 4.05552,14.30494 0.48247,0.99658 1.68698,3.31398 2.67669,5.14978 3.57958,6.63973 4.96547,9.897 5.96706,14.02446 0.76177,3.13917 1.07231,5.84264 1.07838,9.38795 0.005,3.07985 -0.16331,5.46941 -0.41041,5.81734 -0.23034,0.32434 -0.69027,0.36617 -0.96835,0.0881 -0.19158,-0.19157 -0.20407,-0.27063 -0.14781,-0.93544 0.47882,-5.65857 0.20896,-9.9385 -0.90566,-14.36356 -0.96728,-3.84009 -2.35895,-7.05959 -5.85369,-13.542 -3.46234,-6.4223 -4.85137,-9.67067 -5.81718,-13.60404 -0.76561,-3.11799 -1.04181,-5.5419 -1.0416,-9.14081 1.3e-4,-2.35046 0.0292,-2.90352 0.21521,-4.09056 1.52508,-9.73446 8.03607,-18.76056 16.73046,-23.19323 4.06871,-2.07436 8.20449,-3.06116 12.84908,-3.06582 2.82838,-0.003 4.54795,0.20753 7.20016,0.8809 3.78192,0.96019 7.60608,2.89289 10.87175,5.49451 1.33082,1.06021 3.79282,3.51339 4.79001,4.77283 3.74924,4.73528 5.9944,9.73715 6.86374,15.29136 0.24334,1.55479 0.24147,6.31346 -0.004,8.29686 -0.7649,6.19826 -2.16859,10.02123 -6.88073,18.73947 -3.06315,5.66735 -4.40129,8.69483 -5.3818,12.17607 -1.28821,4.5738 -1.65245,8.89603 -1.22947,14.59006 l 0.11097,1.49406 -0.31437,0.36558 c -1.68235,1.95636 -4.87116,3.65815 -8.54615,4.56081 -2.73522,0.67184 -5.2847,0.94004 -8.91132,0.93748 -3.71295,-0.003 -6.80005,-0.32855 -9.65824,-1.01966 l -0.93223,-0.2254 0.0263,1.43879 0.0263,1.43881 0.47683,0.17795 c 1.68327,0.62818 4.60439,1.21129 7.0571,1.4087 1.72185,0.13861 4.95264,0.0636 6.53258,-0.15158 3.05398,-0.41599 6.00608,-1.2828 8.3186,-2.44254 0.40533,-0.20328 0.79651,-0.3696 0.86927,-0.3696 0.0728,0 0.30506,-0.0304 0.44326,0.0783 0,0 0.1916,0.21045 0.1916,0.31702 0,2.03896 0,2.03896 0,2.03896 0,1.22319 -0.0401,2.12705 -0.10031,2.25913 -0.0552,0.12108 -0.23756,0.29924 -0.40531,0.3959 -2.66428,1.53538 -5.66053,2.50568 -9.17405,2.97084 -4.12997,0.54679 -9.87275,0.0746 -14.09289,-1.15871 -0.15786,-0.0462 -0.16761,0.0498 -0.14305,1.40745 l 0.0264,1.45697 0.97124,0.31273 c 2.23661,0.72012 4.69527,1.07178 8.00916,1.14554 5.43551,0.12101 9.9068,-0.68735 13.0754,-2.3639 0.48646,-0.25739 1.01118,-0.46799 1.16603,-0.46799 0.50857,0 0.55926,0.20639 0.58043,2.36344 0.0218,2.22287 0.0814,2.05581 -1.00972,2.83321 -2.72229,1.93962 -7.35157,2.82274 -14.11113,2.69198 l -2.76255,-0.0534 0.42607,0.34189 c 0.71134,0.57079 2.78293,2.69167 3.47038,3.55297 0.35586,0.44584 0.73913,0.85859 0.85173,0.91721 0.80029,0.41673 2.82299,0.49723 3.92527,0.15622 0.36786,-0.11381 0.88271,-0.35896 1.14409,-0.5448 0.53996,-0.38389 0.82124,-0.42168 1.09575,-0.14717 0.29242,0.29243 0.24719,0.72213 -0.11038,1.04872 -0.95333,0.87072 -3.11953,1.38165 -4.84289,1.14225 z"
       id="path1479-3"
       inkscape:connector-curvature="0"
       sodipodi:nodetypes="cccccccccccccscccscccccsscccscsccccsccssccccssssssssssccssssccscsssscsssccccsccccccsscsscccccccscsscccccccccccc"
       transform="matrix(2.2423088,0,0,2.242308,-168.29136,-200.67417)" />
    <path
       style="fill:#75da05;fill-opacity:1;stroke-width:0.09536625;filter:url(#filter868)"
       d="m 128.63957,186.38902 c -0.35676,-0.12751 -0.38146,-0.29878 -0.38163,-2.64614 -6.8e-4,-9.97678 -2.21174,-19.66488 -7.24895,-31.76258 -1.42468,-3.4216 -2.86494,-6.57432 -5.32805,-11.66311 -0.84538,-1.74653 -1.53704,-3.21519 -1.53704,-3.26369 0,-0.17019 0.967,-2.33961 1.38319,-3.10313 2.0822,-3.81985 5.04814,-6.69474 8.63026,-8.36532 5.17422,-2.41308 11.93686,-2.67565 18.81536,-0.73054 l 1.02953,0.29113 0.43102,-0.47939 c 0.27472,-0.30555 0.66144,-0.59283 1.0665,-0.79224 0.61665,-0.30358 0.67095,-0.31279 1.8296,-0.31082 0.88933,0.002 1.35228,0.0484 1.81396,0.18383 1.62349,0.47613 3.45113,1.39117 4.81854,2.41253 0.79465,0.59354 1.23614,1.20531 1.94437,2.69443 0.92991,1.95518 0.87455,3.27263 -0.17122,4.07431 -0.60473,0.4636 -1.02571,0.55198 -2.58632,0.54298 -1.16116,-0.006 -1.61209,-0.0559 -2.81329,-0.30686 -1.91996,-0.40114 -3.68317,-0.91972 -3.83553,-1.12807 -0.2803,-0.38335 0.0107,-0.9901 0.47386,-0.98793 0.11801,5.8e-4 0.7483,0.15077 1.40065,0.33382 1.99678,0.5603 3.54001,0.83063 4.82201,0.8447 0.97003,0.0106 1.20251,-0.0165 1.52586,-0.17818 0.53159,-0.2658 0.66958,-0.59278 0.53821,-1.27531 -0.13088,-0.67989 -1.18339,-2.79668 -1.59547,-3.20877 -0.77906,-0.77906 -2.965,-1.97961 -4.52167,-2.48336 -0.65136,-0.21078 -0.99798,-0.26379 -1.76429,-0.26981 -1.3091,-0.0103 -1.67779,0.18418 -2.37636,1.25344 -0.17362,0.26574 -0.37981,0.46461 -0.4995,0.48175 -0.11209,0.0161 -0.6966,-0.12021 -1.2989,-0.3028 -3.02772,-0.91785 -6.16744,-1.3924 -9.22478,-1.39427 -7.24712,-0.004 -12.74103,2.70486 -16.3125,8.04442 -0.66631,0.99616 -1.61101,2.76277 -2.02968,3.79551 l -0.14161,0.34931 0.90676,1.84411 c 8.1497,16.57432 11.68823,27.22121 12.86312,38.70317 0.0905,0.88395 0.17247,2.86468 0.20404,4.92725 l 0.0528,3.44909 c 0.002,0.11614 -0.14937,0.24637 -0.14937,0.24637 -0.24479,0.24479 -0.45945,0.2781 -0.73347,0.18017 z"
       id="path1477-6"
       inkscape:connector-curvature="0"
       sodipodi:nodetypes="cssssscccccccsscccccccccccccccccccscssscc"
       transform="matrix(2.2423088,0,0,2.242308,-168.29136,-200.67417)" />
    <path
       style="fill:#75df00;fill-opacity:1;stroke-width:0.09536625;filter:url(#filter872)"
       d="m 141.72721,186.35544 c -0.11879,-0.0472 -0.25826,-0.19712 -0.30995,-0.33308 -0.0517,-0.13599 -0.094,-1.22094 -0.094,-2.41218 0,-9.45311 2.08101,-19.03119 6.56134,-30.19941 1.67969,-4.18701 3.37195,-7.93863 6.44745,-14.29347 0.74355,-1.53638 0.89573,-1.92211 0.8026,-2.03431 -0.19192,-0.23126 -1.18451,-0.68819 -1.86676,-0.85934 -0.9464,-0.23743 -3.83119,-0.21148 -6.11896,0.055 -0.96575,0.11252 -2.15163,0.20457 -2.63528,0.20457 -0.8313,0 -0.88249,0.0117 -0.93685,0.21457 -0.18059,0.67385 0.005,1.14469 0.98401,2.50336 1.12383,1.55885 1.34649,2.12846 0.96644,2.4724 -0.14704,0.13307 -0.43191,0.17571 -1.45433,0.21767 l -1.27148,0.0522 -1.19207,-1.0252 c -3.34791,-2.87921 -6.15103,-4.81614 -6.97027,-4.81639 -0.44596,-9e-5 -0.51509,0.31447 -0.52388,2.38408 -0.004,1.0228 -0.0151,1.9123 -0.0238,1.97665 -0.009,0.0643 -0.115,0.1819 -0.23606,0.26123 -0.19731,0.12928 -0.41349,0.12545 -2.08845,-0.037 -1.02759,-0.0997 -1.95074,-0.22529 -2.05143,-0.27919 -0.13747,-0.0736 -0.26836,-0.44036 -0.52545,-1.47249 -0.77178,-3.09834 -1.62533,-4.26225 -3.61554,-4.93016 -0.43848,-0.14715 -1.1191,-0.32084 -1.51248,-0.38596 -0.62015,-0.10266 -0.79736,-0.0972 -1.33278,0.0414 -0.79419,0.2054 -1.35868,0.53935 -1.97338,1.16743 -0.6853,0.70023 -1.11365,1.60064 -1.16112,2.44077 -0.0578,1.02344 0.10425,1.44514 0.8368,2.17717 1.367,1.36602 2.60389,1.47098 3.23345,0.27441 0.20869,-0.39666 0.21946,-0.497 0.1695,-1.57939 -0.0477,-1.03318 -0.0351,-1.17232 0.11844,-1.31129 0.1955,-0.17692 0.51377,-0.20079 0.77968,-0.0585 0.4485,0.24003 0.5763,2.28877 0.20263,3.2484 -0.8897,2.28485 -3.48553,2.40074 -5.52287,0.24656 -1.48059,-1.5655 -1.52237,-3.67271 -0.11262,-5.68011 0.98855,-1.40766 2.61215,-2.29869 4.18853,-2.29869 1.14605,0 3.07582,0.60505 4.09878,1.28511 1.24109,0.82508 2.0161,2.09007 2.63062,4.29382 0.19014,0.68187 0.35988,1.28759 0.37721,1.34604 0.0183,0.0617 0.4049,0.13451 0.92159,0.17355 0.48954,0.037 0.98225,0.0893 1.0949,0.11619 0.20236,0.0483 0.2052,0.0297 0.23841,-1.5633 0.0328,-1.57286 0.0406,-1.62582 0.31971,-2.17013 0.36878,-0.71917 0.90475,-1.04458 1.59272,-0.96703 1.30107,0.14668 4.02836,1.99486 8.00599,5.42537 0.48849,0.4213 0.57036,0.4589 0.87489,0.40177 l 0.33596,-0.0631 -0.55621,-0.75014 c -0.89411,-1.2059 -1.09819,-1.70106 -1.09819,-2.66454 0,-0.85422 0.10896,-1.19673 0.55978,-1.75969 0.19384,-0.24206 0.27735,-0.27624 0.59576,-0.24388 0.81324,0.0827 2.3532,0.0209 3.75583,-0.15061 2.04836,-0.2505 5.27049,-0.25463 6.32152,-0.008 1.41831,0.33267 3.11972,1.43579 3.11972,2.0227 0,0.12394 -0.54057,1.33257 -1.20128,2.68583 -6.55236,13.42068 -9.77889,22.0683 -11.57493,31.02269 -0.91463,4.56009 -1.45392,10.31479 -1.29663,13.83637 0.056,1.25436 0.0453,1.41053 -0.10881,1.5891 -0.21307,0.24679 -0.48755,0.32189 -0.76839,0.21022 z"
       id="path1473-7"
       inkscape:connector-curvature="0"
       transform="matrix(2.2423088,0,0,2.242308,-168.29136,-200.67417)" />
    <path
       style="fill:#99e2da;fill-opacity:1;stroke-width:0.2138405"
       d="m 135.1401,285.41161 c -1.47251,-0.2045 -3.88857,-0.8987 -4.64127,-1.33348 -0.25213,-0.14553 -1.11241,-1.08274 -1.91176,-2.08248 -4.52807,-5.66314 -8.16824,-8.84866 -12.7403,-11.14915 -0.98061,-0.49342 -1.95132,-1.04034 -2.15714,-1.21541 -0.51156,-0.43509 -0.48275,-1.58441 0.0518,-2.06818 0.45618,-0.41284 1.21524,-0.39824 5.88225,0.113 3.30561,0.36207 15.05639,0.50305 18.71104,0.22448 7.6508,-0.58313 13.17228,-1.85526 17.32109,-3.99068 0.99971,-0.51458 2.19146,-1.24423 2.64835,-1.62148 l 0.83071,-0.68589 -0.14306,-2.03516 c -0.0787,-1.11932 -0.17401,-2.06611 -0.2119,-2.10395 -0.0379,-0.0379 -0.7322,0.2292 -1.54303,0.59343 -7.17723,3.22428 -17.70795,4.91967 -28.73886,4.62682 -5.09061,-0.1352 -7.30603,-0.33354 -11.40239,-1.02121 -4.9692,-0.8342 -10.76639,-2.60356 -11.37438,-3.47156 -0.25988,-0.37106 -0.31802,-1.38613 -0.31802,-5.55267 0,-3.18503 0.0852,-5.25777 0.22686,-5.52254 0.41642,-0.77811 1.08487,-0.84206 2.90127,-0.27764 11.30467,3.51286 25.7226,4.26175 36.86005,1.91459 3.85225,-0.81182 7.94991,-2.24282 11.49394,-4.01389 l 2.19187,-1.09537 v -2.52851 c 0,-1.39068 -0.0469,-2.52851 -0.10449,-2.52851 -0.0574,0 -0.94753,0.35018 -1.97804,0.77814 -5.56709,2.31216 -11.61273,3.83291 -18.33932,4.61319 -3.06452,0.35547 -12.55237,0.34377 -15.61036,-0.0202 -3.31992,-0.39415 -7.70903,-1.21217 -10.56396,-1.96888 -3.08323,-0.81723 -6.401,-2.08037 -6.63548,-2.52625 -0.0991,-0.18836 -0.24891,-2.6518 -0.33312,-5.47449 -0.15248,-5.10871 -0.1509,-5.13494 0.32756,-5.73999 0.57605,-0.72848 0.62034,-0.72519 4.69533,0.34832 3.13582,0.82607 8.32863,1.68967 12.72351,2.116 4.20215,0.40761 14.88406,0.34301 18.77845,-0.11346 11.77291,-1.3803 20.12801,-4.49247 25.67774,-9.56458 l 1.24966,-1.14212 -0.14979,-1.61256 c -0.32768,-3.52738 -0.47794,-10.35741 -0.31295,-14.22615 0.37755,-8.85337 1.69969,-16.0449 4.46264,-24.2739 2.32144,-6.91407 5.20587,-13.10958 11.49885,-24.69858 3.3457,-6.16137 6.57512,-12.57369 8.02332,-15.93113 3.89532,-9.03071 5.98688,-17.22888 6.80914,-26.68967 0.37918,-4.36218 0.15405,-13.175513 -0.41879,-16.399192 -1.20791,-6.796813 -3.06636,-12.396484 -6.17444,-18.604112 -8.67431,-17.324722 -23.69551,-30.07832 -41.08,-34.878518 -12.47712,-3.445195 -26.36269,-2.723015 -38.3074,1.992313 C 101.79399,49.118536 91.516472,57.33155 83.749544,68.19708 77.702827,76.65612 73.563072,86.714821 71.91345,96.956174 c -0.45526,2.826413 -0.630601,11.104076 -0.316257,14.928696 0.934018,11.36381 3.573298,20.67329 9.093732,32.07608 1.081842,2.23464 3.782727,7.43096 6.001964,11.54739 8.026519,14.88832 11.134113,22.19212 13.379991,31.44716 1.70813,7.03899 2.40446,13.10099 2.41807,21.05067 0.0112,6.906 -0.3662,12.26412 -0.92027,13.0443 -0.5165,0.72724 -1.5478,0.82106 -2.171349,0.19754 -0.429579,-0.42956 -0.457579,-0.60683 -0.331435,-2.09755 1.073674,-12.68823 0.468554,-22.28517 -2.030768,-32.20752 -2.168939,-8.61069 -5.28949,-15.8298 -13.125779,-30.36536 -7.763632,-14.40077 -10.87827,-21.68462 -13.043915,-30.50444 -1.716732,-6.9915 -2.336058,-12.42665 -2.335584,-20.49651 2.89e-4,-5.27046 0.06551,-6.510593 0.482563,-9.172302 3.419697,-21.827658 18.019352,-42.066954 37.514857,-52.006366 9.12331,-4.651354 18.39699,-6.864064 28.81161,-6.874513 6.3421,-0.0068 10.19789,0.465347 16.14495,1.975249 8.48027,2.153042 17.05518,6.486751 24.37782,12.320384 2.98411,2.377318 8.5047,7.878103 10.74069,10.702155 8.40697,10.617957 13.44129,21.83369 15.39062,34.287937 0.54567,3.486326 0.54145,14.156726 -0.009,18.604116 -1.71513,13.89841 -4.86266,22.47068 -15.42872,42.01967 -6.86853,12.70795 -9.86906,19.49649 -12.06765,27.30249 -2.88858,10.25587 -3.70529,19.94767 -2.75687,32.71541 l 0.24886,3.35015 -0.70492,0.81974 c -3.77235,4.38679 -10.92266,8.2027 -19.16311,10.22674 -6.13321,1.50649 -11.84995,2.10789 -19.98193,2.10212 -8.3256,-0.007 -15.24783,-0.73671 -21.65678,-2.28637 l -2.09035,-0.50543 0.0589,3.22623 0.0589,3.22623 1.06919,0.39902 c 3.77442,1.40857 10.32447,2.71609 15.8242,3.15876 3.86092,0.31079 11.10535,0.14261 14.64809,-0.33989 6.84794,-0.9328 13.46745,-2.87646 18.65284,-5.47695 0.90888,-0.45582 1.78603,-0.82876 1.94918,-0.82876 0.16324,0 0.68404,-0.0681 0.99393,0.17557 0,0 0.42962,0.4719 0.42962,0.71084 0,4.57198 0,4.57198 0,4.57198 0,2.74276 -0.09,4.7695 -0.22493,5.06566 -0.12377,0.27152 -0.53268,0.67102 -0.90883,0.88776 -5.97415,3.44279 -12.69266,5.61848 -20.57105,6.66154 -9.26067,1.22607 -22.13776,0.16727 -31.60061,-2.59821 -0.35397,-0.1036 -0.37583,0.11167 -0.32076,3.15596 l 0.0592,3.26697 2.17782,0.70122 c 5.01516,1.61472 10.52824,2.40325 17.95901,2.56867 12.18809,0.27134 22.2141,-1.54128 29.31908,-5.30062 1.0908,-0.57714 2.26739,-1.04938 2.61461,-1.04938 1.14037,0 1.25403,0.4628 1.3015,5.29957 0.0489,4.98438 0.18253,4.60976 -2.26411,6.35293 -6.10422,4.34922 -16.48449,6.32948 -31.64152,6.03627 l -6.19448,-0.11974 0.95538,0.76662 c 1.59504,1.27989 6.24019,6.03556 7.78167,7.96688 0.79795,0.99969 1.65736,1.9252 1.90984,2.05667 1.7945,0.93441 6.33002,1.11492 8.80167,0.35029 0.82485,-0.2552 1.9793,-0.80492 2.56539,-1.22163 1.21076,-0.8608 1.84148,-0.94552 2.45702,-0.32998 0.65569,0.65569 0.55427,1.61922 -0.24751,2.35153 -2.13766,1.95242 -6.99494,3.09808 -10.85925,2.5613 z"
       id="path1479"
       inkscape:connector-curvature="0"
       sodipodi:nodetypes="cccccccccccccscccscccccsscccscsccccsccssccccssssssssssccssssccscsssscsssccccsccccccsscsscccccccscsscccccccccccc" />
    <path
       style="fill:#c6ec9d;fill-opacity:1;stroke-width:0.2138405"
       d="m 120.15828,217.26741 c -0.79997,-0.28591 -0.85536,-0.66996 -0.85574,-5.93346 -0.002,-22.37101 -4.9594,-44.09472 -16.25437,-71.22148 -3.194582,-7.67229 -6.424087,-14.74166 -11.94714,-26.15229 -1.8956,-3.91626 -3.446517,-7.20945 -3.446517,-7.3182 0,-0.38162 2.168312,-5.24613 3.101536,-6.958168 4.668937,-8.565286 11.319491,-15.011675 19.351711,-18.75763 11.60219,-5.410869 26.7661,-5.999631 42.18982,-1.638095 l 2.30854,0.652803 0.96646,-1.074941 c 0.61601,-0.685137 1.48315,-1.329307 2.39145,-1.776446 1.3827,-0.68072 1.50446,-0.701372 4.1025,-0.696953 1.99418,0.0044 3.03224,0.108527 4.06746,0.412203 3.64039,1.06763 7.7385,3.119432 10.80467,5.409635 1.78185,1.330899 2.77179,2.702676 4.35988,6.041742 2.08515,4.384116 1.96099,7.338249 -0.38393,9.135859 -1.35601,1.039533 -2.29995,1.237713 -5.79933,1.217533 -2.60369,-0.0135 -3.61479,-0.12535 -6.30827,-0.68808 -4.30513,-0.899483 -8.25881,-2.062293 -8.60042,-2.529483 -0.62855,-0.859587 0.024,-2.220107 1.06253,-2.215241 0.26462,0.0013 1.67792,0.338073 3.14067,0.748528 4.47742,1.256364 7.93782,1.862523 10.81243,1.894073 2.17513,0.0238 2.6964,-0.037 3.42145,-0.39953 1.19199,-0.596006 1.50142,-1.329196 1.20684,-2.859638 -0.29346,-1.524524 -2.6535,-6.271019 -3.57754,-7.195051 -1.7469,-1.746893 -6.64845,-4.438895 -10.13898,-5.568459 -1.46052,-0.472633 -2.23778,-0.591497 -3.95606,-0.604997 -2.9354,-0.02309 -3.76212,0.412989 -5.32856,2.810599 -0.38931,0.595871 -0.85165,1.041798 -1.12001,1.080232 -0.25136,0.0361 -1.56201,-0.269547 -2.91255,-0.678971 -6.78907,-2.058102 -13.82929,-3.122189 -20.68478,-3.126383 -16.25029,-0.009 -28.56933,6.06513 -36.577663,18.038068 -1.494069,2.233703 -3.612381,6.194981 -4.551171,8.510701 l -0.317532,0.78327 2.03324,4.13505 c 18.274136,37.16474 26.208616,61.03835 28.843076,86.78443 0.20293,1.98209 0.38673,6.4235 0.45752,11.04844 l 0.11839,7.73392 c 0.005,0.2604 -0.33493,0.55242 -0.33493,0.55242 -0.54889,0.54889 -1.03023,0.62359 -1.64466,0.40399 z"
       id="path1477"
       inkscape:connector-curvature="0"
       sodipodi:nodetypes="cssssscccccccsscccccccccccccccccccscssscc" />
    <path
       style="fill:#c6ec9d;fill-opacity:1;stroke-width:0.2138405"
       d="m 149.50482,217.19212 c -0.26634,-0.10583 -0.57907,-0.442 -0.69498,-0.74684 -0.11593,-0.30495 -0.21078,-2.73774 -0.21078,-5.40885 0,-21.19681 4.66624,-42.67381 14.71253,-67.7164 3.76639,-9.38857 7.56096,-17.80085 14.45717,-32.05036 1.66727,-3.44504 2.00851,-4.30997 1.79968,-4.56156 -0.43035,-0.51855 -2.65604,-1.54313 -4.18585,-1.9269 -2.12212,-0.53239 -8.59071,-0.4742 -13.72057,0.12333 -2.16553,0.25231 -4.82466,0.45871 -5.90914,0.45871 -1.86404,0 -1.97882,0.0262 -2.10071,0.48112 -0.40493,1.51099 0.0112,2.56675 2.20645,5.61331 2.51999,3.49543 3.01926,4.77267 2.16707,5.54388 -0.32971,0.29839 -0.96848,0.394 -3.26106,0.48808 l -2.85106,0.11706 -2.67299,-2.29881 c -7.50704,-6.45609 -13.7925,-10.79928 -15.62949,-10.79984 -0.99998,-2e-4 -1.15499,0.70514 -1.1747,5.34585 -0.009,2.29343 -0.0338,4.28796 -0.0533,4.43225 -0.0202,0.14418 -0.25784,0.40788 -0.5293,0.58576 -0.44243,0.28989 -0.9272,0.2813 -4.68296,-0.083 -2.30417,-0.22357 -4.37416,-0.50518 -4.59994,-0.62603 -0.30824,-0.16504 -0.60175,-0.98743 -1.17822,-3.30178 -1.73057,-6.94744 -3.64449,-9.55728 -8.10715,-11.054943 -0.98321,-0.32995 -2.50937,-0.71942 -3.39145,-0.86544 -1.39056,-0.23019 -1.78793,-0.21795 -2.9885,0.0928 -1.78082,0.46057 -3.04658,1.209393 -4.42493,2.617743 -1.53665,1.57013 -2.497154,3.58913 -2.603584,5.47296 -0.12961,2.29487 0.233754,3.24044 1.876374,4.88188 3.06522,3.06304 5.83871,3.29839 7.25038,0.61532 0.46795,-0.88944 0.49209,-1.11443 0.38007,-3.54149 -0.10696,-2.3167 -0.0787,-2.6287 0.26558,-2.94031 0.43837,-0.39671 1.15203,-0.45023 1.74828,-0.13117 1.00568,0.53821 1.29225,5.13212 0.45436,7.2839 -1.99499,5.12335 -7.81564,5.38321 -12.383974,0.55288 -3.319941,-3.51035 -3.413631,-8.23536 -0.25253,-12.73656 2.216634,-3.156413 5.857244,-5.154373 9.391974,-5.154373 2.5698,0 6.89693,1.3567 9.19073,2.88161 2.7829,1.850083 4.52071,4.686583 5.89866,9.628063 0.42635,1.52897 0.80696,2.88718 0.84582,3.01824 0.0411,0.13835 0.90791,0.30161 2.06649,0.38916 1.09769,0.083 2.20251,0.20023 2.45509,0.26053 0.45377,0.1083 0.46012,0.0666 0.53459,-3.5054 0.0735,-3.52684 0.091,-3.6456 0.71689,-4.8661 0.82694,-1.61261 2.02873,-2.34227 3.57136,-2.16838 2.91743,0.3289 9.03285,4.47308 17.9519,12.16535 1.09534,0.94469 1.27892,1.02899 1.96177,0.90089 l 0.75333,-0.14149 -1.24718,-1.68204 c -2.00486,-2.70401 -2.4625,-3.8143 -2.4625,-5.97473 0,-1.91541 0.24433,-2.68343 1.25522,-3.94576 0.43466,-0.54277 0.62191,-0.61942 1.33588,-0.54686 1.82351,0.18544 5.27659,0.0469 8.42172,-0.33771 4.59305,-0.5617 11.81806,-0.57096 14.17481,-0.0179 3.18027,0.74595 6.99537,3.21948 6.99537,4.53551 0,0.27792 -1.21212,2.98804 -2.69363,6.02247 -14.69243,30.09329 -21.92731,49.48392 -25.95457,69.56242 -2.0509,10.22513 -3.26013,23.12894 -2.90744,31.02541 0.12556,2.81266 0.10157,3.16284 -0.24401,3.56325 -0.47775,0.55338 -1.09322,0.72178 -1.72294,0.47138 z"
       id="path1473"
       inkscape:connector-curvature="0" />
  </g>
</svg>
