<?xml version="1.0" encoding="UTF-8" standalone="no"?>
<!-- Created with Inkscape (http://www.inkscape.org/) -->

<svg
   xmlns:dc="http://purl.org/dc/elements/1.1/"
   xmlns:cc="http://creativecommons.org/ns#"
   xmlns:rdf="http://www.w3.org/1999/02/22-rdf-syntax-ns#"
   xmlns:svg="http://www.w3.org/2000/svg"
   xmlns="http://www.w3.org/2000/svg"
   xmlns:sodipodi="http://sodipodi.sourceforge.net/DTD/sodipodi-0.dtd"
   xmlns:inkscape="http://www.inkscape.org/namespaces/inkscape"
   width="1024"
   height="1024"
   viewBox="0 0 270.93332 270.93332"
   version="1.1"
   id="svg885"
   inkscape:version="0.92.2 5c3e80d, 2017-08-06"
   sodipodi:docname="bulb.svg"
   inkscape:export-filename="/home/lcp/MEGA/Pictures/openSUSE/plymouth/full.png"
   inkscape:export-xdpi="96.000008"
   inkscape:export-ydpi="96.000008">
  <defs
     id="defs879" />
  <sodipodi:namedview
     id="base"
     pagecolor="#ffffff"
     bordercolor="#666666"
     borderopacity="1.0"
     inkscape:pageopacity="0.0"
     inkscape:pageshadow="2"
     inkscape:zoom="0.49497475"
     inkscape:cx="433.17478"
     inkscape:cy="262.89156"
     inkscape:document-units="px"
     inkscape:current-layer="layer1"
     showgrid="false"
     units="px"
     inkscape:window-width="835"
     inkscape:window-height="699"
     inkscape:window-x="181"
     inkscape:window-y="0"
     inkscape:window-maximized="0"
     showguides="false"
     inkscape:guide-bbox="true">
    <sodipodi:guide
       position="69.925592,61.988092"
       orientation="1,0"
       id="guide1481"
       inkscape:locked="false" />
  </sodipodi:namedview>
  <metadata
     id="metadata882">
    <rdf:RDF>
      <cc:Work
         rdf:about="">
        <dc:format>image/svg+xml</dc:format>
        <dc:type
           rdf:resource="http://purl.org/dc/dcmitype/StillImage" />
        <dc:title></dc:title>
      </cc:Work>
    </rdf:RDF>
  </metadata>
  <g
     inkscape:label="Layer 1"
     inkscape:groupmode="layer"
     id="layer1"
     transform="translate(0,-26.066693)">
    <path
       style="fill:#b8ebe5;fill-opacity:1;stroke-width:0.15968472"
       d="m 140.51481,254.03909 c -1.09959,-0.15271 -2.90378,-0.67111 -3.46585,-0.99578 -0.18828,-0.10867 -0.83069,-0.80853 -1.42761,-1.55508 -3.38131,-4.22893 -6.0996,-6.60771 -9.51377,-8.3256 -0.73226,-0.36846 -1.45714,-0.77687 -1.61083,-0.9076 -0.38201,-0.3249 -0.3605,-1.18315 0.0387,-1.54441 0.34065,-0.30829 0.90748,-0.29738 4.39254,0.0844 2.46846,0.27038 11.24332,0.37566 13.97242,0.16763 5.71321,-0.43545 9.83636,-1.38541 12.93446,-2.98002 0.74653,-0.38426 1.63647,-0.92912 1.97765,-1.21083 l 0.62033,-0.51219 -0.10683,-1.51975 c -0.0588,-0.83585 -0.12994,-1.54286 -0.15823,-1.57112 -0.0283,-0.0283 -0.54677,0.17115 -1.15226,0.44314 -5.35957,2.40773 -13.22335,3.67375 -21.46065,3.45507 -3.80139,-0.10096 -5.45575,-0.24907 -8.5147,-0.76259 -3.71073,-0.62293 -8.03977,-1.9442 -8.49378,-2.59238 -0.19407,-0.27708 -0.23748,-1.03509 -0.23748,-4.14644 0,-2.3784 0.0636,-3.92622 0.1694,-4.12393 0.31096,-0.58105 0.81013,-0.62881 2.16652,-0.20733 8.44173,2.62322 19.20827,3.18245 27.52513,1.42972 2.87665,-0.60623 5.93657,-1.67483 8.58306,-2.99737 l 1.63677,-0.81796 v -1.88816 c 0,-1.03849 -0.035,-1.88815 -0.078,-1.88815 -0.0429,0 -0.70756,0.2615 -1.47709,0.58106 -4.1572,1.7266 -8.67177,2.86222 -13.69483,3.44489 -2.28842,0.26545 -9.37344,0.25671 -11.65699,-0.0151 -2.47914,-0.29433 -5.7567,-0.90519 -7.8886,-1.47026 -2.3024,-0.61026 -4.77993,-1.55351 -4.95503,-1.88647 -0.074,-0.14066 -0.18587,-1.98021 -0.24875,-4.08805 -0.11387,-3.81492 -0.11269,-3.83451 0.2446,-4.28633 0.43017,-0.54399 0.46324,-0.54153 3.50622,0.26011 2.34167,0.61687 6.21938,1.26176 9.50125,1.58012 3.13794,0.30438 11.11462,0.25614 14.02274,-0.0847 8.79139,-1.03073 15.03054,-3.35474 19.17478,-7.14231 l 0.93317,-0.85288 -0.11185,-1.20417 c -0.2447,-2.63407 -0.35689,-7.73437 -0.2337,-10.62334 0.28194,-6.61122 1.26924,-11.98148 3.33247,-18.12646 1.73353,-5.16306 3.88747,-9.78953 8.58673,-18.44358 2.49839,-4.60099 4.90995,-9.38936 5.99139,-11.89653 2.90881,-6.74365 4.47068,-12.86561 5.0847,-19.93042 0.28315,-3.25745 0.11504,-9.83877 -0.31273,-12.24605 -0.902,-5.07549 -2.28979,-9.25703 -4.61074,-13.89256 -6.47752,-12.937177 -17.69455,-22.460887 -30.67636,-26.045423 -9.31725,-2.572688 -19.68626,-2.033398 -28.60593,1.487758 -8.60349,3.396347 -16.27819,9.52938 -22.07812,17.643182 -4.51537,6.316764 -7.606719,13.828063 -8.838569,21.475763 -0.339964,2.11062 -0.470899,8.29193 -0.236163,11.14795 0.697474,8.48589 2.668348,15.43771 6.790715,23.95272 0.807867,1.6687 2.824737,5.54904 4.481947,8.62298 5.99378,11.11781 8.31437,16.57189 9.99146,23.48306 1.27555,5.25635 1.79553,9.78312 1.80569,15.71953 0.008,5.15703 -0.27346,9.15819 -0.68721,9.74079 -0.38569,0.54306 -1.15581,0.61312 -1.62144,0.14751 -0.32079,-0.32077 -0.3417,-0.45315 -0.2475,-1.56634 0.80176,-9.4749 0.34989,-16.64138 -1.51647,-24.05087 -1.61965,-6.43 -3.94991,-11.82085 -9.80164,-22.67523 -5.797463,-10.75373 -8.123309,-16.19293 -9.740498,-22.7791 -1.281964,-5.22087 -1.744444,-9.27956 -1.74409,-15.3057 2.16e-4,-3.9357 0.04892,-4.86177 0.360353,-6.84939 2.553647,-16.299727 13.455895,-31.413362 28.014095,-38.835585 6.8128,-3.473386 13.7379,-5.125725 21.51499,-5.133525 4.73594,-0.005 7.61524,0.3475 12.05619,1.475009 6.33261,1.607778 12.73589,4.843965 18.20406,9.200211 2.22838,1.775258 6.35085,5.882954 8.02057,7.991802 6.27788,7.928922 10.03724,16.304238 11.4929,25.604408 0.40748,2.6034 0.40433,10.57149 -0.007,13.89256 -1.28077,10.3786 -3.63118,16.77991 -11.52135,31.37806 -5.12905,9.48962 -7.36969,14.55894 -9.01148,20.38805 -2.15704,7.65854 -2.76691,14.89586 -2.05868,24.43013 l 0.18583,2.50171 -0.5264,0.61214 c -2.81698,3.27582 -8.15646,6.12534 -14.30998,7.63679 -4.57996,1.12496 -8.84891,1.57406 -14.92145,1.56975 -6.21711,-0.005 -11.38627,-0.55014 -16.17213,-1.70734 l -1.56097,-0.37743 0.044,2.40918 0.044,2.40918 0.79842,0.29797 c 2.81854,1.05183 7.70976,2.02822 11.81667,2.35878 2.88312,0.23208 8.29288,0.1065 10.93842,-0.25381 5.11367,-0.69657 10.05677,-2.14798 13.92894,-4.08989 0.67871,-0.34038 1.33372,-0.61887 1.45555,-0.61887 0.1219,0 0.5108,-0.0509 0.74221,0.1311 0,0 0.32082,0.35239 0.32082,0.53082 0,3.41411 0,3.41411 0,3.41411 0,2.04815 -0.0672,3.56161 -0.16797,3.78277 -0.0924,0.20275 -0.39777,0.50108 -0.67866,0.66293 -4.46118,2.57089 -9.47821,4.19559 -15.36137,4.97448 -6.91538,0.91556 -16.53131,0.12491 -23.59765,-1.9402 -0.26433,-0.0774 -0.28065,0.0834 -0.23953,2.3567 l 0.0442,2.4396 1.62629,0.52363 c 3.74505,1.20579 7.86192,1.79462 13.41082,1.91815 9.10143,0.20262 16.58832,-1.15095 21.89394,-3.95822 0.81455,-0.43098 1.69317,-0.78363 1.95245,-0.78363 0.85157,0 0.93645,0.3456 0.97189,3.95744 0.0365,3.72208 0.13631,3.44233 -1.69071,4.74404 -4.55831,3.24776 -12.30975,4.72651 -23.6282,4.50756 l -4.62572,-0.0894 0.71343,0.57247 c 1.19109,0.95575 4.65984,4.50704 5.81093,5.94924 0.59587,0.74651 1.23763,1.43763 1.42617,1.53581 1.34004,0.69777 4.72693,0.83256 6.57263,0.26158 0.61594,-0.19057 1.47803,-0.60107 1.91569,-0.91225 0.90413,-0.6428 1.37512,-0.70607 1.83477,-0.24641 0.48964,0.48963 0.4139,1.20914 -0.18483,1.756 -1.59629,1.45796 -5.22344,2.31348 -8.10911,1.91264 z"
       id="path1479"
       inkscape:connector-curvature="0"
       sodipodi:nodetypes="cccccccccccccscccscccccsscccscsccccsccssccccssssssssssccssssccscsssscsssccccsccccccsscsscccccccscsscccccccccccc" />
    <path
       style="fill:#d7f1b9;fill-opacity:1;stroke-width:0.15968472"
       d="m 129.32721,203.15264 c -0.59738,-0.2135 -0.63874,-0.50029 -0.63902,-4.43079 -0.001,-16.70549 -3.70341,-32.9276 -12.1379,-53.18442 -2.38555,-5.72925 -4.79717,-11.00829 -8.92149,-19.52914 -1.41554,-2.92446 -2.57368,-5.38364 -2.57368,-5.46485 0,-0.28497 1.61918,-3.91752 2.31606,-5.19599 3.48652,-6.39609 8.4528,-11.20992 14.45083,-14.0072 8.6639,-4.040538 19.98751,-4.480198 31.50512,-1.22324 l 1.7239,0.48748 0.72169,-0.802701 c 0.46001,-0.511629 1.10754,-0.992659 1.78581,-1.326558 1.03253,-0.50833 1.12345,-0.52375 3.06353,-0.52045 1.48915,0.003 2.26432,0.081 3.03737,0.30781 2.71844,0.797249 5.7787,2.329419 8.06835,4.039629 1.33059,0.99384 2.06983,2.01821 3.25573,4.51165 1.55707,3.27382 1.46436,5.47981 -0.2867,6.82217 -1.01259,0.77627 -1.71748,0.92426 -4.33063,0.90919 -1.9443,-0.0101 -2.69934,-0.0936 -4.71069,-0.51382 -3.21483,-0.67169 -6.16724,-1.54001 -6.42233,-1.88888 -0.46937,-0.6419 0.0179,-1.65786 0.79344,-1.65423 0.1976,9.7e-4 1.25298,0.25245 2.34529,0.55896 3.34349,0.93819 5.92754,1.39084 8.07414,1.4144 1.62428,0.0178 2.01353,-0.0276 2.55496,-0.29835 0.89012,-0.44507 1.12119,-0.99258 0.90121,-2.13542 -0.21914,-1.13843 -1.9815,-4.68287 -2.67152,-5.37289 -1.30449,-1.30449 -4.96472,-3.31473 -7.57125,-4.15823 -1.09064,-0.35294 -1.67106,-0.44169 -2.95418,-0.45177 -2.192,-0.0172 -2.80935,0.30839 -3.97909,2.0988 -0.29071,0.44496 -0.63597,0.77796 -0.83636,0.80666 -0.18771,0.027 -1.16642,-0.20129 -2.17493,-0.50702 -5.06972,-1.53689 -10.32698,-2.33149 -15.4463,-2.33462 -12.13486,-0.007 -21.33406,4.52912 -27.31426,13.46987 -1.11569,1.66801 -2.69753,4.62609 -3.39857,6.35535 l -0.23712,0.58489 1.51832,3.08784 c 13.64616,27.75265 19.5712,45.58021 21.53848,64.80601 0.15153,1.48011 0.28879,4.79672 0.34165,8.25039 l 0.0884,5.77527 c 0.004,0.19446 -0.25011,0.41252 -0.25011,0.41252 -0.40988,0.40988 -0.76932,0.46566 -1.22815,0.30168 z"
       id="path1477"
       inkscape:connector-curvature="0"
       sodipodi:nodetypes="cssssscccccccsscccccccccccccccccccscssscc" />
    <path
       style="fill:#cfefac;fill-opacity:1;stroke-width:0.15968472"
       d="m 151.24162,203.09641 c -0.19889,-0.079 -0.43242,-0.33006 -0.51898,-0.5577 -0.0866,-0.22772 -0.1574,-2.0444 -0.1574,-4.03904 0,-15.82866 3.48451,-31.86653 10.98654,-50.56701 2.81254,-7.01089 5.64612,-13.29273 10.79585,-23.93351 1.24503,-2.57258 1.49985,-3.21846 1.3439,-3.40633 -0.32136,-0.38723 -1.98339,-1.15232 -3.12577,-1.4389 -1.58469,-0.39756 -6.41508,-0.35411 -10.24579,0.0921 -1.61711,0.18842 -3.60281,0.34255 -4.41264,0.34255 -1.39196,0 -1.47767,0.0196 -1.56869,0.35927 -0.30238,1.12832 0.008,1.91671 1.64765,4.19172 1.8818,2.6102 2.25463,3.56398 1.61826,4.13988 -0.24621,0.22282 -0.72321,0.29421 -2.43518,0.36447 l -2.12902,0.0874 -1.99605,-1.71663 c -5.60587,-4.82107 -10.29951,-8.06433 -11.67128,-8.06474 -0.74673,-1.5e-4 -0.86248,0.52656 -0.8772,3.99199 -0.007,1.71261 -0.0252,3.20202 -0.0398,3.30977 -0.0151,0.10767 -0.19255,0.30458 -0.39526,0.43741 -0.33038,0.21648 -0.69238,0.21006 -3.49698,-0.062 -1.72063,-0.16695 -3.26639,-0.37724 -3.43499,-0.46748 -0.23018,-0.12325 -0.44936,-0.73736 -0.87983,-2.4656 -1.2923,-5.18797 -2.72152,-7.13686 -6.05399,-8.25524 -0.73421,-0.24639 -1.87387,-0.53722 -2.53256,-0.64626 -1.0384,-0.1719 -1.33513,-0.16276 -2.23165,0.0693 -1.32982,0.34393 -2.27503,0.90311 -3.30431,1.9548 -1.14748,1.17249 -1.86473,2.68017 -1.94421,4.08691 -0.0968,1.71368 0.17455,2.41979 1.40117,3.64553 2.28895,2.28732 4.36004,2.46306 5.4142,0.45949 0.34944,-0.66419 0.36747,-0.8322 0.28382,-2.6446 -0.0799,-1.72999 -0.0588,-1.96298 0.19832,-2.19567 0.32735,-0.29623 0.86028,-0.3362 1.30553,-0.0979 0.75098,0.4019 0.96498,3.8324 0.33929,5.43923 -1.48976,3.82585 -5.83631,4.0199 -9.2477,0.41286 -2.47915,-2.62134 -2.54912,-6.14972 -0.18857,-9.51098 1.65526,-2.35704 4.37387,-3.84902 7.01342,-3.84902 1.91899,0 5.15026,1.01312 6.86315,2.15184 2.07812,1.38154 3.37583,3.49969 4.40481,7.18972 0.31837,1.14176 0.60259,2.156 0.63161,2.25386 0.0307,0.10332 0.67798,0.22523 1.54315,0.29061 0.8197,0.062 1.64471,0.14952 1.83332,0.19455 0.33885,0.0809 0.3436,0.0497 0.39921,-2.61765 0.0549,-2.63365 0.068,-2.72233 0.53533,-3.63374 0.61752,-1.20421 1.51495,-1.74908 2.66691,-1.61923 2.17858,0.2456 6.74525,3.34025 13.40552,9.08443 0.81795,0.70545 0.95504,0.7684 1.46495,0.67274 l 0.56255,-0.10566 -0.93133,-1.25605 c -1.49712,-2.01922 -1.83887,-2.84832 -1.83887,-4.46162 0,-1.43032 0.18246,-2.00384 0.93734,-2.94648 0.32458,-0.40531 0.46441,-0.46255 0.99756,-0.40836 1.36169,0.13847 3.94027,0.035 6.28889,-0.25219 3.42985,-0.41945 8.8251,-0.42636 10.585,-0.0134 2.37486,0.55703 5.22376,2.40413 5.22376,3.38687 0,0.20753 -0.90514,2.23131 -2.01145,4.49726 -10.97153,22.47208 -16.37416,36.95196 -19.38149,51.94552 -1.53151,7.63559 -2.4345,17.27147 -2.17113,23.16813 0.0938,2.10034 0.0758,2.36184 -0.18221,2.66084 -0.35676,0.41324 -0.81636,0.53899 -1.2866,0.35201 z"
       id="path1473"
       inkscape:connector-curvature="0" />
  </g>
</svg>
