<?xml version="1.0" encoding="UTF-8" standalone="no"?>
<!-- Created with Inkscape (http://www.inkscape.org/) -->

<svg
   xmlns:dc="http://purl.org/dc/elements/1.1/"
   xmlns:cc="http://creativecommons.org/ns#"
   xmlns:rdf="http://www.w3.org/1999/02/22-rdf-syntax-ns#"
   xmlns:svg="http://www.w3.org/2000/svg"
   xmlns="http://www.w3.org/2000/svg"
   xmlns:sodipodi="http://sodipodi.sourceforge.net/DTD/sodipodi-0.dtd"
   xmlns:inkscape="http://www.inkscape.org/namespaces/inkscape"
   width="1024"
   height="1024"
   viewBox="0 0 270.93332 270.93332"
   version="1.1"
   id="svg885"
   inkscape:version="0.92.2 5c3e80d, 2017-08-06"
   sodipodi:docname="highlight.svg"
   inkscape:export-filename="/home/lcp/MEGA/Pictures/openSUSE/plymouth/full.png"
   inkscape:export-xdpi="96.000008"
   inkscape:export-ydpi="96.000008">
  <defs
     id="defs879" />
  <sodipodi:namedview
     id="base"
     pagecolor="#ffffff"
     bordercolor="#666666"
     borderopacity="1.0"
     inkscape:pageopacity="0.0"
     inkscape:pageshadow="2"
     inkscape:zoom="0.35"
     inkscape:cx="-1139.2666"
     inkscape:cy="660.34676"
     inkscape:document-units="mm"
     inkscape:current-layer="layer1"
     showgrid="false"
     units="px"
     inkscape:window-width="1920"
     inkscape:window-height="1021"
     inkscape:window-x="0"
     inkscape:window-y="0"
     inkscape:window-maximized="1"
     showguides="false"
     inkscape:guide-bbox="true">
    <sodipodi:guide
       position="69.925592,61.988092"
       orientation="1,0"
       id="guide1481"
       inkscape:locked="false" />
  </sodipodi:namedview>
  <metadata
     id="metadata882">
    <rdf:RDF>
      <cc:Work
         rdf:about="">
        <dc:format>image/svg+xml</dc:format>
        <dc:type
           rdf:resource="http://purl.org/dc/dcmitype/StillImage" />
        <dc:title />
      </cc:Work>
    </rdf:RDF>
  </metadata>
  <g
     inkscape:label="Layer 1"
     inkscape:groupmode="layer"
     id="layer1"
     transform="translate(0,-26.066693)">
    <path
       style="fill:#27ffe8;fill-opacity:1;stroke-width:0.2138405"
       d="m 135.14008,285.41159 c -1.47251,-0.2045 -3.88857,-0.8987 -4.64127,-1.33348 -0.25213,-0.14553 -1.11241,-1.08274 -1.91176,-2.08248 -4.52807,-5.66314 -8.16824,-8.84866 -12.7403,-11.14915 -0.98061,-0.49342 -1.95132,-1.04034 -2.15714,-1.21541 -0.51156,-0.43509 -0.48275,-1.58441 0.0518,-2.06818 0.45618,-0.41284 1.21524,-0.39824 5.88225,0.113 3.30561,0.36207 15.05639,0.50305 18.71104,0.22448 7.6508,-0.58313 13.17228,-1.85526 17.32109,-3.99068 0.99971,-0.51458 2.19146,-1.24423 2.64835,-1.62148 l 0.83071,-0.68589 -0.14306,-2.03516 c -0.0787,-1.11932 -0.17401,-2.06611 -0.2119,-2.10395 -0.0379,-0.0379 -0.7322,0.2292 -1.54303,0.59343 -7.17723,3.22428 -17.70795,4.91967 -28.73886,4.62682 -5.09061,-0.1352 -7.30603,-0.33354 -11.40239,-1.02121 -4.9692,-0.8342 -10.76639,-2.60356 -11.37438,-3.47156 -0.25988,-0.37106 -0.31802,-1.38613 -0.31802,-5.55267 0,-3.18503 0.0852,-5.25777 0.22686,-5.52254 0.41642,-0.77811 1.08487,-0.84206 2.90127,-0.27764 11.30467,3.51286 25.7226,4.26175 36.86005,1.91459 3.85225,-0.81182 7.94991,-2.24282 11.49394,-4.01389 l 2.19187,-1.09537 v -2.52851 c 0,-1.39068 -0.0469,-2.52851 -0.10449,-2.52851 -0.0574,0 -0.94753,0.35018 -1.97804,0.77814 -5.56709,2.31216 -11.61273,3.83291 -18.33932,4.61319 -3.06452,0.35547 -12.55237,0.34377 -15.61036,-0.0202 -3.31992,-0.39415 -7.70903,-1.21217 -10.56396,-1.96888 -3.08323,-0.81723 -6.401,-2.08037 -6.63548,-2.52625 -0.0991,-0.18836 -0.24891,-2.6518 -0.33312,-5.47449 -0.15248,-5.10871 -0.1509,-5.13494 0.32756,-5.73999 0.57605,-0.72848 0.62034,-0.72519 4.69533,0.34832 3.13582,0.82607 8.32863,1.68967 12.72351,2.116 4.20215,0.40761 14.88406,0.34301 18.77845,-0.11346 11.77291,-1.3803 20.12801,-4.49247 25.67774,-9.56458 l 1.24966,-1.14212 -0.14979,-1.61256 c -0.32768,-3.52738 -0.47794,-10.35741 -0.31295,-14.22615 0.37755,-8.85337 1.69969,-16.0449 4.46264,-24.2739 2.32144,-6.91407 5.20587,-13.10958 11.49885,-24.69858 3.3457,-6.16137 6.57512,-12.57369 8.02332,-15.93113 3.89532,-9.03071 5.98688,-17.22888 6.80914,-26.68967 0.37918,-4.36218 0.15405,-13.17551 -0.41879,-16.39919 -1.20791,-6.796813 -3.06636,-12.396484 -6.17444,-18.604112 -8.67431,-17.324722 -23.69551,-30.07832 -41.08,-34.878518 -12.47712,-3.445195 -26.36269,-2.723015 -38.3074,1.992313 -11.52129,4.548185 -21.798804,12.761199 -29.565732,23.626729 -6.046717,8.45904 -10.186472,18.517741 -11.836094,28.759098 -0.45526,2.82641 -0.630601,11.10407 -0.316257,14.92869 0.934018,11.36381 3.573298,20.67329 9.093732,32.07608 1.081842,2.23464 3.782727,7.43096 6.001964,11.54739 8.026519,14.88832 11.134113,22.19212 13.379987,31.44716 1.70813,7.03899 2.40446,13.10099 2.41807,21.05067 0.0112,6.906 -0.3662,12.26412 -0.92027,13.0443 -0.5165,0.72724 -1.5478,0.82106 -2.171345,0.19754 -0.429579,-0.42956 -0.457579,-0.60683 -0.331435,-2.09755 1.07367,-12.68823 0.468554,-22.28517 -2.030768,-32.20752 -2.168939,-8.61069 -5.28949,-15.8298 -13.125779,-30.36536 -7.763632,-14.40077 -10.87827,-21.68462 -13.043915,-30.50444 -1.716732,-6.9915 -2.336058,-12.42665 -2.335584,-20.49651 2.89e-4,-5.27046 0.06551,-6.51059 0.482563,-9.1723 3.419697,-21.827658 18.019352,-42.066954 37.514853,-52.006366 9.12331,-4.651354 18.39699,-6.864064 28.81161,-6.874513 6.3421,-0.0068 10.19789,0.465347 16.14495,1.975249 8.48027,2.153042 17.05518,6.486751 24.37782,12.320384 2.98411,2.377318 8.5047,7.878103 10.74069,10.702155 8.40697,10.617957 13.44129,21.83369 15.39062,34.287941 0.54567,3.48632 0.54145,14.15672 -0.009,18.60411 -1.71513,13.89841 -4.86266,22.47068 -15.42872,42.01967 -6.86853,12.70795 -9.86906,19.49649 -12.06765,27.30249 -2.88858,10.25587 -3.70529,19.94767 -2.75687,32.71541 l 0.24886,3.35015 -0.70492,0.81974 c -3.77235,4.38679 -10.92266,8.2027 -19.16311,10.22674 -6.13321,1.50649 -11.84995,2.10789 -19.98193,2.10212 -8.3256,-0.007 -15.24783,-0.73671 -21.65678,-2.28637 l -2.09035,-0.50543 0.0589,3.22623 0.0589,3.22623 1.06919,0.39902 c 3.77442,1.40857 10.32447,2.71609 15.8242,3.15876 3.86092,0.31079 11.10535,0.14261 14.64809,-0.33989 6.84794,-0.9328 13.46745,-2.87646 18.65284,-5.47695 0.90888,-0.45582 1.78603,-0.82876 1.94918,-0.82876 0.16324,0 0.68404,-0.0681 0.99393,0.17557 0,0 0.42962,0.4719 0.42962,0.71084 0,4.57198 0,4.57198 0,4.57198 0,2.74276 -0.09,4.7695 -0.22493,5.06566 -0.12377,0.27152 -0.53268,0.67102 -0.90883,0.88776 -5.97415,3.44279 -12.69266,5.61848 -20.57105,6.66154 -9.26067,1.22607 -22.13776,0.16727 -31.60061,-2.59821 -0.35397,-0.1036 -0.37583,0.11167 -0.32076,3.15596 l 0.0592,3.26697 2.17782,0.70122 c 5.01516,1.61472 10.52824,2.40325 17.95901,2.56867 12.18809,0.27134 22.2141,-1.54128 29.31908,-5.30062 1.0908,-0.57714 2.26739,-1.04938 2.61461,-1.04938 1.14037,0 1.25403,0.4628 1.3015,5.29957 0.0489,4.98438 0.18253,4.60976 -2.26411,6.35293 -6.10422,4.34922 -16.48449,6.32948 -31.64152,6.03627 l -6.19448,-0.11974 0.95538,0.76662 c 1.59504,1.27989 6.24019,6.03556 7.78167,7.96688 0.79795,0.99969 1.65736,1.9252 1.90984,2.05667 1.7945,0.93441 6.33002,1.11492 8.80167,0.35029 0.82485,-0.2552 1.9793,-0.80492 2.56539,-1.22163 1.21076,-0.8608 1.84148,-0.94552 2.45702,-0.32998 0.65569,0.65569 0.55427,1.61922 -0.24751,2.35153 -2.13766,1.95242 -6.99494,3.09808 -10.85925,2.5613 z"
       id="path1479"
       inkscape:connector-curvature="0"
       sodipodi:nodetypes="cccccccccccccscccscccccsscccscsccccsccssccccssssssssssccssssccscsssscsssccccsccccccsscsscccccccscsscccccccccccc" />
    <path
       style="fill:#8fff13;fill-opacity:1;stroke-width:0.2138405"
       d="m 120.15829,217.26742 c -0.79997,-0.28591 -0.85536,-0.66996 -0.85574,-5.93346 -0.002,-22.37101 -4.9594,-44.09472 -16.25437,-71.22148 -3.194582,-7.67229 -6.424087,-14.74166 -11.94714,-26.15229 -1.8956,-3.91626 -3.446517,-7.20945 -3.446517,-7.3182 0,-0.38162 2.168312,-5.24613 3.101536,-6.95817 4.668937,-8.565283 11.319491,-15.011672 19.351711,-18.757627 11.60219,-5.410869 26.7661,-5.999631 42.18982,-1.638095 l 2.30854,0.652803 0.96646,-1.074941 c 0.61601,-0.685137 1.48315,-1.329307 2.39145,-1.776446 1.3827,-0.68072 1.50446,-0.701372 4.1025,-0.696953 1.99418,0.0044 3.03224,0.108527 4.06746,0.412203 3.64039,1.06763 7.7385,3.119432 10.80467,5.409635 1.78185,1.330899 2.77179,2.702676 4.35988,6.041742 2.08515,4.384116 1.96099,7.338249 -0.38393,9.135859 -1.35601,1.03953 -2.29995,1.23771 -5.79933,1.21753 -2.60369,-0.0135 -3.61479,-0.12535 -6.30827,-0.68808 -4.30513,-0.89948 -8.25881,-2.06229 -8.60042,-2.52948 -0.62855,-0.859587 0.024,-2.220107 1.06253,-2.215241 0.26462,0.0013 1.67792,0.338073 3.14067,0.748528 4.47742,1.256364 7.93782,1.862523 10.81243,1.894073 2.17513,0.0238 2.6964,-0.037 3.42145,-0.39953 1.19199,-0.596006 1.50142,-1.329196 1.20684,-2.859638 -0.29346,-1.524524 -2.6535,-6.271019 -3.57754,-7.195051 -1.7469,-1.746893 -6.64845,-4.438895 -10.13898,-5.568459 -1.46052,-0.472633 -2.23778,-0.591497 -3.95606,-0.604997 -2.9354,-0.02309 -3.76212,0.412989 -5.32856,2.810599 -0.38931,0.595871 -0.85165,1.041798 -1.12001,1.080232 -0.25136,0.0361 -1.56201,-0.269547 -2.91255,-0.678971 -6.78907,-2.058102 -13.82929,-3.122189 -20.68478,-3.126383 -16.25029,-0.009 -28.56933,6.06513 -36.577663,18.038068 -1.494069,2.2337 -3.612381,6.19498 -4.551171,8.5107 l -0.317532,0.78327 2.03324,4.13505 c 18.274136,37.16474 26.208616,61.03835 28.843076,86.78443 0.20293,1.98209 0.38673,6.4235 0.45752,11.04844 l 0.11839,7.73392 c 0.005,0.2604 -0.33493,0.55242 -0.33493,0.55242 -0.54889,0.54889 -1.03023,0.62359 -1.64466,0.40399 z"
       id="path1477"
       inkscape:connector-curvature="0"
       sodipodi:nodetypes="cssssscccccccsscccccccccccccccccccscssscc" />
    <path
       style="fill:#8fff13;fill-opacity:1;stroke-width:0.2138405"
       d="m 149.50479,217.19212 c -0.26634,-0.10583 -0.57907,-0.442 -0.69498,-0.74684 -0.11593,-0.30495 -0.21078,-2.73774 -0.21078,-5.40885 0,-21.19681 4.66624,-42.67381 14.71253,-67.7164 3.76639,-9.38857 7.56096,-17.80085 14.45717,-32.05036 1.66727,-3.44504 2.00851,-4.30997 1.79968,-4.56156 -0.43035,-0.51855 -2.65604,-1.54313 -4.18585,-1.9269 -2.12212,-0.53239 -8.59071,-0.4742 -13.72057,0.12333 -2.16553,0.25231 -4.82466,0.45871 -5.90914,0.45871 -1.86404,0 -1.97882,0.0262 -2.10071,0.48112 -0.40493,1.51099 0.0112,2.56675 2.20645,5.61331 2.51999,3.49543 3.01926,4.77267 2.16707,5.54388 -0.32971,0.29839 -0.96848,0.394 -3.26106,0.48808 l -2.85106,0.11706 -2.67299,-2.29881 c -7.50704,-6.45609 -13.7925,-10.79928 -15.62949,-10.79984 -0.99998,-2e-4 -1.15499,0.70514 -1.1747,5.34585 -0.009,2.29343 -0.0338,4.28796 -0.0533,4.43225 -0.0202,0.14418 -0.25784,0.40788 -0.5293,0.58576 -0.44243,0.28989 -0.9272,0.2813 -4.68296,-0.083 -2.30417,-0.22357 -4.37416,-0.50518 -4.59994,-0.62603 -0.30824,-0.16504 -0.60175,-0.98743 -1.17822,-3.30178 -1.73057,-6.94744 -3.64449,-9.55728 -8.10715,-11.05494 -0.98321,-0.32995 -2.50937,-0.71942 -3.39145,-0.86544 -1.39056,-0.23019 -1.78793,-0.21795 -2.9885,0.0928 -1.78082,0.46057 -3.04658,1.20939 -4.42493,2.61774 -1.53665,1.57013 -2.497148,3.58913 -2.603581,5.47296 -0.129612,2.29487 0.233751,3.24044 1.876371,4.88188 3.06522,3.06304 5.83871,3.29839 7.25038,0.61532 0.46795,-0.88944 0.49209,-1.11443 0.38007,-3.54149 -0.10696,-2.3167 -0.0787,-2.6287 0.26558,-2.94031 0.43837,-0.39671 1.15203,-0.45023 1.74828,-0.13117 1.00568,0.53821 1.29225,5.13212 0.45436,7.2839 -1.99499,5.12335 -7.81564,5.38321 -12.383973,0.55288 -3.319939,-3.51035 -3.413629,-8.23536 -0.252528,-12.73656 2.216631,-3.15641 5.857241,-5.15437 9.391971,-5.15437 2.5698,0 6.89693,1.3567 9.19073,2.88161 2.7829,1.85008 4.52071,4.68658 5.89866,9.62806 0.42635,1.52897 0.80696,2.88718 0.84582,3.01824 0.0411,0.13835 0.90791,0.30161 2.06649,0.38916 1.09769,0.083 2.20251,0.20023 2.45509,0.26053 0.45377,0.1083 0.46012,0.0666 0.53459,-3.5054 0.0735,-3.52684 0.091,-3.6456 0.71689,-4.8661 0.82694,-1.61261 2.02873,-2.34227 3.57136,-2.16838 2.91743,0.3289 9.03285,4.47308 17.9519,12.16535 1.09534,0.94469 1.27892,1.02899 1.96177,0.90089 l 0.75333,-0.14149 -1.24718,-1.68204 c -2.00486,-2.70401 -2.4625,-3.8143 -2.4625,-5.97473 0,-1.91541 0.24433,-2.68343 1.25522,-3.94576 0.43466,-0.54277 0.62191,-0.61942 1.33588,-0.54686 1.82351,0.18544 5.27659,0.0469 8.42172,-0.33771 4.59305,-0.5617 11.81806,-0.57096 14.17481,-0.0179 3.18027,0.74595 6.99537,3.21948 6.99537,4.53551 0,0.27792 -1.21212,2.98804 -2.69363,6.02247 -14.69243,30.09329 -21.92731,49.48392 -25.95457,69.56242 -2.0509,10.22513 -3.26013,23.12894 -2.90744,31.02541 0.12556,2.81266 0.10157,3.16284 -0.24401,3.56325 -0.47775,0.55338 -1.09322,0.72178 -1.72294,0.47138 z"
       id="path1473"
       inkscape:connector-curvature="0" />
  </g>
</svg>
