<?xml version="1.0" encoding="UTF-8" standalone="no"?>
<!-- Created with Inkscape (http://www.inkscape.org/) -->

<svg
   xmlns:dc="http://purl.org/dc/elements/1.1/"
   xmlns:cc="http://creativecommons.org/ns#"
   xmlns:rdf="http://www.w3.org/1999/02/22-rdf-syntax-ns#"
   xmlns:svg="http://www.w3.org/2000/svg"
   xmlns="http://www.w3.org/2000/svg"
   xmlns:sodipodi="http://sodipodi.sourceforge.net/DTD/sodipodi-0.dtd"
   xmlns:inkscape="http://www.inkscape.org/namespaces/inkscape"
   width="1024"
   height="1024"
   viewBox="0 0 270.93332 270.93332"
   version="1.1"
   id="svg885"
   inkscape:version="0.92.2 5c3e80d, 2017-08-06"
   sodipodi:docname="highlight.svg"
   inkscape:export-filename="/home/lcp/MEGA/Pictures/openSUSE/plymouth/full.png"
   inkscape:export-xdpi="96.000008"
   inkscape:export-ydpi="96.000008">
  <defs
     id="defs879" />
  <sodipodi:namedview
     id="base"
     pagecolor="#ffffff"
     bordercolor="#666666"
     borderopacity="1.0"
     inkscape:pageopacity="0.0"
     inkscape:pageshadow="2"
     inkscape:zoom="0.35"
     inkscape:cx="551.10022"
     inkscape:cy="477.04898"
     inkscape:document-units="px"
     inkscape:current-layer="layer1"
     showgrid="false"
     units="px"
     inkscape:window-width="846"
     inkscape:window-height="699"
     inkscape:window-x="0"
     inkscape:window-y="0"
     inkscape:window-maximized="0"
     showguides="false"
     inkscape:guide-bbox="true">
    <sodipodi:guide
       position="69.925592,61.988092"
       orientation="1,0"
       id="guide1481"
       inkscape:locked="false" />
  </sodipodi:namedview>
  <metadata
     id="metadata882">
    <rdf:RDF>
      <cc:Work
         rdf:about="">
        <dc:format>image/svg+xml</dc:format>
        <dc:type
           rdf:resource="http://purl.org/dc/dcmitype/StillImage" />
        <dc:title></dc:title>
      </cc:Work>
    </rdf:RDF>
  </metadata>
  <g
     inkscape:label="Layer 1"
     inkscape:groupmode="layer"
     id="layer1"
     transform="translate(0,-26.066693)">
    <path
       style="fill:#27ffe8;fill-opacity:1;stroke-width:0.15968488"
       d="m 140.51491,254.03915 c -1.09959,-0.15271 -2.90378,-0.67111 -3.46586,-0.99578 -0.18827,-0.10867 -0.83069,-0.80853 -1.4276,-1.55508 -3.38132,-4.22894 -6.09961,-6.60772 -9.51379,-8.3256 -0.73227,-0.36846 -1.45714,-0.77688 -1.61084,-0.90761 -0.382,-0.3249 -0.36049,-1.18315 0.0387,-1.54441 0.34066,-0.30828 0.90748,-0.29738 4.39256,0.0844 2.46846,0.27037 11.24332,0.37565 13.97242,0.16763 5.71322,-0.43546 9.83637,-1.38542 12.93449,-2.98004 0.74653,-0.38426 1.63646,-0.92912 1.97765,-1.21083 l 0.62033,-0.51219 -0.10683,-1.51975 c -0.0588,-0.83585 -0.12995,-1.54286 -0.15824,-1.57112 -0.0283,-0.0283 -0.54677,0.17116 -1.15225,0.44314 -5.35958,2.40773 -13.22337,3.67376 -21.46068,3.45507 -3.8014,-0.10096 -5.45576,-0.24907 -8.5147,-0.76259 -3.71074,-0.62293 -8.03978,-1.9442 -8.4938,-2.59237 -0.19406,-0.27709 -0.23748,-1.03509 -0.23748,-4.14645 0,-2.37841 0.0636,-3.92622 0.16941,-4.12394 0.31096,-0.58105 0.81013,-0.62881 2.16652,-0.20733 8.44173,2.62322 19.20829,3.18245 27.52515,1.42972 2.87666,-0.60623 5.93658,-1.67482 8.58307,-2.99737 l 1.63678,-0.81796 v -1.88816 c 0,-1.03849 -0.035,-1.88816 -0.078,-1.88816 -0.0429,0 -0.70757,0.2615 -1.4771,0.58108 -4.15721,1.7266 -8.67178,2.86221 -13.69484,3.44488 -2.28842,0.26545 -9.37345,0.25671 -11.657,-0.0151 -2.47914,-0.29433 -5.7567,-0.90518 -7.88861,-1.47026 -2.3024,-0.61026 -4.77993,-1.55351 -4.95503,-1.88647 -0.074,-0.14065 -0.18587,-1.98022 -0.24876,-4.08806 -0.11386,-3.81492 -0.11268,-3.8345 0.24461,-4.28632 0.43016,-0.54399 0.46324,-0.54154 3.50622,0.2601 2.34167,0.61687 6.21939,1.26176 9.50126,1.58012 3.13794,0.30438 11.11463,0.25614 14.02276,-0.0847 8.79139,-1.03074 15.03054,-3.35474 19.17479,-7.14233 l 0.93318,-0.85288 -0.11186,-1.20417 c -0.24469,-2.63406 -0.3569,-7.73437 -0.23369,-10.62334 0.28193,-6.61124 1.26924,-11.98149 3.33246,-18.12648 1.73353,-5.16307 3.88747,-9.78955 8.58674,-18.44361 2.4984,-4.60098 4.90996,-9.38937 5.9914,-11.89653 2.90882,-6.74366 4.47068,-12.86563 5.08471,-19.93045 0.28315,-3.25744 0.11503,-9.83878 -0.31273,-12.24605 -0.90201,-5.07551 -2.2898,-9.25705 -4.61075,-13.892578 -6.47752,-12.937194 -17.69457,-22.460913 -30.67639,-26.045449 -9.31726,-2.572691 -19.68628,-2.033405 -28.60596,1.487755 -8.6035,3.396346 -16.27821,9.529394 -22.07814,17.643202 -4.515373,6.316768 -7.606725,13.82808 -8.838576,21.47579 -0.339965,2.11061 -0.4709,8.29193 -0.236165,11.14796 0.697476,8.4859 2.668352,15.43773 6.790725,23.95274 0.807866,1.66871 2.824736,5.54905 4.481946,8.62298 5.99379,11.11782 8.31437,16.57192 9.99148,23.48309 1.27554,5.25635 1.79552,9.78314 1.80569,15.71954 0.008,5.15704 -0.27346,9.1582 -0.68721,9.7408 -0.3857,0.54307 -1.15582,0.61313 -1.62145,0.14751 -0.32079,-0.32077 -0.3417,-0.45315 -0.2475,-1.56634 0.80176,-9.4749 0.34989,-16.64139 -1.51647,-24.05088 -1.61965,-6.43002 -3.94991,-11.82087 -9.80165,-22.67526 -5.797468,-10.75374 -8.123316,-16.19294 -9.740506,-22.77912 -1.281966,-5.22089 -1.744446,-9.27957 -1.744092,-15.30572 2.16e-4,-3.93571 0.04892,-4.86177 0.360353,-6.8494 2.55365,-16.299746 13.455905,-31.413391 28.014125,-38.835623 6.81281,-3.473388 13.73791,-5.125724 21.515,-5.133527 4.73595,-0.0051 7.61525,0.347497 12.0562,1.475013 6.33263,1.607779 12.73592,4.843966 18.20408,9.200217 2.22838,1.775257 6.35087,5.882954 8.02059,7.991808 6.27788,7.928934 10.03725,16.304252 11.4929,25.604442 0.40748,2.6034 0.40433,10.57149 -0.007,13.89257 -1.28077,10.3786 -3.63118,16.77993 -11.52136,31.37809 -5.12905,9.48963 -7.36969,14.55896 -9.01148,20.38807 -2.15704,7.65854 -2.76692,14.89587 -2.05869,24.43015 l 0.18584,2.50172 -0.5264,0.61214 c -2.81699,3.27582 -8.15647,6.12534 -14.31001,7.63679 -4.57996,1.12497 -8.84892,1.57406 -14.92146,1.56975 -6.21712,-0.005 -11.38628,-0.55013 -16.17214,-1.70734 l -1.56097,-0.37743 0.044,2.40918 0.044,2.40918 0.79841,0.29797 c 2.81854,1.05184 7.70978,2.02823 11.81669,2.35879 2.88313,0.23209 8.29289,0.1065 10.93842,-0.25381 5.11369,-0.69656 10.05679,-2.14799 13.92897,-4.0899 0.6787,-0.34038 1.33371,-0.61887 1.45554,-0.61887 0.1219,0 0.51081,-0.0508 0.74222,0.13111 0,0 0.32081,0.35239 0.32081,0.53081 0,3.41412 0,3.41412 0,3.41412 0,2.04815 -0.0672,3.56161 -0.16796,3.78277 -0.0924,0.20275 -0.39778,0.50108 -0.67867,0.66293 -4.46118,2.5709 -9.47821,4.19559 -15.36138,4.97449 -6.91538,0.91556 -16.53132,0.12491 -23.59768,-1.94021 -0.26432,-0.0774 -0.28065,0.0834 -0.23953,2.35671 l 0.0442,2.4396 1.62628,0.52363 c 3.74506,1.20579 7.86194,1.79463 13.41085,1.91815 9.10143,0.20262 16.58833,-1.15094 21.89395,-3.95822 0.81456,-0.43098 1.69317,-0.78362 1.95246,-0.78362 0.85157,0 0.93644,0.34559 0.97189,3.95744 0.0365,3.72207 0.1363,3.44232 -1.69072,4.74403 -4.55831,3.24777 -12.30975,4.72653 -23.62823,4.50757 l -4.62571,-0.0894 0.71343,0.57247 c 1.19109,0.95575 4.65984,4.50704 5.81094,5.94925 0.59587,0.74651 1.23763,1.43763 1.42617,1.53581 1.34004,0.69777 4.72693,0.83256 6.57262,0.26158 0.61596,-0.19057 1.47804,-0.60107 1.9157,-0.91225 0.90413,-0.6428 1.37512,-0.70607 1.83478,-0.24641 0.48963,0.48963 0.4139,1.20915 -0.18483,1.756 -1.59629,1.45796 -5.22346,2.31348 -8.10912,1.91264 z"
       id="path1479"
       inkscape:connector-curvature="0"
       sodipodi:nodetypes="cccccccccccccscccscccccsscccscsccccsccssccccssssssssssccssssccscsssscsssccccsccccccsscsscccccccscsscccccccccccc" />
    <path
       style="fill:#8fff13;fill-opacity:1;stroke-width:0.15968488"
       d="m 129.32729,203.15265 c -0.59737,-0.2135 -0.63873,-0.50029 -0.63902,-4.43079 -10e-4,-16.7055 -3.70342,-32.92763 -12.13791,-53.18447 -2.38554,-5.72927 -4.79717,-11.0083 -8.9215,-19.52916 -1.41553,-2.92446 -2.57368,-5.38364 -2.57368,-5.46485 0,-0.28498 1.61918,-3.91754 2.31607,-5.196 3.48651,-6.3961 8.4528,-11.20993 14.45084,-14.00721 8.66391,-4.040555 19.98752,-4.480212 31.50515,-1.22325 l 1.7239,0.48748 0.7217,-0.802706 c 0.46,-0.511624 1.10754,-0.992657 1.78581,-1.326557 1.03252,-0.508326 1.12345,-0.523747 3.06353,-0.520448 1.48915,0.0033 2.26432,0.08104 3.03736,0.307812 2.71846,0.79725 5.77871,2.329429 8.06837,4.039629 1.33059,0.99385 2.06982,2.01822 3.25573,4.51166 1.55708,3.27383 1.46436,5.47982 -0.2867,6.82218 -1.0126,0.77627 -1.71749,0.92426 -4.33064,0.90919 -1.9443,-0.0101 -2.69933,-0.0936 -4.71068,-0.51382 -3.21485,-0.67169 -6.16725,-1.54001 -6.42235,-1.88889 -0.46937,-0.64189 0.0179,-1.65786 0.79344,-1.65422 0.19761,9.7e-4 1.25299,0.25245 2.34529,0.55896 3.3435,0.93818 5.92755,1.39083 8.07416,1.41439 1.62427,0.0178 2.01353,-0.0276 2.55496,-0.29835 0.89011,-0.44506 1.12118,-0.99257 0.9012,-2.13542 -0.21914,-1.13844 -1.98149,-4.68287 -2.67152,-5.37289 -1.30449,-1.30449 -4.96471,-3.31473 -7.57126,-4.15823 -1.09064,-0.35294 -1.67105,-0.4417 -2.95417,-0.45178 -2.19201,-0.0173 -2.80936,0.30839 -3.97909,2.0988 -0.29072,0.44497 -0.63597,0.77796 -0.83637,0.80666 -0.1877,0.027 -1.16642,-0.20128 -2.17494,-0.50702 -5.06972,-1.53688 -10.32699,-2.33148 -15.44631,-2.33461 -12.13486,-0.007 -21.33407,4.52912 -27.31428,13.46988 -1.11569,1.66801 -2.69754,4.62609 -3.39858,6.35534 l -0.23711,0.58491 1.51831,3.08784 c 13.64617,27.75268 19.57123,45.58024 21.5385,64.80606 0.15154,1.48012 0.28879,4.79674 0.34166,8.2504 l 0.0884,5.77529 c 0.004,0.19445 -0.2501,0.41251 -0.2501,0.41251 -0.40989,0.40989 -0.76933,0.46567 -1.22815,0.30168 z"
       id="path1477"
       inkscape:connector-curvature="0"
       sodipodi:nodetypes="cssssscccccccsscccccccccccccccccccscssscc" />
    <path
       style="fill:#8fff13;fill-opacity:1;stroke-width:0.15968488"
       d="m 151.24172,203.09642 c -0.19889,-0.079 -0.43242,-0.33006 -0.51897,-0.5577 -0.0866,-0.22772 -0.1574,-2.0444 -0.1574,-4.03904 0,-15.82867 3.4845,-31.86657 10.98654,-50.56706 2.81255,-7.01089 5.64613,-13.29275 10.79586,-23.93353 1.24503,-2.57258 1.49985,-3.21846 1.34391,-3.40634 -0.32137,-0.38722 -1.98339,-1.15233 -3.12578,-1.43891 -1.58468,-0.39756 -6.41509,-0.3541 -10.2458,0.0921 -1.6171,0.18841 -3.6028,0.34254 -4.41263,0.34254 -1.39197,0 -1.47768,0.0196 -1.5687,0.35928 -0.30238,1.12832 0.008,1.91671 1.64766,4.19172 1.88179,2.61021 2.25462,3.56398 1.61825,4.13988 -0.24621,0.22282 -0.72321,0.29422 -2.43519,0.36447 l -2.12902,0.0874 -1.99605,-1.71663 c -5.60586,-4.82107 -10.29951,-8.06434 -11.67128,-8.06476 -0.74673,-1.5e-4 -0.86249,0.52656 -0.87721,3.992 -0.007,1.71262 -0.0252,3.20203 -0.0398,3.30978 -0.0151,0.10766 -0.19254,0.30458 -0.39525,0.43741 -0.33039,0.21647 -0.69239,0.21006 -3.49699,-0.062 -1.72063,-0.16695 -3.26639,-0.37724 -3.43499,-0.46749 -0.23018,-0.12324 -0.44936,-0.73736 -0.87984,-2.46559 -1.2923,-5.18799 -2.72151,-7.13688 -6.05399,-8.25525 -0.73421,-0.24639 -1.87387,-0.53723 -2.53256,-0.64627 -1.0384,-0.17189 -1.33513,-0.16275 -2.23165,0.0693 -1.32983,0.34393 -2.27503,0.90311 -3.30431,1.95479 -1.14749,1.17249 -1.86474,2.68018 -1.94422,4.08692 -0.0968,1.71369 0.17455,2.41979 1.40118,3.64553 2.28894,2.28732 4.36004,2.46307 5.4142,0.45949 0.34944,-0.66418 0.36747,-0.8322 0.28382,-2.6446 -0.0799,-1.72999 -0.0588,-1.96297 0.19832,-2.19567 0.32735,-0.29624 0.86027,-0.3362 1.30552,-0.0979 0.75099,0.40191 0.96499,3.8324 0.33929,5.43924 -1.48975,3.82585 -5.83631,4.0199 -9.24769,0.41286 -2.47916,-2.62135 -2.54912,-6.14974 -0.18858,-9.511 1.65526,-2.35704 4.37388,-3.84901 7.01343,-3.84901 1.91899,0 5.15027,1.01311 6.86316,2.15184 2.07812,1.38154 3.37582,3.49969 4.40481,7.18973 0.31837,1.14175 0.60259,2.15599 0.63161,2.25386 0.0307,0.10331 0.67798,0.22523 1.54315,0.2906 0.81969,0.062 1.64471,0.14953 1.83333,0.19455 0.33885,0.0809 0.34359,0.0497 0.3992,-2.61764 0.0549,-2.63366 0.068,-2.72235 0.53534,-3.63375 0.61751,-1.20422 1.51495,-1.74909 2.6669,-1.61924 2.17859,0.24561 6.74526,3.34027 13.40554,9.08445 0.81794,0.70545 0.95503,0.7684 1.46495,0.67274 l 0.56254,-0.10566 -0.93132,-1.25606 c -1.49713,-2.01921 -1.83887,-2.84832 -1.83887,-4.46161 0,-1.43033 0.18245,-2.00385 0.93733,-2.94649 0.32458,-0.40531 0.46441,-0.46255 0.99757,-0.40837 1.3617,0.13848 3.94028,0.035 6.2889,-0.25218 3.42985,-0.41945 8.8251,-0.42636 10.585,-0.0134 2.37486,0.55704 5.22378,2.40414 5.22378,3.38688 0,0.20754 -0.90515,2.23131 -2.01146,4.49727 -10.97154,22.47209 -16.37417,36.952 -19.38152,51.94557 -1.5315,7.63559 -2.43449,17.27148 -2.17112,23.16815 0.0938,2.10035 0.0759,2.36184 -0.18221,2.66085 -0.35676,0.41323 -0.81636,0.53898 -1.28661,0.352 z"
       id="path1473"
       inkscape:connector-curvature="0" />
  </g>
</svg>
