<?xml version="1.0" encoding="UTF-8" standalone="no"?>
<!-- Created with Inkscape (http://www.inkscape.org/) -->

<svg
   xmlns:dc="http://purl.org/dc/elements/1.1/"
   xmlns:cc="http://creativecommons.org/ns#"
   xmlns:rdf="http://www.w3.org/1999/02/22-rdf-syntax-ns#"
   xmlns:svg="http://www.w3.org/2000/svg"
   xmlns="http://www.w3.org/2000/svg"
   xmlns:xlink="http://www.w3.org/1999/xlink"
   xmlns:sodipodi="http://sodipodi.sourceforge.net/DTD/sodipodi-0.dtd"
   xmlns:inkscape="http://www.inkscape.org/namespaces/inkscape"
   version="1.0"
   width="24"
   height="24"
   id="svg2408"
   inkscape:version="0.48.5 r10040"
   sodipodi:docname="akonadi.svg">
  <metadata
     id="metadata99">
    <rdf:RDF>
      <cc:Work
         rdf:about="">
        <dc:format>image/svg+xml</dc:format>
        <dc:type
           rdf:resource="http://purl.org/dc/dcmitype/StillImage" />
        <dc:title />
      </cc:Work>
    </rdf:RDF>
  </metadata>
  <sodipodi:namedview
     pagecolor="#000000"
     bordercolor="#666666"
     borderopacity="1"
     objecttolerance="10"
     gridtolerance="10"
     guidetolerance="10"
     inkscape:pageopacity="0.43137255"
     inkscape:pageshadow="2"
     inkscape:window-width="1280"
     inkscape:window-height="750"
     id="namedview97"
     showgrid="false"
     inkscape:zoom="9.83"
     inkscape:cx="-22.600203"
     inkscape:cy="9.6669825"
     inkscape:window-x="0"
     inkscape:window-y="-3"
     inkscape:window-maximized="1"
     inkscape:current-layer="svg2408" />
  <defs
     id="defs2410">
    <linearGradient
       x1="105.55817"
       y1="62.97105"
       x2="24.668499"
       y2="62.97105"
       id="linearGradient3816"
       xlink:href="#linearGradient3767"
       gradientUnits="userSpaceOnUse"
       gradientTransform="matrix(0,0.6766374,-0.847943,0,101.39586,-4.6916286)" />
    <linearGradient
       id="linearGradient3767">
      <stop
         id="stop3769"
         style="stop-color:#000000;stop-opacity:1;"
         offset="0" />
      <stop
         id="stop3771"
         style="stop-color:#363636;stop-opacity:1;"
         offset="1" />
    </linearGradient>
    <linearGradient
       id="linearGradient3313">
      <stop
         id="stop3315"
         style="stop-color:#4dbeff;stop-opacity:1"
         offset="0" />
      <stop
         id="stop4186"
         style="stop-color:#1379ff;stop-opacity:0.65040648"
         offset="0.67213112" />
      <stop
         id="stop3317"
         style="stop-color:#0066ff;stop-opacity:0"
         offset="1" />
    </linearGradient>
    <linearGradient
       id="linearGradient4327">
      <stop
         id="stop4329"
         style="stop-color:#f0f0f0;stop-opacity:1"
         offset="0" />
      <stop
         id="stop4331"
         style="stop-color:#b4b4b4;stop-opacity:1"
         offset="1" />
    </linearGradient>
    <linearGradient
       id="linearGradient3322">
      <stop
         id="stop3324"
         style="stop-color:#7a7a7a;stop-opacity:1"
         offset="0" />
      <stop
         id="stop3326"
         style="stop-color:#f9f9f9;stop-opacity:1"
         offset="0.2032043" />
      <stop
         id="stop3328"
         style="stop-color:#c9c9c9;stop-opacity:1"
         offset="0.42969123" />
      <stop
         id="stop3330"
         style="stop-color:#dedede;stop-opacity:0"
         offset="1" />
    </linearGradient>
    <linearGradient
       id="linearGradient3448">
      <stop
         id="stop3450"
         style="stop-color:#000000;stop-opacity:1"
         offset="0" />
      <stop
         id="stop3452"
         style="stop-color:#000000;stop-opacity:0"
         offset="1" />
    </linearGradient>
    <linearGradient
       id="linearGradient3273">
      <stop
         id="stop3275"
         style="stop-color:#7a7a7a;stop-opacity:1"
         offset="0" />
      <stop
         id="stop3281"
         style="stop-color:#f9f9f9;stop-opacity:1"
         offset="0.14636412" />
      <stop
         id="stop3283"
         style="stop-color:#c9c9c9;stop-opacity:1"
         offset="0.37253973" />
      <stop
         id="stop3277"
         style="stop-color:#dedede;stop-opacity:0"
         offset="1" />
    </linearGradient>
    <linearGradient
       id="linearGradient3220">
      <stop
         id="stop3222"
         style="stop-color:#ffffff;stop-opacity:1"
         offset="0" />
      <stop
         id="stop3224"
         style="stop-color:#bfbfbf;stop-opacity:0"
         offset="1" />
    </linearGradient>
    <linearGradient
       x1="45.447727"
       y1="92.539597"
       x2="45.447727"
       y2="7.0165396"
       id="ButtonShadow"
       gradientUnits="userSpaceOnUse"
       gradientTransform="scale(1.0058652,0.994169)">
      <stop
         id="stop3750"
         style="stop-color:#000000;stop-opacity:1"
         offset="0" />
      <stop
         id="stop3752"
         style="stop-color:#000000;stop-opacity:0.58823532"
         offset="1" />
    </linearGradient>
    <linearGradient
       id="linearGradient3737">
      <stop
         id="stop3739"
         style="stop-color:#ffffff;stop-opacity:1"
         offset="0" />
      <stop
         id="stop3741"
         style="stop-color:#ffffff;stop-opacity:0"
         offset="1" />
    </linearGradient>
    <filter
       color-interpolation-filters="sRGB"
       id="filter3174">
      <feGaussianBlur
         id="feGaussianBlur3176"
         stdDeviation="1.71" />
    </filter>
    <linearGradient
       x1="36.357143"
       y1="6"
       x2="36.357143"
       y2="63.893143"
       id="linearGradient3188"
       xlink:href="#linearGradient3737"
       gradientUnits="userSpaceOnUse" />
    <linearGradient
       x1="46"
       y1="6"
       x2="46"
       y2="78.000145"
       id="linearGradient3179"
       xlink:href="#linearGradient4327"
       gradientUnits="userSpaceOnUse" />
    <linearGradient
       x1="6"
       y1="77.09375"
       x2="32"
       y2="77.09375"
       id="linearGradient3279"
       xlink:href="#linearGradient3322"
       gradientUnits="userSpaceOnUse" />
    <linearGradient
       x1="6"
       y1="77.09375"
       x2="32.030617"
       y2="77.09375"
       id="linearGradient3287"
       xlink:href="#linearGradient3273"
       gradientUnits="userSpaceOnUse"
       gradientTransform="matrix(-1,0,0,1,96.030615,0)" />
    <linearGradient
       x1="6"
       y1="75.5"
       x2="45.219246"
       y2="75.5"
       id="linearGradient3454"
       xlink:href="#linearGradient3448"
       gradientUnits="userSpaceOnUse"
       gradientTransform="matrix(-1,0,0,1,96,-2)" />
    <linearGradient
       x1="48"
       y1="77.09375"
       x2="48"
       y2="90"
       id="linearGradient3460"
       xlink:href="#linearGradient3448"
       gradientUnits="userSpaceOnUse" />
    <linearGradient
       x1="18.742928"
       y1="8.046936"
       x2="109.1929"
       y2="68.516502"
       id="linearGradient3551"
       xlink:href="#linearGradient3220"
       gradientUnits="userSpaceOnUse"
       gradientTransform="matrix(1,0,0,-1,0,84)" />
    <linearGradient
       x1="15.656256"
       y1="69.394279"
       x2="46.594883"
       y2="39.82095"
       id="linearGradient3781"
       xlink:href="#linearGradient3220"
       gradientUnits="userSpaceOnUse"
       gradientTransform="matrix(1.1165614,0,0,1.1165614,0.8046986,-5.6759082)" />
    <clipPath
       id="clipPath3785">
      <rect
         width="84"
         height="72"
         rx="6"
         ry="6"
         x="6"
         y="6"
         id="rect3787"
         style="fill:#ffffff;fill-opacity:1;fill-rule:nonzero;stroke:none" />
    </clipPath>
    <filter
       x="-0.12267826"
       y="-0.17991199"
       width="1.2453564"
       height="1.3598239"
       color-interpolation-filters="sRGB"
       id="filter3829">
      <feGaussianBlur
         id="feGaussianBlur3831"
         stdDeviation="3.5487715" />
    </filter>
    <radialGradient
       cx="48"
       cy="84"
       r="30"
       fx="48"
       fy="84"
       id="radialGradient4138"
       xlink:href="#linearGradient3313"
       gradientUnits="userSpaceOnUse"
       gradientTransform="matrix(1.0666667,0,0,0.06666667,-3.2,77.4)" />
    <filter
       x="-0.11444673"
       y="-1.4149175"
       width="1.2288935"
       height="3.8298349"
       color-interpolation-filters="sRGB"
       id="filter4180">
      <feGaussianBlur
         id="feGaussianBlur4182"
         stdDeviation="3.5372897" />
    </filter>
    <linearGradient
       x1="43.05357"
       y1="80.14286"
       x2="43.05357"
       y2="82.00309"
       id="linearGradient4196"
       xlink:href="#linearGradient3448"
       gradientUnits="userSpaceOnUse" />
    <clipPath
       id="clipPath3520">
      <path
         d="m 9.9375,33.6875 c -3.2232728,0 -5.84375,1.784 -5.84375,4 l 0,67.71875 c 0,2.216 2.6204767,4 5.84375,4 l 77.625,0 c 3.223273,0 5.843753,-1.784 5.84375,-4 l 0,-67.71875 c 0,-2.216 -2.62048,-4 -5.84375,-4 l -77.625,0 z M 47.90625,42 c 3.431866,0 6.21875,2.198129 6.21875,4.9375 0,2.181733 -1.764187,4.054067 -4.21875,4.71875 l 0,3.5625 c 0.01488,0.497551 0.298693,1.06729 0.6875,1.46875 0.09978,0.07533 8.192442,6.200116 8.21875,6.21875 0.0084,0.0065 0.02327,-0.0068 0.03125,0 0.02396,0.01835 0.04599,0.04881 0.0625,0.0625 0.0042,0.0036 0.02447,-0.006 0.03125,0 0.0068,0.006 0.03104,0.06226 0.03125,0.0625 2.6e-5,2.9e-5 0.06248,0.06248 0.0625,0.0625 0,0 10e-7,0.03125 0,0.03125 0.01173,0.01044 0.01956,0.02072 0.03125,0.03125 1.096118,0.988597 2.000001,2.355113 2,3.8125 l 0,4.09375 C 62.785851,71.690189 64,73.086119 64,74.71875 c 0,2.220106 -2.20417,4.031251 -4.9375,4.03125 -2.733338,0 -4.96875,-1.811144 -4.96875,-4.03125 0,-1.655395 1.236126,-3.071778 3,-3.6875 -2.35e-4,-1.047382 -10e-7,-2.379418 0,-4.09375 -0.01444,-0.497879 -0.297358,-1.034548 -0.6875,-1.4375 l -6.5,-4.9375 0,28.125 4.46875,0 L 48,98 l -6.375,-9.3125 4.3125,0 0,-21.96875 -6.53125,4.9375 c -0.394904,0.406057 -0.673191,0.908993 -0.6875,1.40625 0,2.101393 0,2.980142 0,3.8125 l 2.8125,0 0,7.90625 -9.53125,0 0,-7.90625 2.78125,0 0,-3.75 c 0,-1.44207 0.88924,-2.794493 1.96875,-3.78125 0,0 0.0213,-0.01152 0.03125,-0.03125 0.0043,-0.0039 -0.0044,-0.02734 0,-0.03125 0,0 0.03125,-0.03125 0.03125,-0.03125 1.5e-5,-2.1e-5 0.03122,-0.03122 0.03125,-0.03125 2.03e-4,-2.43e-4 0.05499,-0.08694 0.0625,-0.09375 0.0047,-0.004 -0.0046,-0.02742 0,-0.03125 0.01531,-0.01278 0.07133,-0.01367 0.09375,-0.03125 0.0079,-0.01061 0.02312,-0.02513 0.03125,-0.03125 0.01626,-0.01224 0.03151,-0.0079 0.0625,-0.03125 0.06197,-0.04673 0.166883,-0.13246 0.28125,-0.21875 0.228732,-0.172571 0.516577,-0.424672 0.90625,-0.71875 0.779348,-0.588157 1.839188,-1.343188 2.875,-2.125 2.046308,-1.544518 4.044131,-3.087545 4.09375,-3.125 0.392715,-0.403164 0.671626,-0.909306 0.6875,-1.40625 l 0,-6.15625 c -0.003,-0.04389 -4.59e-4,-0.02213 0,-0.03125 4.59e-4,-0.0091 -10e-7,-0.03827 0,-0.03125 l 0,-3.53125 C 43.481518,50.991635 41.687502,49.119667 41.6875,46.9375 41.6875,44.198126 44.473344,42 47.90625,42 z"
         id="path3522"
         style="fill:#ffffff;fill-opacity:1;fill-rule:nonzero;stroke:none"
         inkscape:connector-curvature="0" />
    </clipPath>
    <filter
       x="-0.24171428"
       y="-0.14338984"
       width="1.4834286"
       height="1.2867796"
       color-interpolation-filters="sRGB"
       id="filter3536">
      <feGaussianBlur
         id="feGaussianBlur3538"
         stdDeviation="3.525" />
    </filter>
    <linearGradient
       x1="45.447727"
       y1="92.539597"
       x2="45.447727"
       y2="7.0165396"
       id="ButtonShadow-0"
       gradientUnits="userSpaceOnUse"
       gradientTransform="matrix(1.0058652,0,0,0.994169,100,0)">
      <stop
         id="stop3750-8"
         style="stop-color:#000000;stop-opacity:1"
         offset="0" />
      <stop
         id="stop3752-5"
         style="stop-color:#000000;stop-opacity:0.58823532"
         offset="1" />
    </linearGradient>
    <linearGradient
       x1="32.251034"
       y1="6.1317081"
       x2="32.251034"
       y2="90.238609"
       id="linearGradient3780"
       xlink:href="#ButtonShadow-0"
       gradientUnits="userSpaceOnUse"
       gradientTransform="matrix(1.0238095,0,0,1.0119048,-1.1428571,-98.071429)" />
    <linearGradient
       x1="32.251034"
       y1="6.1317081"
       x2="32.251034"
       y2="90.238609"
       id="linearGradient3772"
       xlink:href="#ButtonShadow-0"
       gradientUnits="userSpaceOnUse"
       gradientTransform="matrix(1.0238095,0,0,1.0119048,-1.1428571,-98.071429)" />
    <linearGradient
       x1="32.251034"
       y1="6.1317081"
       x2="32.251034"
       y2="90.238609"
       id="linearGradient3725"
       xlink:href="#ButtonShadow-0"
       gradientUnits="userSpaceOnUse"
       gradientTransform="matrix(1.0238095,0,0,1.0119048,-1.1428571,-98.071429)" />
    <linearGradient
       x1="32.251034"
       y1="6.1317081"
       x2="32.251034"
       y2="90.238609"
       id="linearGradient3721"
       xlink:href="#ButtonShadow-0"
       gradientUnits="userSpaceOnUse"
       gradientTransform="translate(0,-97)" />
    <linearGradient
       x1="32.251034"
       y1="6.1317081"
       x2="32.251034"
       y2="90.238609"
       id="linearGradient2918"
       xlink:href="#ButtonShadow-0"
       gradientUnits="userSpaceOnUse"
       gradientTransform="matrix(1.0238095,0,0,1.0119048,-1.1428571,-98.071429)" />
    <linearGradient
       inkscape:collect="always"
       xlink:href="#linearGradient3767"
       id="linearGradient3091"
       gradientUnits="userSpaceOnUse"
       gradientTransform="matrix(0,0.6766374,-0.847943,0,101.39586,-4.6916286)"
       x1="115.44755"
       y1="13.859179"
       x2="115.98746"
       y2="112.71256" />
    <linearGradient
       inkscape:collect="always"
       xlink:href="#linearGradient3767"
       id="linearGradient3865"
       gradientUnits="userSpaceOnUse"
       gradientTransform="matrix(0,0.69355333,-0.86914157,0,103.13076,-5.1089192)"
       x1="115.44755"
       y1="13.859179"
       x2="115.98746"
       y2="112.71256" />
    <linearGradient
       inkscape:collect="always"
       xlink:href="#linearGradient3767"
       id="linearGradient3877"
       gradientUnits="userSpaceOnUse"
       gradientTransform="matrix(0,0.69355333,-0.86914157,0,103.13076,-5.1089192)"
       x1="115.44755"
       y1="13.859179"
       x2="115.98746"
       y2="112.71256" />
    <linearGradient
       inkscape:collect="always"
       xlink:href="#linearGradient3767"
       id="linearGradient3889"
       gradientUnits="userSpaceOnUse"
       gradientTransform="matrix(0,0.69355333,-0.86914157,0,103.13076,-5.1089192)"
       x1="115.44755"
       y1="13.859179"
       x2="115.98746"
       y2="112.71256" />
    <linearGradient
       inkscape:collect="always"
       xlink:href="#linearGradient3767"
       id="linearGradient3071"
       gradientUnits="userSpaceOnUse"
       gradientTransform="matrix(0,0.69355333,-0.86914157,0,103.13076,-5.1089192)"
       x1="115.44755"
       y1="13.859179"
       x2="115.98746"
       y2="112.71256" />
    <linearGradient
       inkscape:collect="always"
       xlink:href="#linearGradient3767"
       id="linearGradient3080"
       gradientUnits="userSpaceOnUse"
       gradientTransform="matrix(0,0.69355333,-0.86914157,0,103.13076,-5.1089192)"
       x1="115.44755"
       y1="13.859179"
       x2="115.98746"
       y2="112.71256" />
    <linearGradient
       inkscape:collect="always"
       xlink:href="#linearGradient3767"
       id="linearGradient3088"
       gradientUnits="userSpaceOnUse"
       gradientTransform="matrix(0,0.69355333,-0.86914157,0,103.13076,-5.1089192)"
       x1="115.44755"
       y1="13.859179"
       x2="115.98746"
       y2="112.71256" />
  </defs>
  <g
     id="layer2"
     style="display:none"
     transform="translate(0,-72)">
    <rect
       width="86"
       height="85"
       rx="6"
       ry="6"
       x="5"
       y="7"
       id="rect3745"
       style="opacity:0.9;fill:url(#ButtonShadow);fill-opacity:1;fill-rule:nonzero;stroke:none;filter:url(#filter3174)" />
  </g>
  <g
     id="layer5"
     style="display:none"
     transform="translate(0,-72)">
    <rect
       width="74.178574"
       height="5.9999933"
       rx="6.7435069"
       ry="5.9999933"
       x="10.910714"
       y="80.000008"
       id="rect3323"
       style="opacity:0.6;fill:#0066ff;fill-opacity:1;fill-rule:nonzero;stroke:none;display:inline;filter:url(#filter4180)" />
    <rect
       width="64"
       height="4"
       rx="5.818182"
       ry="4"
       x="16"
       y="81"
       id="rect3311"
       style="fill:url(#radialGradient4138);fill-opacity:1;fill-rule:nonzero;stroke:none;display:inline" />
  </g>
  <g
     id="akonadi"
     transform="translate(0.10172903,0.20345863)">
    <path
       sodipodi:open="true"
       sodipodi:end="3.1415927"
       sodipodi:start="0"
       sodipodi:type="arc"
       style="fill:none;stroke:#1c2122;stroke-width:1.29099344999999999;stroke-linecap:round;stroke-linejoin:round;stroke-miterlimit:4;stroke-opacity:1;stroke-dasharray:none;marker:none;visibility:visible;display:inline;overflow:visible;enable-background:accumulate"
       id="path9864"
       sodipodi:cx="-559.875"
       sodipodi:cy="1188.0625"
       sodipodi:rx="4"
       sodipodi:ry="2.1875"
       d="m -555.875,1188.0625 c 0,1.2081 -1.79086,2.1875 -4,2.1875 -2.20914,0 -4,-0.9794 -4,-2.1875 0,0 0,0 0,0"
       transform="matrix(1.7500027,0,0,1.3714286,991.48165,-1611.7539)" />
    <rect
       style="fill:#ffffff;fill-opacity:0.00392157;stroke:none"
       id="rect3879"
       width="24"
       height="24"
       x="-0.012821165"
       y="-24.012808"
       rx="0"
       ry="0"
       transform="matrix(-0.00106786,0.99999943,-0.99999943,-0.00106786,0,0)" />
    <path
       transform="matrix(1.7500027,0,0,1.3714286,991.48165,-1615.7539)"
       d="m -555.875,1188.0625 c 0,1.2081 -1.79086,2.1875 -4,2.1875 -2.20914,0 -4,-0.9794 -4,-2.1875 0,0 0,0 0,0"
       sodipodi:ry="2.1875"
       sodipodi:rx="4"
       sodipodi:cy="1188.0625"
       sodipodi:cx="-559.875"
       id="path9862"
       style="fill:none;stroke:#1c2122;stroke-width:1.29099344999999999;stroke-linecap:round;stroke-linejoin:round;stroke-miterlimit:4;stroke-opacity:1;stroke-dasharray:none;marker:none;visibility:visible;display:inline;overflow:visible;enable-background:accumulate"
       sodipodi:type="arc"
       sodipodi:start="0"
       sodipodi:end="3.1415927"
       sodipodi:open="true" />
    <path
       sodipodi:open="true"
       sodipodi:end="3.1415927"
       sodipodi:start="0"
       sodipodi:type="arc"
       style="fill:none;stroke:#1c2122;stroke-width:1.29099344999999999;stroke-linecap:round;stroke-linejoin:round;stroke-miterlimit:4;stroke-opacity:1;stroke-dasharray:none;marker:none;visibility:visible;display:inline;overflow:visible;enable-background:accumulate"
       id="path9860"
       sodipodi:cx="-559.875"
       sodipodi:cy="1188.0625"
       sodipodi:rx="4"
       sodipodi:ry="2.1875"
       d="m -555.875,1188.0625 c 0,1.2081 -1.79086,2.1875 -4,2.1875 -2.20914,0 -4,-0.9794 -4,-2.1875 0,0 0,0 0,0"
       transform="matrix(1.7500027,0,0,1.3714286,991.48165,-1619.7539)" />
    <path
       transform="matrix(1.7500027,0,0,1.3714286,991.48165,-1623.7538)"
       d="m -555.875,1188.0625 c 0,1.2081 -1.79086,2.1875 -4,2.1875 -2.20914,0 -4,-0.9794 -4,-2.1875 0,-1.2081 1.79086,-2.1875 4,-2.1875 2.20914,0 4,0.9794 4,2.1875 z"
       sodipodi:ry="2.1875"
       sodipodi:rx="4"
       sodipodi:cy="1188.0625"
       sodipodi:cx="-559.875"
       id="path9858"
       style="fill:none;stroke:#1c2122;stroke-width:1.29099344999999999;stroke-linecap:round;stroke-linejoin:round;stroke-miterlimit:4;stroke-opacity:1;stroke-dasharray:none;marker:none;visibility:visible;display:inline;overflow:visible;enable-background:accumulate"
       sodipodi:type="arc" />
  </g>
</svg>
