<?xml version="1.0" encoding="UTF-8" standalone="no"?>
<!-- Created with Inkscape (http://www.inkscape.org/) -->

<svg
   xmlns:dc="http://purl.org/dc/elements/1.1/"
   xmlns:cc="http://creativecommons.org/ns#"
   xmlns:rdf="http://www.w3.org/1999/02/22-rdf-syntax-ns#"
   xmlns:svg="http://www.w3.org/2000/svg"
   xmlns="http://www.w3.org/2000/svg"
   xmlns:xlink="http://www.w3.org/1999/xlink"
   version="1.0"
   width="24"
   height="24"
   id="svg2408">
  <metadata
     id="metadata99">
    <rdf:RDF>
      <cc:Work
         rdf:about="">
        <dc:format>image/svg+xml</dc:format>
        <dc:type
           rdf:resource="http://purl.org/dc/dcmitype/StillImage" />
        <dc:title></dc:title>
      </cc:Work>
    </rdf:RDF>
  </metadata>
  <defs
     id="defs2410">
    <linearGradient
       x1="105.55817"
       y1="62.97105"
       x2="24.668499"
       y2="62.97105"
       id="linearGradient3816"
       xlink:href="#linearGradient3767"
       gradientUnits="userSpaceOnUse"
       gradientTransform="matrix(0,0.6766374,-0.847943,0,101.39586,-4.6916286)" />
    <linearGradient
       id="linearGradient3767">
      <stop
         id="stop3769"
         style="stop-color:#000000;stop-opacity:1"
         offset="0" />
      <stop
         id="stop3771"
         style="stop-color:#363636;stop-opacity:1"
         offset="1" />
    </linearGradient>
    <linearGradient
       id="linearGradient3313">
      <stop
         id="stop3315"
         style="stop-color:#4dbeff;stop-opacity:1"
         offset="0" />
      <stop
         id="stop4186"
         style="stop-color:#1379ff;stop-opacity:0.65040648"
         offset="0.67213112" />
      <stop
         id="stop3317"
         style="stop-color:#0066ff;stop-opacity:0"
         offset="1" />
    </linearGradient>
    <linearGradient
       id="linearGradient4327">
      <stop
         id="stop4329"
         style="stop-color:#f0f0f0;stop-opacity:1"
         offset="0" />
      <stop
         id="stop4331"
         style="stop-color:#b4b4b4;stop-opacity:1"
         offset="1" />
    </linearGradient>
    <linearGradient
       id="linearGradient3322">
      <stop
         id="stop3324"
         style="stop-color:#7a7a7a;stop-opacity:1"
         offset="0" />
      <stop
         id="stop3326"
         style="stop-color:#f9f9f9;stop-opacity:1"
         offset="0.2032043" />
      <stop
         id="stop3328"
         style="stop-color:#c9c9c9;stop-opacity:1"
         offset="0.42969123" />
      <stop
         id="stop3330"
         style="stop-color:#dedede;stop-opacity:0"
         offset="1" />
    </linearGradient>
    <linearGradient
       id="linearGradient3448">
      <stop
         id="stop3450"
         style="stop-color:#000000;stop-opacity:1"
         offset="0" />
      <stop
         id="stop3452"
         style="stop-color:#000000;stop-opacity:0"
         offset="1" />
    </linearGradient>
    <linearGradient
       id="linearGradient3273">
      <stop
         id="stop3275"
         style="stop-color:#7a7a7a;stop-opacity:1"
         offset="0" />
      <stop
         id="stop3281"
         style="stop-color:#f9f9f9;stop-opacity:1"
         offset="0.14636412" />
      <stop
         id="stop3283"
         style="stop-color:#c9c9c9;stop-opacity:1"
         offset="0.37253973" />
      <stop
         id="stop3277"
         style="stop-color:#dedede;stop-opacity:0"
         offset="1" />
    </linearGradient>
    <linearGradient
       id="linearGradient3220">
      <stop
         id="stop3222"
         style="stop-color:#ffffff;stop-opacity:1"
         offset="0" />
      <stop
         id="stop3224"
         style="stop-color:#bfbfbf;stop-opacity:0"
         offset="1" />
    </linearGradient>
    <linearGradient
       x1="45.447727"
       y1="92.539597"
       x2="45.447727"
       y2="7.0165396"
       id="ButtonShadow"
       gradientUnits="userSpaceOnUse"
       gradientTransform="scale(1.0058652,0.994169)">
      <stop
         id="stop3750"
         style="stop-color:#000000;stop-opacity:1"
         offset="0" />
      <stop
         id="stop3752"
         style="stop-color:#000000;stop-opacity:0.58823532"
         offset="1" />
    </linearGradient>
    <linearGradient
       id="linearGradient3737">
      <stop
         id="stop3739"
         style="stop-color:#ffffff;stop-opacity:1"
         offset="0" />
      <stop
         id="stop3741"
         style="stop-color:#ffffff;stop-opacity:0"
         offset="1" />
    </linearGradient>
    <filter
       color-interpolation-filters="sRGB"
       id="filter3174">
      <feGaussianBlur
         stdDeviation="1.71"
         id="feGaussianBlur3176" />
    </filter>
    <linearGradient
       x1="36.357143"
       y1="6"
       x2="36.357143"
       y2="63.893143"
       id="linearGradient3188"
       xlink:href="#linearGradient3737"
       gradientUnits="userSpaceOnUse" />
    <linearGradient
       x1="46"
       y1="6"
       x2="46"
       y2="78.000145"
       id="linearGradient3179"
       xlink:href="#linearGradient4327"
       gradientUnits="userSpaceOnUse" />
    <linearGradient
       x1="6"
       y1="77.09375"
       x2="32"
       y2="77.09375"
       id="linearGradient3279"
       xlink:href="#linearGradient3322"
       gradientUnits="userSpaceOnUse" />
    <linearGradient
       x1="6"
       y1="77.09375"
       x2="32.030617"
       y2="77.09375"
       id="linearGradient3287"
       xlink:href="#linearGradient3273"
       gradientUnits="userSpaceOnUse"
       gradientTransform="matrix(-1,0,0,1,96.030615,0)" />
    <linearGradient
       x1="6"
       y1="75.5"
       x2="45.219246"
       y2="75.5"
       id="linearGradient3454"
       xlink:href="#linearGradient3448"
       gradientUnits="userSpaceOnUse"
       gradientTransform="matrix(-1,0,0,1,96,-2)" />
    <linearGradient
       x1="48"
       y1="77.09375"
       x2="48"
       y2="90"
       id="linearGradient3460"
       xlink:href="#linearGradient3448"
       gradientUnits="userSpaceOnUse" />
    <linearGradient
       x1="18.742928"
       y1="8.046936"
       x2="109.1929"
       y2="68.516502"
       id="linearGradient3551"
       xlink:href="#linearGradient3220"
       gradientUnits="userSpaceOnUse"
       gradientTransform="matrix(1,0,0,-1,0,84)" />
    <linearGradient
       x1="15.656256"
       y1="69.394279"
       x2="46.594883"
       y2="39.82095"
       id="linearGradient3781"
       xlink:href="#linearGradient3220"
       gradientUnits="userSpaceOnUse"
       gradientTransform="matrix(1.1165614,0,0,1.1165614,0.8046986,-5.6759082)" />
    <clipPath
       id="clipPath3785">
      <rect
         width="84"
         height="72"
         rx="6"
         ry="6"
         x="6"
         y="6"
         id="rect3787"
         style="fill:#ffffff;fill-opacity:1;fill-rule:nonzero;stroke:none" />
    </clipPath>
    <filter
       x="-0.12267826"
       y="-0.17991199"
       width="1.2453564"
       height="1.3598239"
       color-interpolation-filters="sRGB"
       id="filter3829">
      <feGaussianBlur
         stdDeviation="3.5487715"
         id="feGaussianBlur3831" />
    </filter>
    <radialGradient
       cx="48"
       cy="84"
       r="30"
       fx="48"
       fy="84"
       id="radialGradient4138"
       xlink:href="#linearGradient3313"
       gradientUnits="userSpaceOnUse"
       gradientTransform="matrix(1.0666667,0,0,0.06666667,-3.2,77.4)" />
    <filter
       x="-0.11444673"
       y="-1.4149175"
       width="1.2288935"
       height="3.8298349"
       color-interpolation-filters="sRGB"
       id="filter4180">
      <feGaussianBlur
         stdDeviation="3.5372897"
         id="feGaussianBlur4182" />
    </filter>
    <linearGradient
       x1="43.05357"
       y1="80.14286"
       x2="43.05357"
       y2="82.00309"
       id="linearGradient4196"
       xlink:href="#linearGradient3448"
       gradientUnits="userSpaceOnUse" />
    <clipPath
       id="clipPath3520">
      <path
         d="m 9.9375,33.6875 c -3.2232728,0 -5.84375,1.784 -5.84375,4 l 0,67.71875 c 0,2.216 2.6204767,4 5.84375,4 l 77.625,0 c 3.223273,0 5.843753,-1.784 5.84375,-4 l 0,-67.71875 c 0,-2.216 -2.62048,-4 -5.84375,-4 l -77.625,0 z M 47.90625,42 c 3.431866,0 6.21875,2.198129 6.21875,4.9375 0,2.181733 -1.764187,4.054067 -4.21875,4.71875 l 0,3.5625 c 0.01488,0.497551 0.298693,1.06729 0.6875,1.46875 0.09978,0.07533 8.192442,6.200116 8.21875,6.21875 0.0084,0.0065 0.02327,-0.0068 0.03125,0 0.02396,0.01835 0.04599,0.04881 0.0625,0.0625 0.0042,0.0036 0.02447,-0.006 0.03125,0 0.0068,0.006 0.03104,0.06226 0.03125,0.0625 2.6e-5,2.9e-5 0.06248,0.06248 0.0625,0.0625 0,0 10e-7,0.03125 0,0.03125 0.01173,0.01044 0.01956,0.02072 0.03125,0.03125 1.096118,0.988597 2.000001,2.355113 2,3.8125 l 0,4.09375 C 62.785851,71.690189 64,73.086119 64,74.71875 c 0,2.220106 -2.20417,4.031251 -4.9375,4.03125 -2.733338,0 -4.96875,-1.811144 -4.96875,-4.03125 0,-1.655395 1.236126,-3.071778 3,-3.6875 -2.35e-4,-1.047382 -10e-7,-2.379418 0,-4.09375 -0.01444,-0.497879 -0.297358,-1.034548 -0.6875,-1.4375 l -6.5,-4.9375 0,28.125 4.46875,0 L 48,98 l -6.375,-9.3125 4.3125,0 0,-21.96875 -6.53125,4.9375 c -0.394904,0.406057 -0.673191,0.908993 -0.6875,1.40625 0,2.101393 0,2.980142 0,3.8125 l 2.8125,0 0,7.90625 -9.53125,0 0,-7.90625 2.78125,0 0,-3.75 c 0,-1.44207 0.88924,-2.794493 1.96875,-3.78125 0,0 0.0213,-0.01152 0.03125,-0.03125 0.0043,-0.0039 -0.0044,-0.02734 0,-0.03125 0,0 0.03125,-0.03125 0.03125,-0.03125 1.5e-5,-2.1e-5 0.03122,-0.03122 0.03125,-0.03125 2.03e-4,-2.43e-4 0.05499,-0.08694 0.0625,-0.09375 0.0047,-0.004 -0.0046,-0.02742 0,-0.03125 0.01531,-0.01278 0.07133,-0.01367 0.09375,-0.03125 0.0079,-0.01061 0.02312,-0.02513 0.03125,-0.03125 0.01626,-0.01224 0.03151,-0.0079 0.0625,-0.03125 0.06197,-0.04673 0.166883,-0.13246 0.28125,-0.21875 0.228732,-0.172571 0.516577,-0.424672 0.90625,-0.71875 0.779348,-0.588157 1.839188,-1.343188 2.875,-2.125 2.046308,-1.544518 4.044131,-3.087545 4.09375,-3.125 0.392715,-0.403164 0.671626,-0.909306 0.6875,-1.40625 l 0,-6.15625 c -0.003,-0.04389 -4.59e-4,-0.02213 0,-0.03125 4.59e-4,-0.0091 -10e-7,-0.03827 0,-0.03125 l 0,-3.53125 C 43.481518,50.991635 41.687502,49.119667 41.6875,46.9375 41.6875,44.198126 44.473344,42 47.90625,42 z"
         id="path3522"
         style="fill:#ffffff;fill-opacity:1;fill-rule:nonzero;stroke:none" />
    </clipPath>
    <filter
       x="-0.24171428"
       y="-0.14338984"
       width="1.4834286"
       height="1.2867796"
       color-interpolation-filters="sRGB"
       id="filter3536">
      <feGaussianBlur
         stdDeviation="3.525"
         id="feGaussianBlur3538" />
    </filter>
    <linearGradient
       x1="45.447727"
       y1="92.539597"
       x2="45.447727"
       y2="7.0165396"
       id="ButtonShadow-0"
       gradientUnits="userSpaceOnUse"
       gradientTransform="matrix(1.0058652,0,0,0.994169,100,0)">
      <stop
         id="stop3750-8"
         style="stop-color:#000000;stop-opacity:1"
         offset="0" />
      <stop
         id="stop3752-5"
         style="stop-color:#000000;stop-opacity:0.58823532"
         offset="1" />
    </linearGradient>
    <linearGradient
       x1="32.251034"
       y1="6.1317081"
       x2="32.251034"
       y2="90.238609"
       id="linearGradient3780"
       xlink:href="#ButtonShadow-0"
       gradientUnits="userSpaceOnUse"
       gradientTransform="matrix(1.0238095,0,0,1.0119048,-1.1428571,-98.071429)" />
    <linearGradient
       x1="32.251034"
       y1="6.1317081"
       x2="32.251034"
       y2="90.238609"
       id="linearGradient3772"
       xlink:href="#ButtonShadow-0"
       gradientUnits="userSpaceOnUse"
       gradientTransform="matrix(1.0238095,0,0,1.0119048,-1.1428571,-98.071429)" />
    <linearGradient
       x1="32.251034"
       y1="6.1317081"
       x2="32.251034"
       y2="90.238609"
       id="linearGradient3725"
       xlink:href="#ButtonShadow-0"
       gradientUnits="userSpaceOnUse"
       gradientTransform="matrix(1.0238095,0,0,1.0119048,-1.1428571,-98.071429)" />
    <linearGradient
       x1="32.251034"
       y1="6.1317081"
       x2="32.251034"
       y2="90.238609"
       id="linearGradient3721"
       xlink:href="#ButtonShadow-0"
       gradientUnits="userSpaceOnUse"
       gradientTransform="translate(0,-97)" />
    <linearGradient
       x1="32.251034"
       y1="6.1317081"
       x2="32.251034"
       y2="90.238609"
       id="linearGradient2918"
       xlink:href="#ButtonShadow-0"
       gradientUnits="userSpaceOnUse"
       gradientTransform="matrix(1.0238095,0,0,1.0119048,-1.1428571,-98.071429)" />
    <linearGradient
       x1="115.44755"
       y1="13.859179"
       x2="115.98746"
       y2="112.71256"
       id="linearGradient3091"
       xlink:href="#linearGradient3767"
       gradientUnits="userSpaceOnUse"
       gradientTransform="matrix(0,0.6766374,-0.847943,0,101.39586,-4.6916286)" />
    <linearGradient
       x1="115.44755"
       y1="13.859179"
       x2="115.98746"
       y2="112.71256"
       id="linearGradient3865"
       xlink:href="#linearGradient3767"
       gradientUnits="userSpaceOnUse"
       gradientTransform="matrix(0,0.69355333,-0.86914157,0,103.13076,-5.1089192)" />
    <linearGradient
       x1="115.44755"
       y1="13.859179"
       x2="115.98746"
       y2="112.71256"
       id="linearGradient3877"
       xlink:href="#linearGradient3767"
       gradientUnits="userSpaceOnUse"
       gradientTransform="matrix(0,0.69355333,-0.86914157,0,103.13076,-5.1089192)" />
    <linearGradient
       x1="115.44755"
       y1="13.859179"
       x2="115.98746"
       y2="112.71256"
       id="linearGradient3889"
       xlink:href="#linearGradient3767"
       gradientUnits="userSpaceOnUse"
       gradientTransform="matrix(0,0.69355333,-0.86914157,0,103.13076,-5.1089192)" />
    <linearGradient
       x1="115.44755"
       y1="13.859179"
       x2="115.98746"
       y2="112.71256"
       id="linearGradient3071"
       xlink:href="#linearGradient3767"
       gradientUnits="userSpaceOnUse"
       gradientTransform="matrix(0,0.69355333,-0.86914157,0,103.13076,-5.1089192)" />
    <linearGradient
       x1="115.44755"
       y1="13.859179"
       x2="115.98746"
       y2="112.71256"
       id="linearGradient3080"
       xlink:href="#linearGradient3767"
       gradientUnits="userSpaceOnUse"
       gradientTransform="matrix(0,0.69355333,-0.86914157,0,103.13076,-5.1089192)" />
    <linearGradient
       x1="115.44755"
       y1="13.859179"
       x2="115.98746"
       y2="112.71256"
       id="linearGradient3088"
       xlink:href="#linearGradient3767"
       gradientUnits="userSpaceOnUse"
       gradientTransform="matrix(0,0.69355333,-0.86914157,0,103.13076,-5.1089192)" />
  </defs>
  <g
     transform="translate(0,-72)"
     id="layer2"
     style="display:none" />
  <g
     transform="translate(0,-72)"
     id="layer5"
     style="display:none">
    <rect
       width="74.178574"
       height="5.9999933"
       rx="6.7435069"
       ry="5.9999933"
       x="10.910714"
       y="80.000008"
       id="rect3323"
       style="opacity:0.6;fill:#0066ff;fill-opacity:1;fill-rule:nonzero;stroke:none;display:inline;filter:url(#filter4180)" />
    <rect
       width="64"
       height="4"
       rx="5.818182"
       ry="4"
       x="16"
       y="81"
       id="rect3311"
       style="fill:url(#radialGradient4138);fill-opacity:1;fill-rule:nonzero;stroke:none;display:inline" />
  </g>
  <g
     transform="translate(0.10172903,0.20345863)"
     id="bangarang-notifier">
    <path
       d="m 14.934365,6.5370217 -6.8224419,0"
       id="path8299-8"
       style="fill:none;stroke:#becfd2;stroke-width:1.71632254;stroke-linecap:round;stroke-linejoin:miter;stroke-miterlimit:4;stroke-opacity:1;stroke-dasharray:none;display:inline" />
    <path
       d="m 11.489253,12.522413 -3.3773299,0"
       id="path8297-5"
       style="fill:none;stroke:#becfd2;stroke-width:1.71632254;stroke-linecap:round;stroke-linejoin:miter;stroke-miterlimit:4;stroke-opacity:1;stroke-dasharray:none;display:inline" />
    <path
       d="m 14.934365,8.2471334 0,-1.6428188"
       id="path8295-5"
       style="fill:none;stroke:#becfd2;stroke-width:1.71632254;stroke-linecap:round;stroke-linejoin:miter;stroke-miterlimit:4;stroke-opacity:1;stroke-dasharray:none;display:inline" />
    <path
       d="m 8.0441405,12.455119 0,-5.9180973"
       id="path8293-6"
       style="fill:none;stroke:#becfd2;stroke-width:1.71632254;stroke-linecap:round;stroke-linejoin:miter;stroke-miterlimit:4;stroke-opacity:1;stroke-dasharray:none;display:inline" />
    <path
       d="m -251.55674,284.88929 a 11,11 0 0 1 -5.78719,-2.69986"
       transform="matrix(0.41523791,0.41222046,0.41523791,-0.41222046,7.2461837,228.9044)"
       id="path10656-4-2-3"
       style="fill:none;stroke:#becfd2;stroke-width:2.93339539;stroke-linecap:round;stroke-linejoin:round;stroke-miterlimit:4;stroke-opacity:1;stroke-dasharray:none;stroke-dashoffset:0;marker:none;visibility:visible;display:inline;overflow:visible;enable-background:accumulate" />
    <path
       d="m -251.61842,284.88029 a 11,11 0 0 1 -5.64772,-2.62177"
       transform="matrix(-0.41523791,-0.41222046,-0.41523791,0.41222046,15.84639,-215.92358)"
       id="path10403-5-2-7"
       style="fill:none;stroke:#becfd2;stroke-width:2.93339539;stroke-linecap:round;stroke-linejoin:round;stroke-miterlimit:4;stroke-opacity:1;stroke-dasharray:none;stroke-dashoffset:0;marker:none;visibility:visible;display:inline;overflow:visible;enable-background:accumulate" />
    <path
       d="m 14.073088,18.722936 0,-7.910635"
       id="path21537-9-3-3-8-3"
       style="fill:none;stroke:#becfd2;stroke-width:1.71632278;stroke-linecap:round;stroke-linejoin:miter;stroke-miterlimit:4;stroke-opacity:1;stroke-dasharray:none;display:inline" />
    <path
       d="m -253.79346,284.32519 a 11,11 0 0 1 -3.72591,-2.29655"
       transform="matrix(-0.58133298,-0.57710933,-0.58133298,0.57710933,19.832729,-296.33996)"
       id="path10648-7-7-7"
       style="fill:none;stroke:#becfd2;stroke-width:2.09528112;stroke-linecap:round;stroke-linejoin:round;stroke-miterlimit:4;stroke-opacity:1;stroke-dasharray:none;stroke-dashoffset:0;marker:none;visibility:visible;display:inline;overflow:visible;enable-background:accumulate" />
    <path
       d="m 17.50795,6.5005963 0,1.6950627"
       id="path10650-1-9-0"
       style="fill:none;stroke:#becfd2;stroke-width:1.71632254;stroke-linecap:round;stroke-linejoin:miter;stroke-miterlimit:4;stroke-opacity:1;stroke-dasharray:none;display:inline" />
    <path
       d="m -2.8284264,179.43886 a 22.98097,22.98097 0 1 1 -45.9619406,0 22.98097,22.98097 0 1 1 45.9619406,0 z"
       transform="matrix(0.09467556,0,0,-0.09351181,14.347336,35.68673)"
       id="path21535-5-0-8-9-2"
       style="fill:none;stroke:#becfd2;stroke-width:18.24091339;stroke-linecap:round;stroke-miterlimit:4;stroke-opacity:1;stroke-dasharray:none;stroke-dashoffset:0;display:inline" />
    <path
       d="m 14.078255,10.795456 6.855515,0"
       id="path21533-7-7-4-3-7"
       style="fill:none;stroke:#becfd2;stroke-width:1.71632266;stroke-linecap:round;stroke-linejoin:miter;stroke-miterlimit:4;stroke-opacity:1;stroke-dasharray:none;display:inline" />
    <path
       d="m -251.55674,284.88929 a 11,11 0 0 1 -5.78719,-2.69986"
       transform="matrix(-0.41523791,-0.41222046,-0.41523791,0.41222046,15.84639,-209.93831)"
       id="path10646-1-3-2"
       style="fill:none;stroke:#becfd2;stroke-width:2.93339539;stroke-linecap:round;stroke-linejoin:round;stroke-miterlimit:4;stroke-opacity:1;stroke-dasharray:none;stroke-dashoffset:0;marker:none;visibility:visible;display:inline;overflow:visible;enable-background:accumulate" />
    <rect
       width="24"
       height="24"
       rx="0"
       ry="0"
       x="-0.012821165"
       y="-24.012808"
       transform="matrix(-0.00106786,0.99999943,-0.99999943,-0.00106786,0,0)"
       id="rect3879"
       style="fill:#ffffff;fill-opacity:0.00392157;stroke:none" />
    <path
       d="m 20.93377,18.706005 0,-7.910634"
       id="path21529-8-9-2-0-1"
       style="fill:none;stroke:#becfd2;stroke-width:1.71632278;stroke-linecap:round;stroke-linejoin:miter;stroke-miterlimit:4;stroke-opacity:1;stroke-dasharray:none;display:inline" />
    <path
       d="m -2.8284264,179.43886 a 22.98097,22.98097 0 1 1 -45.9619406,0 22.98097,22.98097 0 1 1 45.9619406,0 z"
       transform="matrix(0.09411607,0,0,-0.09360561,21.219301,35.701437)"
       id="path21525-4-9-0-7-9"
       style="fill:none;stroke:#becfd2;stroke-width:18.28588295;stroke-linecap:round;stroke-miterlimit:4;stroke-opacity:1;stroke-dasharray:none;stroke-dashoffset:0;display:inline" />
    <path
       d="m 6.3290173,3.9279043 11.3096237,0"
       id="path10264-6-5-5"
       style="fill:none;stroke:#becfd2;stroke-width:1.71632266;stroke-linecap:round;stroke-linejoin:miter;stroke-miterlimit:4;stroke-opacity:1;stroke-dasharray:none;display:inline" />
    <path
       d="m 9.738757,15.043544 -4.4193988,0"
       id="path10264-7-6-9-9"
       style="fill:none;stroke:#becfd2;stroke-width:1.71632266;stroke-linecap:round;stroke-linejoin:miter;stroke-miterlimit:4;stroke-opacity:1;stroke-dasharray:none;display:inline" />
    <path
       d="m -253.79346,284.32519 a 11,11 0 0 1 -3.72591,-2.29655"
       transform="matrix(0.58133298,0.57710933,0.58133298,-0.57710933,3.4633634,315.29257)"
       id="path10659-8-3-9"
       style="fill:none;stroke:#becfd2;stroke-width:2.09528112;stroke-linecap:round;stroke-linejoin:round;stroke-miterlimit:4;stroke-opacity:1;stroke-dasharray:none;stroke-dashoffset:0;marker:none;visibility:visible;display:inline;overflow:visible;enable-background:accumulate" />
    <path
       d="m -250.69182,284.97822 a 11,11 0 0 1 -6.57432,-2.7197"
       transform="matrix(-0.46293704,-0.41222046,-0.46293704,0.41222046,17.881245,-218.48875)"
       id="path10615-4-7-6"
       style="fill:none;stroke:#becfd2;stroke-width:2.77816558;stroke-linecap:round;stroke-linejoin:round;stroke-miterlimit:4;stroke-opacity:1;stroke-dasharray:none;stroke-dashoffset:0;marker:none;visibility:visible;display:inline;overflow:visible;enable-background:accumulate" />
    <path
       d="m 5.4936465,12.428014 0,-5.9180976"
       id="path12914-7-3-2-0-6"
       style="fill:none;stroke:#becfd2;stroke-width:1.71632254;stroke-linecap:round;stroke-linejoin:miter;stroke-miterlimit:4;stroke-opacity:1;stroke-dasharray:none;display:inline" />
  </g>
  <g
     transform="translate(-59.432054,10.529252)"
     id="bangarang-notifier-active">
    <path
       d="m 1.3940618,17.577677 2.289897,2.37092 -2.243407,2.194263 -0.04649,-4.565183 z"
       id="rect8405"
       style="fill:#becfd2;fill-opacity:1;stroke:#becfd2;stroke-width:0.34656918;stroke-opacity:1;display:inline" />
    <path
       d="m 4.434028,19.537655 c -0.135765,-0.135765 -0.35436,-0.135765 -0.490122,0 L 1.52064,21.96386 c -0.135766,0.135765 -0.135766,0.354361 0,0.490122 0.135765,0.135765 0.354359,0.135765 0.490122,0 l 2.423266,-2.426207 c 0.135765,-0.135764 0.135765,-0.354355 0,-0.49012 z"
       id="rect8400"
       style="fill:#becfd2;fill-opacity:1;stroke:#becfd2;stroke-width:0.34656918;stroke-opacity:1;display:inline" />
    <path
       d="m 4.433263,20.028105 c -0.135766,0.135762 -0.354361,0.135762 -0.490126,0 L 1.520653,17.613174 c -0.135761,-0.135765 -0.135761,-0.354361 0,-0.490122 0.135765,-0.135765 0.354361,-0.135765 0.490126,0 l 2.422484,2.414929 c 0.135761,0.135764 0.135761,0.354359 0,0.490124 z"
       id="rect8398"
       style="fill:#becfd2;fill-opacity:1;stroke:#becfd2;stroke-width:0.34656918;stroke-opacity:1;display:inline" />
    <rect
       width="0.69313836"
       height="5.534595"
       rx="0.34656918"
       ry="0.34656918"
       x="-2.1005261"
       y="-22.614298"
       transform="scale(-1,-1)"
       id="rect2792"
       style="fill:#becfd2;fill-opacity:1;stroke:#becfd2;stroke-width:0.34656918;stroke-opacity:1;display:inline" />
    <rect
       width="24"
       height="24"
       rx="0"
       ry="0"
       x="-0.012821165"
       y="-24.012808"
       transform="matrix(-0.00106786,0.99999943,-0.99999943,-0.00106786,0,0)"
       id="rect3879-3"
       style="fill:#ffffff;fill-opacity:0.00392157;stroke:none" />
    <path
       d="m 14.934365,6.5370217 -6.8224419,0"
       id="path8299-8-3"
       style="fill:none;stroke:#becfd2;stroke-width:1.71632254;stroke-linecap:round;stroke-linejoin:miter;stroke-miterlimit:4;stroke-opacity:1;stroke-dasharray:none;display:inline" />
    <path
       d="m 11.489253,12.522413 -3.3773299,0"
       id="path8297-5-6"
       style="fill:none;stroke:#becfd2;stroke-width:1.71632254;stroke-linecap:round;stroke-linejoin:miter;stroke-miterlimit:4;stroke-opacity:1;stroke-dasharray:none;display:inline" />
    <path
       d="m 14.934365,8.2471334 0,-1.6428188"
       id="path8295-5-5"
       style="fill:none;stroke:#becfd2;stroke-width:1.71632254;stroke-linecap:round;stroke-linejoin:miter;stroke-miterlimit:4;stroke-opacity:1;stroke-dasharray:none;display:inline" />
    <path
       d="m 8.0441405,12.455119 0,-5.9180973"
       id="path8293-6-9"
       style="fill:none;stroke:#becfd2;stroke-width:1.71632254;stroke-linecap:round;stroke-linejoin:miter;stroke-miterlimit:4;stroke-opacity:1;stroke-dasharray:none;display:inline" />
    <path
       d="m -251.55674,284.88929 a 11,11 0 0 1 -5.78719,-2.69986"
       transform="matrix(0.41523791,0.41222046,0.41523791,-0.41222046,7.2461837,228.9044)"
       id="path10656-4-2-3-4"
       style="fill:none;stroke:#becfd2;stroke-width:2.93339539;stroke-linecap:round;stroke-linejoin:round;stroke-miterlimit:4;stroke-opacity:1;stroke-dasharray:none;stroke-dashoffset:0;marker:none;visibility:visible;display:inline;overflow:visible;enable-background:accumulate" />
    <path
       d="m -251.61842,284.88029 a 11,11 0 0 1 -5.64772,-2.62177"
       transform="matrix(-0.41523791,-0.41222046,-0.41523791,0.41222046,15.84639,-215.92358)"
       id="path10403-5-2-7-8"
       style="fill:none;stroke:#becfd2;stroke-width:2.93339539;stroke-linecap:round;stroke-linejoin:round;stroke-miterlimit:4;stroke-opacity:1;stroke-dasharray:none;stroke-dashoffset:0;marker:none;visibility:visible;display:inline;overflow:visible;enable-background:accumulate" />
    <path
       d="m 14.073088,18.722936 0,-7.910635"
       id="path21537-9-3-3-8-3-8"
       style="fill:none;stroke:#becfd2;stroke-width:1.71632278;stroke-linecap:round;stroke-linejoin:miter;stroke-miterlimit:4;stroke-opacity:1;stroke-dasharray:none;display:inline" />
    <path
       d="m -253.79346,284.32519 a 11,11 0 0 1 -3.72591,-2.29655"
       transform="matrix(-0.58133298,-0.57710933,-0.58133298,0.57710933,19.832729,-296.33996)"
       id="path10648-7-7-7-3"
       style="fill:none;stroke:#becfd2;stroke-width:2.09528112;stroke-linecap:round;stroke-linejoin:round;stroke-miterlimit:4;stroke-opacity:1;stroke-dasharray:none;stroke-dashoffset:0;marker:none;visibility:visible;display:inline;overflow:visible;enable-background:accumulate" />
    <path
       d="m 17.50795,6.5005963 0,1.6950627"
       id="path10650-1-9-0-4"
       style="fill:none;stroke:#becfd2;stroke-width:1.71632254;stroke-linecap:round;stroke-linejoin:miter;stroke-miterlimit:4;stroke-opacity:1;stroke-dasharray:none;display:inline" />
    <path
       d="m -2.8284264,179.43886 a 22.98097,22.98097 0 1 1 -45.9619406,0 22.98097,22.98097 0 1 1 45.9619406,0 z"
       transform="matrix(0.09467556,0,0,-0.09351181,14.347336,35.68673)"
       id="path21535-5-0-8-9-2-3"
       style="fill:none;stroke:#becfd2;stroke-width:18.24091339;stroke-linecap:round;stroke-miterlimit:4;stroke-opacity:1;stroke-dasharray:none;stroke-dashoffset:0;display:inline" />
    <path
       d="m 14.078255,10.795456 6.855515,0"
       id="path21533-7-7-4-3-7-9"
       style="fill:none;stroke:#becfd2;stroke-width:1.71632266;stroke-linecap:round;stroke-linejoin:miter;stroke-miterlimit:4;stroke-opacity:1;stroke-dasharray:none;display:inline" />
    <path
       d="m -251.55674,284.88929 a 11,11 0 0 1 -5.78719,-2.69986"
       transform="matrix(-0.41523791,-0.41222046,-0.41523791,0.41222046,15.84639,-209.93831)"
       id="path10646-1-3-2-2"
       style="fill:none;stroke:#becfd2;stroke-width:2.93339539;stroke-linecap:round;stroke-linejoin:round;stroke-miterlimit:4;stroke-opacity:1;stroke-dasharray:none;stroke-dashoffset:0;marker:none;visibility:visible;display:inline;overflow:visible;enable-background:accumulate" />
    <path
       d="m 20.93377,18.706005 0,-7.910634"
       id="path21529-8-9-2-0-1-7"
       style="fill:none;stroke:#becfd2;stroke-width:1.71632278;stroke-linecap:round;stroke-linejoin:miter;stroke-miterlimit:4;stroke-opacity:1;stroke-dasharray:none;display:inline" />
    <path
       d="m -2.8284264,179.43886 a 22.98097,22.98097 0 1 1 -45.9619406,0 22.98097,22.98097 0 1 1 45.9619406,0 z"
       transform="matrix(0.09411607,0,0,-0.09360561,21.219301,35.701437)"
       id="path21525-4-9-0-7-9-5"
       style="fill:none;stroke:#becfd2;stroke-width:18.28588295;stroke-linecap:round;stroke-miterlimit:4;stroke-opacity:1;stroke-dasharray:none;stroke-dashoffset:0;display:inline" />
    <path
       d="m 6.3290173,3.9279043 11.3096237,0"
       id="path10264-6-5-5-5"
       style="fill:none;stroke:#becfd2;stroke-width:1.71632266;stroke-linecap:round;stroke-linejoin:miter;stroke-miterlimit:4;stroke-opacity:1;stroke-dasharray:none;display:inline" />
    <path
       d="m 9.738757,15.043544 -4.4193988,0"
       id="path10264-7-6-9-9-8"
       style="fill:none;stroke:#becfd2;stroke-width:1.71632266;stroke-linecap:round;stroke-linejoin:miter;stroke-miterlimit:4;stroke-opacity:1;stroke-dasharray:none;display:inline" />
    <path
       d="m -253.79346,284.32519 a 11,11 0 0 1 -3.72591,-2.29655"
       transform="matrix(0.58133298,0.57710933,0.58133298,-0.57710933,3.4633634,315.29257)"
       id="path10659-8-3-9-1"
       style="fill:none;stroke:#becfd2;stroke-width:2.09528112;stroke-linecap:round;stroke-linejoin:round;stroke-miterlimit:4;stroke-opacity:1;stroke-dasharray:none;stroke-dashoffset:0;marker:none;visibility:visible;display:inline;overflow:visible;enable-background:accumulate" />
    <path
       d="m -250.69182,284.97822 a 11,11 0 0 1 -6.57432,-2.7197"
       transform="matrix(-0.46293704,-0.41222046,-0.46293704,0.41222046,17.881245,-218.48875)"
       id="path10615-4-7-6-9"
       style="fill:none;stroke:#becfd2;stroke-width:2.77816558;stroke-linecap:round;stroke-linejoin:round;stroke-miterlimit:4;stroke-opacity:1;stroke-dasharray:none;stroke-dashoffset:0;marker:none;visibility:visible;display:inline;overflow:visible;enable-background:accumulate" />
    <path
       d="m 5.4936465,12.428014 0,-5.9180976"
       id="path12914-7-3-2-0-6-0"
       style="fill:none;stroke:#becfd2;stroke-width:1.71632254;stroke-linecap:round;stroke-linejoin:miter;stroke-miterlimit:4;stroke-opacity:1;stroke-dasharray:none;display:inline" />
  </g>
  <g
     transform="translate(-98.141584,-26.996699)"
     id="bangarang-notifier-active-pause">
    <rect
       width="0.69313836"
       height="5.534595"
       rx="0.34656918"
       ry="0.34656918"
       x="-4.0178204"
       y="-22.614414"
       transform="scale(-1,-1)"
       id="rect2792-4-7"
       style="fill:#becfd2;fill-opacity:1;stroke:#becfd2;stroke-width:0.34656918;stroke-opacity:1;display:inline" />
    <rect
       width="0.69313836"
       height="5.534595"
       rx="0.34656918"
       ry="0.34656918"
       x="-2.1005261"
       y="-22.614298"
       transform="scale(-1,-1)"
       id="rect2792-4"
       style="fill:#becfd2;fill-opacity:1;stroke:#becfd2;stroke-width:0.34656918;stroke-opacity:1;display:inline" />
    <rect
       width="24"
       height="24"
       rx="0"
       ry="0"
       x="-0.012821165"
       y="-24.012808"
       transform="matrix(-0.00106786,0.99999943,-0.99999943,-0.00106786,0,0)"
       id="rect3879-3-3"
       style="fill:#ffffff;fill-opacity:0.00392157;stroke:none" />
    <path
       d="m 14.934365,6.5370217 -6.8224419,0"
       id="path8299-8-3-5"
       style="fill:none;stroke:#becfd2;stroke-width:1.71632254;stroke-linecap:round;stroke-linejoin:miter;stroke-miterlimit:4;stroke-opacity:1;stroke-dasharray:none;display:inline" />
    <path
       d="m 11.489253,12.522413 -3.3773299,0"
       id="path8297-5-6-9"
       style="fill:none;stroke:#becfd2;stroke-width:1.71632254;stroke-linecap:round;stroke-linejoin:miter;stroke-miterlimit:4;stroke-opacity:1;stroke-dasharray:none;display:inline" />
    <path
       d="m 14.934365,8.2471334 0,-1.6428188"
       id="path8295-5-5-1"
       style="fill:none;stroke:#becfd2;stroke-width:1.71632254;stroke-linecap:round;stroke-linejoin:miter;stroke-miterlimit:4;stroke-opacity:1;stroke-dasharray:none;display:inline" />
    <path
       d="m 8.0441405,12.455119 0,-5.9180973"
       id="path8293-6-9-0"
       style="fill:none;stroke:#becfd2;stroke-width:1.71632254;stroke-linecap:round;stroke-linejoin:miter;stroke-miterlimit:4;stroke-opacity:1;stroke-dasharray:none;display:inline" />
    <path
       d="m -251.55674,284.88929 a 11,11 0 0 1 -5.78719,-2.69986"
       transform="matrix(0.41523791,0.41222046,0.41523791,-0.41222046,7.2461837,228.9044)"
       id="path10656-4-2-3-4-6"
       style="fill:none;stroke:#becfd2;stroke-width:2.93339539;stroke-linecap:round;stroke-linejoin:round;stroke-miterlimit:4;stroke-opacity:1;stroke-dasharray:none;stroke-dashoffset:0;marker:none;visibility:visible;display:inline;overflow:visible;enable-background:accumulate" />
    <path
       d="m -251.61842,284.88029 a 11,11 0 0 1 -5.64772,-2.62177"
       transform="matrix(-0.41523791,-0.41222046,-0.41523791,0.41222046,15.84639,-215.92358)"
       id="path10403-5-2-7-8-3"
       style="fill:none;stroke:#becfd2;stroke-width:2.93339539;stroke-linecap:round;stroke-linejoin:round;stroke-miterlimit:4;stroke-opacity:1;stroke-dasharray:none;stroke-dashoffset:0;marker:none;visibility:visible;display:inline;overflow:visible;enable-background:accumulate" />
    <path
       d="m 14.073088,18.722936 0,-7.910635"
       id="path21537-9-3-3-8-3-8-8"
       style="fill:none;stroke:#becfd2;stroke-width:1.71632278;stroke-linecap:round;stroke-linejoin:miter;stroke-miterlimit:4;stroke-opacity:1;stroke-dasharray:none;display:inline" />
    <path
       d="m -253.79346,284.32519 a 11,11 0 0 1 -3.72591,-2.29655"
       transform="matrix(-0.58133298,-0.57710933,-0.58133298,0.57710933,19.832729,-296.33996)"
       id="path10648-7-7-7-3-4"
       style="fill:none;stroke:#becfd2;stroke-width:2.09528112;stroke-linecap:round;stroke-linejoin:round;stroke-miterlimit:4;stroke-opacity:1;stroke-dasharray:none;stroke-dashoffset:0;marker:none;visibility:visible;display:inline;overflow:visible;enable-background:accumulate" />
    <path
       d="m 17.50795,6.5005963 0,1.6950627"
       id="path10650-1-9-0-4-4"
       style="fill:none;stroke:#becfd2;stroke-width:1.71632254;stroke-linecap:round;stroke-linejoin:miter;stroke-miterlimit:4;stroke-opacity:1;stroke-dasharray:none;display:inline" />
    <path
       d="m -2.8284264,179.43886 a 22.98097,22.98097 0 1 1 -45.9619406,0 22.98097,22.98097 0 1 1 45.9619406,0 z"
       transform="matrix(0.09467556,0,0,-0.09351181,14.347336,35.68673)"
       id="path21535-5-0-8-9-2-3-8"
       style="fill:none;stroke:#becfd2;stroke-width:18.24091339;stroke-linecap:round;stroke-miterlimit:4;stroke-opacity:1;stroke-dasharray:none;stroke-dashoffset:0;display:inline" />
    <path
       d="m 14.078255,10.795456 6.855515,0"
       id="path21533-7-7-4-3-7-9-8"
       style="fill:none;stroke:#becfd2;stroke-width:1.71632266;stroke-linecap:round;stroke-linejoin:miter;stroke-miterlimit:4;stroke-opacity:1;stroke-dasharray:none;display:inline" />
    <path
       d="m -251.55674,284.88929 a 11,11 0 0 1 -5.78719,-2.69986"
       transform="matrix(-0.41523791,-0.41222046,-0.41523791,0.41222046,15.84639,-209.93831)"
       id="path10646-1-3-2-2-5"
       style="fill:none;stroke:#becfd2;stroke-width:2.93339539;stroke-linecap:round;stroke-linejoin:round;stroke-miterlimit:4;stroke-opacity:1;stroke-dasharray:none;stroke-dashoffset:0;marker:none;visibility:visible;display:inline;overflow:visible;enable-background:accumulate" />
    <path
       d="m 20.93377,18.706005 0,-7.910634"
       id="path21529-8-9-2-0-1-7-2"
       style="fill:none;stroke:#becfd2;stroke-width:1.71632278;stroke-linecap:round;stroke-linejoin:miter;stroke-miterlimit:4;stroke-opacity:1;stroke-dasharray:none;display:inline" />
    <path
       d="m -2.8284264,179.43886 a 22.98097,22.98097 0 1 1 -45.9619406,0 22.98097,22.98097 0 1 1 45.9619406,0 z"
       transform="matrix(0.09411607,0,0,-0.09360561,21.219301,35.701437)"
       id="path21525-4-9-0-7-9-5-2"
       style="fill:none;stroke:#becfd2;stroke-width:18.28588295;stroke-linecap:round;stroke-miterlimit:4;stroke-opacity:1;stroke-dasharray:none;stroke-dashoffset:0;display:inline" />
    <path
       d="m 6.3290173,3.9279043 11.3096237,0"
       id="path10264-6-5-5-5-1"
       style="fill:none;stroke:#becfd2;stroke-width:1.71632266;stroke-linecap:round;stroke-linejoin:miter;stroke-miterlimit:4;stroke-opacity:1;stroke-dasharray:none;display:inline" />
    <path
       d="m 9.738757,15.043544 -4.4193988,0"
       id="path10264-7-6-9-9-8-2"
       style="fill:none;stroke:#becfd2;stroke-width:1.71632266;stroke-linecap:round;stroke-linejoin:miter;stroke-miterlimit:4;stroke-opacity:1;stroke-dasharray:none;display:inline" />
    <path
       d="m -253.79346,284.32519 a 11,11 0 0 1 -3.72591,-2.29655"
       transform="matrix(0.58133298,0.57710933,0.58133298,-0.57710933,3.4633634,315.29257)"
       id="path10659-8-3-9-1-6"
       style="fill:none;stroke:#becfd2;stroke-width:2.09528112;stroke-linecap:round;stroke-linejoin:round;stroke-miterlimit:4;stroke-opacity:1;stroke-dasharray:none;stroke-dashoffset:0;marker:none;visibility:visible;display:inline;overflow:visible;enable-background:accumulate" />
    <path
       d="m -250.69182,284.97822 a 11,11 0 0 1 -6.57432,-2.7197"
       transform="matrix(-0.46293704,-0.41222046,-0.46293704,0.41222046,17.881245,-218.48875)"
       id="path10615-4-7-6-9-6"
       style="fill:none;stroke:#becfd2;stroke-width:2.77816558;stroke-linecap:round;stroke-linejoin:round;stroke-miterlimit:4;stroke-opacity:1;stroke-dasharray:none;stroke-dashoffset:0;marker:none;visibility:visible;display:inline;overflow:visible;enable-background:accumulate" />
    <path
       d="m 5.4936465,12.428014 0,-5.9180976"
       id="path12914-7-3-2-0-6-0-4"
       style="fill:none;stroke:#becfd2;stroke-width:1.71632254;stroke-linecap:round;stroke-linejoin:miter;stroke-miterlimit:4;stroke-opacity:1;stroke-dasharray:none;display:inline" />
  </g>
</svg>
