<?xml version="1.0" encoding="UTF-8" standalone="no"?>
<!-- Created with Inkscape (http://www.inkscape.org/) -->

<svg
   xmlns:dc="http://purl.org/dc/elements/1.1/"
   xmlns:cc="http://creativecommons.org/ns#"
   xmlns:rdf="http://www.w3.org/1999/02/22-rdf-syntax-ns#"
   xmlns:svg="http://www.w3.org/2000/svg"
   xmlns="http://www.w3.org/2000/svg"
   xmlns:xlink="http://www.w3.org/1999/xlink"
   xmlns:sodipodi="http://sodipodi.sourceforge.net/DTD/sodipodi-0.dtd"
   xmlns:inkscape="http://www.inkscape.org/namespaces/inkscape"
   width="200"
   height="100"
   id="svg7229"
   sodipodi:version="0.32"
   inkscape:version="0.48.5 r10040"
   version="1.0"
   sodipodi:docname="configure.svg"
   inkscape:output_extension="org.inkscape.output.svgz.inkscape">
  <defs
     id="defs7231">
    <linearGradient
       inkscape:collect="always"
       xlink:href="#linearGradient4158-2"
       id="linearGradient4048"
       gradientUnits="userSpaceOnUse"
       gradientTransform="translate(57.03125,0)"
       x1="372.53571"
       y1="360.50504"
       x2="372.53571"
       y2="347.50504" />
    <linearGradient
       id="linearGradient4158-2">
      <stop
         id="stop4160-8"
         offset="0"
         style="stop-color:#1c2122;stop-opacity:1;" />
      <stop
         id="stop4162-9"
         offset="1"
         style="stop-color:#1c2122;stop-opacity:1;" />
    </linearGradient>
    <linearGradient
       inkscape:collect="always"
       xlink:href="#linearGradient4158-2"
       id="linearGradient3559"
       gradientUnits="userSpaceOnUse"
       gradientTransform="matrix(1.3846148,0,0,1.3846105,-288.97505,-132.6492)"
       x1="372.53571"
       y1="360.50504"
       x2="372.53571"
       y2="347.50504" />
    <linearGradient
       inkscape:collect="always"
       xlink:href="#linearGradient4158-2"
       id="linearGradient4365"
       gradientUnits="userSpaceOnUse"
       gradientTransform="matrix(2,0,0,2,-513.53572,-318.49376)"
       x1="372.53571"
       y1="360.50504"
       x2="372.53571"
       y2="347.50504" />
  </defs>
  <sodipodi:namedview
     id="base"
     pagecolor="#aaaaaa"
     bordercolor="#666666"
     borderopacity="1.0"
     inkscape:pageopacity="1"
     inkscape:pageshadow="2"
     inkscape:zoom="10.56"
     inkscape:cx="26.178213"
     inkscape:cy="38.31914"
     inkscape:document-units="px"
     inkscape:current-layer="layer1"
     showgrid="true"
     inkscape:window-width="1280"
     inkscape:window-height="750"
     inkscape:window-x="0"
     inkscape:window-y="-3"
     showguides="true"
     inkscape:guide-bbox="true"
     gridtolerance="6"
     inkscape:window-maximized="1">
    <inkscape:grid
       type="xygrid"
       id="grid7245"
       visible="true"
       enabled="true"
       empspacing="5"
       snapvisiblegridlinesonly="true" />
  </sodipodi:namedview>
  <metadata
     id="metadata7234">
    <rdf:RDF>
      <cc:Work
         rdf:about="">
        <dc:format>image/svg+xml</dc:format>
        <dc:type
           rdf:resource="http://purl.org/dc/dcmitype/StillImage" />
        <dc:title />
      </cc:Work>
    </rdf:RDF>
  </metadata>
  <g
     inkscape:label="Camada 1"
     inkscape:groupmode="layer"
     id="layer1"
     transform="translate(-214.53572,-326.50504)">
    <g
       id="16-16-configure"
       transform="translate(-205,-17.91189)">
      <path
         inkscape:connector-curvature="0"
         style="fill:#ffffff;fill-opacity:0.78431373;fill-rule:nonzero;stroke:none"
         d="m 432.81697,348.85443 -1.28125,1.25 c -0.20242,0.19847 -0.12399,0.53548 0.0937,0.90625 l 1.5,-1.46875 c 0.13742,-0.13474 -0.0407,-0.43797 -0.3125,-0.6875 z m -3.28125,2.53125 c -0.0485,0.34269 -0.0533,0.6888 0,1.03125 l 0.21875,-0.21875 c -0.10292,-0.25789 -0.17895,-0.54146 -0.21875,-0.8125 z m 6.875,1 c -0.17391,0.37202 -0.46833,0.69318 -0.78125,1 -0.93604,0.91779 -2.2424,1.24043 -3.4375,0.9375 l -6,5.875 c -0.41728,0.40914 -1.11396,0.40916 -1.53125,0 l -0.78125,-0.78125 c -0.0687,-0.0674 -0.11016,-0.13938 -0.15625,-0.21875 -0.21816,0.39932 -0.18556,0.8836 0.15625,1.21875 l 0.78125,0.78125 c 0.41729,0.40916 1.11397,0.40914 1.53125,0 l 6,-5.875 c 1.1951,0.30293 2.50146,-0.0197 3.4375,-0.9375 0.44084,-0.43224 0.82003,-0.91187 0.9375,-1.46875 0.0312,-0.14794 -0.0472,-0.35633 -0.15625,-0.53125 z m -5.875,0.78125 c -0.14744,0.0174 -0.31089,0.0946 -0.4375,0.21875 l -4.8125,4.78125 c -0.25321,0.24827 -0.29243,0.55519 -0.0937,0.75 0.0639,0.0626 0.12874,0.10999 0.21875,0.125 l 4.6875,-4.65625 c 0.12661,-0.12415 0.29006,-0.2013 0.4375,-0.21875 0.0634,-0.007 0.13084,0.0166 0.1875,0.0313 l 0.0937,-0.0937 c 0.25322,-0.24828 0.29242,-0.6177 0.0937,-0.8125 -0.0993,-0.0974 -0.22757,-0.14244 -0.375,-0.125 z"
         id="path4021" />
      <rect
         y="346.50504"
         x="421.56696"
         height="16"
         width="16"
         id="rect4023"
         style="opacity:0;fill:#000000;fill-opacity:0.49803922;fill-rule:nonzero;stroke:none" />
      <path
         inkscape:connector-curvature="0"
         id="path4025"
         d="m 432.05813,347.52296 c -0.5615,0.15071 -1.08148,0.43878 -1.52152,0.87025 -1.04427,1.02392 -1.29872,2.52333 -0.79246,3.79183 l -5.86421,5.74989 c -0.4173,0.40914 -0.41729,1.08271 0,1.49187 l 0.79246,0.77701 c 0.41728,0.40916 1.10424,0.40914 1.52152,0 l 5.99101,-5.87422 c 1.19511,0.30293 2.51908,-0.0146 3.45512,-0.93241 0.44083,-0.43224 0.80179,-0.93499 0.91926,-1.49187 0.0431,-0.20447 -0.10168,-0.53704 -0.28529,-0.71485 -0.14279,-0.1383 -0.31302,-0.19038 -0.47547,-0.0311 l -1.58493,1.58511 c -0.5998,0.58813 -3.39226,-1.92648 -2.66266,-2.64185 l 1.58492,-1.55403 c 0.25686,-0.25185 -0.60281,-1.15314 -1.07775,-1.02565 z m -1.52152,5.65665 c 0.14743,-0.0174 0.28104,0.0269 0.38038,0.12433 0.19867,0.1948 0.15812,0.55981 -0.0951,0.80809 l -4.81816,4.72424 c -0.2532,0.24828 -0.62548,0.28805 -0.82416,0.0932 -0.19869,-0.19481 -0.15811,-0.52874 0.0951,-0.77701 l 4.81816,-4.75532 c 0.12661,-0.12415 0.29634,-0.20012 0.44378,-0.21757 z"
         style="fill:url(#linearGradient4048);fill-opacity:1;fill-rule:nonzero;stroke:none" />
      <path
         inkscape:connector-curvature="0"
         id="path4034"
         transform="translate(214.53572,326.50504)"
         d="m 217.71875,21 c -0.0685,-0.01293 -0.12813,0.01531 -0.1875,0.03125 -0.5615,0.15071 -1.09121,0.41228 -1.53125,0.84375 -0.83197,0.815755 -1.15595,1.937848 -1,3 0.10326,-0.729176 0.42866,-1.439798 1,-2 0.44004,-0.43147 0.96975,-0.72429 1.53125,-0.875 0.22158,-0.05948 0.51339,0.125798 0.75,0.34375 l 0.3125,-0.3125 C 218.8185,21.810881 218.19796,21.090547 217.71875,21 z m -0.625,3.5 L 217,24.59375 c -0.7296,0.71537 2.0877,3.21313 2.6875,2.625 L 221.25,25.625 c 0.16245,-0.15928 0.35721,-0.10705 0.5,0.03125 0.0508,0.04916 0.0833,0.12066 0.125,0.1875 0.0656,-0.144422 0.12399,-0.284574 0.15625,-0.4375 0.0431,-0.20447 -0.0976,-0.54094 -0.28125,-0.71875 -0.14279,-0.1383 -0.33755,-0.19053 -0.5,-0.03125 L 219.6875,26.25 c -0.43593,0.427447 -2.03532,-0.781473 -2.59375,-1.75 z M 215,25.90625 209.34375,31.4375 c -0.34182,0.335134 -0.37441,0.819421 -0.15625,1.21875 0.0482,-0.08818 0.0808,-0.175994 0.15625,-0.25 l 5.875,-5.75 c -0.0991,-0.248315 -0.17817,-0.489287 -0.21875,-0.75 z m 1.1875,1.78125 -4.71875,4.65625 c -0.18086,0.177343 -0.42929,0.232438 -0.625,0.1875 L 210.75,32.625 c -0.25321,0.24827 -0.29244,0.58644 -0.0937,0.78125 0.19868,0.19485 0.5593,0.15453 0.8125,-0.09375 l 4.8125,-4.71875 c 0.25322,-0.24828 0.29242,-0.6177 0.0937,-0.8125 -0.0566,-0.05553 -0.11239,-0.07433 -0.1875,-0.09375 z"
         style="opacity:0.5701358;fill:#000000;fill-opacity:1;fill-rule:nonzero;stroke:none" />
    </g>
    <g
       id="22-22-configure">
      <rect
         style="opacity:0;fill:#000000;fill-opacity:0.49803922;fill-rule:nonzero;stroke:none"
         id="rect3549"
         width="22"
         height="22"
         x="216.56696"
         y="346.50504" />
      <path
         style="fill:url(#linearGradient3559);fill-opacity:1;fill-rule:nonzero;stroke:none"
         d="m 230.29271,348.53473 c -0.77746,0.20868 -1.49744,0.60754 -2.10672,1.20496 -1.44591,1.41773 -1.79823,3.49383 -1.09725,5.25021 l -8.11967,7.96136 c -0.5778,0.5665 -0.57779,1.49912 0,2.06565 l 1.09725,1.07586 c 0.57777,0.56652 1.52895,0.5665 2.10672,0 l 8.29524,-8.1335 c 1.65477,0.41944 3.48795,-0.0202 4.78401,-1.29103 0.61038,-0.59849 1.11017,-1.2946 1.27282,-2.06566 0.0597,-0.28311 -0.14079,-0.74359 -0.39501,-0.98979 -0.19772,-0.19149 -0.43341,-0.2636 -0.65835,-0.0431 l -2.19451,2.19476 c -0.8305,0.81432 -4.69698,-2.66742 -3.68677,-3.65794 l 2.19451,-2.15172 c 0.35565,-0.34871 -0.83466,-1.59665 -1.49227,-1.42013 z m -2.10672,7.83225 c 0.20413,-0.0241 0.38913,0.0373 0.52668,0.17216 0.27508,0.26972 0.21894,0.77512 -0.13168,1.11889 l -6.67129,6.54123 c -0.35059,0.34377 -0.86605,0.39884 -1.14115,0.12904 -0.27511,-0.26973 -0.21892,-0.7321 0.13168,-1.07585 l 6.67129,-6.58426 c 0.17531,-0.17191 0.41032,-0.2771 0.61447,-0.30126 z"
         id="path3551"
         inkscape:connector-curvature="0" />
      <path
         inkscape:connector-curvature="0"
         id="path4335"
         d="m 230.56697,348.51766 c -0.0948,-0.0179 -0.19905,0.009 -0.28125,0.0313 -0.77746,0.20868 -1.48447,0.59008 -2.09375,1.1875 -1.10974,1.08811 -1.56667,2.57845 -1.40625,4 0.0993,-1.09526 0.55218,-2.16258 1.40625,-3 0.60928,-0.59742 1.31629,-0.97882 2.09375,-1.1875 0.37827,-0.10154 0.91484,0.2574 1.25,0.65625 l 0.25,-0.25 c 0.31119,-0.30512 -0.55524,-1.31212 -1.21875,-1.4375 z m -0.96875,4.59375 c -1.01021,0.99052 2.857,4.47057 3.6875,3.65625 l 2.1875,-2.1875 c 0.22494,-0.2205 0.45853,-0.16024 0.65625,0.0313 0.11122,0.10771 0.20788,0.2493 0.28125,0.40625 0.0495,-0.13321 0.0959,-0.2681 0.125,-0.40625 0.0597,-0.28311 -0.15203,-0.7538 -0.40625,-1 -0.19772,-0.19149 -0.43131,-0.25175 -0.65625,-0.0313 l -2.1875,2.1875 c -0.63741,0.62499 -3.05069,-1.28853 -3.6875,-2.65625 z m -2.75,2.09375 -7.875,7.75 c -0.41806,0.40988 -0.53065,1.01538 -0.34375,1.53125 0.0714,-0.19712 0.184,-0.37463 0.34375,-0.53125 l 8.125,-7.96875 c -0.10375,-0.25994 -0.19253,-0.51047 -0.25,-0.78125 z m 1.8125,2.3125 c -0.0313,0.041 -0.0553,0.0873 -0.0937,0.125 l -6.65625,6.5625 c -0.32868,0.32228 -0.80916,0.37125 -1.09375,0.15625 -0.26258,0.32802 -0.31022,0.72587 -0.0625,0.96875 0.2751,0.2698 0.80566,0.21877 1.15625,-0.125 l 6.65625,-6.5625 c 0.35062,-0.34377 0.43133,-0.82403 0.15625,-1.09375 -0.0162,-0.0159 -0.045,-0.0174 -0.0625,-0.0313 z"
         style="opacity:0.56999984;fill:#000000;fill-opacity:1;fill-rule:nonzero;stroke:none" />
      <path
         inkscape:connector-curvature="0"
         id="path4340"
         d="m 231.53572,350.20516 -1.9375,1.90625 c -0.23488,0.2303 -0.19291,0.58567 0,1 l 2.1875,-2.15625 c 0.15107,-0.14812 -0.002,-0.45547 -0.25,-0.75 z m -4.75,3.53125 c -0.0439,0.48456 -0.039,0.99063 0.0625,1.46875 l 0.25,-0.21875 c -0.16298,-0.40836 -0.26391,-0.81937 -0.3125,-1.25 z m 9.625,1.28125 c -0.22671,0.61027 -0.65523,1.16499 -1.15625,1.65625 -1.29606,1.27083 -3.12648,1.70069 -4.78125,1.28125 l -8.3125,8.125 c -0.57777,0.5665 -1.51598,0.56652 -2.09375,0 l -1.09375,-1.0625 c -0.15975,-0.15663 -0.27234,-0.33413 -0.34375,-0.53125 -0.1869,0.51586 -0.0743,1.12135 0.34375,1.53125 l 1.09375,1.0625 c 0.57777,0.56652 1.51598,0.5665 2.09375,0 l 8.3125,-8.125 c 1.65477,0.41944 3.48519,-0.0104 4.78125,-1.28125 0.61038,-0.59849 1.1186,-1.29144 1.28125,-2.0625 0.0336,-0.15925 -0.0307,-0.39196 -0.125,-0.59375 z m -8.21875,1.34375 c -0.20415,0.0242 -0.44969,0.14059 -0.625,0.3125 l -6.65625,6.59375 c -0.3506,0.34375 -0.43136,0.79277 -0.15625,1.0625 0.0172,0.0169 0.0435,0.0169 0.0625,0.0313 0.029,-0.0363 0.0588,-0.0595 0.0937,-0.0937 l 6.65625,-6.59375 c 0.17531,-0.17191 0.42085,-0.28834 0.625,-0.3125 0.18004,-0.0213 0.3379,0.0527 0.46875,0.15625 0.25431,-0.33339 0.30742,-0.72859 0.0625,-0.96875 -0.13755,-0.13486 -0.32712,-0.2116 -0.53125,-0.1875 z"
         style="fill:#ffffff;fill-opacity:0.78431373;fill-rule:nonzero;stroke:none" />
    </g>
    <g
       id="configure">
      <rect
         style="opacity:0;fill:#000000;fill-opacity:0.49803922;fill-rule:nonzero;stroke:none"
         id="rect4355"
         width="32"
         height="32"
         x="216.53572"
         y="373.50504" />
      <path
         style="fill:url(#linearGradient4365);fill-opacity:1;fill-rule:nonzero;stroke:none"
         d="m 236.51804,376.55216 c -1.123,0.30142 -2.16296,0.87756 -3.04304,1.7405 -2.08854,2.04784 -2.59744,5.04666 -1.58492,7.58366 l -11.72842,11.49978 c -0.8346,0.81828 -0.83458,2.16542 0,2.98374 l 1.58492,1.55402 c 0.83456,0.81832 2.20848,0.81828 3.04304,0 l 11.98202,-11.74844 c 2.39022,0.60586 5.03816,-0.0292 6.91024,-1.86482 0.88166,-0.86448 1.60358,-1.86998 1.83852,-2.98374 0.0862,-0.40894 -0.20336,-1.07408 -0.57058,-1.4297 -0.28558,-0.2766 -0.62604,-0.38076 -0.95094,-0.0622 l -3.16986,3.17022 c -1.1996,1.17626 -6.78452,-3.85296 -5.32532,-5.2837 l 3.16984,-3.10806 c 0.51372,-0.5037 -1.20562,-2.30628 -2.1555,-2.0513 z m -3.04304,11.3133 c 0.29486,-0.0348 0.56208,0.0538 0.76076,0.24866 0.39734,0.3896 0.31624,1.11962 -0.1902,1.61618 l -9.63632,9.44848 c -0.5064,0.49656 -1.25096,0.5761 -1.64832,0.1864 -0.39738,-0.38962 -0.31622,-1.05748 0.1902,-1.55402 l 9.63632,-9.51064 c 0.25322,-0.2483 0.59268,-0.40024 0.88756,-0.43514 z"
         id="path4357"
         inkscape:connector-curvature="0" />
      <path
         inkscape:connector-curvature="0"
         id="path4369"
         d="m 238.50444,378.70381 -3,3 c -0.28591,0.28034 -0.29398,0.7046 -0.125,1.1875 0.036,-0.0654 0.0687,-0.13227 0.125,-0.1875 l 3.15625,-3.125 c 0.18233,-0.17877 0.0898,-0.51905 -0.15625,-0.875 z m -7.09375,5.1875 c -0.038,0.74613 0.0196,1.49244 0.21875,2.21875 l 0.25,-0.25 c -0.25313,-0.63425 -0.4067,-1.29885 -0.46875,-1.96875 z m 14,1.71875 c -0.29505,0.98551 -0.92327,1.90753 -1.71875,2.6875 -1.87208,1.83562 -4.51603,2.44961 -6.90625,1.84375 l -12,11.75 c -0.83456,0.81828 -2.19669,0.81832 -3.03125,0 l -1.59375,-1.53125 c -0.28688,-0.2813 -0.47284,-0.63669 -0.5625,-1 -0.16818,0.69174 0.0166,1.46477 0.5625,2 l 1.59375,1.53125 c 0.83456,0.81832 2.19669,0.81828 3.03125,0 l 12,-11.75 c 2.39022,0.60586 5.03417,-0.008 6.90625,-1.84375 0.88166,-0.86448 1.60881,-1.88624 1.84375,-3 0.0414,-0.19645 -0.026,-0.43552 -0.125,-0.6875 z m -11.9375,2.25 c -0.29488,0.0349 -0.62178,0.1892 -0.875,0.4375 l -9.65625,9.5 c -0.44755,0.43882 -0.53475,1.01012 -0.28125,1.40625 0.0726,-0.13853 0.15465,-0.28211 0.28125,-0.40625 l 9.65625,-9.5 c 0.25322,-0.2483 0.58012,-0.4026 0.875,-0.4375 0.29486,-0.0348 0.55132,0.0551 0.75,0.25 0.0497,0.0487 0.0902,0.098 0.125,0.15625 0.20241,-0.4256 0.16645,-0.87048 -0.125,-1.15625 -0.19868,-0.19486 -0.45514,-0.2848 -0.75,-0.25 z"
         style="fill:#ffffff;fill-opacity:0.78431373;fill-rule:nonzero;stroke:none" />
      <path
         inkscape:connector-curvature="0"
         id="path4374"
         d="m 236.50444,376.54756 c -1.123,0.30142 -2.15117,0.88706 -3.03125,1.75 -1.55849,1.52812 -2.239,3.59359 -2.0625,5.59375 0.0855,-1.67793 0.75717,-3.3451 2.0625,-4.625 0.88008,-0.86294 1.90825,-1.41733 3.03125,-1.71875 0.62444,-0.16762 1.59475,0.53029 2.03125,1.1875 l 0.125,-0.125 c 0.51372,-0.5037 -1.20637,-2.31748 -2.15625,-2.0625 z m -1.125,6.34375 c -0.89639,1.62856 4.28421,6.2246 5.4375,5.09375 l 3.1875,-3.15625 c 0.3249,-0.31856 0.65192,-0.2141 0.9375,0.0625 0.19981,0.1935 0.3942,0.46436 0.5,0.75 0.0307,-0.10359 0.0715,-0.20694 0.0937,-0.3125 0.0862,-0.40894 -0.22653,-1.08188 -0.59375,-1.4375 -0.28558,-0.2766 -0.6126,-0.38106 -0.9375,-0.0625 l -3.1875,3.15625 c -0.96455,0.94578 -4.74404,-2.11213 -5.4375,-4.09375 z m -3.75,3.21875 -11.46875,11.28125 c -0.54587,0.5352 -0.73069,1.27701 -0.5625,1.96875 0.089,-0.36588 0.27378,-0.71692 0.5625,-1 l 11.71875,-11.5 c -0.0983,-0.24629 -0.18043,-0.4963 -0.25,-0.75 z m 2.71875,3.1875 c -0.0735,0.15464 -0.17753,0.30516 -0.3125,0.4375 l -9.625,9.4375 c -0.5064,0.49656 -1.25889,0.5772 -1.65625,0.1875 -0.0462,-0.0453 -0.0604,-0.10415 -0.0937,-0.15625 -0.21784,0.41558 -0.20428,0.86403 0.0937,1.15625 0.39736,0.3897 1.14985,0.30906 1.65625,-0.1875 l 9.625,-9.46875 c 0.4347,-0.42621 0.53811,-0.99894 0.3125,-1.40625 z"
         style="opacity:0.56999984;fill:#000000;fill-opacity:1;fill-rule:nonzero;stroke:none" />
    </g>
  </g>
</svg>
