<?xml version="1.0" encoding="UTF-8" standalone="no"?>
<!-- Created with Inkscape (http://www.inkscape.org/) -->

<svg
   xmlns:dc="http://purl.org/dc/elements/1.1/"
   xmlns:cc="http://creativecommons.org/ns#"
   xmlns:rdf="http://www.w3.org/1999/02/22-rdf-syntax-ns#"
   xmlns:svg="http://www.w3.org/2000/svg"
   xmlns="http://www.w3.org/2000/svg"
   xmlns:xlink="http://www.w3.org/1999/xlink"
   xmlns:sodipodi="http://sodipodi.sourceforge.net/DTD/sodipodi-0.dtd"
   xmlns:inkscape="http://www.inkscape.org/namespaces/inkscape"
   version="1.0"
   width="200"
   height="100"
   id="svg7229"
   inkscape:version="0.48.5 r10040"
   sodipodi:docname="edit.svg">
  <sodipodi:namedview
     pagecolor="#ffffff"
     bordercolor="#666666"
     borderopacity="1"
     objecttolerance="10"
     gridtolerance="10"
     guidetolerance="10"
     inkscape:pageopacity="0"
     inkscape:pageshadow="2"
     inkscape:window-width="1280"
     inkscape:window-height="750"
     id="namedview23"
     showgrid="false"
     inkscape:zoom="5.17"
     inkscape:cx="67.698259"
     inkscape:cy="50"
     inkscape:window-x="0"
     inkscape:window-y="-3"
     inkscape:window-maximized="1"
     inkscape:current-layer="svg7229" />
  <defs
     id="defs7231">
    <linearGradient
       id="linearGradient4158-6">
      <stop
         id="stop4160-3"
         style="stop-color:#1c2122;stop-opacity:1;"
         offset="0" />
      <stop
         id="stop4162-1"
         style="stop-color:#1c2122;stop-opacity:1;"
         offset="1" />
    </linearGradient>
    <linearGradient
       x1="101"
       y1="92"
       x2="101"
       y2="79"
       id="linearGradient3400"
       xlink:href="#linearGradient4158-6"
       gradientUnits="userSpaceOnUse"
       gradientTransform="translate(214.53572,320.50504)" />
    <linearGradient
       x1="101"
       y1="92"
       x2="101"
       y2="79"
       id="linearGradient3424"
       xlink:href="#linearGradient4158-6"
       gradientUnits="userSpaceOnUse"
       gradientTransform="translate(214.53572,320.50504)" />
    <linearGradient
       x1="101"
       y1="92"
       x2="101"
       y2="79"
       id="linearGradient3429"
       xlink:href="#linearGradient4158-6"
       gradientUnits="userSpaceOnUse"
       gradientTransform="matrix(1.3636364,0,0,1.3846154,126.62662,222.16339)" />
  </defs>
  <metadata
     id="metadata7234">
    <rdf:RDF>
      <cc:Work
         rdf:about="">
        <dc:format>image/svg+xml</dc:format>
        <dc:type
           rdf:resource="http://purl.org/dc/dcmitype/StillImage" />
        <dc:title />
      </cc:Work>
    </rdf:RDF>
  </metadata>
  <g
     transform="translate(-214.53572,-326.50504)"
     id="layer1">
    <g
       transform="translate(-88,-65.999995)"
       id="16-16-edit-delete">
      <rect
         width="16"
         height="16"
         x="307.53571"
         y="398.50504"
         id="rect3770"
         style="fill:#802626;fill-opacity:0;fill-rule:nonzero;stroke:none" />
      <path
         d="m 314.53572,399.50504 c -0.554,0 -1,0.446 -1,1 l 0,1 -2.5625,0 c -0.241,0 -0.4375,0.1965 -0.4375,0.4375 l 0,0.5 c 0,0.24 0.3215,0.4375 0.5625,0.4375 0.241,0 0.4375,0.1965 0.4375,0.4375 l 0,8.1875 c 0,0.53297 0.40744,1 1,1 l 7,0 c 0.63775,0 1,-0.32811 1,-1 l 0,-8.1875 c 0,-0.24 0.1965,-0.4375 0.4375,-0.4375 0.241,0 0.5625,-0.1975 0.5625,-0.4375 l 0,-0.5 c 0,-0.24 -0.1955,-0.4375 -0.4375,-0.4375 l -2.5625,0 0,-1 c 0,-0.554 -0.446,-1 -1,-1 l -3,0 z m 0,1 3,0 0,1 -3,0 0,-1 z m -1.5,2.5625 c 0.241,0 0.5,0.1975 0.5,0.4375 l 0,7.625 c 0,0.24 -0.258,0.4375 -0.5,0.4375 -0.241,0 -0.5,-0.1965 -0.5,-0.4375 l 0,-7.625 c 0,-0.24 0.259,-0.4375 0.5,-0.4375 z m 3,0 c 0.241,0 0.5,0.16625 0.5,0.40625 l 0,7.625 c 0,0.24 -0.259,0.46875 -0.5,0.46875 -0.241,0 -0.5,-0.22775 -0.5,-0.46875 l 0,-7.59375 c 0,-0.24 0.259,-0.4375 0.5,-0.4375 z m 3,0 c 0.241,0 0.5,0.1975 0.5,0.4375 l 0,7.5625 c 0,0.24 -0.259,0.4375 -0.5,0.4375 -0.241,0 -0.5,-0.1965 -0.5,-0.4375 l 0,-7.5625 c 0,-0.24 0.259,-0.4375 0.5,-0.4375 z"
         id="path2922"
         style="fill:url(#linearGradient3400);fill-opacity:1" />
    </g>
    <g
       id="edit-delete">
      <g
         transform="matrix(2,0,0,2,-395.53571,-428.50503)"
         id="g3414">
        <rect
           width="16"
           height="16"
           x="307.53571"
           y="398.50504"
           id="rect3416"
           style="fill:#802626;fill-opacity:0;fill-rule:nonzero;stroke:none" />
        <path
           d="m 314.53572,399.50504 c -0.554,0 -1,0.446 -1,1 l 0,1 -2.5625,0 c -0.241,0 -0.4375,0.1965 -0.4375,0.4375 l 0,0.5 c 0,0.24 0.3215,0.4375 0.5625,0.4375 0.241,0 0.4375,0.1965 0.4375,0.4375 l 0,8.1875 c 0,0.53297 0.40744,1 1,1 l 7,0 c 0.63775,0 1,-0.32811 1,-1 l 0,-8.1875 c 0,-0.24 0.1965,-0.4375 0.4375,-0.4375 0.241,0 0.5625,-0.1975 0.5625,-0.4375 l 0,-0.5 c 0,-0.24 -0.1955,-0.4375 -0.4375,-0.4375 l -2.5625,0 0,-1 c 0,-0.554 -0.446,-1 -1,-1 l -3,0 z m 0,1 3,0 0,1 -3,0 0,-1 z m -1.5,2.5625 c 0.241,0 0.5,0.1975 0.5,0.4375 l 0,7.625 c 0,0.24 -0.258,0.4375 -0.5,0.4375 -0.241,0 -0.5,-0.1965 -0.5,-0.4375 l 0,-7.625 c 0,-0.24 0.259,-0.4375 0.5,-0.4375 z m 3,0 c 0.241,0 0.5,0.16625 0.5,0.40625 l 0,7.625 c 0,0.24 -0.259,0.46875 -0.5,0.46875 -0.241,0 -0.5,-0.22775 -0.5,-0.46875 l 0,-7.59375 c 0,-0.24 0.259,-0.4375 0.5,-0.4375 z m 3,0 c 0.241,0 0.5,0.1975 0.5,0.4375 l 0,7.5625 c 0,0.24 -0.259,0.4375 -0.5,0.4375 -0.241,0 -0.5,-0.1965 -0.5,-0.4375 l 0,-7.5625 c 0,-0.24 0.259,-0.4375 0.5,-0.4375 z"
           id="path3418"
           style="fill:url(#linearGradient3424);fill-opacity:1" />
      </g>
    </g>
    <g
       id="22-22-edit-delete">
      <rect
         width="22"
         height="22"
         x="253.53572"
         y="329.50504"
         id="rect3404"
         style="fill:#802626;fill-opacity:0;fill-rule:nonzero;stroke:none" />
      <path
         d="m 262.89936,331.54801 c -0.75546,0 -1.33256,0.61817 -1.36364,1.38462 l 0,1.57241 -3.40341,0 c -0.32864,0 -0.59659,0.27208 -0.59659,0.60577 l 0,0.69231 c 0,0.3323 0.0748,0.4423 0.4034,0.4423 0.32864,0 0.5966,0.27208 0.5966,0.60578 l 0,11.31219 c 0,0.73796 0.91924,1.34165 1.72727,1.34165 l 9.54546,0 c 0.94778,0 1.72727,-0.41133 1.72727,-1.34165 l 0,-11.31219 c 0,-0.33231 0.26795,-0.60578 0.59659,-0.60578 0.32863,0 0.40341,-0.11 0.40341,-0.4423 l 0,-0.69231 c 0,-0.33231 -0.2666,-0.60577 -0.5966,-0.60577 l -3.4034,0 0,-1.57241 c 0,-0.76708 -0.60818,-1.38462 -1.36364,-1.38462 z m -0.36364,0.95703 5,0 0,2 -5,0 z m -1.48224,4 c 0.32863,0 0.48224,0.27346 0.48224,0.60577 l 0,10.53335 c 0,0.33232 -0.14443,0.60578 -0.47443,0.60578 -0.32864,0 -0.52557,-0.27208 -0.52557,-0.60578 l 0,-10.53335 c 0,-0.33231 0.18912,-0.60577 0.51776,-0.60577 z m 3.99609,0 c 0.32863,0 0.48615,0.23019 0.48615,0.5625 l 0,10.53336 c 0,0.33231 -0.15757,0.64904 -0.48615,0.64904 -0.32864,0 -0.51385,-0.31535 -0.51385,-0.64904 l 0,-10.49009 c 0,-0.33231 0.18521,-0.60577 0.51385,-0.60577 z m 3.99609,0 c 0.32863,0 0.49006,0.27346 0.49006,0.60577 l 0,10.44682 c 0,0.33231 -0.16143,0.60576 -0.49006,0.60576 -0.32864,0 -0.50994,-0.27207 -0.50994,-0.60576 l 0,-10.44682 c 0,-0.33231 0.1813,-0.60577 0.50994,-0.60577 z"
         id="path3406"
         style="fill:url(#linearGradient3429);fill-opacity:1" />
      <path
         d="m 48.375,5.03125 c -0.75546,0 -1.34392,0.6398 -1.375,1.40625 l 0,1 C 47.02576,6.8022914 47.433457,6.2577834 48,6.09375 L 48,6 l 5,0 0,0.09375 c 0.573099,0.1639005 1,0.7080193 1,1.34375 l 0,-1 C 54,5.67042 53.38046,5.03125 52.625,5.03125 l -4.25,0 z M 43.59375,8 C 43.26511,8 43,8.26006 43,8.59375 L 43,9.3125 C 43,9.395575 43.019103,9.4429578 43.03125,9.5 43.080908,9.2166386 43.300764,9 43.59375,9 L 47,9 47,8 43.59375,8 z M 48,8 l 0,1 5,0 0,-1 -5,0 z m 6,0 0,1 3.40625,0 c 0.2706,0 0.489198,0.1880801 0.5625,0.4375 C 57.973881,9.393513 58,9.3686318 58,9.3125 L 58,8.59375 C 58,8.26144 57.73625,8 57.40625,8 L 54,8 z m 0,13.0625 0,1 c 0,0.33369 0.17136,0.59375 0.5,0.59375 0.32863,0 0.5,-0.26144 0.5,-0.59375 l 0,-1 c 0,0.33231 -0.17137,0.59375 -0.5,0.59375 -0.32864,0 -0.5,-0.26006 -0.5,-0.59375 z m -4,0.03125 0,1 c 0,0.33369 0.17136,0.65625 0.5,0.65625 0.32858,0 0.5,-0.32394 0.5,-0.65625 l 0,-1 C 51,21.42606 50.82858,21.75 50.5,21.75 50.17136,21.75 50,21.42744 50,21.09375 z m -4,0.03125 0,1 c 0,0.3337 0.20261,0.625 0.53125,0.625 0.33,0 0.46875,-0.29268 0.46875,-0.625 l 0,-1 C 47,21.45732 46.86125,21.75 46.53125,21.75 46.20261,21.75 46,21.4587 46,21.125 z"
         transform="translate(214.53572,326.50504)"
         id="path3432"
         style="fill:#1c2122;fill-opacity:1" />
    </g>
  </g>
</svg>
