<?xml version="1.0" encoding="UTF-8" standalone="no"?>
<!-- Created with Inkscape (http://www.inkscape.org/) -->

<svg
   xmlns:dc="http://purl.org/dc/elements/1.1/"
   xmlns:cc="http://creativecommons.org/ns#"
   xmlns:rdf="http://www.w3.org/1999/02/22-rdf-syntax-ns#"
   xmlns:svg="http://www.w3.org/2000/svg"
   xmlns="http://www.w3.org/2000/svg"
   xmlns:sodipodi="http://sodipodi.sourceforge.net/DTD/sodipodi-0.dtd"
   xmlns:inkscape="http://www.inkscape.org/namespaces/inkscape"
   version="1.1"
   width="24pt"
   height="24pt"
   id="svg2"
   inkscape:version="0.48.5 r10040"
   sodipodi:docname="konv_message.svg">
  <sodipodi:namedview
     pagecolor="#ffffff"
     bordercolor="#666666"
     borderopacity="1"
     objecttolerance="10"
     gridtolerance="10"
     guidetolerance="10"
     inkscape:pageopacity="0"
     inkscape:pageshadow="2"
     inkscape:window-width="1280"
     inkscape:window-height="751"
     id="namedview12"
     showgrid="false"
     inkscape:zoom="7.8666667"
     inkscape:cx="-6.0381355"
     inkscape:cy="15"
     inkscape:window-x="0"
     inkscape:window-y="-3"
     inkscape:window-maximized="1"
     inkscape:current-layer="svg2" />
  <metadata
     id="metadata15">
    <rdf:RDF>
      <cc:Work
         rdf:about="">
        <dc:format>image/svg+xml</dc:format>
        <dc:type
           rdf:resource="http://purl.org/dc/dcmitype/StillImage" />
        <dc:title />
      </cc:Work>
    </rdf:RDF>
  </metadata>
  <defs
     id="defs4" />
  <g
     id="layer1">
    <g
       transform="translate(-0.781248,-0.781255)"
       id="konv_message"
       style="fill:none">
      <rect
         width="24"
         height="24"
         x="0.78125"
         y="6.78125"
         id="help-faq"
         style="opacity:0;fill:#000000" />
      <g
         transform="matrix(0.99997906,0,0,1,0.52726857,6.5267544)"
         id="g9311"
         style="fill:none">
        <path
           d="M 7.87271,14.0312 2,14.0312 c -1.108,0 -2,-0.892 -2,-2 L 0,2 C 0,0.892 0.892,0 2,0 l 12,0 c 1.108,0 2,0.892 2,2 l 0,10.0312 c 0,1.108 -0.892,2 -2,2 l -1.8847,0"
           transform="matrix(0.932203,0,0,0.932203,2,5.69968)"
           id="rect6389"
           style="fill:#28ae95;fill-opacity:1;stroke:#28ae95;stroke-width:2.14545465000000002;stroke-linecap:round;stroke-linejoin:round;stroke-opacity:1"
           inkscape:connector-curvature="0" />
        <path
           d="m 13.171966,18.626461 0,3.867575 -3.6998604,-3.867575"
           id="path6401"
           style="fill:#28ae95;fill-opacity:1;stroke:#28ae95;stroke-width:2.02895044999999996;stroke-linecap:round;stroke-linejoin:round;stroke-opacity:1"
           inkscape:connector-curvature="0" />
        <path
           d="m 0,0 12,0 c 1.108,0 2,0.892 2,2 l 0,8 c 0,1.108 -0.892,2 -2,2"
           transform="matrix(0.932203,0,0,0.932203,9.45763,2)"
           id="path6414"
           style="fill:none;stroke:#28ae95;stroke-width:2.14545465000000002;stroke-linecap:round;stroke-linejoin:round;stroke-opacity:1"
           inkscape:connector-curvature="0" />
      </g>
    </g>
  </g>
</svg>
