<?xml version="1.0" encoding="UTF-8" standalone="no"?>
<!-- Created with Inkscape (http://www.inkscape.org/) -->

<svg
   xmlns:dc="http://purl.org/dc/elements/1.1/"
   xmlns:cc="http://creativecommons.org/ns#"
   xmlns:rdf="http://www.w3.org/1999/02/22-rdf-syntax-ns#"
   xmlns:svg="http://www.w3.org/2000/svg"
   xmlns="http://www.w3.org/2000/svg"
   version="1.1"
   width="24pt"
   height="24pt"
   id="svg2">
  <metadata
     id="metadata41">
    <rdf:RDF>
      <cc:Work
         rdf:about="">
        <dc:format>image/svg+xml</dc:format>
        <dc:type
           rdf:resource="http://purl.org/dc/dcmitype/StillImage" />
        <dc:title></dc:title>
      </cc:Work>
    </rdf:RDF>
  </metadata>
  <defs
     id="defs4" />
  <g
     id="layer1">
    <g
       transform="translate(-41.2633,-1.13008)"
       id="kopete-offline"
       style="fill:none">
      <rect
         width="24"
         height="24"
         x="3.6252999"
         y="3.6250801"
         id="rect9896"
         style="opacity:0;fill:#ffffff;fill-rule:evenodd" />
      <g
         transform="translate(3.625,3.13105)"
         id="g9878"
         style="fill:none">
        <path
           d="M 0.004,0 0,3.99999"
           transform="translate(12.0029,18.494)"
           id="path9775-6"
           style="fill:none;stroke:#1c2122;stroke-width:2;stroke-linecap:round;stroke-linejoin:miter;stroke-miterlimit:4;stroke-opacity:1" />
        <path
           d="M 5.55075,0 0,3.9935"
           transform="translate(12.003,18.4918)"
           id="path9777-0"
           style="fill:none;stroke:#1c2122;stroke-width:2;stroke-linecap:round;stroke-linejoin:miter;stroke-miterlimit:4;stroke-opacity:1" />
        <g
           id="g9863"
           style="fill:none">
          <path
             d="M 0,0 0,8.9909"
             transform="translate(22,6.1404)"
             id="path12976-2-2"
             style="fill:none;stroke:#1c2122;stroke-width:2;stroke-linecap:round;stroke-linejoin:miter;stroke-miterlimit:4;stroke-opacity:1" />
          <path
             d="M 0,1e-5 6.72241,0"
             transform="translate(5.26494,18.494)"
             id="path9769-9"
             style="fill:none;stroke:#1c2122;stroke-width:2;stroke-linecap:round;stroke-linejoin:miter;stroke-miterlimit:4;stroke-opacity:1" />
          <path
             d="M 0,0 0,8.9144"
             transform="translate(2,6.02905)"
             id="path9771-9"
             style="fill:none;stroke:#1c2122;stroke-width:2;stroke-linecap:round;stroke-linejoin:miter;stroke-miterlimit:4;stroke-opacity:1" />
          <path
             d="M 32.5,0 C 23.5254,8.97463 8.97463,8.97463 0,0 0,0 0,0 0,0"
             transform="matrix(0.0959964,0.102444,-0.0961367,0.102594,2,15.1645)"
             id="path9783-2"
             style="fill:none;stroke:#1c2122;stroke-width:14.25040054;stroke-linecap:round;stroke-linejoin:miter;stroke-miterlimit:4;stroke-opacity:1" />
          <path
             d="M 32.5,0 C 23.5254,8.97463 8.97463,8.97463 0,0 0,0 0,0 0,0"
             transform="matrix(-0.0959964,-0.102444,0.0961367,-0.102594,22,5.82341)"
             id="path9788-7"
             style="fill:none;stroke:#1c2122;stroke-width:14.25040054;stroke-linecap:round;stroke-linejoin:miter;stroke-miterlimit:4;stroke-opacity:1" />
          <path
             d="M 32.5,0 C 23.5254,8.97463 8.97463,8.97463 0,0 0,0 0,0 0,0"
             transform="matrix(-0.0959964,0.102444,0.0961367,0.102594,22,15.1645)"
             id="path9790-6"
             style="fill:none;stroke:#1c2122;stroke-width:14.25040054;stroke-linecap:round;stroke-linejoin:miter;stroke-miterlimit:4;stroke-opacity:1" />
          <path
             d="M 32.5,0 C 23.5254,8.97463 8.97463,8.97463 0,0 0,0 0,0 0,0"
             transform="matrix(0.0959964,-0.102444,-0.0961367,-0.102594,2.00602,5.82341)"
             id="path9792-1"
             style="fill:none;stroke:#1c2122;stroke-width:14.25040054;stroke-linecap:round;stroke-linejoin:miter;stroke-miterlimit:4;stroke-opacity:1" />
          <path
             d="M 0,0 13.4835,0"
             transform="translate(5.43555,2.49396)"
             id="path9796-3"
             style="fill:none;stroke:#1c2122;stroke-width:2;stroke-linecap:round;stroke-linejoin:miter;stroke-miterlimit:4;stroke-opacity:1" />
          <path
             d="M 0,0 1.11951,0"
             transform="translate(17.7606,18.494)"
             id="path9798-2"
             style="fill:none;stroke:#1c2122;stroke-width:2;stroke-linecap:round;stroke-linejoin:miter;stroke-miterlimit:4;stroke-opacity:1" />
        </g>
        <g
           transform="translate(6.41119,4.87285)"
           id="g9874"
           style="fill:none">
          <path
             d="m 5.02297,0 c -1.28278,-9.99985e-6 -2.58889,0.4951 -3.5625,1.46875 -1.947292,1.94729 -1.947292,5.11521 0,7.0625 1.94722,1.94725 5.14653,1.94725 7.09375,0 1.94728,-1.94729 1.94728,-5.11528 0,-7.0625 C 7.58061,0.49514 6.30575,1.00002e-5 5.02297,0 z m -2.875,4.28125 5.71875,0 c 0.39569,0 0.71875,0.32306 0.71875,0.71875 0,0.39569 -0.32306,0.71875 -0.71875,0.71875 l -5.71875,0 C 1.75228,5.71875 1.42922,5.39569 1.42922,5 c 0,-0.39569 0.32306,-0.71875 0.71875,-0.71875 z"
             transform="translate(0.579235,0.625)"
             id="path7289-4"
             style="fill:#5d992d" />
        </g>
      </g>
    </g>
    <g
       transform="translate(-0.624997,-0.625004)"
       id="kopete"
       style="fill:none">
      <rect
         width="24"
         height="24"
         x="3.6249969"
         y="3.6250041"
         id="rect9918"
         style="opacity:0;fill:#ffffff;fill-rule:evenodd" />
      <g
         transform="translate(3.625,3.13105)"
         id="g9920"
         style="fill:none">
        <path
           d="M 0.004,0 0,3.99999"
           transform="translate(12.0029,18.494)"
           id="path9922"
           style="fill:none;stroke:#1c2122;stroke-width:2;stroke-linecap:round;stroke-linejoin:miter;stroke-miterlimit:4;stroke-opacity:1" />
        <path
           d="M 5.55075,0 0,3.9935"
           transform="translate(12.003,18.4918)"
           id="path9924"
           style="fill:none;stroke:#1c2122;stroke-width:2;stroke-linecap:round;stroke-linejoin:miter;stroke-miterlimit:4;stroke-opacity:1" />
        <g
           id="g9926"
           style="fill:none">
          <path
             d="M 0,0 0,8.9909"
             transform="translate(22,6.1404)"
             id="path9928"
             style="fill:none;stroke:#1c2122;stroke-width:2;stroke-linecap:round;stroke-linejoin:miter;stroke-miterlimit:4;stroke-opacity:1" />
          <path
             d="M 0,1e-5 6.72241,0"
             transform="translate(5.26494,18.494)"
             id="path9930"
             style="fill:none;stroke:#1c2122;stroke-width:2;stroke-linecap:round;stroke-linejoin:miter;stroke-miterlimit:4;stroke-opacity:1" />
          <path
             d="M 0,0 0,8.9144"
             transform="translate(2,6.02905)"
             id="path9932"
             style="fill:none;stroke:#1c2122;stroke-width:2;stroke-linecap:round;stroke-linejoin:miter;stroke-miterlimit:4;stroke-opacity:1" />
          <path
             d="M 32.5,0 C 23.5254,8.97463 8.97463,8.97463 0,0 0,0 0,0 0,0"
             transform="matrix(0.0959964,0.102444,-0.0961367,0.102594,2,15.1645)"
             id="path9934"
             style="fill:none;stroke:#1c2122;stroke-width:14.25040054;stroke-linecap:round;stroke-linejoin:miter;stroke-miterlimit:4;stroke-opacity:1" />
          <path
             d="M 32.5,0 C 23.5254,8.97463 8.97463,8.97463 0,0 0,0 0,0 0,0"
             transform="matrix(-0.0959964,-0.102444,0.0961367,-0.102594,22,5.82341)"
             id="path9936"
             style="fill:none;stroke:#1c2122;stroke-width:14.25040054;stroke-linecap:round;stroke-linejoin:miter;stroke-miterlimit:4;stroke-opacity:1" />
          <path
             d="M 32.5,0 C 23.5254,8.97463 8.97463,8.97463 0,0 0,0 0,0 0,0"
             transform="matrix(-0.0959964,0.102444,0.0961367,0.102594,22,15.1645)"
             id="path9938"
             style="fill:none;stroke:#1c2122;stroke-width:14.25040054;stroke-linecap:round;stroke-linejoin:miter;stroke-miterlimit:4;stroke-opacity:1" />
          <path
             d="M 32.5,0 C 23.5254,8.97463 8.97463,8.97463 0,0 0,0 0,0 0,0"
             transform="matrix(0.0959964,-0.102444,-0.0961367,-0.102594,2.00602,5.82341)"
             id="path9940"
             style="fill:none;stroke:#1c2122;stroke-width:14.25040054;stroke-linecap:round;stroke-linejoin:miter;stroke-miterlimit:4;stroke-opacity:1" />
          <path
             d="M 0,0 13.4835,0"
             transform="translate(5.43555,2.49396)"
             id="path9942"
             style="fill:none;stroke:#1c2122;stroke-width:2;stroke-linecap:round;stroke-linejoin:miter;stroke-miterlimit:4;stroke-opacity:1" />
          <path
             d="M 0,0 1.11951,0"
             transform="translate(17.7606,18.494)"
             id="path9944"
             style="fill:none;stroke:#1c2122;stroke-width:2;stroke-linecap:round;stroke-linejoin:miter;stroke-miterlimit:4;stroke-opacity:1" />
        </g>
      </g>
    </g>
  </g>
</svg>
