<?xml version="1.0" encoding="UTF-8" standalone="no"?>
<!-- Created with Inkscape (http://www.inkscape.org/) -->

<svg
   xmlns:dc="http://purl.org/dc/elements/1.1/"
   xmlns:cc="http://creativecommons.org/ns#"
   xmlns:rdf="http://www.w3.org/1999/02/22-rdf-syntax-ns#"
   xmlns:svg="http://www.w3.org/2000/svg"
   xmlns="http://www.w3.org/2000/svg"
   xmlns:xlink="http://www.w3.org/1999/xlink"
   xmlns:sodipodi="http://sodipodi.sourceforge.net/DTD/sodipodi-0.dtd"
   xmlns:inkscape="http://www.inkscape.org/namespaces/inkscape"
   version="1.1"
   width="24"
   height="24"
   id="svg2"
   inkscape:version="0.48.5 r10040"
   sodipodi:docname="kpackagekit.svg">
  <sodipodi:namedview
     pagecolor="#ffffff"
     bordercolor="#666666"
     borderopacity="1"
     objecttolerance="10"
     gridtolerance="10"
     guidetolerance="10"
     inkscape:pageopacity="0"
     inkscape:pageshadow="2"
     inkscape:window-width="1280"
     inkscape:window-height="751"
     id="namedview87"
     showgrid="false"
     inkscape:zoom="3.03"
     inkscape:cx="-136.7468"
     inkscape:cy="991.49667"
     inkscape:window-x="0"
     inkscape:window-y="-3"
     inkscape:window-maximized="1"
     inkscape:current-layer="svg2" />
  <defs
     id="defs4">
    <linearGradient
       id="linearGradient4075">
      <stop
         id="stop4077"
         style="stop-color:#ffffff;stop-opacity:1"
         offset="0" />
      <stop
         id="stop4079"
         style="stop-color:#ffffff;stop-opacity:0"
         offset="1" />
    </linearGradient>
    <radialGradient
       cx="538.77338"
       cy="651.10352"
       r="126.0234"
       id="XMLID_15_"
       gradientUnits="userSpaceOnUse"
       gradientTransform="translate(-484,-674)">
      <stop
         id="stop137"
         style="stop-color:#eaacac;stop-opacity:1"
         offset="0" />
      <stop
         id="stop139"
         style="stop-color:#a42a2a;stop-opacity:1"
         offset="1" />
      <stop
         id="stop141"
         style="stop-color:#e85151;stop-opacity:1"
         offset="1" />
    </radialGradient>
    <linearGradient
       id="linearGradient3802">
      <stop
         id="stop3804"
         style="stop-color:#becfd2;stop-opacity:1"
         offset="0" />
      <stop
         id="stop3818"
         style="stop-color:#becfd2;stop-opacity:0.78431374"
         offset="0.5" />
      <stop
         id="stop3820"
         style="stop-color:#becfd2;stop-opacity:0.39215687"
         offset="0.75" />
      <stop
         id="stop3806"
         style="stop-color:#becfd2;stop-opacity:1"
         offset="1" />
    </linearGradient>
    <linearGradient
       x1="2"
       y1="12"
       x2="22"
       y2="12"
       id="linearGradient3902"
       xlink:href="#linearGradient3802"
       gradientUnits="userSpaceOnUse" />
    <linearGradient
       x1="2"
       y1="12"
       x2="22"
       y2="12"
       id="linearGradient3980"
       xlink:href="#linearGradient3802"
       gradientUnits="userSpaceOnUse"
       gradientTransform="translate(46.514719,1016.6636)" />
    <linearGradient
       x1="2"
       y1="12"
       x2="22"
       y2="12"
       id="linearGradient4042"
       xlink:href="#linearGradient3802"
       gradientUnits="userSpaceOnUse"
       gradientTransform="translate(81,0)" />
    <linearGradient
       x1="2"
       y1="12"
       x2="22"
       y2="12"
       id="linearGradient4072"
       xlink:href="#linearGradient3802"
       gradientUnits="userSpaceOnUse"
       gradientTransform="translate(27.000001,-0.0313)" />
    <radialGradient
       cx="66.5"
       cy="10.5"
       r="0.5"
       fx="66.5"
       fy="10.250001"
       id="radialGradient4131"
       xlink:href="#XMLID_15_"
       gradientUnits="userSpaceOnUse" />
  </defs>
  <metadata
     id="metadata7">
    <rdf:RDF>
      <cc:Work
         rdf:about="">
        <dc:format>image/svg+xml</dc:format>
        <dc:type
           rdf:resource="http://purl.org/dc/dcmitype/StillImage" />
        <dc:title />
      </cc:Work>
    </rdf:RDF>
  </metadata>
  <g
     transform="translate(8.4852817,-1016.6949)"
     id="kpackagekit">
    <g
       id="kpackagekit-inactive2">
      <path
         d="m 12,1.03125 c -0.371475,0 -0.696876,0.073756 -0.9375,0.09375 a 0.95334842,0.95334842 0 0 0 -0.84375,0.75 L 9.9375,3.34375 C 9.7806233,3.3829631 9.6202635,3.3908088 9.46875,3.4375 l -1,-1.09375 a 0.95334842,0.95334842 0 0 0 -1.125,-0.25 C 6.7839293,2.3568025 6.2619791,2.6736159 5.75,3.03125 A 0.95334842,0.95334842 0 0 0 5.375,4.125 L 5.84375,5.53125 C 5.7384275,5.6316676 5.6316676,5.7384275 5.53125,5.84375 L 4.125,5.375 A 0.95334842,0.95334842 0 0 0 3.03125,5.75 C 2.6736159,6.2619791 2.3568025,6.7839293 2.09375,7.34375 a 0.95334842,0.95334842 0 0 0 0.25,1.125 l 1.09375,1 C 3.3908088,9.6202635 3.3829631,9.7806233 3.34375,9.9375 L 1.875,10.21875 A 0.95334842,0.95334842 0 0 0 1.125,11.0625 C 1.1050056,11.303124 1.03125,11.628525 1.03125,12 c 0,0.371475 0.073756,0.696876 0.09375,0.9375 a 0.95334842,0.95334842 0 0 0 0.75,0.84375 l 1.46875,0.28125 c 0.039213,0.156877 0.047059,0.317237 0.09375,0.46875 l -1.09375,1 a 0.95334842,0.95334842 0 0 0 -0.25,1.125 c 0.2630527,0.559821 0.5798661,1.081771 0.9375,1.59375 A 0.95334842,0.95334842 0 0 0 4.125,18.625 l 1.40625,-0.46875 c 0.1004175,0.105322 0.2071776,0.212082 0.3125,0.3125 L 5.375,19.875 a 0.95334842,0.95334842 0 0 0 0.375,1.09375 c 0.5119782,0.357633 1.0339282,0.674447 1.59375,0.9375 a 0.95334842,0.95334842 0 0 0 1.125,-0.25 l 1,-1.09375 c 0.1515135,0.04669 0.3118734,0.05454 0.46875,0.09375 l 0.28125,1.46875 a 0.95334842,0.95334842 0 0 0 0.84375,0.75 c 0.240624,0.01999 0.566025,0.09375 0.9375,0.09375 0.371482,0 0.69689,-0.07376 0.9375,-0.09375 a 0.95334842,0.95334842 0 0 0 0.84375,-0.75 l 0.28125,-1.46875 c 0.156878,-0.03921 0.317236,-0.04706 0.46875,-0.09375 l 1,1.09375 a 0.95334842,0.95334842 0 0 0 1.125,0.25 c 0.559823,-0.263053 1.081772,-0.579867 1.59375,-0.9375 A 0.95334842,0.95334842 0 0 0 18.625,19.875 l -0.46875,-1.40625 c 0.105322,-0.100417 0.212083,-0.207178 0.3125,-0.3125 L 19.875,18.625 a 0.95334842,0.95334842 0 0 0 1.09375,-0.375 c 0.357633,-0.511978 0.674447,-1.033927 0.9375,-1.59375 a 0.95334842,0.95334842 0 0 0 -0.25,-1.125 l -1.09375,-1 c 0.04669,-0.151513 0.05454,-0.311873 0.09375,-0.46875 L 22.125,13.78125 a 0.95334842,0.95334842 0 0 0 0.75,-0.84375 c 0.01999,-0.240624 0.09375,-0.566025 0.09375,-0.9375 0,-0.371475 -0.07376,-0.696876 -0.09375,-0.9375 a 0.95334842,0.95334842 0 0 0 -0.75,-0.84375 L 20.65625,9.9375 C 20.617037,9.7806224 20.609192,9.6202637 20.5625,9.46875 l 1.09375,-1 a 0.95334842,0.95334842 0 0 0 0.25,-1.125 C 21.643197,6.7839282 21.326383,6.2619782 20.96875,5.75 A 0.95334842,0.95334842 0 0 0 19.875,5.375 L 18.46875,5.84375 C 18.368332,5.7384276 18.261572,5.6316675 18.15625,5.53125 L 18.625,4.125 A 0.95334842,0.95334842 0 0 0 18.25,3.03125 C 17.738021,2.6736161 17.216071,2.3568027 16.65625,2.09375 a 0.95334842,0.95334842 0 0 0 -1.125,0.25 l -1,1.09375 C 14.379737,3.3908088 14.219377,3.3829631 14.0625,3.34375 L 13.78125,1.875 A 0.95334842,0.95334842 0 0 0 12.9375,1.125 C 12.696876,1.1050056 12.371475,1.03125 12,1.03125 z M 12,2 c 0.282648,0 0.56704,0.039507 0.84375,0.0625 L 13.25,4.09375 c 0.552144,0.086504 1.08516,0.2441444 1.59375,0.4375 L 16.25,2.96875 c 0.51637,0.2426354 1.005232,0.5199676 1.46875,0.84375 L 17.0625,5.78125 c 0.419561,0.3424245 0.813825,0.7366886 1.15625,1.15625 L 20.1875,6.28125 c 0.323782,0.4635179 0.601115,0.9523804 0.84375,1.46875 l -1.5625,1.40625 c 0.193356,0.5085895 0.350996,1.041606 0.4375,1.59375 l 2.03125,0.40625 C 21.960493,11.43296 22,11.717352 22,12 c 0,0.282648 -0.03951,0.56704 -0.0625,0.84375 L 19.90625,13.25 c -0.0865,0.552144 -0.244144,1.08516 -0.4375,1.59375 l 1.5625,1.40625 c -0.242635,0.51637 -0.519968,1.005232 -0.84375,1.46875 L 18.21875,17.0625 c -0.342425,0.419561 -0.736689,0.813825 -1.15625,1.15625 l 0.65625,1.96875 c -0.463518,0.323782 -0.95238,0.601115 -1.46875,0.84375 l -1.40625,-1.5625 c -0.50859,0.193356 -1.041606,0.350996 -1.59375,0.4375 L 12.84375,21.9375 C 12.56704,21.960493 12.282648,22 12,22 11.717352,22 11.43296,21.960493 11.15625,21.9375 L 10.75,19.90625 C 10.197856,19.81975 9.6648395,19.662106 9.15625,19.46875 L 7.75,21.03125 C 7.2336304,20.788615 6.7447679,20.511282 6.28125,20.1875 L 6.9375,18.21875 C 6.5179386,17.876325 6.1236745,17.482061 5.78125,17.0625 L 3.8125,17.71875 C 3.4887176,17.255232 3.2113854,16.76637 2.96875,16.25 l 1.5625,-1.40625 C 4.3378944,14.33516 4.1802535,13.802144 4.09375,13.25 L 2.0625,12.84375 C 2.039507,12.56704 2,12.282648 2,12 2,11.717352 2.039507,11.43296 2.0625,11.15625 L 4.09375,10.75 C 4.1802535,10.197856 4.3378944,9.6648395 4.53125,9.15625 L 2.96875,7.75 C 3.2113854,7.2336304 3.4887176,6.7447679 3.8125,6.28125 L 5.78125,6.9375 C 6.1236745,6.5179386 6.5179386,6.1236745 6.9375,5.78125 L 6.28125,3.8125 C 6.7447679,3.4887176 7.2336304,3.2113854 7.75,2.96875 l 1.40625,1.5625 C 9.6648395,4.3378944 10.197856,4.1802535 10.75,4.09375 L 11.15625,2.0625 C 11.43296,2.039507 11.717352,2 12,2 z m 0,4 c -3.3137126,0 -6,2.6862874 -6,6 0,3.313713 2.6862874,6 6,6 3.313713,0 6,-2.686287 6,-6 0,-3.3137126 -2.686287,-6 -6,-6 z m 0,0.96875 c 2.798538,0 5.03125,2.2327121 5.03125,5.03125 0,2.798538 -2.232712,5.03125 -5.03125,5.03125 C 9.2014621,17.03125 6.96875,14.798538 6.96875,12 6.96875,9.2014622 9.2014622,6.96875 12,6.96875 z"
         transform="translate(-8.4852817,1016.6949)"
         id="path3908"
         style="fill:#000000;fill-opacity:0.27428571;stroke:none" />
      <rect
         width="24"
         height="24"
         x="-8.4852819"
         y="1016.6949"
         id="rect2815"
         style="fill:none;stroke:none" />
      <path
         d="M 12,2 C 11.717352,2 11.43296,2.039507 11.15625,2.0625 L 10.75,4.09375 C 10.197856,4.1802535 9.6648395,4.3378944 9.15625,4.53125 L 7.75,2.96875 C 7.2336304,3.2113854 6.7447679,3.4887176 6.28125,3.8125 L 6.9375,5.78125 C 6.5179386,6.1236745 6.1236745,6.5179386 5.78125,6.9375 L 3.8125,6.28125 C 3.4887176,6.7447679 3.2113854,7.2336304 2.96875,7.75 l 1.5625,1.40625 C 4.3378944,9.6648395 4.1802535,10.197856 4.09375,10.75 L 2.0625,11.15625 C 2.039507,11.43296 2,11.717352 2,12 c 0,0.282648 0.039507,0.56704 0.0625,0.84375 L 4.09375,13.25 c 0.086504,0.552144 0.2441444,1.08516 0.4375,1.59375 L 2.96875,16.25 c 0.2426354,0.51637 0.5199676,1.005232 0.84375,1.46875 L 5.78125,17.0625 c 0.3424245,0.419561 0.7366886,0.813825 1.15625,1.15625 L 6.28125,20.1875 c 0.4635179,0.323782 0.9523804,0.601115 1.46875,0.84375 l 1.40625,-1.5625 c 0.5085895,0.193356 1.041606,0.350996 1.59375,0.4375 l 0.40625,2.03125 C 11.43296,21.960493 11.717352,22 12,22 c 0.282648,0 0.56704,-0.03951 0.84375,-0.0625 L 13.25,19.90625 c 0.552144,-0.0865 1.08516,-0.244144 1.59375,-0.4375 l 1.40625,1.5625 c 0.51637,-0.242635 1.005232,-0.519968 1.46875,-0.84375 L 17.0625,18.21875 c 0.419561,-0.342425 0.813825,-0.736689 1.15625,-1.15625 l 1.96875,0.65625 c 0.323782,-0.463518 0.601115,-0.95238 0.84375,-1.46875 l -1.5625,-1.40625 c 0.193356,-0.50859 0.350996,-1.041606 0.4375,-1.59375 L 21.9375,12.84375 C 21.960493,12.56704 22,12.282648 22,12 22,11.717352 21.960493,11.43296 21.9375,11.15625 L 19.90625,10.75 C 19.81975,10.197856 19.662106,9.6648395 19.46875,9.15625 L 21.03125,7.75 C 20.788615,7.2336304 20.511282,6.7447679 20.1875,6.28125 L 18.21875,6.9375 C 17.876325,6.5179386 17.482061,6.1236745 17.0625,5.78125 L 17.71875,3.8125 C 17.255232,3.4887176 16.76637,3.2113854 16.25,2.96875 l -1.40625,1.5625 C 14.33516,4.3378944 13.802144,4.1802535 13.25,4.09375 L 12.84375,2.0625 C 12.56704,2.039507 12.282648,2 12,2 z m 0,4 c 3.313713,0 6,2.6862874 6,6 0,3.313713 -2.686287,6 -6,6 C 8.6862874,18 6,15.313713 6,12 6,8.6862874 8.6862874,6 12,6 z"
         transform="translate(-8.4852817,1016.6949)"
         id="path3879"
         style="opacity:0.72769949;fill:url(#linearGradient3902);fill-opacity:1;stroke:none" />
    </g>
    <g
       id="kpackagekit-updates2">
      <g
         id="g4050">
        <path
           d="m 42.067797,9.2033798 4.24264,4.2426002"
           id="path8762"
           style="fill:none;stroke:#83af77;stroke-width:2.00000024;stroke-linecap:round;stroke-linejoin:round;stroke-miterlimit:4.30000019;stroke-opacity:1;stroke-dasharray:none;stroke-dashoffset:0;marker:none;visibility:visible;display:inline;overflow:visible;enable-background:accumulate" />
        <path
           d="m 33.067797,15.20338 5,0"
           id="path9052-1"
           style="fill:none;stroke:#83af77;stroke-width:2.00000024;stroke-linecap:round;stroke-linejoin:round;stroke-miterlimit:4.30000019;stroke-opacity:1;stroke-dasharray:none;stroke-dashoffset:0;marker:none;visibility:visible;display:inline;overflow:visible;enable-background:accumulate" />
        <path
           d="M 4.1591541,18.183256 A 8.3902435,8.3902435 0 0 1 16.129783,6.4245863"
           transform="matrix(0.6589964,0,0,0.6697633,30.877167,-1.4536101)"
           id="path24456"
           style="fill:none;stroke:#becfd2;stroke-width:3.01042557;stroke-linecap:round;stroke-linejoin:round;stroke-miterlimit:4;stroke-opacity:1;stroke-dasharray:none;display:inline" />
        <path
           d="m 42.067797,9.2033798 0,5.0000002"
           id="path8760"
           style="fill:none;stroke:#83af77;stroke-width:2.00000024;stroke-linecap:round;stroke-linejoin:round;stroke-miterlimit:4.30000019;stroke-opacity:1;stroke-dasharray:none;stroke-dashoffset:0;marker:none;visibility:visible;display:inline;overflow:visible;enable-background:accumulate" />
        <path
           d="m 47.067797,9.2033798 -5,0"
           id="path8758"
           style="fill:none;stroke:#83af77;stroke-width:2.00000024;stroke-linecap:round;stroke-linejoin:round;stroke-miterlimit:4.30000019;stroke-opacity:1;stroke-dasharray:none;stroke-dashoffset:0;marker:none;visibility:visible;display:inline;overflow:visible;enable-background:accumulate" />
        <path
           d="M 4.1591541,18.183256 A 8.3902435,8.3902435 0 0 1 16.129783,6.4245863"
           transform="matrix(-0.6589964,0,0,-0.6697633,49.258427,25.86039)"
           id="path8756"
           style="fill:none;stroke:#83af77;stroke-width:3.01042557;stroke-linecap:round;stroke-linejoin:round;stroke-miterlimit:4;stroke-opacity:1;stroke-dasharray:none;display:inline" />
        <path
           d="m 38.067797,15.20338 -4.24264,-4.2426"
           id="path8754"
           style="fill:none;stroke:#83af77;stroke-width:2.00000024;stroke-linecap:round;stroke-linejoin:round;stroke-miterlimit:4.30000019;stroke-opacity:1;stroke-dasharray:none;stroke-dashoffset:0;marker:none;visibility:visible;display:inline;overflow:visible;enable-background:accumulate" />
        <path
           d="m 38.067797,15.20338 0,-5"
           id="path8752"
           style="fill:none;stroke:#83af77;stroke-width:2.00000024;stroke-linecap:round;stroke-linejoin:round;stroke-miterlimit:4.30000019;stroke-opacity:1;stroke-dasharray:none;stroke-dashoffset:0;marker:none;visibility:visible;display:inline;overflow:visible;enable-background:accumulate" />
      </g>
    </g>
    <g
       id="g3065">
      <g
         id="g4055">
        <path
           d="m 58.514719,1017.6949 c -0.371475,0 -0.696876,0.074 -0.9375,0.094 -0.40097,0.037 -0.759593,0.3562 -0.84375,0.75 l -0.28125,1.4688 c -0.156876,0.039 -0.317236,0.047 -0.46875,0.094 l -1,-1.0937 c -0.266717,-0.3147 -0.75011,-0.4221 -1.125,-0.25 -0.55982,0.2631 -1.081771,0.5799 -1.59375,0.9375 -0.344312,0.23 -0.505728,0.7008 -0.375,1.0937 l 0.46875,1.4063 c -0.105322,0.1005 -0.212082,0.2072 -0.3125,0.3125 l -1.40625,-0.4688 c -0.392915,-0.1308 -0.863721,0.031 -1.09375,0.375 -0.357634,0.512 -0.674447,1.0339 -0.9375,1.5938 -0.172099,0.3749 -0.06468,0.8583 0.25,1.125 l 1.09375,1 c -0.04669,0.1515 -0.05454,0.3118 -0.09375,0.4687 l -1.46875,0.2813 c -0.393805,0.084 -0.712575,0.4427 -0.75,0.8437 -0.01999,0.2406 -0.09375,0.566 -0.09375,0.9375 0,0.3715 0.07376,0.6969 0.09375,0.9375 0.03739,0.401 0.356166,0.7596 0.75,0.8438 l 1.46875,0.2812 c 0.03921,0.1569 0.04706,0.3172 0.09375,0.4688 l -1.09375,1 c -0.314678,0.2667 -0.422099,0.7501 -0.25,1.125 0.263053,0.5598 0.579866,1.0817 0.9375,1.5937 0.230029,0.3443 0.700835,0.5058 1.09375,0.375 l 1.40625,-0.4687 c 0.100418,0.1053 0.207178,0.212 0.3125,0.3125 l -0.46875,1.4062 c -0.130776,0.3929 0.03065,0.8638 0.375,1.0938 0.511978,0.3576 1.033928,0.6744 1.59375,0.9375 0.37489,0.1721 0.858283,0.065 1.125,-0.25 l 1,-1.0938 c 0.151514,0.047 0.311874,0.054 0.46875,0.094 l 0.28125,1.4687 c 0.08416,0.3938 0.44278,0.7126 0.84375,0.75 0.240624,0.02 0.566025,0.094 0.9375,0.094 0.371482,0 0.69689,-0.074 0.9375,-0.094 0.40097,-0.037 0.759593,-0.3562 0.84375,-0.75 l 0.28125,-1.4687 c 0.156878,-0.039 0.317236,-0.047 0.46875,-0.094 l 1,1.0938 c 0.266717,0.3147 0.75011,0.4221 1.125,0.25 0.559823,-0.2631 1.081772,-0.5799 1.59375,-0.9375 0.344353,-0.23 0.505776,-0.7009 0.375,-1.0938 l -0.46875,-1.4062 c 0.105322,-0.1005 0.212083,-0.2072 0.3125,-0.3125 l 1.40625,0.4687 c 0.392915,0.1308 0.863721,-0.031 1.09375,-0.375 0.357633,-0.512 0.674447,-1.0339 0.9375,-1.5937 0.172099,-0.3749 0.06468,-0.8583 -0.25,-1.125 l -1.09375,-1 c 0.04669,-0.1516 0.05454,-0.3119 0.09375,-0.4688 l 1.46875,-0.2812 c 0.393834,-0.084 0.712615,-0.4428 0.75,-0.8438 0.01999,-0.2406 0.09375,-0.566 0.09375,-0.9375 0,-0.3715 -0.07376,-0.6969 -0.09375,-0.9375 -0.03742,-0.401 -0.356195,-0.7595 -0.75,-0.8437 l -1.46875,-0.2813 c -0.03921,-0.1569 -0.04706,-0.3172 -0.09375,-0.4687 l 1.09375,-1 c 0.314678,-0.2667 0.422099,-0.7501 0.25,-1.125 -0.263053,-0.5599 -0.579867,-1.0818 -0.9375,-1.5938 -0.230029,-0.3443 -0.700835,-0.5058 -1.09375,-0.375 l -1.40625,0.4688 c -0.100418,-0.1053 -0.207178,-0.212 -0.3125,-0.3125 l 0.46875,-1.4063 c 0.130728,-0.3929 -0.03069,-0.8637 -0.375,-1.0937 -0.511979,-0.3576 -1.033929,-0.6744 -1.59375,-0.9375 -0.37489,-0.1721 -0.858283,-0.065 -1.125,0.25 l -1,1.0937 c -0.151513,-0.047 -0.311873,-0.054 -0.46875,-0.094 l -0.28125,-1.4688 c -0.08416,-0.3938 -0.44278,-0.7126 -0.84375,-0.75 -0.240624,-0.02 -0.566025,-0.094 -0.9375,-0.094 z m 0,0.9687 c 0.282648,0 0.56704,0.039 0.84375,0.063 l 0.40625,2.0313 c 0.552144,0.087 1.08516,0.2442 1.59375,0.4375 l 1.40625,-1.5625 c 0.51637,0.2427 1.005232,0.5199 1.46875,0.8437 l -0.65625,1.9688 c 0.419561,0.3425 0.813825,0.7366 1.15625,1.1562 l 1.96875,-0.6562 c 0.323782,0.4636 0.601115,0.9523 0.84375,1.4687 l -1.5625,1.4063 c 0.193356,0.5085 0.350996,1.0416 0.4375,1.5937 l 2.03125,0.4063 c 0.02299,0.2767 0.0625,0.5611 0.0625,0.8437 0,0.2826 -0.03951,0.567 -0.0625,0.8438 l -2.03125,0.4062 c -0.0865,0.5521 -0.244144,1.0852 -0.4375,1.5938 l 1.5625,1.4062 c -0.242635,0.5164 -0.519968,1.0052 -0.84375,1.4688 l -1.96875,-0.6563 c -0.342425,0.4196 -0.736689,0.8138 -1.15625,1.1563 l 0.65625,1.9687 c -0.463518,0.3238 -0.95238,0.6011 -1.46875,0.8438 l -1.40625,-1.5625 c -0.50859,0.1933 -1.041606,0.3509 -1.59375,0.4375 l -0.40625,2.0312 c -0.27671,0.023 -0.561102,0.063 -0.84375,0.063 -0.282648,0 -0.56704,-0.039 -0.84375,-0.063 l -0.40625,-2.0312 c -0.552144,-0.087 -1.08516,-0.2442 -1.59375,-0.4375 l -1.40625,1.5625 c -0.516369,-0.2427 -1.005232,-0.52 -1.46875,-0.8438 l 0.65625,-1.9687 c -0.419561,-0.3425 -0.813825,-0.7367 -1.15625,-1.1563 l -1.96875,0.6563 c -0.323782,-0.4636 -0.601114,-0.9524 -0.84375,-1.4688 l 1.5625,-1.4062 c -0.193355,-0.5086 -0.350996,-1.0417 -0.4375,-1.5938 l -2.03125,-0.4062 c -0.02299,-0.2768 -0.0625,-0.5612 -0.0625,-0.8438 0,-0.2826 0.03951,-0.567 0.0625,-0.8437 l 2.03125,-0.4063 c 0.0865,-0.5521 0.244145,-1.0852 0.4375,-1.5937 l -1.5625,-1.4063 c 0.242636,-0.5164 0.519968,-1.0051 0.84375,-1.4687 l 1.96875,0.6562 c 0.342425,-0.4196 0.736689,-0.8137 1.15625,-1.1562 l -0.65625,-1.9688 c 0.463518,-0.3238 0.952381,-0.601 1.46875,-0.8437 l 1.40625,1.5625 c 0.50859,-0.1933 1.041606,-0.3509 1.59375,-0.4375 l 0.40625,-2.0313 c 0.27671,-0.023 0.561102,-0.063 0.84375,-0.063 z m 0,4 c -3.313712,0 -6,2.6863 -6,6 0,0.6662 0.112082,1.3076 0.3125,1.9063 -8e-5,0.01 -8e-5,0.021 0,0.031 -0.521972,0.8403 -0.291785,2.0632 0.5,2.6563 l 4,3 c 0.682059,0.5032 1.692941,0.5032 2.375,0 l 4,-3 c 0.78183,-0.602 0.997314,-1.8231 0.46875,-2.6563 8e-5,-0.01 8e-5,-0.021 0,-0.031 0.202412,-0.6014 0.34375,-1.2366 0.34375,-1.9063 0,-3.3137 -2.686287,-6 -6,-6 z m 0,0.9688 c 2.798538,0 5.03125,2.2327 5.03125,5.0312 0,0.4198 -0.0614,0.8301 -0.15625,1.2188 -0.270035,-0.138 -0.571793,-0.2135 -0.875,-0.2188 l 0,-3 c -1.05e-4,-1.0472 -0.952832,-1.9686 -2.000001,-1.9687 l -4,0 c -0.06245,0 -0.125046,0 -0.1875,0 -0.983167,0.093 -1.816758,1.0125 -1.8125,2 l 10e-7,2.9687 c -0.303207,0.01 -0.604965,0.081 -0.875,0.2188 -0.09485,-0.3887 -0.15625,-0.799 -0.15625,-1.2188 0,-2.7985 2.232712,-5.0312 5.03125,-5.0312 z m -2.1875,2.0625 c 0.03123,0 0.06252,0 0.09375,0 0.03123,0 0.06252,0 0.09375,0 l 4,0 c 0.507206,10e-5 0.999922,0.4928 0.999999,1 l 0,4 1,0 c 0.817073,-0.018 1.252877,1.2668 0.59375,1.75 l -4,3 c -0.336681,0.2611 -0.850819,0.2611 -1.1875,0 l -4,-3 c -0.659127,-0.4832 -0.223323,-1.7677 0.59375,-1.75 l 1,0 0.03125,-4.0313 c -0.0084,-0.4504 0.339292,-0.8816 0.781251,-0.9687 z"
           id="path3974"
           style="fill:#000000;fill-opacity:0.45714285;stroke:none" />
        <rect
           width="24"
           height="24"
           x="46.514717"
           y="1016.6949"
           id="rect3976"
           style="fill:none;stroke:none" />
        <path
           d="m 58.514719,1018.6636 c -0.282648,0 -0.56704,0.039 -0.84375,0.063 l -0.40625,2.0313 c -0.552144,0.087 -1.08516,0.2442 -1.59375,0.4375 l -1.40625,-1.5625 c -0.516369,0.2427 -1.005232,0.5199 -1.46875,0.8437 l 0.65625,1.9688 c -0.419561,0.3425 -0.813825,0.7366 -1.15625,1.1562 l -1.96875,-0.6562 c -0.323782,0.4636 -0.601114,0.9523 -0.84375,1.4687 l 1.5625,1.4063 c -0.193355,0.5085 -0.350996,1.0416 -0.4375,1.5937 l -2.03125,0.4063 c -0.02299,0.2767 -0.0625,0.5611 -0.0625,0.8437 0,0.2826 0.03951,0.567 0.0625,0.8438 l 2.03125,0.4062 c 0.0865,0.5521 0.244145,1.0852 0.4375,1.5938 l -1.5625,1.4062 c 0.242636,0.5164 0.519968,1.0052 0.84375,1.4688 l 1.96875,-0.6563 c 0.342425,0.4196 0.736689,0.8138 1.15625,1.1563 l -0.65625,1.9687 c 0.463518,0.3238 0.952381,0.6011 1.46875,0.8438 l 1.40625,-1.5625 c 0.50859,0.1933 1.041606,0.3509 1.59375,0.4375 l 0.40625,2.0312 c 0.27671,0.023 0.561102,0.063 0.84375,0.063 0.282648,0 0.56704,-0.039 0.84375,-0.063 l 0.40625,-2.0312 c 0.552144,-0.087 1.08516,-0.2442 1.59375,-0.4375 l 1.40625,1.5625 c 0.51637,-0.2427 1.005232,-0.52 1.46875,-0.8438 l -0.65625,-1.9687 c 0.419561,-0.3425 0.813825,-0.7367 1.15625,-1.1563 l 1.96875,0.6563 c 0.323782,-0.4636 0.601115,-0.9524 0.84375,-1.4688 l -1.5625,-1.4062 c 0.193356,-0.5086 0.350996,-1.0417 0.4375,-1.5938 l 2.03125,-0.4062 c 0.02299,-0.2768 0.0625,-0.5612 0.0625,-0.8438 0,-0.2826 -0.03951,-0.567 -0.0625,-0.8437 l -2.03125,-0.4063 c -0.0865,-0.5521 -0.244144,-1.0852 -0.4375,-1.5937 l 1.5625,-1.4063 c -0.242635,-0.5164 -0.519968,-1.0051 -0.84375,-1.4687 l -1.96875,0.6562 c -0.342425,-0.4196 -0.736689,-0.8137 -1.15625,-1.1562 l 0.65625,-1.9688 c -0.463518,-0.3238 -0.95238,-0.601 -1.46875,-0.8437 l -1.40625,1.5625 c -0.50859,-0.1933 -1.041606,-0.3509 -1.59375,-0.4375 l -0.40625,-2.0313 c -0.27671,-0.023 -0.561102,-0.063 -0.84375,-0.063 z m 0,4 c 3.313713,0 6,2.6863 6,6 0,0.6697 -0.141338,1.3049 -0.34375,1.9063 8e-5,0.01 8e-5,0.021 0,0.031 0.528564,0.8332 0.31308,2.0543 -0.46875,2.6563 l -4,3 c -0.682059,0.5032 -1.692941,0.5032 -2.375,0 l -4,-3 c -0.791785,-0.5931 -1.021972,-1.816 -0.5,-2.6563 -0.0032,-0.01 0.0031,-0.022 0,-0.031 -0.200418,-0.5987 -0.3125,-1.2401 -0.3125,-1.9063 0,-3.3137 2.686288,-6 6,-6 z m -2.1875,3.0313 c -0.441958,0.087 -0.789691,0.5183 -0.78125,0.9687 l -0.03125,4.0313 -0.999998,0 c -0.817073,-0.018 -1.252875,1.2668 -0.593748,1.75 l 4,3 c 0.336681,0.2611 0.850819,0.2611 1.1875,0 l 4,-3 c 0.659127,-0.4832 0.223323,-1.7677 -0.59375,-1.75 l -1.000001,0 0,-4 c -7.7e-5,-0.5072 -0.492793,-0.9999 -0.999999,-1 l -4,0 c -0.03123,0 -0.06252,0 -0.09375,0 -0.03123,0 -0.06252,0 -0.09375,0 z"
           id="path3982"
           style="fill:url(#linearGradient3980);fill-opacity:1;stroke:none" />
        <path
           d="m 67,10.5 a 0.5,0.5 0 1 1 -1,0 0.5,0.5 0 1 1 1,0 z"
           transform="matrix(3.3125114,0,0,3.3125114,-161.76728,993.91355)"
           id="path4102"
           style="fill:url(#radialGradient4131);fill-opacity:1;stroke:none" />
      </g>
    </g>
    <g
       id="g3983">
      <g
         id="g4061">
        <path
           d="m 93,1.03125 c -0.371475,0 -0.696876,0.07375 -0.9375,0.09375 a 0.95334842,0.95334842 0 0 0 -0.84375,0.75 L 90.9375,3.34375 c -0.156876,0.039 -0.317236,0.04675 -0.46875,0.09375 l -1,-1.09375 a 0.95334842,0.95334842 0 0 0 -1.125,-0.25 c -0.55982,0.263 -1.081771,0.5798 -1.59375,0.9375 A 0.95334842,0.95334842 0 0 0 86.375,4.125 l 0.46875,1.40625 c -0.105322,0.1004 -0.212082,0.2071 -0.3125,0.3125 L 85.125,5.375 A 0.95334842,0.95334842 0 0 0 84.03125,5.75 c -0.357634,0.512 -0.674447,1.03385 -0.9375,1.59375 a 0.95334842,0.95334842 0 0 0 0.25,1.125 l 1.09375,1 C 84.39081,9.62025 84.38296,9.7806 84.34375,9.9375 L 82.875,10.21875 a 0.95334842,0.95334842 0 0 0 -0.75,0.84375 c -0.01999,0.2406 -0.09375,0.566 -0.09375,0.9375 0,0.3715 0.07376,0.6969 0.09375,0.9375 a 0.95334842,0.95334842 0 0 0 0.75,0.84375 l 1.46875,0.28125 c 0.03921,0.1569 0.04706,0.31715 0.09375,0.46875 l -1.09375,1 a 0.95334842,0.95334842 0 0 0 -0.25,1.125 c 0.263053,0.5598 0.579866,1.08175 0.9375,1.59375 a 0.95334842,0.95334842 0 0 0 1.09375,0.375 l 1.40625,-0.46875 c 0.100418,0.1053 0.207178,0.212 0.3125,0.3125 L 86.375,19.875 a 0.95334842,0.95334842 0 0 0 0.375,1.09375 c 0.511979,0.3576 1.033929,0.6744 1.59375,0.9375 a 0.95334842,0.95334842 0 0 0 1.125,-0.25 l 1,-1.09375 c 0.151514,0.047 0.311874,0.05375 0.46875,0.09375 l 0.28125,1.46875 a 0.95334842,0.95334842 0 0 0 0.84375,0.75 c 0.240624,0.02 0.566025,0.09375 0.9375,0.09375 0.371482,0 0.69689,-0.07375 0.9375,-0.09375 a 0.95334842,0.95334842 0 0 0 0.84375,-0.75 l 0.28125,-1.46875 c 0.156878,-0.039 0.317236,-0.04675 0.46875,-0.09375 l 1,1.09375 a 0.95334842,0.95334842 0 0 0 1.125,0.25 c 0.559823,-0.2631 1.081772,-0.5799 1.59375,-0.9375 A 0.95334842,0.95334842 0 0 0 99.625,19.875 l -0.46875,-1.40625 c 0.105322,-0.1005 0.212083,-0.2072 0.3125,-0.3125 L 100.875,18.625 a 0.95334842,0.95334842 0 0 0 1.09375,-0.375 c 0.35763,-0.512 0.67445,-1.03395 0.9375,-1.59375 a 0.95334842,0.95334842 0 0 0 -0.25,-1.125 l -1.09375,-1 c 0.0467,-0.1516 0.0545,-0.31185 0.0937,-0.46875 l 1.46875,-0.28125 a 0.95334842,0.95334842 0 0 0 0.75,-0.84375 c 0.02,-0.2406 0.0937,-0.566 0.0937,-0.9375 0,-0.3715 -0.0738,-0.6969 -0.0937,-0.9375 a 0.95334842,0.95334842 0 0 0 -0.75,-0.84375 l -1.4687,-0.28125 c -0.0392,-0.1569 -0.0471,-0.31725 -0.0937,-0.46875 l 1.09375,-1 a 0.95334842,0.95334842 0 0 0 0.25,-1.125 C 102.6432,6.78385 102.32638,6.262 101.96875,5.75 A 0.95334842,0.95334842 0 0 0 100.875,5.375 l -1.40625,0.46875 c -0.100418,-0.1054 -0.207178,-0.2121 -0.3125,-0.3125 L 99.625,4.125 A 0.95334842,0.95334842 0 0 0 99.25,3.03125 c -0.511979,-0.3577 -1.033929,-0.6745 -1.59375,-0.9375 a 0.95334842,0.95334842 0 0 0 -1.125,0.25 l -1,1.09375 C 95.379737,3.3905 95.219377,3.38375 95.0625,3.34375 L 94.78125,1.875 A 0.95334842,0.95334842 0 0 0 93.9375,1.125 C 93.696876,1.105 93.371475,1.03125 93,1.03125 z M 93,2 c 0.282648,0 0.56704,0.0395 0.84375,0.0625 L 94.25,4.09375 c 0.552144,0.086 1.08516,0.2441 1.59375,0.4375 L 97.25,2.96875 c 0.51637,0.2426 1.005232,0.51995 1.46875,0.84375 L 98.0625,5.78125 c 0.419561,0.3424 0.813825,0.73665 1.15625,1.15625 l 1.96875,-0.65625 c 0.32378,0.4635 0.60111,0.95235 0.84375,1.46875 l -1.5625,1.40625 c 0.19336,0.5085 0.351,1.04165 0.4375,1.59375 l 2.03125,0.40625 C 102.96049,11.43295 103,11.7174 103,12 c 0,0.2826 -0.0395,0.56695 -0.0625,0.84375 L 100.90625,13.25 c -0.0865,0.5521 -0.24414,1.08515 -0.4375,1.59375 l 1.5625,1.40625 c -0.24264,0.5164 -0.51997,1.00515 -0.84375,1.46875 L 99.21875,17.0625 c -0.342425,0.4196 -0.736689,0.81375 -1.15625,1.15625 l 0.65625,1.96875 c -0.463518,0.3238 -0.95238,0.60105 -1.46875,0.84375 l -0.9375,-1.0625 C 97.259718,19.816363 98,18.98449 98,18 l 0,-2.6875 C 98.63182,14.362207 99,13.226706 99,12 99,8.6863 96.313713,6 93,6 c -3.313712,0 -6,2.6863 -6,6 0,1.226706 0.36818,2.362207 1,3.3125 L 88,18 c 0,0.98449 0.740282,1.816363 1.6875,1.96875 L 88.75,21.03125 C 88.233631,20.78855 87.744768,20.5113 87.28125,20.1875 L 87.9375,18.21875 C 87.517939,17.87625 87.123675,17.4821 86.78125,17.0625 L 84.8125,17.71875 C 84.488718,17.25515 84.211386,16.7664 83.96875,16.25 l 1.5625,-1.40625 C 85.337895,14.33515 85.180254,13.8021 85.09375,13.25 L 83.0625,12.84375 C 83.03951,12.56695 83,12.2826 83,12 c 0,-0.2826 0.03951,-0.56705 0.0625,-0.84375 L 85.09375,10.75 c 0.0865,-0.5521 0.244145,-1.08525 0.4375,-1.59375 L 83.96875,7.75 C 84.211386,7.2336 84.488718,6.74475 84.8125,6.28125 L 86.78125,6.9375 C 87.123675,6.5179 87.517939,6.12365 87.9375,5.78125 L 87.28125,3.8125 C 87.744768,3.4887 88.233631,3.21135 88.75,2.96875 l 1.40625,1.5625 c 0.50859,-0.1934 1.041606,-0.351 1.59375,-0.4375 L 92.15625,2.0625 C 92.43296,2.0395 92.717352,2 93,2 z m 0,4.96875 c 2.798538,0 5.03125,2.23275 5.03125,5.03125 0,0.454756 -0.07674,0.894773 -0.1875,1.3125 C 97.666421,12.953213 97.354504,12.665039 97,12.4375 L 97,12 c 0,-2.1959844 -1.804016,-3.9999999 -4,-4 -2.195984,-1e-7 -4,1.8040156 -4,4 l 0,0.4375 c -0.354504,0.227539 -0.666421,0.515713 -0.84375,0.875 C 88.045488,12.894773 87.96875,12.454756 87.96875,12 87.96875,9.2015 90.201463,6.96875 93,6.96875 z M 93,9 c 1.656872,10e-8 3,1.343128 3,3 l 0,1 c 0.553974,0 1,0.446026 1,1 l 0,4 c 0,0.553974 -0.446026,1 -1,1 l -6,0 c -0.553974,0 -1,-0.446026 -1,-1 l 0,-4 c 0,-0.553974 0.446026,-1 1,-1 l 0,-1 c 0,-1.656872 1.343128,-3.0000001 3,-3 z m 0,1 c -1.10457,-10e-8 -2,0.89543 -2,2 l 0,1 4,0 0,-1 c 0,-1.104569 -0.895431,-2 -2,-2 z m 0,1 c 0.565443,0 1,0.434557 1,1 l -2,0 c 0,-0.565445 0.434555,-1 1,-1 z m -1.21875,9 2.4375,0 -0.375,1.9375 C 93.56704,21.9605 93.282648,22 93,22 92.717352,22 92.43296,21.9615 92.15625,21.9375 L 91.78125,20 z"
           transform="translate(-8.4852817,1016.6949)"
           id="path4009"
           style="fill:#000000;fill-opacity:0.45714285;stroke:none" />
        <rect
           width="24"
           height="24"
           x="72.514717"
           y="1016.6949"
           id="rect4011"
           style="fill:none;stroke:none" />
        <path
           d="M 93,2 C 92.717352,2 92.43296,2.0395 92.15625,2.0625 L 91.75,4.09375 c -0.552144,0.086 -1.08516,0.2441 -1.59375,0.4375 L 88.75,2.96875 C 88.233631,3.21135 87.744768,3.4887 87.28125,3.8125 L 87.9375,5.78125 C 87.517939,6.12365 87.123675,6.5179 86.78125,6.9375 L 84.8125,6.28125 C 84.488718,6.74475 84.211386,7.2336 83.96875,7.75 l 1.5625,1.40625 C 85.337895,9.66475 85.180254,10.1979 85.09375,10.75 L 83.0625,11.15625 C 83.03951,11.43295 83,11.7174 83,12 c 0,0.2826 0.03951,0.56695 0.0625,0.84375 L 85.09375,13.25 c 0.0865,0.5521 0.244145,1.08515 0.4375,1.59375 L 83.96875,16.25 c 0.242636,0.5164 0.519968,1.00515 0.84375,1.46875 l 1.96875,-0.65625 c 0.342425,0.4196 0.736689,0.81375 1.15625,1.15625 l -0.65625,1.96875 c 0.463518,0.3238 0.952381,0.60105 1.46875,0.84375 l 0.9375,-1.0625 C 88.740282,19.816363 88,18.98449 88,18 l 0,-2.6875 C 87.36818,14.362207 87,13.226706 87,12 c 0,-3.3137 2.686288,-6 6,-6 3.313713,0 6,2.6863 6,6 0,1.226706 -0.36818,2.362207 -1,3.3125 L 98,18 c 0,0.98449 -0.740282,1.816363 -1.6875,1.96875 l 0.9375,1.0625 c 0.51637,-0.2427 1.005232,-0.51995 1.46875,-0.84375 L 98.0625,18.21875 c 0.419561,-0.3425 0.813825,-0.73665 1.15625,-1.15625 l 1.96875,0.65625 c 0.32378,-0.4636 0.60111,-0.95235 0.84375,-1.46875 l -1.5625,-1.40625 c 0.19336,-0.5086 0.351,-1.04165 0.4375,-1.59375 l 2.03125,-0.40625 C 102.96049,12.56695 103,12.2826 103,12 c 0,-0.2826 -0.0395,-0.56705 -0.0625,-0.84375 L 100.90625,10.75 c -0.0865,-0.5521 -0.24414,-1.08525 -0.4375,-1.59375 L 102.03125,7.75 C 101.78861,7.2336 101.51128,6.74475 101.1875,6.28125 L 99.21875,6.9375 C 98.876325,6.5179 98.482061,6.12365 98.0625,5.78125 L 98.71875,3.8125 C 98.255232,3.4887 97.76637,3.21135 97.25,2.96875 l -1.40625,1.5625 C 95.33516,4.33785 94.802144,4.18025 94.25,4.09375 L 93.84375,2.0625 C 93.56704,2.0395 93.282648,2 93,2 z m 0,7 c -1.656872,-10e-8 -3,1.343128 -3,3 l 0,1 c -0.553974,0 -1,0.446026 -1,1 l 0,4 c 0,0.553974 0.446026,1 1,1 l 6,0 c 0.553974,0 1,-0.446026 1,-1 l 0,-4 c 0,-0.553974 -0.446026,-1 -1,-1 l 0,-1 C 96,10.343128 94.656872,9.0000001 93,9 z m 0,1 c 1.104569,0 2,0.895431 2,2 l 0,1 -4,0 0,-1 c 0,-1.10457 0.89543,-2.0000001 2,-2 z m -1.21875,10 0.375,1.9375 C 92.43296,21.9605 92.717352,22 93,22 c 0.282648,0 0.56704,-0.0385 0.84375,-0.0625 l 0.375,-1.9375 -2.4375,0 z"
           transform="translate(-8.4852817,1016.6949)"
           id="path4013"
           style="fill:url(#linearGradient4042);fill-opacity:1;stroke:none" />
      </g>
    </g>
  </g>
  <g
     id="kpackagekit-important">
    <rect
       width="22.190735"
       height="20.796305"
       x="-192.59979"
       y="-979.6178"
       id="rect3930"
       style="fill:none;stroke:none" />
    <path
       d="m 18.587229,12.357385 a 8.3902435,8.3902435 0 1 1 -16.7804873,0 8.3902435,8.3902435 0 1 1 16.7804873,0 z"
       transform="matrix(0,-0.8343024,-0.8343019,0,-170.94021,-959.41363)"
       id="path8090"
       style="fill:none;stroke:#28ae95;stroke-width:2.15749168000000013;stroke-linecap:round;stroke-linejoin:round;stroke-miterlimit:4;stroke-opacity:1;stroke-dasharray:none;display:inline" />
    <path
       d="m -188.98172,-966.92114 -1.26828,0"
       id="path10051-1"
       style="fill:none;stroke:#28ae95;stroke-width:1.79999994999999990;stroke-linecap:round;stroke-linejoin:miter;stroke-miterlimit:4;stroke-opacity:1;stroke-dasharray:none;display:inline" />
    <path
       d="m -172.25,-966.92114 -1.26828,0"
       id="path8122"
       style="fill:none;stroke:#28ae95;stroke-width:1.79999994999999990;stroke-linecap:round;stroke-linejoin:miter;stroke-miterlimit:4;stroke-opacity:1;stroke-dasharray:none;display:inline" />
    <path
       d="M 15.941741,18.472445 A 8.3902435,8.3902435 0 0 1 4.6010584,18.608928"
       transform="matrix(-0.8157737,0,0,0.818838,-172.93239,-987.16953)"
       id="path8927"
       style="fill:none;stroke:#28ae95;stroke-width:2.20236182000000014;stroke-linecap:round;stroke-linejoin:round;stroke-miterlimit:4;stroke-opacity:1;stroke-dasharray:none;display:inline" />
    <path
       d="m -181.25,-961.91234 0,-7.2682"
       id="path8930"
       style="fill:none;stroke:#28ae95;stroke-width:1.79999994999999990;stroke-linecap:round;stroke-linejoin:miter;stroke-miterlimit:4;stroke-opacity:1;stroke-dasharray:none;display:inline" />
    <path
       d="m -186.19587,-962.93024 -1.84836,1.5091"
       id="path8933"
       style="fill:none;stroke:#28ae95;stroke-width:1.79999994999999990;stroke-linecap:round;stroke-linejoin:miter;stroke-miterlimit:4;stroke-opacity:1;stroke-dasharray:none;display:inline" />
    <path
       d="m -176.2416,-962.93034 1.78583,1.5092"
       id="path8937"
       style="fill:none;stroke:#28ae95;stroke-width:1.79999994999999990;stroke-linecap:round;stroke-linejoin:miter;stroke-miterlimit:4;stroke-opacity:1;stroke-dasharray:none;display:inline" />
    <path
       d="m 18.587229,12.357385 a 8.3902435,8.3902435 0 0 1 -3.850915,7.056251"
       transform="matrix(-0.4593844,0,0,0.4612807,-177.71132,-983.62133)"
       id="path8944"
       style="fill:none;stroke:#28ae95;stroke-width:3.91022491000000016;stroke-linecap:round;stroke-linejoin:round;stroke-miterlimit:4;stroke-opacity:1;stroke-dasharray:none;display:inline" />
    <path
       d="m 18.587229,12.357385 a 8.3902435,8.3902435 0 0 1 -3.850915,7.056251"
       transform="matrix(0.4593844,0,0,0.4612807,-184.78868,-983.62133)"
       id="path8946"
       style="fill:none;stroke:#28ae95;stroke-width:3.91022491000000016;stroke-linecap:round;stroke-linejoin:round;stroke-miterlimit:4;stroke-opacity:1;stroke-dasharray:none;display:inline" />
    <path
       d="m -187.94587,-971.42124 -1.09836,-0.6341"
       id="path8948"
       style="fill:none;stroke:#28ae95;stroke-width:1.79999994999999990;stroke-linecap:round;stroke-linejoin:miter;stroke-miterlimit:4;stroke-opacity:1;stroke-dasharray:none;display:inline" />
    <path
       d="m -174.5541,-971.42114 1.09833,-0.6342"
       id="path8950"
       style="fill:none;stroke:#28ae95;stroke-width:1.79999994999999990;stroke-linecap:round;stroke-linejoin:miter;stroke-miterlimit:4;stroke-opacity:1;stroke-dasharray:none;display:inline" />
  </g>
  <g
     id="kpackagekit-security">
    <path
       d="m -42.12943,-1034.0297 1.09833,-0.6342"
       id="path8950-0"
       style="fill:none;stroke:#ae2841;stroke-width:1.79999994999999990;stroke-linecap:round;stroke-linejoin:miter;stroke-miterlimit:4;stroke-opacity:1;stroke-dasharray:none;display:inline" />
    <path
       d="m -55.5212,-1034.0298 -1.09836,-0.6341"
       id="path8948-3"
       style="fill:none;stroke:#ae2841;stroke-width:1.79999994999999990;stroke-linecap:round;stroke-linejoin:miter;stroke-miterlimit:4;stroke-opacity:1;stroke-dasharray:none;display:inline" />
    <path
       d="m 18.587229,12.357385 a 8.3902435,8.3902435 0 0 1 -3.850915,7.056251"
       transform="matrix(0.4593844,0,0,0.4612807,-52.36401,-1046.2299)"
       id="path8946-5"
       style="fill:none;stroke:#ae2841;stroke-width:3.91022491000000016;stroke-linecap:round;stroke-linejoin:round;stroke-miterlimit:4;stroke-opacity:1;stroke-dasharray:none;display:inline" />
    <path
       d="m 18.587229,12.357385 a 8.3902435,8.3902435 0 0 1 -3.850915,7.056251"
       transform="matrix(-0.4593844,0,0,0.4612807,-45.28665,-1046.2299)"
       id="path8944-1"
       style="fill:none;stroke:#ae2841;stroke-width:3.91022491000000016;stroke-linecap:round;stroke-linejoin:round;stroke-miterlimit:4;stroke-opacity:1;stroke-dasharray:none;display:inline" />
    <path
       d="m -43.81693,-1025.5389 1.78583,1.5092"
       id="path8937-5"
       style="fill:none;stroke:#ae2841;stroke-width:1.79999994999999990;stroke-linecap:round;stroke-linejoin:miter;stroke-miterlimit:4;stroke-opacity:1;stroke-dasharray:none;display:inline" />
    <path
       d="m -53.7712,-1025.5388 -1.84836,1.5091"
       id="path8933-4"
       style="fill:none;stroke:#ae2841;stroke-width:1.79999994999999990;stroke-linecap:round;stroke-linejoin:miter;stroke-miterlimit:4;stroke-opacity:1;stroke-dasharray:none;display:inline" />
    <path
       d="m -48.82533,-1024.5209 0,-7.2682"
       id="path8930-2"
       style="fill:none;stroke:#ae2841;stroke-width:1.79999994999999990;stroke-linecap:round;stroke-linejoin:miter;stroke-miterlimit:4;stroke-opacity:1;stroke-dasharray:none;display:inline" />
    <path
       d="M 15.941741,18.472445 A 8.3902435,8.3902435 0 0 1 4.6010584,18.608928"
       transform="matrix(-0.8157737,0,0,0.818838,-40.50772,-1049.7781)"
       id="path8927-4"
       style="fill:none;stroke:#ae2841;stroke-width:2.20236182000000014;stroke-linecap:round;stroke-linejoin:round;stroke-miterlimit:4;stroke-opacity:1;stroke-dasharray:none;display:inline" />
    <path
       d="m -39.82533,-1029.5297 -1.26828,0"
       id="path8122-6"
       style="fill:none;stroke:#ae2841;stroke-width:1.79999994999999990;stroke-linecap:round;stroke-linejoin:miter;stroke-miterlimit:4;stroke-opacity:1;stroke-dasharray:none;display:inline" />
    <path
       d="m -56.55705,-1029.5297 -1.26828,0"
       id="path10051-1-1"
       style="fill:none;stroke:#ae2841;stroke-width:1.79999994999999990;stroke-linecap:round;stroke-linejoin:miter;stroke-miterlimit:4;stroke-opacity:1;stroke-dasharray:none;display:inline" />
    <path
       d="m 18.587229,12.357385 a 8.3902435,8.3902435 0 1 1 -16.7804873,0 8.3902435,8.3902435 0 1 1 16.7804873,0 z"
       transform="matrix(0,-0.8343024,-0.8343019,0,-38.51554,-1022.0222)"
       id="path8090-9"
       style="fill:none;stroke:#ae2841;stroke-width:2.15749168000000013;stroke-linecap:round;stroke-linejoin:round;stroke-miterlimit:4;stroke-opacity:1;stroke-dasharray:none;display:inline" />
    <rect
       width="22.190735"
       height="20.796305"
       x="-60.175121"
       y="-1042.2263"
       id="rect3930-4"
       style="fill:none;stroke:none" />
  </g>
  <g
     id="kpackagekit-updates">
    <rect
       width="22.190735"
       height="20.796305"
       x="-45.513973"
       y="-938.9563"
       id="rect3930-7"
       style="fill:none;stroke:none" />
    <path
       d="m 18.587229,12.357385 a 8.3902435,8.3902435 0 1 1 -16.7804873,0 8.3902435,8.3902435 0 1 1 16.7804873,0 z"
       transform="matrix(0,-0.8343024,-0.8343019,0,-23.85439,-918.75212)"
       id="path8090-8"
       style="fill:none;stroke:#1c2122;stroke-width:2.15749168000000013;stroke-linecap:round;stroke-linejoin:round;stroke-miterlimit:4;stroke-opacity:1;stroke-dasharray:none;display:inline" />
    <path
       d="m -41.8959,-926.25963 -1.26828,0"
       id="path10051-1-9"
       style="fill:none;stroke:#1c2122;stroke-width:1.79999994999999990;stroke-linecap:round;stroke-linejoin:miter;stroke-miterlimit:4;stroke-opacity:1;stroke-dasharray:none;display:inline" />
    <path
       d="m -25.16418,-926.25963 -1.26828,0"
       id="path8122-2"
       style="fill:none;stroke:#1c2122;stroke-width:1.79999994999999990;stroke-linecap:round;stroke-linejoin:miter;stroke-miterlimit:4;stroke-opacity:1;stroke-dasharray:none;display:inline" />
    <path
       d="M 15.941741,18.472445 A 8.3902435,8.3902435 0 0 1 4.6010584,18.608928"
       transform="matrix(-0.8157737,0,0,0.818838,-25.84657,-946.50802)"
       id="path8927-9"
       style="fill:none;stroke:#1c2122;stroke-width:2.20236182000000014;stroke-linecap:round;stroke-linejoin:round;stroke-miterlimit:4;stroke-opacity:1;stroke-dasharray:none;display:inline" />
    <path
       d="m -34.16418,-921.25083 0,-7.2682"
       id="path8930-3"
       style="fill:none;stroke:#1c2122;stroke-width:1.79999994999999990;stroke-linecap:round;stroke-linejoin:miter;stroke-miterlimit:4;stroke-opacity:1;stroke-dasharray:none;display:inline" />
    <path
       d="m -39.11005,-922.26873 -1.84836,1.5091"
       id="path8933-1"
       style="fill:none;stroke:#1c2122;stroke-width:1.79999994999999990;stroke-linecap:round;stroke-linejoin:miter;stroke-miterlimit:4;stroke-opacity:1;stroke-dasharray:none;display:inline" />
    <path
       d="m -29.15578,-922.26883 1.78583,1.5092"
       id="path8937-9"
       style="fill:none;stroke:#1c2122;stroke-width:1.79999994999999990;stroke-linecap:round;stroke-linejoin:miter;stroke-miterlimit:4;stroke-opacity:1;stroke-dasharray:none;display:inline" />
    <path
       d="m 18.587229,12.357385 a 8.3902435,8.3902435 0 0 1 -3.850915,7.056251"
       transform="matrix(-0.4593844,0,0,0.4612807,-30.6255,-942.95982)"
       id="path8944-7"
       style="fill:none;stroke:#1c2122;stroke-width:3.91022491000000016;stroke-linecap:round;stroke-linejoin:round;stroke-miterlimit:4;stroke-opacity:1;stroke-dasharray:none;display:inline" />
    <path
       d="m 18.587229,12.357385 a 8.3902435,8.3902435 0 0 1 -3.850915,7.056251"
       transform="matrix(0.4593844,0,0,0.4612807,-37.70286,-942.95982)"
       id="path8946-8"
       style="fill:none;stroke:#1c2122;stroke-width:3.91022491000000016;stroke-linecap:round;stroke-linejoin:round;stroke-miterlimit:4;stroke-opacity:1;stroke-dasharray:none;display:inline" />
    <path
       d="m -40.86005,-930.75973 -1.09836,-0.6341"
       id="path8948-6"
       style="fill:none;stroke:#1c2122;stroke-width:1.79999994999999990;stroke-linecap:round;stroke-linejoin:miter;stroke-miterlimit:4;stroke-opacity:1;stroke-dasharray:none;display:inline" />
    <path
       d="m -27.46828,-930.75963 1.09833,-0.6342"
       id="path8950-3"
       style="fill:none;stroke:#1c2122;stroke-width:1.79999994999999990;stroke-linecap:round;stroke-linejoin:miter;stroke-miterlimit:4;stroke-opacity:1;stroke-dasharray:none;display:inline" />
  </g>
</svg>
