<?xml version="1.0" encoding="UTF-8" standalone="no"?>
<!-- Created with Inkscape (http://www.inkscape.org/) -->

<svg
   xmlns:dc="http://purl.org/dc/elements/1.1/"
   xmlns:cc="http://creativecommons.org/ns#"
   xmlns:rdf="http://www.w3.org/1999/02/22-rdf-syntax-ns#"
   xmlns:svg="http://www.w3.org/2000/svg"
   xmlns="http://www.w3.org/2000/svg"
   xmlns:xlink="http://www.w3.org/1999/xlink"
   xmlns:sodipodi="http://sodipodi.sourceforge.net/DTD/sodipodi-0.dtd"
   xmlns:inkscape="http://www.inkscape.org/namespaces/inkscape"
   version="1.0"
   width="200"
   height="100"
   id="svg7229"
   inkscape:version="0.48.5 r10040"
   sodipodi:docname="list.svg">
  <sodipodi:namedview
     pagecolor="#ffffff"
     bordercolor="#666666"
     borderopacity="1"
     objecttolerance="10"
     gridtolerance="10"
     guidetolerance="10"
     inkscape:pageopacity="0"
     inkscape:pageshadow="2"
     inkscape:window-width="1280"
     inkscape:window-height="750"
     id="namedview33"
     showgrid="false"
     inkscape:zoom="3.18"
     inkscape:cx="47.484277"
     inkscape:cy="50"
     inkscape:window-x="0"
     inkscape:window-y="-3"
     inkscape:window-maximized="1"
     inkscape:current-layer="svg7229" />
  <defs
     id="defs7231">
    <linearGradient
       id="linearGradient4158">
      <stop
         id="stop4160"
         style="stop-color:#1c2122;stop-opacity:1;"
         offset="0" />
      <stop
         id="stop4162"
         style="stop-color:#1c2122;stop-opacity:1;"
         offset="1" />
    </linearGradient>
    <linearGradient
       x1="143"
       y1="85"
       x2="143"
       y2="71"
       id="linearGradient3795"
       xlink:href="#linearGradient4158"
       gradientUnits="userSpaceOnUse" />
    <linearGradient
       x1="374.53571"
       y1="405.50504"
       x2="374.53571"
       y2="403.50504"
       id="linearGradient3832"
       xlink:href="#linearGradient4158"
       gradientUnits="userSpaceOnUse" />
    <linearGradient
       x1="143"
       y1="85"
       x2="143"
       y2="71"
       id="linearGradient3135"
       xlink:href="#linearGradient4158"
       gradientUnits="userSpaceOnUse" />
    <linearGradient
       x1="374.53571"
       y1="405.50504"
       x2="374.53571"
       y2="403.50504"
       id="linearGradient3137"
       xlink:href="#linearGradient4158"
       gradientUnits="userSpaceOnUse" />
    <linearGradient
       x1="143"
       y1="85"
       x2="143"
       y2="71"
       id="linearGradient3159"
       xlink:href="#linearGradient4158"
       gradientUnits="userSpaceOnUse" />
    <linearGradient
       x1="374.53571"
       y1="405.50504"
       x2="374.53571"
       y2="403.50504"
       id="linearGradient3161"
       xlink:href="#linearGradient4158"
       gradientUnits="userSpaceOnUse" />
  </defs>
  <metadata
     id="metadata7234">
    <rdf:RDF>
      <cc:Work
         rdf:about="">
        <dc:format>image/svg+xml</dc:format>
        <dc:type
           rdf:resource="http://purl.org/dc/dcmitype/StillImage" />
        <dc:title />
      </cc:Work>
    </rdf:RDF>
  </metadata>
  <g
     transform="translate(-214.53572,-326.50504)"
     id="layer1">
    <g
       transform="translate(-130,-66)"
       id="16-16-list-add">
      <rect
         width="16"
         height="16"
         x="350.53571"
         y="397.50504"
         id="rect3816"
         style="fill:#ffffff;fill-opacity:0;fill-rule:nonzero;stroke:none" />
      <path
         d="m 143,73 0,5 -5,0 0,2 5,0 0,5 2,0 0,-5 5,0 0,-2 -5,0 0,-5 -2,0 z"
         transform="translate(214.53572,326.50504)"
         id="rect3778"
         style="fill:url(#linearGradient3795);fill-opacity:1;fill-rule:nonzero;stroke:none" />
    </g>
    <g
       transform="translate(-129.99999,-64.999995)"
       id="16-16-list-remove">
      <rect
         width="16"
         height="16"
         x="368.53571"
         y="396.50504"
         id="rect3818"
         style="fill:#ffffff;fill-opacity:0;fill-rule:nonzero;stroke:none" />
      <rect
         width="12"
         height="2"
         ry="4.5996094e-06"
         x="370.53571"
         y="403.50504"
         id="rect3787"
         style="fill:url(#linearGradient3832);fill-opacity:1;fill-rule:nonzero;stroke:none" />
    </g>
    <g
       transform="matrix(1.9999994,0,0,1.9999994,-481.53548,-430.50478)"
       id="list-add">
      <rect
         width="16"
         height="16"
         x="350.53571"
         y="397.50504"
         id="rect3117"
         style="fill:#ffffff;fill-opacity:0;fill-rule:nonzero;stroke:none" />
      <path
         d="m 143,73 0,5 -5,0 0,2 5,0 0,5 2,0 0,-5 5,0 0,-2 -5,0 0,-5 -2,0 z"
         transform="translate(214.53572,326.50504)"
         id="path3119"
         style="fill:url(#linearGradient3135);fill-opacity:1;fill-rule:nonzero;stroke:none" />
    </g>
    <g
       transform="matrix(1.9999994,0,0,1.9999994,-480.53548,-428.50478)"
       id="list-remove">
      <rect
         width="16"
         height="16"
         x="368.53571"
         y="396.50504"
         id="rect3127"
         style="fill:#ffffff;fill-opacity:0;fill-rule:nonzero;stroke:none" />
      <rect
         width="12"
         height="2"
         ry="4.5996094e-06"
         x="370.53571"
         y="403.50504"
         id="rect3129"
         style="fill:url(#linearGradient3137);fill-opacity:1;fill-rule:nonzero;stroke:none" />
    </g>
    <g
       transform="matrix(1.375,0,0,1.375,-207.45088,-211.06439)"
       id="22-22-list-add">
      <rect
         width="16"
         height="16"
         x="350.53571"
         y="398.2323"
         id="rect3141"
         style="fill:#ffffff;fill-opacity:0;fill-rule:nonzero;stroke:none" />
      <path
         d="m 142.54544,73.909091 0,4.363636 -4.36363,0 0,2.181818 4.36363,0 0,4.363637 2.18182,0 0,-4.363637 4.36364,0 0,-2.181818 -4.36364,0 0,-4.363636 z"
         transform="translate(214.53572,326.50504)"
         id="path3143"
         style="fill:url(#linearGradient3159);fill-opacity:1;fill-rule:nonzero;stroke:none" />
    </g>
    <g
       transform="matrix(1.375,0,0,1.375,-205.20088,-209.68938)"
       id="22-22-list-remove">
      <rect
         width="16"
         height="16"
         x="368.53571"
         y="396.50504"
         id="rect3151"
         style="fill:#ffffff;fill-opacity:0;fill-rule:nonzero;stroke:none" />
      <rect
         width="10.909089"
         height="2.1818073"
         ry="0"
         x="370.71753"
         y="403.77777"
         id="rect3153"
         style="fill:url(#linearGradient3161);fill-opacity:1;fill-rule:nonzero;stroke:none" />
    </g>
  </g>
</svg>
