<?xml version="1.0" encoding="UTF-8" standalone="no"?>
<!-- Created with Inkscape (http://www.inkscape.org/) -->

<svg
   xmlns:dc="http://purl.org/dc/elements/1.1/"
   xmlns:cc="http://creativecommons.org/ns#"
   xmlns:rdf="http://www.w3.org/1999/02/22-rdf-syntax-ns#"
   xmlns:svg="http://www.w3.org/2000/svg"
   xmlns="http://www.w3.org/2000/svg"
   xmlns:xlink="http://www.w3.org/1999/xlink"
   xmlns:sodipodi="http://sodipodi.sourceforge.net/DTD/sodipodi-0.dtd"
   xmlns:inkscape="http://www.inkscape.org/namespaces/inkscape"
   version="1.0"
   width="200"
   height="100"
   id="svg7229"
   inkscape:version="0.48.5 r10040"
   sodipodi:docname="media.svg">
  <sodipodi:namedview
     pagecolor="#ffffff"
     bordercolor="#666666"
     borderopacity="1"
     objecttolerance="10"
     gridtolerance="10"
     guidetolerance="10"
     inkscape:pageopacity="0"
     inkscape:pageshadow="2"
     inkscape:window-width="1280"
     inkscape:window-height="750"
     id="namedview121"
     showgrid="false"
     inkscape:zoom="1.705"
     inkscape:cx="2.0527859"
     inkscape:cy="50"
     inkscape:window-x="0"
     inkscape:window-y="-3"
     inkscape:window-maximized="1"
     inkscape:current-layer="svg7229" />
  <defs
     id="defs7231">
    <linearGradient
       id="linearGradient4158">
      <stop
         id="stop4160"
         style="stop-color:#1c2122;stop-opacity:1;"
         offset="0" />
      <stop
         id="stop4162"
         style="stop-color:#1c2122;stop-opacity:1;"
         offset="1" />
    </linearGradient>
    <radialGradient
       cx="53.1978"
       cy="59.186501"
       r="40.0294"
       id="radialGradient3163-0"
       gradientUnits="userSpaceOnUse"
       gradientTransform="matrix(0.6667,0,0,0.7574,20.7214,14.064)">
      <stop
         id="stop3165-44"
         style="stop-color:#ff1616;stop-opacity:1"
         offset="0" />
      <stop
         id="stop4680"
         style="stop-color:#ed0003;stop-opacity:1"
         offset="0.51351351" />
      <stop
         id="stop3175-4"
         style="stop-color:#8b0004;stop-opacity:1"
         offset="1" />
    </radialGradient>
    <linearGradient
       x1="42"
       y1="90"
       x2="42"
       y2="26"
       id="linearGradient4601"
       xlink:href="#linearGradient4158"
       gradientUnits="userSpaceOnUse" />
    <linearGradient
       x1="26"
       y1="12"
       x2="26"
       y2="6"
       id="linearGradient4629"
       xlink:href="#linearGradient4158"
       gradientUnits="userSpaceOnUse" />
    <linearGradient
       x1="261.53571"
       y1="338.50504"
       x2="261.53571"
       y2="332.50504"
       id="linearGradient4656"
       xlink:href="#linearGradient4158"
       gradientUnits="userSpaceOnUse" />
    <radialGradient
       cx="63.750015"
       cy="71.958366"
       r="24.25"
       fx="63.750015"
       fy="71.958366"
       id="radialGradient4678"
       xlink:href="#radialGradient3163-0"
       gradientUnits="userSpaceOnUse"
       gradientTransform="matrix(1.0000001,-2.9188596e-7,2.9339838e-7,0.99484547,-2.4146698e-5,0.32926838)"
       spreadMethod="pad" />
    <linearGradient
       x1="87"
       y1="13"
       x2="87"
       y2="5"
       id="linearGradient4996"
       xlink:href="#linearGradient4158"
       gradientUnits="userSpaceOnUse" />
    <linearGradient
       x1="107"
       y1="13"
       x2="107"
       y2="5"
       id="linearGradient5004"
       xlink:href="#linearGradient4158"
       gradientUnits="userSpaceOnUse" />
    <linearGradient
       x1="127.8889"
       y1="13"
       x2="127.8889"
       y2="5"
       id="linearGradient5012"
       xlink:href="#linearGradient4158"
       gradientUnits="userSpaceOnUse"
       gradientTransform="matrix(1.2857142,0,0,1.25,179.10714,324.25504)" />
    <linearGradient
       x1="148.11111"
       y1="13"
       x2="148.11111"
       y2="5"
       id="linearGradient5020"
       xlink:href="#linearGradient4158"
       gradientUnits="userSpaceOnUse"
       gradientTransform="matrix(1.2857139,0,0,1.25,171.1072,324.25504)" />
    <linearGradient
       x1="168"
       y1="12"
       x2="168"
       y2="5"
       id="linearGradient5028"
       xlink:href="#linearGradient4158"
       gradientUnits="userSpaceOnUse"
       gradientTransform="matrix(1.25,0,0,1.2857142,172.53572,324.07646)" />
    <linearGradient
       x1="42"
       y1="90"
       x2="42"
       y2="26"
       id="linearGradient5215"
       xlink:href="#linearGradient4158"
       gradientUnits="userSpaceOnUse" />
    <linearGradient
       x1="26"
       y1="12"
       x2="26"
       y2="6"
       id="linearGradient5217"
       xlink:href="#linearGradient4158"
       gradientUnits="userSpaceOnUse" />
    <linearGradient
       x1="261.53571"
       y1="338.50504"
       x2="261.53571"
       y2="332.50504"
       id="linearGradient5219"
       xlink:href="#linearGradient4158"
       gradientUnits="userSpaceOnUse" />
    <radialGradient
       cx="63.750015"
       cy="71.958366"
       r="24.25"
       fx="63.750015"
       fy="71.958366"
       id="radialGradient5221"
       xlink:href="#radialGradient3163-0"
       gradientUnits="userSpaceOnUse"
       gradientTransform="matrix(1.0000001,-2.9188596e-7,2.9339838e-7,0.99484547,-2.4146696e-5,0.32926838)"
       spreadMethod="pad" />
    <linearGradient
       x1="87"
       y1="13"
       x2="87"
       y2="5"
       id="linearGradient5223"
       xlink:href="#linearGradient4158"
       gradientUnits="userSpaceOnUse"
       gradientTransform="translate(214.53572,326.56754)" />
    <linearGradient
       x1="107"
       y1="13"
       x2="107"
       y2="5"
       id="linearGradient5225"
       xlink:href="#linearGradient4158"
       gradientUnits="userSpaceOnUse" />
    <linearGradient
       x1="128"
       y1="13"
       x2="128"
       y2="5"
       id="linearGradient5227"
       xlink:href="#linearGradient4158"
       gradientUnits="userSpaceOnUse" />
    <linearGradient
       x1="148"
       y1="13"
       x2="148"
       y2="5"
       id="linearGradient5229"
       xlink:href="#linearGradient4158"
       gradientUnits="userSpaceOnUse" />
    <linearGradient
       x1="168"
       y1="12"
       x2="168"
       y2="5"
       id="linearGradient5231"
       xlink:href="#linearGradient4158"
       gradientUnits="userSpaceOnUse" />
    <linearGradient
       x1="42"
       y1="90"
       x2="42"
       y2="26"
       id="linearGradient4102"
       xlink:href="#linearGradient4158"
       gradientUnits="userSpaceOnUse" />
    <linearGradient
       x1="25.96875"
       y1="12.093752"
       x2="25.96875"
       y2="5.9062514"
       id="linearGradient4104"
       xlink:href="#linearGradient4158"
       gradientUnits="userSpaceOnUse" />
    <linearGradient
       x1="261.53571"
       y1="338.50504"
       x2="261.50446"
       y2="332.48355"
       id="linearGradient4106"
       xlink:href="#linearGradient4158"
       gradientUnits="userSpaceOnUse" />
    <linearGradient
       x1="87"
       y1="13"
       x2="87"
       y2="5"
       id="linearGradient4108"
       xlink:href="#linearGradient4158"
       gradientUnits="userSpaceOnUse"
       gradientTransform="translate(214.53572,326.56754)" />
    <linearGradient
       x1="107"
       y1="13"
       x2="107"
       y2="5"
       id="linearGradient4110"
       xlink:href="#linearGradient4158"
       gradientUnits="userSpaceOnUse" />
    <linearGradient
       x1="128.12494"
       y1="12.781252"
       x2="128.12494"
       y2="4.8750014"
       id="linearGradient4112"
       xlink:href="#linearGradient4158"
       gradientUnits="userSpaceOnUse" />
    <linearGradient
       x1="148"
       y1="13.125002"
       x2="148"
       y2="4.8750014"
       id="linearGradient4114"
       xlink:href="#linearGradient4158"
       gradientUnits="userSpaceOnUse" />
    <linearGradient
       x1="168"
       y1="12"
       x2="168"
       y2="5.2187514"
       id="linearGradient4116"
       xlink:href="#linearGradient4158"
       gradientUnits="userSpaceOnUse" />
    <radialGradient
       cx="63.750015"
       cy="71.958366"
       r="24.25"
       fx="63.750015"
       fy="71.958366"
       id="radialGradient4118"
       xlink:href="#radialGradient3163-0"
       gradientUnits="userSpaceOnUse"
       gradientTransform="matrix(1.0000001,-2.9188596e-7,2.9339838e-7,0.99484547,-2.4146697e-5,0.32926838)"
       spreadMethod="pad" />
  </defs>
  <metadata
     id="metadata7234">
    <rdf:RDF>
      <cc:Work
         rdf:about="">
        <dc:format>image/svg+xml</dc:format>
        <dc:type
           rdf:resource="http://purl.org/dc/dcmitype/StillImage" />
        <dc:title />
      </cc:Work>
    </rdf:RDF>
  </metadata>
  <g
     transform="translate(-214.53572,-326.50504)"
     id="layer1">
    <g
       transform="translate(-1,-31)"
       id="16-16-media-playback-start">
      <circle
         cx="58"
         cy="58"
         r="58"
         transform="matrix(0.13793104,0,0,0.13793104,217.53572,358.50504)"
         id="circle19"
         style="opacity:0;fill:#ffffff;fill-opacity:0.78431373"
         d="M 116,58 C 116,90.032515 90.032515,116 58,116 25.967485,116 0,90.032515 0,58 0,25.967485 25.967485,0 58,0 c 32.032515,0 58,25.967485 58,58 z" />
      <polygon
         points="42,26 90,58 42,90 42,26 "
         transform="matrix(0.16666667,0,0,0.15625,214.53572,357.44254)"
         id="polygon53"
         style="fill:url(#linearGradient4601);fill-opacity:1" />
    </g>
    <g
       id="16-16-media-playback-pause">
      <circle
         cx="58"
         cy="58"
         r="58"
         transform="matrix(0.13793104,0,0,0.13793104,233.53572,327.50504)"
         id="circle19-2"
         style="opacity:0;fill:#000000;fill-opacity:1"
         d="M 116,58 C 116,90.032515 90.032515,116 58,116 25.967485,116 0,90.032515 0,58 0,25.967485 25.967485,0 58,0 c 32.032515,0 58,25.967485 58,58 z" />
      <path
         d="M 24,4.9375 24,13 l 2,0 0,-8 z m 4,0 0,8.0625 2,0 0,-8 z"
         transform="translate(214.53572,326.50504)"
         id="path2618-0"
         style="fill:url(#linearGradient4629);fill-opacity:1" />
    </g>
    <g
       id="16-16-media-playback-stop">
      <circle
         cx="58"
         cy="58"
         r="58"
         transform="matrix(0.13793104,0,0,0.13793104,254.53572,327.50504)"
         id="circle19-9"
         style="opacity:0;fill:#000000;fill-opacity:1"
         d="M 116,58 C 116,90.032515 90.032515,116 58,116 25.967485,116 0,90.032515 0,58 0,25.967485 25.967485,0 58,0 c 32.032515,0 58,25.967485 58,58 z" />
      <path
         d="m 258.4936,331.45144 8.04212,0.0536 0,8 -8,0 -0.0422,-8.05384 z"
         id="path2618"
         style="fill:url(#linearGradient4656);fill-opacity:1" />
    </g>
    <g
       id="16-16-media-skip-backward">
      <circle
         cx="58"
         cy="58"
         r="58"
         transform="matrix(0.13793104,0,0,0.13793104,294.53572,327.45645)"
         id="circle19-29"
         style="fill:#ffffff;fill-opacity:0"
         d="M 116,58 C 116,90.032515 90.032515,116 58,116 25.967485,116 0,90.032515 0,58 0,25.967485 25.967485,0 58,0 c 32.032515,0 58,25.967485 58,58 z" />
      <path
         d="m 94,4 -8,5 8,5 z m -8,5 0,-4 -2,0 0,8 2,0 z"
         transform="translate(214.53572,326.50504)"
         id="polygon53-17"
         style="fill:url(#linearGradient4996);fill-opacity:1" />
    </g>
    <g
       id="16-16-media-skip-forward">
      <circle
         cx="58"
         cy="58"
         r="58"
         transform="matrix(0.13793104,0,0,0.13793104,314.53572,327.50504)"
         id="circle19-1"
         style="opacity:0;fill:#ffffff;fill-opacity:1"
         d="M 116,58 C 116,90.032515 90.032515,116 58,116 25.967485,116 0,90.032515 0,58 0,25.967485 25.967485,0 58,0 c 32.032515,0 58,25.967485 58,58 z" />
      <path
         d="M 103,4 103,14.0625 110,9 z m 7,5 0,4 2,0 0,-8 -2,0 z"
         transform="translate(214.53572,326.50504)"
         id="polygon53-8"
         style="fill:url(#linearGradient5004);fill-opacity:1" />
    </g>
    <g
       id="16-16-media-seek-backward">
      <circle
         cx="58"
         cy="58"
         r="58"
         transform="matrix(0.13793104,0,0,0.13793104,334.53572,327.50504)"
         id="circle19-0"
         style="opacity:0;fill:#ffffff;fill-opacity:1"
         d="M 116,58 C 116,90.032515 90.032515,116 58,116 25.967485,116 0,90.032515 0,58 0,25.967485 25.967485,0 58,0 c 32.032515,0 58,25.967485 58,58 z" />
      <path
         d="m 343.53572,330.50504 -5,5 5,5 0,-5 z m 0,5 4,4 0,-8 z"
         id="polygon2195"
         style="fill:url(#linearGradient5012);fill-opacity:1" />
    </g>
    <g
       id="16-16-media-seek-forward">
      <circle
         cx="58"
         cy="58"
         r="58"
         transform="matrix(0.13793104,0,0,0.13793104,354.53572,327.50504)"
         id="circle19-99"
         style="opacity:0;fill:#ffffff;fill-opacity:1"
         d="M 116,58 C 116,90.032515 90.032515,116 58,116 25.967485,116 0,90.032515 0,58 0,25.967485 25.967485,0 58,0 c 32.032515,0 58,25.967485 58,58 z" />
      <path
         d="m 361.53572,330.50504 0,5 0,5 5,-5 z m 0,5 -4,-4 0,8 z"
         id="polygon2195-6"
         style="fill:url(#linearGradient5020);fill-opacity:1" />
    </g>
    <g
       id="16-16-media-eject">
      <circle
         cx="58"
         cy="58"
         r="58"
         transform="matrix(0.13793104,0,0,0.13793104,374.53572,327.50504)"
         id="circle19-5"
         style="opacity:0;fill:#ffffff;fill-opacity:1"
         d="M 116,58 C 116,90.032515 90.032515,116 58,116 25.967485,116 0,90.032515 0,58 0,25.967485 25.967485,0 58,0 c 32.032515,0 58,25.967485 58,58 z" />
      <path
         d="m 382.53572,330.50504 -5,6 10,0 z m -4,8 0,1 8,0 0,-1 z"
         id="polygon53-1"
         style="fill:url(#linearGradient5028);fill-opacity:1" />
    </g>
    <g
       id="16-16-media-record">
      <circle
         cx="58"
         cy="58"
         r="58"
         transform="matrix(0.13793104,0,0,0.13793104,274.53572,327.50504)"
         id="circle19-3"
         style="opacity:0;fill:#000000;fill-opacity:1"
         d="M 116,58 C 116,90.032515 90.032515,116 58,116 25.967485,116 0,90.032515 0,58 0,25.967485 25.967485,0 58,0 c 32.032515,0 58,25.967485 58,58 z" />
      <path
         d="m 88,63.875 a 24.25,24.125 0 1 1 -48.5,0 24.25,24.125 0 1 1 48.5,0 z"
         transform="matrix(0.16494845,0,0,0.16580311,272.02025,324.91436)"
         id="path2195-8"
         style="fill:url(#radialGradient4678);fill-opacity:1;fill-rule:evenodd;stroke:none" />
    </g>
    <g
       transform="matrix(2,0,0,1.9999999,-214.53572,-364.50501)"
       id="22-22-media-playback-start">
      <circle
         cx="58"
         cy="58"
         r="58"
         transform="matrix(0.09482759,0,0,0.09482759,220.03572,361.00504)"
         id="circle3888"
         style="opacity:0;fill:#ffffff;fill-opacity:0.78431373"
         d="M 116,58 C 116,90.032515 90.032515,116 58,116 25.967485,116 0,90.032515 0,58 0,25.967485 25.967485,0 58,0 c 32.032515,0 58,25.967485 58,58 z" />
      <polygon
         points="90,58 42,90 42,26 42,26 "
         transform="matrix(0.125,0,0,0.125,217.28572,359.25504)"
         id="polygon3890"
         style="fill:url(#linearGradient5215);fill-opacity:1" />
    </g>
    <g
       transform="matrix(2,0,0,1.9999999,-212.53572,-302.50501)"
       id="22-22-media-playback-pause">
      <circle
         cx="58"
         cy="58"
         r="58"
         transform="matrix(0.09482759,0,0,0.09482759,236.03572,330.00504)"
         id="circle3898"
         style="opacity:0;fill:#000000;fill-opacity:1"
         d="M 116,58 C 116,90.032515 90.032515,116 58,116 25.967485,116 0,90.032515 0,58 0,25.967485 25.967485,0 58,0 c 32.032515,0 58,25.967485 58,58 z" />
      <path
         d="m 24,6 0,6 2,0 L 26,6.0625 24,6 z m 4,0 0,6 2,0 L 30,6.0625 28,6 z"
         transform="translate(214.53572,326.50504)"
         id="path3900"
         style="fill:url(#linearGradient5217);fill-opacity:1" />
    </g>
    <g
       transform="matrix(2,0,0,1.9999999,-212.53572,-302.50501)"
       id="22-22-media-playback-stop">
      <circle
         cx="58"
         cy="58"
         r="58"
         transform="matrix(0.09482759,0,0,0.09482759,257.03572,330.00504)"
         id="circle3908"
         style="opacity:0;fill:#000000;fill-opacity:1"
         d="M 116,58 C 116,90.032515 90.032515,116 58,116 25.967485,116 0,90.032515 0,58 0,25.967485 25.967485,0 58,0 c 32.032515,0 58,25.967485 58,58 z" />
      <path
         d="m 259.53572,332.50504 6,0.0486 -0.004,5.94616 -5.95788,0.005 -0.0382,-6 z"
         id="path3910"
         style="fill:url(#linearGradient5219);fill-opacity:1" />
    </g>
    <g
       transform="matrix(2,0,0,1.9999999,-368.53572,-272.50501)"
       id="22-22-media-skip-backward">
      <circle
         cx="58"
         cy="58"
         r="58"
         transform="matrix(0.09482759,0,0,0.09482759,297.03572,330.00504)"
         id="circle3918"
         style="fill:#ffffff;fill-opacity:0"
         d="M 116,58 C 116,90.032515 90.032515,116 58,116 25.967485,116 0,90.032515 0,58 0,25.967485 25.967485,0 58,0 c 32.032515,0 58,25.967485 58,58 z" />
      <path
         d="m 306.53572,331.50504 -6,4 6,4 z m -6,4 0,-3 -2,0 0,6 2,0 z"
         id="path3920"
         style="fill:url(#linearGradient5223);fill-opacity:1" />
    </g>
    <g
       transform="matrix(2,0,0,1.9999999,-368.53572,-272.50501)"
       id="22-22-media-skip-forward">
      <circle
         cx="58"
         cy="58"
         r="58"
         transform="matrix(0.09482759,0,0,0.09482759,317.03572,330.00504)"
         id="circle3928"
         style="opacity:0;fill:#ffffff;fill-opacity:1"
         d="M 116,58 C 116,90.032515 90.032515,116 58,116 25.967485,116 0,90.032515 0,58 0,25.967485 25.967485,0 58,0 c 32.032515,0 58,25.967485 58,58 z" />
      <path
         d="m 104,5 0,8 6,-4 -6,-4 z m 6,4 0,3 2,0 0,-5.9375 L 110,6 l 0,3 z"
         transform="translate(214.53572,326.50504)"
         id="path3930"
         style="fill:url(#linearGradient5225);fill-opacity:1" />
    </g>
    <g
       transform="matrix(2,0,0,1.9999999,-368.53572,-272.50501)"
       id="22-22-media-seek-backward">
      <circle
         cx="58"
         cy="58"
         r="58"
         transform="matrix(0.09482759,0,0,0.09482759,336.53572,330.00504)"
         id="circle3938"
         style="opacity:0;fill:#ffffff;fill-opacity:1"
         d="M 116,58 C 116,90.032515 90.032515,116 58,116 25.967485,116 0,90.032515 0,58 0,25.967485 25.967485,0 58,0 c 32.032515,0 58,25.967485 58,58 z" />
      <path
         d="m 128,5 -4,4 4,4 0,-4 0,-4 z m 0,4 3,3 0,-6 -3,3 z"
         transform="translate(214.53572,326.50504)"
         id="path3940"
         style="fill:url(#linearGradient5227);fill-opacity:1" />
    </g>
    <g
       transform="matrix(2,0,0,1.9999999,-368.53572,-272.50501)"
       id="22-22-media-seek-forward">
      <circle
         cx="58"
         cy="58"
         r="58"
         transform="matrix(0.09482759,0,0,0.09482759,357.03572,330.00504)"
         id="circle3948"
         style="opacity:0;fill:#ffffff;fill-opacity:1"
         d="M 116,58 C 116,90.032515 90.032515,116 58,116 25.967485,116 0,90.032515 0,58 0,25.967485 25.967485,0 58,0 c 32.032515,0 58,25.967485 58,58 z" />
      <path
         d="m 148,5 0,4 0,4 4,-4 -4,-4 z m 0,4 -3,-3 0,6 3,-3 z"
         transform="translate(214.53572,326.50504)"
         id="path3950"
         style="fill:url(#linearGradient5229);fill-opacity:1" />
    </g>
    <g
       transform="matrix(2,0,0,1.9999999,-368.53572,-272.50501)"
       id="22-22-media-eject">
      <circle
         cx="58"
         cy="58"
         r="58"
         transform="matrix(0.09482759,0,0,0.09482759,377.03572,330.00504)"
         id="circle3958"
         style="opacity:0;fill:#ffffff;fill-opacity:1"
         d="M 116,58 C 116,90.032515 90.032515,116 58,116 25.967485,116 0,90.032515 0,58 0,25.967485 25.967485,0 58,0 c 32.032515,0 58,25.967485 58,58 z" />
      <path
         d="m 168,5 -4,5 8,0 z m -3,6 0,1 6,0 0,-1 z"
         transform="translate(214.53572,326.50504)"
         id="path3960"
         style="fill:url(#linearGradient5231);fill-opacity:1" />
    </g>
    <g
       id="22-22-media-record">
      <circle
         cx="58"
         cy="58"
         r="58"
         transform="matrix(0.18965517,0,0,0.18965517,341.53572,357.50504)"
         id="circle3968"
         style="opacity:0;fill:#000000;fill-opacity:1"
         d="M 116,58 C 116,90.032515 90.032515,116 58,116 25.967485,116 0,90.032515 0,58 0,25.967485 25.967485,0 58,0 c 32.032515,0 58,25.967485 58,58 z" />
      <path
         d="m 88,63.875 a 24.25,24.125 0 1 1 -48.5,0 24.25,24.125 0 1 1 48.5,0 z"
         transform="matrix(0.24742268,0,0,0.24870467,336.76252,352.61902)"
         id="path3970"
         style="fill:url(#radialGradient5221);fill-opacity:1;fill-rule:evenodd;stroke:none" />
    </g>
    <g
       transform="matrix(2.9090908,0,0,2.9090908,-420.29544,-623.1914)"
       id="media-playback-start">
      <circle
         cx="58"
         cy="58"
         r="58"
         transform="matrix(0.09482759,0,0,0.09482759,219.94197,361.17691)"
         id="circle4014"
         style="opacity:0;fill:#ffffff;fill-opacity:0.78431373"
         d="M 116,58 C 116,90.032515 90.032515,116 58,116 25.967485,116 0,90.032515 0,58 0,25.967485 25.967485,0 58,0 c 32.032515,0 58,25.967485 58,58 z" />
      <polygon
         points="42,26 90,58 42,90 42,26 "
         transform="matrix(0.1217448,0,0,0.1289063,217.92244,359.20035)"
         id="polygon4016"
         style="fill:url(#linearGradient4102);fill-opacity:1" />
    </g>
    <g
       transform="matrix(2.9090908,0,0,2.9090908,-427.11362,-532.50959)"
       id="media-playback-pause">
      <circle
         cx="58"
         cy="58"
         r="58"
         transform="matrix(0.09482759,0,0,0.09482759,236.03572,330.00504)"
         id="circle4024"
         style="opacity:0;fill:#000000;fill-opacity:1"
         d="M 116,58 C 116,90.032515 90.032515,116 58,116 25.967485,116 0,90.032515 0,58 0,25.967485 25.967485,0 58,0 c 32.032515,0 58,25.967485 58,58 z" />
      <path
         d="m 23.90625,5.9062515 0,6.1875005 2.0625,0 0,-6.1875005 z m 4.125,0 0,6.1875005 2.0625,0 0,-6.1875005 z"
         transform="translate(214.53572,326.50504)"
         id="path4026"
         style="fill:url(#linearGradient4104);fill-opacity:1" />
    </g>
    <g
       transform="matrix(2.9090908,0,0,2.9090908,-446.20453,-533.00959)"
       id="media-playback-stop">
      <circle
         cx="58"
         cy="58"
         r="58"
         transform="matrix(0.09482759,0,0,0.09482759,257.03572,330.00504)"
         id="circle4034"
         style="opacity:0;fill:#000000;fill-opacity:1"
         d="M 116,58 C 116,90.032515 90.032515,116 58,116 25.967485,116 0,90.032515 0,58 0,25.967485 25.967485,0 58,0 c 32.032515,0 58,25.967485 58,58 z" />
      <path
         d="m 265.62947,332.58317 -5e-5,5.84375 -6.1875,-2e-5 5e-5,-5.84373 z"
         id="path4036"
         style="fill:url(#linearGradient4106);fill-opacity:1" />
    </g>
    <g
       transform="matrix(2.9090908,0,0,2.9090908,-638.56816,-481.50959)"
       id="media-skip-backward">
      <circle
         cx="58"
         cy="58"
         r="58"
         transform="matrix(0.09482759,0,0,0.09482759,297.03572,330.00504)"
         id="circle4044"
         style="fill:#ffffff;fill-opacity:0"
         d="M 116,58 C 116,90.032515 90.032515,116 58,116 25.967485,116 0,90.032515 0,58 0,25.967485 25.967485,0 58,0 c 32.032515,0 58,25.967485 58,58 z" />
      <path
         d="m 306.66072,331.38004 -6.1875,4.125 6.1875,4.125 z m -6.1875,4.125 0,-3.09375 -2.0625,0 0,6.1875 2.0625,0 z"
         id="path4046"
         style="fill:url(#linearGradient4108);fill-opacity:1" />
    </g>
    <g
       transform="matrix(2.9090908,0,0,2.9090908,-656.74997,-481.50959)"
       id="media-skip-forward">
      <circle
         cx="58"
         cy="58"
         r="58"
         transform="matrix(0.09482759,0,0,0.09482759,317.03572,330.00504)"
         id="circle4054"
         style="opacity:0;fill:#ffffff;fill-opacity:1"
         d="M 116,58 C 116,90.032515 90.032515,116 58,116 25.967485,116 0,90.032515 0,58 0,25.967485 25.967485,0 58,0 c 32.032515,0 58,25.967485 58,58 z" />
      <path
         d="m 103.875,4.8750015 0,8.2500005 6.1875,-4.1250004 z m 6.1875,4.1250001 0,3.0937504 2.0625,0 0,-6.1875005 -2.0625,0 z"
         transform="translate(214.53572,326.50504)"
         id="path4056"
         style="fill:url(#linearGradient4110);fill-opacity:1" />
    </g>
    <g
       transform="matrix(2.9090908,0,0,2.9090908,-674.29525,-481.50959)"
       id="media-seek-backward">
      <circle
         cx="58"
         cy="58"
         r="58"
         transform="matrix(0.09482759,0,0,0.09482759,336.47316,330.00504)"
         id="circle4064"
         style="opacity:0;fill:#ffffff;fill-opacity:1"
         d="M 116,58 C 116,90.032515 90.032515,116 58,116 25.967485,116 0,90.032515 0,58 0,25.967485 25.967485,0 58,0 c 32.032515,0 58,25.967485 58,58 z" />
      <path
         d="M 128.12494,4.8750015 124,9 l 4.12494,3.781252 0,-3.7812504 z m 0,4.1250001 2.75,2.7500004 0,-5.8437505 z"
         transform="translate(214.53572,326.50504)"
         id="path4066"
         style="fill:url(#linearGradient4112);fill-opacity:1" />
    </g>
    <g
       transform="matrix(2.9090908,0,0,2.9090908,-693.11361,-481.50959)"
       id="media-seek-forward">
      <circle
         cx="58"
         cy="58"
         r="58"
         transform="matrix(0.09482759,0,0,0.09482759,357.03572,330.00504)"
         id="circle4074"
         style="opacity:0;fill:#ffffff;fill-opacity:1"
         d="M 116,58 C 116,90.032515 90.032515,116 58,116 25.967485,116 0,90.032515 0,58 0,25.967485 25.967485,0 58,0 c 32.032515,0 58,25.967485 58,58 z" />
      <path
         d="M 148,4.8750015 148,9 l 0,4.125002 4.125,-4.1250004 z M 148,9 l -3.09375,-3.0937485 0,6.1875005 z"
         transform="translate(214.53572,326.50504)"
         id="path4076"
         style="fill:url(#linearGradient4114);fill-opacity:1" />
    </g>
    <g
       transform="matrix(2.9090908,0,0,2.9090908,-711.29542,-481.50959)"
       id="media-eject">
      <circle
         cx="58"
         cy="58"
         r="58"
         transform="matrix(0.09482759,0,0,0.09482759,377.03572,330.00504)"
         id="circle4084"
         style="opacity:0;fill:#ffffff;fill-opacity:1"
         d="M 116,58 C 116,90.032515 90.032515,116 58,116 25.967485,116 0,90.032515 0,58 0,25.967485 25.967485,0 58,0 c 32.032515,0 58,25.967485 58,58 z" />
      <path
         d="m 168,5.2187515 -4.125,4.8125005 8.25,0 z m -3.09375,5.8437505 0,1.03125 6.1875,-2e-6 -5e-5,-1.03125 z"
         transform="translate(214.53572,326.50504)"
         id="path4086"
         style="fill:url(#linearGradient4116);fill-opacity:1" />
    </g>
    <g
       transform="matrix(1.4545455,0,0,1.4545455,-155.24352,-92.502308)"
       id="media-record">
      <circle
         cx="58"
         cy="58"
         r="58"
         transform="matrix(0.18965517,0,0,0.18965517,341.53572,357.50504)"
         id="circle4094"
         style="opacity:0;fill:#000000;fill-opacity:1"
         d="M 116,58 C 116,90.032515 90.032515,116 58,116 25.967485,116 0,90.032515 0,58 0,25.967485 25.967485,0 58,0 c 32.032515,0 58,25.967485 58,58 z" />
      <path
         d="m 88.757809,63.875 a 25.007809,24.878866 0 1 1 -50.015618,0 25.007809,24.878866 0 1 1 50.015618,0 z"
         transform="matrix(0.24742268,0,0,0.24870467,336.76252,352.61902)"
         id="path4096"
         style="fill:url(#radialGradient4118);fill-opacity:1;fill-rule:evenodd;stroke:none" />
    </g>
  </g>
</svg>
