<?xml version="1.0" encoding="UTF-8" standalone="no"?>
<!-- Created with Inkscape (http://www.inkscape.org/) -->

<svg
   xmlns:dc="http://purl.org/dc/elements/1.1/"
   xmlns:cc="http://creativecommons.org/ns#"
   xmlns:rdf="http://www.w3.org/1999/02/22-rdf-syntax-ns#"
   xmlns:svg="http://www.w3.org/2000/svg"
   xmlns="http://www.w3.org/2000/svg"
   xmlns:sodipodi="http://sodipodi.sourceforge.net/DTD/sodipodi-0.dtd"
   xmlns:inkscape="http://www.inkscape.org/namespaces/inkscape"
   version="1.1"
   width="19.200001pt"
   height="19.200001pt"
   id="svg2"
   inkscape:version="0.48.5 r10040"
   sodipodi:docname="presence-applet.svg">
  <sodipodi:namedview
     pagecolor="#ffffff"
     bordercolor="#666666"
     borderopacity="1"
     objecttolerance="10"
     gridtolerance="10"
     guidetolerance="10"
     inkscape:pageopacity="0"
     inkscape:pageshadow="2"
     inkscape:window-width="1280"
     inkscape:window-height="750"
     id="namedview57"
     showgrid="false"
     inkscape:zoom="9.8333333"
     inkscape:cx="-53.999831"
     inkscape:cy="-6.1670509"
     inkscape:window-x="0"
     inkscape:window-y="-3"
     inkscape:window-maximized="1"
     inkscape:current-layer="svg2" />
  <metadata
     id="metadata80">
    <rdf:RDF>
      <cc:Work
         rdf:about="">
        <dc:format>image/svg+xml</dc:format>
        <dc:type
           rdf:resource="http://purl.org/dc/dcmitype/StillImage" />
        <dc:title />
      </cc:Work>
    </rdf:RDF>
  </metadata>
  <defs
     id="defs4">
    <linearGradient
       x1="-0.041654583"
       y1="0.5"
       x2="1.0416546"
       y2="0.5"
       id="gradient0"
       gradientUnits="objectBoundingBox"
       spreadMethod="pad">
      <stop
         id="stop7"
         style="stop-color:#83af77;stop-opacity:0.627451"
         offset="0" />
      <stop
         id="stop9"
         style="stop-color:#83af77;stop-opacity:0.627451"
         offset="1" />
    </linearGradient>
    <linearGradient
       x1="0.67639565"
       y1="0.94412839"
       x2="1.3024859"
       y2="0.31826875"
       id="gradient1"
       gradientUnits="objectBoundingBox"
       spreadMethod="pad">
      <stop
         id="stop12"
         style="stop-color:#ed2124;stop-opacity:1"
         offset="0" />
      <stop
         id="stop14"
         style="stop-color:#b00c08;stop-opacity:1"
         offset="1" />
    </linearGradient>
    <linearGradient
       x1="0.72202432"
       y1="0.8611095"
       x2="1.5029265"
       y2="0.8611095"
       id="gradient2"
       gradientUnits="objectBoundingBox"
       spreadMethod="pad">
      <stop
         id="stop17"
         style="stop-color:#febf00;stop-opacity:1"
         offset="0" />
      <stop
         id="stop19"
         style="stop-color:#e87208;stop-opacity:1"
         offset="1" />
    </linearGradient>
    <linearGradient
       x1="0.56603575"
       y1="1.1893537"
       x2="0.56603575"
       y2="0.10342205"
       id="gradient3"
       gradientUnits="objectBoundingBox"
       gradientTransform="scale(1.04393,0.95792)"
       spreadMethod="pad">
      <stop
         id="stop22"
         style="stop-color:#000000;stop-opacity:0.15686275"
         offset="0" />
      <stop
         id="stop24"
         style="stop-color:#000000;stop-opacity:0.39215687"
         offset="0.5" />
      <stop
         id="stop26"
         style="stop-color:#000000;stop-opacity:0.15686275"
         offset="1" />
    </linearGradient>
    <radialGradient
       cx="0.42562404"
       cy="6.4252949"
       r="0.26145637"
       fx="0.42562404"
       fy="6.4252949"
       id="gradient4"
       gradientUnits="objectBoundingBox"
       gradientTransform="scale(1.05101,0.951469)"
       spreadMethod="pad">
      <stop
         id="stop29"
         style="stop-color:#ffffff;stop-opacity:0.91366446"
         offset="0" />
      <stop
         id="stop31"
         style="stop-color:#ffffff;stop-opacity:0.8489204"
         offset="0.5" />
      <stop
         id="stop33"
         style="stop-color:#ffffff;stop-opacity:0.35439077"
         offset="0.75" />
      <stop
         id="stop35"
         style="stop-color:#ffffff;stop-opacity:0.8489204"
         offset="1" />
    </radialGradient>
    <radialGradient
       cx="0.42562404"
       cy="6.4252949"
       r="0.26145637"
       fx="0.42562404"
       fy="6.4252949"
       id="gradient5"
       gradientUnits="objectBoundingBox"
       gradientTransform="scale(1.05101,0.951469)"
       spreadMethod="pad">
      <stop
         id="stop38"
         style="stop-color:#ffffff;stop-opacity:0.91366446"
         offset="0" />
      <stop
         id="stop40"
         style="stop-color:#ffffff;stop-opacity:0.8489204"
         offset="0.5" />
      <stop
         id="stop42"
         style="stop-color:#ffffff;stop-opacity:0.35439077"
         offset="0.75" />
      <stop
         id="stop44"
         style="stop-color:#ffffff;stop-opacity:0.8489204"
         offset="1" />
    </radialGradient>
    <linearGradient
       x1="0.59090102"
       y1="1.1393054"
       x2="0.59090102"
       y2="0.099070027"
       id="gradient6"
       gradientUnits="objectBoundingBox"
       gradientTransform="translate(-0.999699,-1.99976)"
       spreadMethod="pad">
      <stop
         id="stop47"
         style="stop-color:#000000;stop-opacity:0"
         offset="0" />
      <stop
         id="stop49"
         style="stop-color:#000000;stop-opacity:0"
         offset="0.5" />
      <stop
         id="stop51"
         style="stop-color:#000000;stop-opacity:0"
         offset="1" />
    </linearGradient>
  </defs>
  <g
     id="layer0">
    <g
       transform="translate(-91.11,-1.10577)"
       id="layer1"
       style="fill:none">
      <g
         transform="translate(32.8424,38.9261)"
         id="user-online-plasma"
         style="fill:none">
        <path
           d="M 9,4.5 C 9,6.98528 6.98528,9 4.5,9 2.01472,9 -3.70336e-8,6.98528 0,4.5 -3.70336e-8,2.01472 2.01472,0 4.5,0 6.98528,0 9,2.01472 9,4.5 z"
           transform="matrix(0.666677,1.15493,-1.15514,0.667045,8.85577,-1.04129)"
           id="path12147"
           style="fill:url(#gradient0);stroke:#83af77;stroke-width:0.7497825;stroke-linecap:butt;stroke-linejoin:miter;stroke-miterlimit:4" />
      </g>
      <g
         transform="translate(96.3296,39.5845)"
         id="user-busy-plasma"
         style="fill:none">
        <path
           d="M 9,4.5 C 9,6.98528 6.98528,9 4.5,9 2.01472,9 -3.70336e-8,6.98528 0,4.5 -3.70336e-8,2.01472 2.01472,0 4.5,0 6.98528,0 9,2.01472 9,4.5 z"
           transform="matrix(0.948671,0.948671,0.949021,-0.949021,-1.3307,6.50351)"
           id="path9438"
           style="fill:url(#gradient1);stroke:#b00c08;stroke-width:0.74522817;stroke-linecap:butt;stroke-linejoin:miter;stroke-miterlimit:4" />
        <rect
           width="8.1726704"
           height="2"
           rx="0.99999994"
           ry="1"
           x="0"
           y="0"
           transform="translate(3.21,5.44341)"
           id="rect9440"
           style="fill:#ffffff" />
      </g>
      <g
         transform="translate(0,38.5864)"
         id="user-away-extended-plasma"
         style="fill:none">
        <path
           d="m 42.7928,21.3964 c 0,11.8169 -9.5795,21.3964 -21.3964,21.3964 C 9.5795,42.7928 0,33.2133 0,21.3964 0,9.5795 9.5795,0 21.3964,0 33.2133,0 42.7928,9.5795 42.7928,21.3964 z"
           transform="matrix(0.303789,0,0,0.303789,0.999999,0.999999)"
           id="path12109"
           style="fill:#009bce;stroke:#009bce;stroke-width:3.29175377;stroke-linecap:round;stroke-linejoin:miter;stroke-miterlimit:4" />
        <path
           d="M 10.3522,10.3522 C 9.53626,11.1682 7.73178,9.36144 6.59204,9.54196 5.4523,9.72248 4.29445,11.9984 3.26628,11.4745 2.2381,10.9506 3.3988,8.67617 2.87492,7.64799 2.35104,6.61982 -0.171294,6.22194 0.00922567,5.0822 0.189736,3.94246 2.71157,4.3435 3.52754,3.52753 4.3435,2.71157 3.94246,0.189745 5.0822,0.00922474 6.22194,-0.171285 6.61982,2.35103 7.64799,2.87492 8.67617,3.3988 10.9506,2.2381 11.4745,3.26627 11.9984,4.29445 9.72248,5.4523 9.54196,6.59204 9.36145,7.73178 11.1682,9.53625 10.3522,10.3522 z"
           transform="matrix(0.818949,0.127135,-0.127135,0.818949,3.3568,1.8611)"
           id="path12114"
           style="fill:#ffffff" />
      </g>
      <g
         transform="translate(64.5877,39.0858)"
         id="user-away-plasma"
         style="fill:none">
        <path
           d="M 9,4.5 C 9,6.98528 6.98528,9 4.5,9 2.01472,9 -3.70336e-8,6.98528 0,4.5 -3.70336e-8,2.01472 2.01472,0 4.5,0 6.98528,0 9,2.01472 9,4.5 z"
           transform="matrix(0,1.33341,1.33341,0,1,1)"
           id="path12128"
           style="fill:url(#gradient2);stroke:#e87207;stroke-width:0.74995691;stroke-linecap:butt;stroke-linejoin:miter;stroke-miterlimit:4;stroke-opacity:0.99914551" />
        <path
           d="M 0,2.0053 1.98437,0"
           transform="translate(6.928,5.9958)"
           id="path7453-5"
           style="opacity:0.98999999;fill:none;stroke:#ffffff;stroke-width:1.99999988;stroke-linecap:round;stroke-linejoin:miter;stroke-miterlimit:4" />
        <path
           d="M 2.98437,3.0053 0,0"
           transform="translate(3.928,4.9958)"
           id="path7485"
           style="opacity:0.98999999;fill:none;stroke:#ffffff;stroke-width:1.99999988;stroke-linecap:round;stroke-linejoin:miter;stroke-miterlimit:4" />
      </g>
      <g
         transform="translate(203.567,0)"
         id="ktp-invisible"
         style="fill:none">
        <rect
           width="24"
           height="24"
           x="0"
           y="0"
           transform="translate(0.625,0.625)"
           id="rect3955"
           style="fill:#ffffff;fill-opacity:0" />
        <path
           d="M 11.0003,2.40229e-4 C 4.82069,0.0340546 0.0428339,3.6175 3.00691e-4,8.50024 -0.0290261,11.8669 2.09038,14.1304 4.8128,15.5002 4.49215,16.2537 4.29208,17.0673 3.78155,17.969 c -1.02531,0.2391 -1.25869,2.1377 0.625,2.2187 2.40839,-0.1163 4.74259,-1.5319 6.09375,-3.1875 6.7194,0.2738 11.3264,-3.9549 11.5,-8.49996 -0.0046,-4.83369 -4.682,-8.5345714 -11,-8.499999771 z m 0,0.999999771 c 5.5228,0 10,3.35787 10,7.5 -0.1753,4.32636 -4.3157,7.73036 -11,7.49996 -1.7652,1.8517 -4.03763,3.5526 -6,3 1.32343,-0.6977 1.4658,-2.7447 2,-4 -2.99406,-1.2958 -5,-3.7211 -5,-6.49996 0,-4.14213 4.47715,-7.5 10,-7.5 z m -7,6 c 0,0.54432 0.2179,1.05825 0.5625,1.53125 0.00504,0.00692 -0.00511,0.02435 0,0.03125 L 3.2503,9.87524 C 3.45413,10.1189 3.68678,10.3415 3.9378,10.5627 L 5.21905,9.28149 c 0.43861,0.36476 1.00419,0.67377 1.625,0.93751 L 6.0628,11.9065 c 0.29844,0.1342 0.58383,0.265 0.90625,0.375 l 0.8125,-1.75 c 0.53017,0.1586 1.0883,0.2668 1.6875,0.3437 L 9.3128,12.7815 c 0.33525,0.044 0.65251,0.1065 1,0.125 l 0.1563,-1.9375 c 0.1789,0.0078 0.3487,0.0312 0.5312,0.0312 0.4423,0 0.8613,-0.044 1.2813,-0.0937 l 0.3437,1.875 c 0.3361,-0.0425 0.6783,-0.0583 1,-0.125 l -0.3437,-1.9063 c 0.5515,-0.1096 1.0834,-0.2255 1.5625,-0.4062 l 0.7812,1.6875 c 0.3199,-0.1314 0.6458,-0.25 0.9375,-0.4063 L 15.7503,9.93774 c 0.5684,-0.30264 1.0701,-0.66702 1.4375,-1.0625 l 1.5,1.0625 C 18.8677,9.72898 19.1397,9.56758 19.2816,9.34399 19.3183,9.28613 19.31,9.21526 19.3441,9.15649 L 17.7503,8.06274 c 0.1618,-0.33748 0.25,-0.69567 0.25,-1.0625 l -1,0 -1,0 c 0,1.10457 -2.2386,2 -5,2 -2.76142,0 -5,-0.89543 -5,-2 l -1,0 z"
           transform="translate(1.6247,2.62476)"
           id="path3957"
           style="fill:url(#gradient3)" />
        <path
           d="M 10,0 C 4.47715,0 0,3.35787 0,7.5 0,10.2789 2.00594,12.7042 5,14 4.4658,15.2553 4.32343,17.3022 3,18 4.96237,18.5525 7.2348,16.8517 9,15 15.6843,15.2304 19.8247,11.8263 20,7.5 20,3.35787 15.5228,0 10,0 z M 3,6 4,6 5,6 c 0,1.10457 2.23858,2 5,2 2.7614,0 5,-0.89543 5,-2 l 1,0 1,0 c 0,0.36683 -0.0882,0.72502 -0.25,1.0625 l 1.5938,1.09375 C 18.3097,8.21502 18.318,8.28589 18.2812,8.34375 18.1394,8.56734 17.8674,8.72874 17.6875,8.9375 l -1.5,-1.0625 C 15.8201,8.27047 15.3184,8.63486 14.75,8.9375 l 0.8125,1.6875 c -0.2917,0.1563 -0.6176,0.2748 -0.9375,0.4063 L 13.8438,9.34375 c -0.4791,0.1807 -1.011,0.2966 -1.5625,0.40625 l 0.3437,1.9063 c -0.3217,0.0666 -0.6639,0.0824 -1,0.1249 L 11.2812,9.90625 C 10.8613,9.95599 10.4423,10 10,10 9.81753,10 9.6477,9.97658 9.46875,9.96875 L 9.3125,11.9062 c -0.3475,-0.0184 -0.66475,-0.0809 -1,-0.125 L 8.46875,9.875 C 7.86955,9.79801 7.31142,9.68983 6.78125,9.53125 L 5.96875,11.2812 C 5.64632,11.1713 5.36094,11.0404 5.0625,10.9062 L 5.84375,9.21875 C 5.22294,8.95502 4.65736,8.64601 4.21875,8.28125 L 2.9375,9.5625 C 2.68648,9.34127 2.45382,9.11864 2.25,8.875 L 3.5625,7.5625 C 3.55739,7.5556 3.56754,7.53817 3.5625,7.53125 3.2179,7.05825 3,6.54432 3,6 z"
           transform="translate(2.625,3.625)"
           id="path3959"
           style="fill:url(#gradient4)" />
        <path
           d="M 10,0 C 4.47715,0 0,3.35787 0,7.5 0,10.2789 2.00594,12.7042 5,14 4.4658,15.2553 4.32343,17.3022 3,18 4.96237,18.5525 7.2348,16.8517 9,15 15.469,15.4624 19.8282,11.7401 20,7.5 20,3.35787 15.5228,0 10,0 z m 0,1 C 14.1469,0.98059 19.1327,3.46341 19,7.5 18.8801,11.1457 15.1166,14 9.59375,14 8.63742,13.9579 8.49748,14.0687 8,14.5625 7.0096,15.5392 6.40621,16.1545 5,17 5.42277,16.1234 5.56965,15.3711 5.8125,14.5625 6.16095,13.5318 6.09823,13.3605 4.96875,12.9063 2.7028,11.884 1,9.5225 1,7.5625 1,4.15909 4.74167,1.02462 10,1 z"
           transform="translate(2.625,3.625)"
           id="path3961"
           style="fill:url(#gradient5)" />
      </g>
      <g
         transform="translate(128.33,39.5715)"
         id="user-offline-plasma"
         style="fill:none">
        <path
           d="M 9,4.5 C 9,6.98528 6.98528,9 4.5,9 2.01472,9 -3.70336e-8,6.98528 0,4.5 -3.70336e-8,2.01472 2.01472,0 4.5,0 6.98528,0 9,2.01472 9,4.5 z"
           transform="matrix(0.950114,0.950114,0.950463,-0.950463,-1.3345,6.51269)"
           id="path12118"
           style="fill:#000000;fill-opacity:0;stroke:#1c2122;stroke-width:0.74409698999999996;stroke-linecap:butt;stroke-linejoin:miter;stroke-miterlimit:4;stroke-opacity:1" />
        <path
           d="M 0.211903,3.87786 3.94128,0.211124 c 0.28247,-0.2814986 0.73735,-0.2814986 1.01982,0 0.28253,0.281427 0.28253,0.734569 0,1.016066 L 1.23172,4.89393 c -0.282537,0.28143 -0.737352,0.28143 -1.019817,0 -0.2825373,-0.2815 -0.2825373,-0.73464 0,-1.01607 z"
           transform="translate(4.64587,3.95997)"
           id="path12120"
           style="fill:#1c2122;fill-opacity:1" />
        <path
           d="M 3.86002,4.80789 0.210871,1.22125 c -0.2811614,-0.280076 -0.2811614,-0.731046 0,-1.011193 0.281234,-0.2800759 0.733945,-0.2800759 1.015109,0 L 4.87513,3.7967 c 0.28116,0.28015 0.28116,0.73111 0,1.01119 -0.28124,0.28015 -0.73395,0.28015 -1.01511,0 z"
           transform="translate(4.66644,4.00308)"
           id="path12122"
           style="fill:#1c2122;fill-opacity:1" />
      </g>
    </g>
  </g>
  <g
     id="user-invisible-plasma">
    <path
       d="M 9,4.5 C 9,6.98528 6.98528,9 4.5,9 2.01472,9 -3.70336e-8,6.98528 0,4.5 -3.70336e-8,2.01472 2.01472,0 4.5,0 6.98528,0 9,2.01472 9,4.5 z"
       transform="matrix(0.666677,1.15493,-1.15514,0.667045,-61.0562,0.0384006)"
       id="path12147-6"
       style="fill:url(#gradient6);stroke:#83af77;stroke-width:0.7497825;stroke-linecap:butt;stroke-linejoin:miter;stroke-miterlimit:4" />
  </g>
</svg>
