<?xml version="1.0" encoding="UTF-8" standalone="no"?>
<!-- Created with Inkscape (http://www.inkscape.org/) -->

<svg
   xmlns:dc="http://purl.org/dc/elements/1.1/"
   xmlns:cc="http://creativecommons.org/ns#"
   xmlns:rdf="http://www.w3.org/1999/02/22-rdf-syntax-ns#"
   xmlns:svg="http://www.w3.org/2000/svg"
   xmlns="http://www.w3.org/2000/svg"
   xmlns:xlink="http://www.w3.org/1999/xlink"
   xmlns:sodipodi="http://sodipodi.sourceforge.net/DTD/sodipodi-0.dtd"
   xmlns:inkscape="http://www.inkscape.org/namespaces/inkscape"
   id="svg2"
   sodipodi:version="0.32"
   inkscape:version="0.47 r22583"
   width="60"
   height="90"
   sodipodi:docname="system-buttons.svgz"
   inkscape:output_extension="org.inkscape.output.svgz.inkscape"
   inkscape:export-filename="/home/diau/svn/playground-plasma/desktoptheme/air/widgets/button.png"
   inkscape:export-xdpi="90"
   inkscape:export-ydpi="90"
   version="1.0">
  <sodipodi:namedview
     inkscape:window-height="957"
     inkscape:window-width="994"
     inkscape:pageshadow="2"
     inkscape:pageopacity="0.65490196"
     guidetolerance="10.0"
     gridtolerance="10.0"
     objecttolerance="10.0"
     borderopacity="1.0"
     bordercolor="#666666"
     pagecolor="#888888"
     id="base"
     inkscape:zoom="7.9111111"
     inkscape:cx="30"
     inkscape:cy="60.933367"
     inkscape:window-x="778"
     inkscape:window-y="68"
     inkscape:current-layer="svg2"
     showgrid="true"
     showguides="true"
     inkscape:guide-bbox="true"
     width="97px"
     height="27px"
     inkscape:snap-bbox="true"
     inkscape:object-nodes="false"
     inkscape:window-maximized="0">
    <inkscape:grid
       enabled="true"
       visible="true"
       id="grid5592"
       type="xygrid"
       empspacing="5"
       snapvisiblegridlinesonly="true" />
  </sodipodi:namedview>
  <metadata
     id="metadata7">
    <rdf:RDF>
      <cc:Work
         rdf:about="">
        <dc:format>image/svg+xml</dc:format>
        <dc:type
           rdf:resource="http://purl.org/dc/dcmitype/StillImage" />
        <dc:title></dc:title>
      </cc:Work>
      <cc:Work
         rdf:about="">
        <dc:format>image/svg+xml</dc:format>
        <dc:type
           rdf:resource="http://purl.org/dc/dcmitype/StillImage" />
      </cc:Work>
      <cc:Work
         rdf:about="">
        <dc:format>image/svg+xml</dc:format>
        <dc:type
           rdf:resource="http://purl.org/dc/dcmitype/StillImage" />
      </cc:Work>
    </rdf:RDF>
  </metadata>
  <defs
     id="defs5">
    <inkscape:perspective
       sodipodi:type="inkscape:persp3d"
       inkscape:vp_x="0 : 45 : 1"
       inkscape:vp_y="0 : 1000 : 0"
       inkscape:vp_z="60 : 45 : 1"
       inkscape:persp3d-origin="30 : 30 : 1"
       id="perspective209" />
    <linearGradient
       id="linearGradient4950">
      <stop
         style="stop-color:#000000;stop-opacity:0.72661871;"
         offset="0"
         id="stop4952" />
      <stop
         style="stop-color:#ffffff;stop-opacity:0;"
         offset="1"
         id="stop4954" />
    </linearGradient>
    <linearGradient
       id="linearGradient3340">
      <stop
         id="stop3342"
         offset="0"
         style="stop-color:#8a8a8a;stop-opacity:1;" />
      <stop
         id="stop3344"
         offset="1"
         style="stop-color:#727272;stop-opacity:0.58431375;" />
    </linearGradient>
    <linearGradient
       id="linearGradient4157">
      <stop
         style="stop-color:#515151;stop-opacity:1;"
         offset="0"
         id="stop4159" />
      <stop
         style="stop-color:#272727;stop-opacity:1;"
         offset="1"
         id="stop4161" />
    </linearGradient>
    <linearGradient
       inkscape:collect="always"
       xlink:href="#linearGradient4157"
       id="linearGradient3500"
       gradientUnits="userSpaceOnUse"
       gradientTransform="translate(-286,-37)"
       x1="304.47833"
       y1="162.80251"
       x2="304.47833"
       y2="187.04779" />
    <linearGradient
       inkscape:collect="always"
       xlink:href="#linearGradient4157"
       id="linearGradient3504"
       gradientUnits="userSpaceOnUse"
       gradientTransform="translate(-286,-37)"
       x1="304.47833"
       y1="160.99876"
       x2="304.47833"
       y2="185.01158" />
    <linearGradient
       inkscape:collect="always"
       xlink:href="#linearGradient4157"
       id="linearGradient3512"
       gradientUnits="userSpaceOnUse"
       gradientTransform="translate(-286,-37)"
       x1="304.47833"
       y1="164.99854"
       x2="304.47833"
       y2="189.00134" />
    <linearGradient
       inkscape:collect="always"
       xlink:href="#linearGradient4157"
       id="linearGradient3514"
       gradientUnits="userSpaceOnUse"
       gradientTransform="matrix(0.7413793,0,0,1,-208,-147)"
       x1="304.47833"
       y1="162.80251"
       x2="304.47833"
       y2="187.04779" />
    <linearGradient
       inkscape:collect="always"
       xlink:href="#linearGradient4157"
       id="linearGradient14560"
       gradientUnits="userSpaceOnUse"
       gradientTransform="translate(-286,-37)"
       x1="304.47833"
       y1="162.80251"
       x2="304.47833"
       y2="187.04779" />
    <linearGradient
       inkscape:collect="always"
       xlink:href="#linearGradient3340"
       id="linearGradient2568"
       gradientUnits="userSpaceOnUse"
       gradientTransform="matrix(0.5000742,0,0,1,-142.02152,-37)"
       x1="291.99969"
       y1="164"
       x2="291.99969"
       y2="181" />
    <linearGradient
       inkscape:collect="always"
       xlink:href="#linearGradient3340"
       id="linearGradient3348"
       gradientUnits="userSpaceOnUse"
       gradientTransform="matrix(1,0,0,0.5000744,-286,53.486676)"
       x1="304.82123"
       y1="147.00478"
       x2="304.82123"
       y2="181" />
    <linearGradient
       inkscape:collect="always"
       xlink:href="#linearGradient3340"
       id="linearGradient3370"
       gradientUnits="userSpaceOnUse"
       gradientTransform="matrix(1,0,0,0.5000744,-286,44.987644)"
       x1="304.82123"
       y1="164.00031"
       x2="304.82123"
       y2="197.99525" />
    <linearGradient
       inkscape:collect="always"
       xlink:href="#linearGradient3340"
       id="linearGradient3374"
       gradientUnits="userSpaceOnUse"
       gradientTransform="translate(-286,-37)"
       x1="304"
       y1="164"
       x2="304"
       y2="181" />
    <linearGradient
       inkscape:collect="always"
       xlink:href="#linearGradient4157"
       id="linearGradient4636"
       gradientUnits="userSpaceOnUse"
       gradientTransform="translate(-286,-37)"
       x1="292.39999"
       y1="175.60001"
       x2="292.39999"
       y2="161.2" />
    <linearGradient
       inkscape:collect="always"
       xlink:href="#linearGradient3340"
       id="linearGradient4638"
       gradientUnits="userSpaceOnUse"
       gradientTransform="translate(-286,-37)"
       x1="289.39999"
       y1="175"
       x2="289.39999"
       y2="164.8" />
    <linearGradient
       inkscape:collect="always"
       xlink:href="#linearGradient4157"
       id="linearGradient4713"
       gradientUnits="userSpaceOnUse"
       gradientTransform="translate(-286,-37)"
       x1="304.47833"
       y1="162.80251"
       x2="304.47833"
       y2="187.04779" />
    <linearGradient
       inkscape:collect="always"
       xlink:href="#linearGradient3340"
       id="linearGradient4715"
       gradientUnits="userSpaceOnUse"
       gradientTransform="translate(-286,-37)"
       x1="304"
       y1="164"
       x2="304"
       y2="181" />
    <linearGradient
       inkscape:collect="always"
       xlink:href="#linearGradient4157"
       id="linearGradient4717"
       gradientUnits="userSpaceOnUse"
       gradientTransform="translate(-286,-37)"
       x1="304.47833"
       y1="162.80251"
       x2="304.47833"
       y2="187.04779" />
    <linearGradient
       inkscape:collect="always"
       xlink:href="#linearGradient3340"
       id="linearGradient4719"
       gradientUnits="userSpaceOnUse"
       gradientTransform="matrix(0.5000742,0,0,1,-142.02152,-37)"
       x1="291.99969"
       y1="164"
       x2="291.99969"
       y2="181" />
    <linearGradient
       inkscape:collect="always"
       xlink:href="#linearGradient4157"
       id="linearGradient4721"
       gradientUnits="userSpaceOnUse"
       gradientTransform="translate(-286,-37)"
       x1="292.39999"
       y1="175.60001"
       x2="292.39999"
       y2="161.2" />
    <linearGradient
       inkscape:collect="always"
       xlink:href="#linearGradient3340"
       id="linearGradient4723"
       gradientUnits="userSpaceOnUse"
       gradientTransform="translate(-286,-37)"
       x1="289.39999"
       y1="175"
       x2="289.39999"
       y2="164.8" />
    <linearGradient
       inkscape:collect="always"
       xlink:href="#linearGradient4157"
       id="linearGradient4927"
       gradientUnits="userSpaceOnUse"
       gradientTransform="matrix(0.7413793,0,0,-1,-208,223)"
       x1="304.47833"
       y1="162.80251"
       x2="304.47833"
       y2="187.04779" />
    <linearGradient
       inkscape:collect="always"
       xlink:href="#linearGradient4157"
       id="linearGradient4946"
       gradientUnits="userSpaceOnUse"
       gradientTransform="matrix(1.6666829,0,0,-1,-537.00448,223)"
       x1="304.47833"
       y1="162.80251"
       x2="304.47833"
       y2="187.04779" />
    <linearGradient
       inkscape:collect="always"
       xlink:href="#linearGradient4950"
       id="linearGradient4956"
       x1="-54"
       y1="50.5"
       x2="-52"
       y2="50.5"
       gradientUnits="userSpaceOnUse"
       gradientTransform="matrix(2,0,0,1,52,0)" />
    <linearGradient
       inkscape:collect="always"
       xlink:href="#linearGradient4950"
       id="linearGradient4990"
       gradientUnits="userSpaceOnUse"
       x1="-54"
       y1="50.5"
       x2="-52"
       y2="50.5"
       gradientTransform="matrix(2,0,0,3.3076923,148,-136.53846)" />
    <linearGradient
       inkscape:collect="always"
       xlink:href="#linearGradient4950"
       id="linearGradient5002"
       gradientUnits="userSpaceOnUse"
       gradientTransform="matrix(2,0,0,3.3076923,47.000002,-136.53846)"
       x1="-54"
       y1="50.5"
       x2="-52"
       y2="50.5" />
    <linearGradient
       inkscape:collect="always"
       xlink:href="#linearGradient4950"
       id="linearGradient5056"
       gradientUnits="userSpaceOnUse"
       gradientTransform="matrix(0.88882324,0,0,-0.88888827,-57.555441,173.66659)"
       x1="2.8750834"
       y1="126.75"
       x2="2.8750834"
       y2="131.25" />
    <linearGradient
       inkscape:collect="always"
       xlink:href="#linearGradient4950"
       id="linearGradient5059"
       gradientUnits="userSpaceOnUse"
       gradientTransform="matrix(0.88882324,0,0,-0.88888827,-57.555441,173.66659)"
       x1="1.7500001"
       y1="127.875"
       x2="6.2503328"
       y2="127.875" />
    <linearGradient
       inkscape:collect="always"
       xlink:href="#linearGradient4157"
       id="linearGradient5066"
       gradientUnits="userSpaceOnUse"
       gradientTransform="matrix(1.3333333,0,0,-1.3333334,-440.6668,280.33335)"
       x1="299.75012"
       y1="166"
       x2="299.75012"
       y2="183.25" />
    <linearGradient
       inkscape:collect="always"
       xlink:href="#linearGradient4157"
       id="linearGradient5072"
       gradientUnits="userSpaceOnUse"
       gradientTransform="translate(-286,-37)"
       x1="304.47833"
       y1="164.99854"
       x2="304.47833"
       y2="189.00134" />
    <linearGradient
       inkscape:collect="always"
       xlink:href="#linearGradient4157"
       id="linearGradient5092"
       gradientUnits="userSpaceOnUse"
       gradientTransform="matrix(0.7421791,0,0,-1.6666005,-267.23209,340.65489)"
       x1="304.47833"
       y1="160.99876"
       x2="304.47833"
       y2="185.01158" />
    <linearGradient
       inkscape:collect="always"
       xlink:href="#linearGradient4950"
       id="linearGradient5098"
       gradientUnits="userSpaceOnUse"
       gradientTransform="matrix(0.88882324,0,0,0.88888827,-57.555293,-72.66659)"
       x1="2.8750834"
       y1="126.75"
       x2="2.8750834"
       y2="131.25" />
    <linearGradient
       inkscape:collect="always"
       xlink:href="#linearGradient4950"
       id="linearGradient5100"
       gradientUnits="userSpaceOnUse"
       gradientTransform="matrix(0.88882324,0,0,0.88888827,-57.555293,-72.66659)"
       x1="1.7500001"
       y1="127.875"
       x2="6.2503328"
       y2="127.875" />
    <linearGradient
       inkscape:collect="always"
       xlink:href="#linearGradient4157"
       id="linearGradient5102"
       gradientUnits="userSpaceOnUse"
       gradientTransform="matrix(1.3333333,0,0,1.3333334,-440.6668,-179.33335)"
       x1="292.25012"
       y1="179.5"
       x2="292.25012"
       y2="161.5" />
    <linearGradient
       inkscape:collect="always"
       xlink:href="#linearGradient4157"
       id="linearGradient5171"
       gradientUnits="userSpaceOnUse"
       gradientTransform="matrix(1.6666829,0,0,-1,-537.00448,223)"
       x1="304.47833"
       y1="162.80251"
       x2="304.47833"
       y2="187.04779" />
    <linearGradient
       inkscape:collect="always"
       xlink:href="#linearGradient4950"
       id="linearGradient5175"
       gradientUnits="userSpaceOnUse"
       gradientTransform="matrix(2,0,0,1,52,0)"
       x1="-54"
       y1="50.5"
       x2="-52"
       y2="50.5" />
    <linearGradient
       inkscape:collect="always"
       xlink:href="#linearGradient4157"
       id="linearGradient5177"
       gradientUnits="userSpaceOnUse"
       gradientTransform="matrix(1.3333333,0,0,1.3333334,-440.6668,-179.33335)"
       x1="292.25012"
       y1="179.5"
       x2="292.25012"
       y2="161.5" />
    <linearGradient
       inkscape:collect="always"
       xlink:href="#linearGradient4950"
       id="linearGradient5181"
       gradientUnits="userSpaceOnUse"
       gradientTransform="matrix(0.88882324,0,0,0.88888827,-57.555293,-72.66659)"
       x1="1.7500001"
       y1="127.875"
       x2="6.2503328"
       y2="127.875" />
    <linearGradient
       inkscape:collect="always"
       xlink:href="#linearGradient4950"
       id="linearGradient5183"
       gradientUnits="userSpaceOnUse"
       gradientTransform="matrix(0.88882324,0,0,0.88888827,-57.555293,-72.66659)"
       x1="2.8750834"
       y1="126.75"
       x2="2.8750834"
       y2="131.25" />
    <linearGradient
       inkscape:collect="always"
       xlink:href="#linearGradient4157"
       id="linearGradient5185"
       gradientUnits="userSpaceOnUse"
       gradientTransform="matrix(1.3333333,0,0,-1.3333334,-440.6668,280.33335)"
       x1="299.75012"
       y1="166"
       x2="299.75012"
       y2="183.25" />
    <linearGradient
       inkscape:collect="always"
       xlink:href="#linearGradient4950"
       id="linearGradient5189"
       gradientUnits="userSpaceOnUse"
       gradientTransform="matrix(0.88882324,0,0,-0.88888827,-57.555441,173.66659)"
       x1="1.7500001"
       y1="127.875"
       x2="6.2503328"
       y2="127.875" />
    <linearGradient
       inkscape:collect="always"
       xlink:href="#linearGradient4950"
       id="linearGradient5191"
       gradientUnits="userSpaceOnUse"
       gradientTransform="matrix(0.88882324,0,0,-0.88888827,-57.555441,173.66659)"
       x1="2.8750834"
       y1="126.75"
       x2="2.8750834"
       y2="131.25" />
    <linearGradient
       inkscape:collect="always"
       xlink:href="#linearGradient4157"
       id="linearGradient3097"
       gradientUnits="userSpaceOnUse"
       gradientTransform="matrix(0.7413793,0,0,1,-208,-171)"
       x1="304.47833"
       y1="162.80251"
       x2="304.47833"
       y2="187.04779" />
    <linearGradient
       inkscape:collect="always"
       xlink:href="#linearGradient4157"
       id="linearGradient3099"
       gradientUnits="userSpaceOnUse"
       gradientTransform="translate(-286,-37)"
       x1="304.47833"
       y1="160.99876"
       x2="304.47833"
       y2="185.01158" />
    <linearGradient
       inkscape:collect="always"
       xlink:href="#linearGradient3340"
       id="linearGradient3101"
       gradientUnits="userSpaceOnUse"
       gradientTransform="matrix(1,0,0,0.5000744,-286,53.486676)"
       x1="304.82123"
       y1="147.00478"
       x2="304.82123"
       y2="181" />
    <linearGradient
       inkscape:collect="always"
       xlink:href="#linearGradient4157"
       id="linearGradient3103"
       gradientUnits="userSpaceOnUse"
       gradientTransform="translate(-286,-37)"
       x1="304.47833"
       y1="162.80251"
       x2="304.47833"
       y2="187.04779" />
    <linearGradient
       inkscape:collect="always"
       xlink:href="#linearGradient3340"
       id="linearGradient3105"
       gradientUnits="userSpaceOnUse"
       gradientTransform="translate(-286,-37)"
       x1="304"
       y1="164"
       x2="304"
       y2="181" />
    <linearGradient
       inkscape:collect="always"
       xlink:href="#linearGradient4157"
       id="linearGradient3107"
       gradientUnits="userSpaceOnUse"
       gradientTransform="translate(-286,-37)"
       x1="304.47833"
       y1="162.80251"
       x2="304.47833"
       y2="187.04779" />
    <linearGradient
       inkscape:collect="always"
       xlink:href="#linearGradient3340"
       id="linearGradient3109"
       gradientUnits="userSpaceOnUse"
       gradientTransform="matrix(0.5000742,0,0,1,-142.02152,-37)"
       x1="291.99969"
       y1="164"
       x2="291.99969"
       y2="181" />
    <linearGradient
       inkscape:collect="always"
       xlink:href="#linearGradient4157"
       id="linearGradient3111"
       gradientUnits="userSpaceOnUse"
       gradientTransform="translate(-286,-37)"
       x1="304.47833"
       y1="164.99854"
       x2="304.47833"
       y2="189.00134" />
    <linearGradient
       inkscape:collect="always"
       xlink:href="#linearGradient3340"
       id="linearGradient3113"
       gradientUnits="userSpaceOnUse"
       gradientTransform="matrix(1,0,0,0.5000744,-286,44.987644)"
       x1="304.82123"
       y1="164.00031"
       x2="304.82123"
       y2="197.99525" />
    <linearGradient
       inkscape:collect="always"
       xlink:href="#linearGradient4157"
       id="linearGradient3115"
       gradientUnits="userSpaceOnUse"
       gradientTransform="translate(-286,-37)"
       x1="292.39999"
       y1="175.60001"
       x2="292.39999"
       y2="161.2" />
    <linearGradient
       inkscape:collect="always"
       xlink:href="#linearGradient3340"
       id="linearGradient3117"
       gradientUnits="userSpaceOnUse"
       gradientTransform="translate(-286,-37)"
       x1="289.39999"
       y1="175"
       x2="289.39999"
       y2="164.8" />
    <linearGradient
       inkscape:collect="always"
       xlink:href="#linearGradient4157"
       id="linearGradient3119"
       gradientUnits="userSpaceOnUse"
       gradientTransform="translate(-286,-37)"
       x1="304.47833"
       y1="162.80251"
       x2="304.47833"
       y2="187.04779" />
    <linearGradient
       inkscape:collect="always"
       xlink:href="#linearGradient3340"
       id="linearGradient3121"
       gradientUnits="userSpaceOnUse"
       gradientTransform="translate(-286,-37)"
       x1="304"
       y1="164"
       x2="304"
       y2="181" />
    <linearGradient
       inkscape:collect="always"
       xlink:href="#linearGradient4157"
       id="linearGradient3123"
       gradientUnits="userSpaceOnUse"
       gradientTransform="translate(-286,-37)"
       x1="304.47833"
       y1="162.80251"
       x2="304.47833"
       y2="187.04779" />
    <linearGradient
       inkscape:collect="always"
       xlink:href="#linearGradient3340"
       id="linearGradient3125"
       gradientUnits="userSpaceOnUse"
       gradientTransform="matrix(0.5000742,0,0,1,-142.02152,-37)"
       x1="291.99969"
       y1="164"
       x2="291.99969"
       y2="181" />
    <linearGradient
       inkscape:collect="always"
       xlink:href="#linearGradient4157"
       id="linearGradient3127"
       gradientUnits="userSpaceOnUse"
       gradientTransform="translate(-286,-37)"
       x1="292.39999"
       y1="175.60001"
       x2="292.39999"
       y2="161.2" />
    <linearGradient
       inkscape:collect="always"
       xlink:href="#linearGradient3340"
       id="linearGradient3129"
       gradientUnits="userSpaceOnUse"
       gradientTransform="translate(-286,-37)"
       x1="289.39999"
       y1="175"
       x2="289.39999"
       y2="164.8" />
  </defs>
  <path
     style="fill:url(#linearGradient3514);fill-opacity:1;fill-rule:nonzero;stroke:none"
     d="M 7,19 7,32 50,32 50,19 7,19 z"
     id="active-center"
     inkscape:label="#normal-center" />
  <rect
     style="opacity:1;fill:#4e9a06;fill-opacity:1;fill-rule:nonzero;stroke:none;stroke-width:6;stroke-linecap:round;stroke-linejoin:round;stroke-miterlimit:4;stroke-dasharray:none;stroke-dashoffset:0;stroke-opacity:1"
     id="hint-stretch-borders"
     width="13.000001"
     height="10.000001"
     x="-14.555456"
     y="-12.661167"
     ry="0" />
  <g
     id="active-bottom"
     transform="translate(1,13)"
     inkscape:label="#normal-bottom">
    <g
       transform="matrix(0.7421791,0,0,1,3.0312837,-122)"
       id="pushbutton-normal-bottom">
      <path
         style="fill:url(#linearGradient3504);fill-opacity:1;fill-rule:nonzero;stroke:none"
         d="m 4,141 0,3 c 0.021694,6.7e-4 0.040639,0 0.0625,0 l 57.875,0 c 0.02186,0 0.04081,6.7e-4 0.0625,0 l 0,-3 -58,0 z"
         id="path3397"
         sodipodi:nodetypes="ccccccc" />
      <path
         id="path3346"
         d="m 4,143 0,1.00015 c 0.021694,3.3e-4 0.040639,0 0.0625,0 l 57.875,0 c 0.02186,0 0.04081,3.3e-4 0.0625,0 L 62,143 4,143 z"
         style="fill:url(#linearGradient3348);fill-opacity:1;fill-rule:nonzero;stroke:none" />
    </g>
    <rect
       style="fill:#000000;fill-opacity:0.25490196;stroke:none"
       id="rect4767"
       width="43"
       height="1"
       x="6"
       y="22" />
  </g>
  <g
     id="active-topleft"
     transform="matrix(1.3333333,0,0,1.3333333,-1,9.666667)"
     inkscape:label="#normal-topleft">
    <g
       transform="translate(2,-122)"
       id="pushbutton-normal-topleft">
      <path
         style="fill:url(#linearGradient14560);fill-opacity:1;fill-rule:nonzero;stroke:none"
         d="m 4,126.75 c -1.1999999,0 -2.2499999,1.05 -2.2499999,2.25 L 4,129 4,126.75 z"
         id="path3450"
         sodipodi:nodetypes="cccc" />
      <path
         sodipodi:nodetypes="ccccc"
         id="path3372"
         d="m 4.0000002,126.75 c -1.1999999,0 -2.2500001,1.05 -2.2500001,2.25 l 0.75,0 c 0,-0.90051 0.6155563,-1.5 1.5000001,-1.5 l 0,-0.75 z"
         style="fill:url(#linearGradient3374);fill-opacity:1;fill-rule:nonzero;stroke:none" />
    </g>
    <path
       style="fill:#000000;fill-opacity:0.25490196;fill-rule:nonzero;stroke:none"
       d="M 6,4 6,4.7500002 C 4.8000001,4.7500002 3.7500001,5.8000001 3.7500001,7 L 3,7 C 3,5.34375 4.265625,4 6,4 z"
       id="path4769"
       sodipodi:nodetypes="ccccc" />
  </g>
  <g
     id="active-left"
     transform="translate(1.484e-4,12)"
     inkscape:label="#normal-left">
    <g
       transform="translate(2,-122)"
       id="pushbutton-normal-left">
      <path
         style="fill:url(#linearGradient3500);fill-opacity:1;fill-rule:nonzero;stroke:none"
         d="m 2,129 c -6.681e-4,0.0217 0,0.0406 0,0.0625 l 0,12.875 c 0,0.0219 -6.681e-4,0.0408 0,0.0625 l 2.9998516,0 0,-13 L 2,129 z"
         id="path3401"
         sodipodi:nodetypes="ccccccc" />
      <path
         id="path2566"
         d="m 1.9998516,129 c -3.341e-4,0.0217 0,0.0406 0,0.0625 l 0,12.875 c 0,0.0219 -3.341e-4,0.0408 0,0.0625 L 3,142 3,129 1.9998516,129 z"
         style="fill:url(#linearGradient2568);fill-opacity:1;fill-rule:nonzero;stroke:none" />
    </g>
    <rect
       style="fill:#000000;fill-opacity:0.25490196;stroke:none"
       id="rect4773"
       width="1"
       height="13"
       x="3"
       y="7" />
  </g>
  <g
     id="active-top"
     transform="translate(0.9999999,11)"
     inkscape:label="#normal-top">
    <g
       transform="matrix(0.7421791,0,0,1,3.0312837,-122)"
       id="pushbutton-normal-top">
      <path
         style="fill:url(#linearGradient3512);fill-opacity:1;fill-rule:nonzero;stroke:none"
         d="m 4,127 0,3 58,0 0,-3 c -0.02169,-6.7e-4 -0.04064,0 -0.0625,0 l -57.875,0 C 4.040639,127 4.021694,126.99933 4,127 z"
         id="path3389"
         sodipodi:nodetypes="ccccccc" />
      <path
         id="path3368"
         d="M 4,126.99985 4,128 l 58,0 0,-1.00015 c -0.02169,-3.3e-4 -0.04064,0 -0.0625,0 l -57.875,0 c -0.021861,0 -0.040806,-3.3e-4 -0.0625,0 z"
         style="fill:url(#linearGradient3370);fill-opacity:1;fill-rule:nonzero;stroke:none" />
    </g>
    <rect
       y="4"
       x="6"
       height="1"
       width="43"
       id="rect4775"
       style="fill:#000000;fill-opacity:0.25490196;stroke:none" />
  </g>
  <g
     transform="matrix(1.3333333,0,0,-1.3333334,-1,41.333334)"
     id="active-bottomleft"
     inkscape:label="#normal-bottomleft">
    <g
       id="g4628"
       transform="translate(2,-122)">
      <path
         id="path4630"
         d="m 4,126.75 c -1.1999999,0 -2.2499999,1.05 -2.2499999,2.25 L 4,129 4,126.75 z"
         style="fill:url(#linearGradient4636);fill-opacity:1;fill-rule:nonzero;stroke:none"
         sodipodi:nodetypes="cccc" />
      <path
         style="fill:url(#linearGradient4638);fill-opacity:1;fill-rule:nonzero;stroke:none"
         d="m 4,126.75 c -1.1999999,0 -2.2499999,1.05 -2.2499999,2.25 l 0.75,0 c 0,-0.90051 0.6155561,-1.5 1.4999999,-1.5 l 0,-0.75 z"
         id="path4632"
         sodipodi:nodetypes="ccccc" />
    </g>
    <path
       sodipodi:nodetypes="ccccc"
       id="path4634"
       d="M 6,4 6,4.7500003 C 4.8000001,4.7500003 3.7500001,5.8000001 3.7500001,7 L 3,7 C 3,5.34375 4.265625,4 6,4 z"
       style="fill:#000000;fill-opacity:0.25490196;fill-rule:nonzero;stroke:none" />
  </g>
  <g
     transform="matrix(-1.3333333,0,0,1.3333333,58.000148,9.666667)"
     id="active-topright"
     inkscape:label="#normal-topright">
    <g
       id="g4685"
       transform="translate(2,-122)">
      <path
         sodipodi:nodetypes="cccc"
         id="path4687"
         d="m 4,126.75 c -1.1999999,0 -2.2499999,1.05 -2.2499999,2.25 L 4,129 4,126.75 z"
         style="fill:url(#linearGradient4713);fill-opacity:1;fill-rule:nonzero;stroke:none" />
      <path
         style="fill:url(#linearGradient4715);fill-opacity:1;fill-rule:nonzero;stroke:none"
         d="m 4.0000002,126.75 c -1.1999999,0 -2.2500001,1.05 -2.2500001,2.25 l 0.75,0 c 0,-0.90051 0.6155563,-1.5 1.5000001,-1.5 l 0,-0.75 z"
         id="path4689"
         sodipodi:nodetypes="ccccc" />
    </g>
    <path
       sodipodi:nodetypes="ccccc"
       id="path4691"
       d="M 6,4 6,4.7500002 C 4.8000001,4.7500002 3.7500001,5.8000001 3.7500001,7 L 3,7 C 3,5.34375 4.265625,4 6,4 z"
       style="fill:#000000;fill-opacity:0.25490196;fill-rule:nonzero;stroke:none" />
  </g>
  <g
     transform="matrix(-1,0,0,1,57,12)"
     id="active-right"
     inkscape:label="#normal-right">
    <g
       id="g4695"
       transform="translate(2,-122)">
      <path
         sodipodi:nodetypes="ccccccc"
         id="path4697"
         d="m 2,129 c -6.681e-4,0.0217 0,0.0406 0,0.0625 l 0,12.875 c 0,0.0219 -6.681e-4,0.0408 0,0.0625 l 2.9998516,0 0,-13 L 2,129 z"
         style="fill:url(#linearGradient4717);fill-opacity:1;fill-rule:nonzero;stroke:none" />
      <path
         style="fill:url(#linearGradient4719);fill-opacity:1;fill-rule:nonzero;stroke:none"
         d="m 1.9998516,129 c -3.341e-4,0.0217 0,0.0406 0,0.0625 l 0,12.875 c 0,0.0219 -3.341e-4,0.0408 0,0.0625 L 3,142 3,129 1.9998516,129 z"
         id="path4699" />
    </g>
    <rect
       y="7"
       x="3"
       height="13"
       width="1"
       id="rect4701"
       style="fill:#000000;fill-opacity:0.25490196;stroke:none" />
  </g>
  <g
     id="active-bottomright"
     transform="matrix(-1.3333333,0,0,-1.3333334,58.000148,41.333334)"
     inkscape:label="#normal-bottomright">
    <g
       transform="translate(2,-122)"
       id="g4705">
      <path
         sodipodi:nodetypes="cccc"
         style="fill:url(#linearGradient4721);fill-opacity:1;fill-rule:nonzero;stroke:none"
         d="m 4,126.75 c -1.1999999,0 -2.2499999,1.05 -2.2499999,2.25 L 4,129 4,126.75 z"
         id="path4707" />
      <path
         sodipodi:nodetypes="ccccc"
         id="path4709"
         d="m 4,126.75 c -1.1999999,0 -2.2499999,1.05 -2.2499999,2.25 l 0.75,0 c 0,-0.90051 0.6155561,-1.5 1.4999999,-1.5 l 0,-0.75 z"
         style="fill:url(#linearGradient4723);fill-opacity:1;fill-rule:nonzero;stroke:none" />
    </g>
    <path
       style="fill:#000000;fill-opacity:0.25490196;fill-rule:nonzero;stroke:none"
       d="M 6,4 6,4.7500003 C 4.8000001,4.7500003 3.7500001,5.8000001 3.7500001,7 L 3,7 C 3,5.34375 4.265625,4 6,4 z"
       id="path4711"
       sodipodi:nodetypes="ccccc" />
  </g>
  <path
     id="down-center"
     d="M 7,57 7,44 50,44 50,57 7,57 z"
     style="fill:url(#linearGradient4927);fill-opacity:1;fill-rule:nonzero;stroke:none"
     inkscape:label="#pressed-center" />
  <g
     id="down-left"
     transform="translate(59.000148,0)"
     inkscape:label="#pressed-left">
    <path
       style="fill:url(#linearGradient4946);fill-opacity:1;fill-rule:nonzero;stroke:none"
       d="m -56.999802,57 c -0.0011,-0.0217 0,-0.0406 0,-0.0625 l 0,-12.875 c 0,-0.0219 -0.0011,-0.0408 0,-0.0625 L -52,44 l 0,13 -4.999802,0 z"
       id="path4751"
       sodipodi:nodetypes="ccccccc" />
    <path
       id="path4753"
       d="m -57.000148,57 c -3.34e-4,-0.0217 0,-0.0406 0,-0.0625 l 0,-12.875 c 0,-0.0219 -3.34e-4,-0.0408 0,-0.0625 L -56,44 l 0,13 -1.000148,0 z"
       style="fill:#000000;fill-opacity:0.47058824;fill-rule:nonzero;stroke:none" />
    <rect
       transform="scale(1,-1)"
       y="-57"
       x="-58"
       height="13"
       width="1"
       id="rect4755"
       style="fill:#000000;fill-opacity:0.03921569;stroke:none" />
    <rect
       y="44"
       x="-56"
       height="13"
       width="4"
       id="rect4948"
       style="opacity:0.45;fill:url(#linearGradient4956);fill-opacity:1;stroke:none" />
  </g>
  <g
     id="down-topleft"
     transform="translate(59.000148,0)"
     inkscape:label="#pressed-topleft">
    <path
       id="path4772"
       d="m -54.000148,38.999998 c -1.6,0 -3,1.400001 -3,3.000001 L -57,44 l 5,0 0,-5 -2.000148,-2e-6 z"
       style="fill:url(#linearGradient5102);fill-opacity:1;fill-rule:nonzero;stroke:none"
       sodipodi:nodetypes="cccccc" />
    <path
       style="fill:#000000;fill-opacity:0.47058824;fill-rule:nonzero;stroke:none"
       d="m -54.000148,38.999998 c -1.6,0 -3,1.400001 -3,3.000001 l 1.48e-4,2 1,0 -1.48e-4,-2 c 0,-1.20068 0.820742,-2.000001 2,-2.000001 l 2.000148,0 0,-1 -2.000148,0 z"
       id="path4774"
       sodipodi:nodetypes="ccccccccc" />
    <path
       style="fill:#000000;fill-opacity:0.03921569;fill-rule:nonzero;stroke:none"
       d="M -54.000148,38 -52,38 l 0,1 -2.000148,0 c -1.6,0 -3,1.4 -3,3 L -57,44 l -1,0 -1.48e-4,-2 c 0,-2.208334 1.6875,-4 4,-4 z"
       id="path4776"
       sodipodi:nodetypes="ccccccccc" />
    <path
       sodipodi:nodetypes="cccccc"
       style="opacity:0.45;fill:url(#linearGradient5100);fill-opacity:1;fill-rule:nonzero;stroke:none"
       d="m -54,40 c -1.1994,0 -1.999852,0.808328 -1.999852,1.999998 l 0,2 4,0 0,-4 L -54,40 z"
       id="path4968" />
    <path
       id="path4984"
       d="m -54,40 c -1.1994,0 -1.999852,0.808328 -1.999852,1.999998 l 0,2 4,0 0,-4 L -54,40 z"
       style="opacity:0.45;fill:url(#linearGradient5098);fill-opacity:1;fill-rule:nonzero;stroke:none"
       sodipodi:nodetypes="cccccc" />
  </g>
  <g
     id="down-top"
     transform="translate(59.000148,0)"
     inkscape:label="#pressed-top">
    <path
       style="fill:url(#linearGradient5092);fill-opacity:1;fill-rule:nonzero;stroke:none"
       d="m -52.000148,44 0,-4.999802 c 0.0161,-0.0011 0.03016,0 0.04639,0 l 42.953615,0 c 0.016224,0 0.030288,-0.0011 0.046386,0 l 0,4.999802 -43.046388,0 z"
       id="path4731"
       sodipodi:nodetypes="ccccccc" />
    <path
       id="path4733"
       d="m -52.000148,40 0,-1.00015 c 0.0161,-3.3e-4 0.03016,0 0.04639,0 l 42.953615,0 c 0.016224,0 0.030288,-3.3e-4 0.046386,0 l 0,1.00015 -43.046388,0 z"
       style="fill:#000000;fill-opacity:0.47058824;fill-rule:nonzero;stroke:none" />
    <rect
       transform="scale(1,-1)"
       y="-39"
       x="-52.000149"
       height="1"
       width="43"
       id="rect4735"
       style="fill:#000000;fill-opacity:0.03921569;stroke:none" />
    <rect
       transform="matrix(0,1,-1,0,0,0)"
       style="opacity:0.45;fill:url(#linearGradient4990);fill-opacity:1;stroke:none"
       id="rect4988"
       width="4"
       height="43"
       x="40"
       y="9" />
  </g>
  <g
     id="down-bottom"
     transform="translate(59.000148,0)"
     inkscape:label="#pressed-bottom">
    <g
       id="g4759"
       transform="matrix(0.7421791,0,0,-1.6665505,-54.968864,273.65157)">
      <path
         sodipodi:nodetypes="ccccccc"
         id="path4761"
         d="m 4,127 0,3 58,0 0,-3 c -0.02169,-6.7e-4 -0.04064,0 -0.0625,0 l -57.875,0 C 4.040639,127 4.021694,126.99933 4,127 z"
         style="fill:url(#linearGradient5072);fill-opacity:1;fill-rule:nonzero;stroke:none" />
      <path
         style="fill:#000000;fill-opacity:0.47058824;fill-rule:nonzero;stroke:none"
         d="m 4,126.99979 0,0.60005 58,0 0,-0.60005 c -0.02169,-2e-4 -0.04064,0 -0.0625,0 l -57.875,0 c -0.021861,0 -0.040806,-2e-4 -0.0625,0 z"
         id="path4763" />
    </g>
    <rect
       transform="scale(1,-1)"
       style="fill:#000000;fill-opacity:0.03921569;stroke:none"
       id="rect4765"
       width="43"
       height="1"
       x="-52.000149"
       y="-62.999851" />
    <rect
       y="9"
       x="-61"
       height="43"
       width="4"
       id="rect5000"
       style="opacity:0.35;fill:url(#linearGradient5002);fill-opacity:1;stroke:none"
       transform="matrix(0,-1,-1,0,0,0)" />
  </g>
  <g
     id="down-bottomleft"
     transform="translate(59.000148,0)"
     inkscape:label="#pressed-bottomleft">
    <path
       sodipodi:nodetypes="cccccc"
       style="fill:url(#linearGradient5066);fill-opacity:1;fill-rule:nonzero;stroke:none"
       d="m -54.000148,62.000002 c -1.6,0 -3,-1.400001 -3,-3.000001 L -57,57 l 5,0 0,5 -2.000148,2e-6 z"
       id="path5030" />
    <path
       sodipodi:nodetypes="ccccccccc"
       id="path5032"
       d="m -54.000148,62.000002 c -1.6,0 -3,-1.400001 -3,-3.000001 l 1.48e-4,-2 1,0 -1.48e-4,2 c 0,1.20068 0.820742,2.000001 2,2.000001 l 2.000148,0 0,1 -2.000148,0 z"
       style="fill:#000000;fill-opacity:0.47058824;fill-rule:nonzero;stroke:none" />
    <path
       sodipodi:nodetypes="ccccccccc"
       id="path5034"
       d="M -54.000148,63 -52,63 l 0,-1 -2.000148,0 c -1.6,0 -3,-1.4 -3,-3 L -57,57 l -1,0 -1.48e-4,2 c 0,2.208334 1.6875,4 4,4 z"
       style="fill:#000000;fill-opacity:0.03921569;fill-rule:nonzero;stroke:none" />
    <path
       id="path5036"
       d="M -54.000148,60.999998 C -55.199548,60.999998 -56,60.19167 -56,59 l 0,-2 4,0 0,4 -2.000148,-2e-6 z"
       style="opacity:0.45;fill:url(#linearGradient5059);fill-opacity:1;fill-rule:nonzero;stroke:none"
       sodipodi:nodetypes="cccccc" />
    <path
       sodipodi:nodetypes="cccccc"
       style="opacity:0.35;fill:url(#linearGradient5056);fill-opacity:1;fill-rule:nonzero;stroke:none"
       d="M -54.000148,60.999998 C -55.199548,60.999998 -56,60.19167 -56,59 l 0,-2 4,0 0,4 -2.000148,-2e-6 z"
       id="path5038" />
  </g>
  <g
     id="down-right"
     transform="matrix(-1,0,0,1,-1.999704,0)"
     inkscape:label="#pressed-right">
    <path
       sodipodi:nodetypes="ccccccc"
       id="path5139"
       d="m -56.999802,57 c -0.0011,-0.0217 0,-0.0406 0,-0.0625 l 0,-12.875 c 0,-0.0219 -0.0011,-0.0408 0,-0.0625 L -52,44 l 0,13 -4.999802,0 z"
       style="fill:url(#linearGradient5171);fill-opacity:1;fill-rule:nonzero;stroke:none" />
    <path
       style="fill:#000000;fill-opacity:0.47058824;fill-rule:nonzero;stroke:none"
       d="m -57.000148,57 c -3.34e-4,-0.0217 0,-0.0406 0,-0.0625 l 0,-12.875 c 0,-0.0219 -3.34e-4,-0.0408 0,-0.0625 L -56,44 l 0,13 -1.000148,0 z"
       id="path5141" />
    <rect
       style="fill:#000000;fill-opacity:0.03921569;stroke:none"
       id="rect5143"
       width="1"
       height="13"
       x="-58"
       y="-57"
       transform="scale(1,-1)" />
    <rect
       style="opacity:0.45;fill:url(#linearGradient5175);fill-opacity:1;stroke:none"
       id="rect5145"
       width="4"
       height="13"
       x="-56"
       y="44" />
  </g>
  <g
     id="down-topright"
     transform="matrix(-1,0,0,1,-1.999704,0)"
     inkscape:label="#pressed-topright">
    <path
       sodipodi:nodetypes="cccccc"
       style="fill:url(#linearGradient5177);fill-opacity:1;fill-rule:nonzero;stroke:none"
       d="m -54.000148,38.999998 c -1.6,0 -3,1.400001 -3,3.000001 L -57,44 l 5,0 0,-5 -2.000148,-2e-6 z"
       id="path5149" />
    <path
       sodipodi:nodetypes="ccccccccc"
       id="path5151"
       d="m -54.000148,38.999998 c -1.6,0 -3,1.400001 -3,3.000001 l 1.48e-4,2 1,0 -1.48e-4,-2 c 0,-1.20068 0.820742,-2.000001 2,-2.000001 l 2.000148,0 0,-1 -2.000148,0 z"
       style="fill:#000000;fill-opacity:0.47058824;fill-rule:nonzero;stroke:none" />
    <path
       sodipodi:nodetypes="ccccccccc"
       id="path5153"
       d="M -54.000148,38 -52,38 l 0,1 -2.000148,0 c -1.6,0 -3,1.4 -3,3 L -57,44 l -1,0 -1.48e-4,-2 c 0,-2.208334 1.6875,-4 4,-4 z"
       style="fill:#000000;fill-opacity:0.03921569;fill-rule:nonzero;stroke:none" />
    <path
       id="path5155"
       d="m -54,40 c -1.1994,0 -1.999852,0.808328 -1.999852,1.999998 l 0,2 4,0 0,-4 L -54,40 z"
       style="opacity:0.45;fill:url(#linearGradient5181);fill-opacity:1;fill-rule:nonzero;stroke:none"
       sodipodi:nodetypes="cccccc" />
    <path
       sodipodi:nodetypes="cccccc"
       style="opacity:0.45;fill:url(#linearGradient5183);fill-opacity:1;fill-rule:nonzero;stroke:none"
       d="m -54,40 c -1.1994,0 -1.999852,0.808328 -1.999852,1.999998 l 0,2 4,0 0,-4 L -54,40 z"
       id="path5157" />
  </g>
  <g
     id="down-bottomright"
     transform="matrix(-1,0,0,1,-1.999704,0)"
     inkscape:label="#pressed-bottomright">
    <path
       id="path5161"
       d="m -54.000148,62.000002 c -1.6,0 -3,-1.400001 -3,-3.000001 L -57,57 l 5,0 0,5 -2.000148,2e-6 z"
       style="fill:url(#linearGradient5185);fill-opacity:1;fill-rule:nonzero;stroke:none"
       sodipodi:nodetypes="cccccc" />
    <path
       style="fill:#000000;fill-opacity:0.47058824;fill-rule:nonzero;stroke:none"
       d="m -54.000148,62.000002 c -1.6,0 -3,-1.400001 -3,-3.000001 l 1.48e-4,-2 1,0 -1.48e-4,2 c 0,1.20068 0.820742,2.000001 2,2.000001 l 2.000148,0 0,1 -2.000148,0 z"
       id="path5163"
       sodipodi:nodetypes="ccccccccc" />
    <path
       style="fill:#000000;fill-opacity:0.03921569;fill-rule:nonzero;stroke:none"
       d="M -54.000148,63 -52,63 l 0,-1 -2.000148,0 c -1.6,0 -3,-1.4 -3,-3 L -57,57 l -1,0 -1.48e-4,2 c 0,2.208334 1.6875,4 4,4 z"
       id="path5165"
       sodipodi:nodetypes="ccccccccc" />
    <path
       sodipodi:nodetypes="cccccc"
       style="opacity:0.45;fill:url(#linearGradient5189);fill-opacity:1;fill-rule:nonzero;stroke:none"
       d="M -54.000148,60.999998 C -55.199548,60.999998 -56,60.19167 -56,59 l 0,-2 4,0 0,4 -2.000148,-2e-6 z"
       id="path5167" />
    <path
       id="path5169"
       d="M -54.000148,60.999998 C -55.199548,60.999998 -56,60.19167 -56,59 l 0,-2 4,0 0,4 -2.000148,-2e-6 z"
       style="opacity:0.35;fill:url(#linearGradient5191);fill-opacity:1;fill-rule:nonzero;stroke:none"
       sodipodi:nodetypes="cccccc" />
  </g>
</svg>
